<?xml version="1.0" encoding="UTF-8"?>
<svg xmlns="http://www.w3.org/2000/svg" width="2000" height="2000" viewBox="0 0 2939 2800" fill="none">
  <path d="M2287.74 1512.16C2270.94 1530.17 2280.54 1552.98 2304.55 1552.98C2321.36 1552.98 2327.36 1546.98 2324.96 1532.57C2321.36 1510.96 2300.95 1500.16 2287.74 1512.16Z" fill="black"></path>
  <path d="M1442.58 5.51826C1410.17 17.5234 1396.96 55.9398 1414.97 88.3536C1432.98 121.968 1441.38 118.366 1424.57 82.3511C1407.77 43.9347 1430.58 13.9218 1472.59 18.7239C1537.42 25.927 1537.42 95.5567 1473.8 113.564C1448.58 120.767 1447.38 121.968 1470.19 123.168C1483.4 124.369 1505.01 113.564 1517.01 100.359C1560.23 52.3382 1505.01 -18.492 1442.58 5.51826Z" fill="black"></path>
  <path d="M2661.1 65.544C2649.1 71.5466 2639.5 83.5517 2639.5 90.7548C2639.5 97.9578 2650.3 94.3563 2663.51 82.3512C2713.93 36.7317 2789.56 103.96 2747.54 155.582C2723.53 183.194 2680.31 175.991 2652.7 138.775C2634.69 115.966 2629.89 112.364 2634.69 130.372C2652.7 184.395 2716.33 202.402 2751.14 162.785C2806.37 102.76 2731.93 23.5261 2661.1 65.544Z" fill="black"></path>
  <path d="M1967.21 100.36C1945.6 113.566 1962.41 150.782 1987.62 145.979C1999.62 143.578 2010.43 133.974 2012.83 123.17C2017.63 100.36 1990.02 85.9538 1967.21 100.36ZM2003.22 125.571C2003.22 131.573 1994.82 136.375 1985.22 136.375C1967.21 136.375 1961.21 121.969 1974.41 108.764C1984.02 99.1595 2003.22 109.964 2003.22 125.571Z" fill="black"></path>
  <path d="M1210.89 117.166C1192.88 139.976 1200.08 184.395 1224.09 200.001C1251.7 216.808 1304.53 200.001 1312.93 171.189C1329.74 119.567 1245.7 76.3484 1210.89 117.166ZM1296.12 131.572C1316.53 156.783 1296.12 189.197 1255.3 193.999C1230.09 197.6 1221.69 191.598 1215.69 167.587C1212.09 150.78 1212.09 131.572 1216.89 125.569C1228.89 106.361 1278.11 109.963 1296.12 131.572Z" fill="black"></path>
  <path d="M691.06 145.979C664.649 174.791 665.849 200.002 692.261 224.012C722.274 251.624 760.69 249.223 790.703 218.009C803.908 203.603 814.713 198.801 814.713 206.004C814.713 214.408 827.919 226.413 844.726 234.817C867.535 245.621 879.541 244.421 904.751 227.614C921.559 216.809 934.764 197.601 934.764 185.596C934.764 135.174 847.127 102.76 814.713 142.377C801.507 157.984 796.705 157.984 775.096 142.377C740.281 118.367 715.07 119.567 691.06 145.979ZM767.893 148.38C793.104 162.786 797.906 196.4 776.297 218.009C733.078 261.228 661.047 204.804 701.865 159.184C725.875 132.773 735.479 131.572 767.893 148.38ZM908.353 150.781C932.363 174.791 925.16 208.405 892.746 222.811C866.335 234.817 857.931 233.616 837.523 212.007C817.114 191.598 814.713 183.195 825.518 161.585C841.124 133.973 885.543 127.971 908.353 150.781Z" fill="black"></path>
  <path d="M1940.8 197.601C1904.78 218.01 1920.39 293.642 1961.2 292.442C1967.21 292.442 1963.6 286.439 1952.8 279.236C1905.98 252.825 1943.2 181.995 1990.02 208.406C2021.23 224.013 2022.43 262.429 1994.82 280.437C1974.41 293.642 1974.41 293.642 1994.82 287.64C2006.82 284.038 2020.03 280.437 2022.43 280.437C2024.83 280.437 2027.23 264.83 2027.23 246.822C2027.23 221.612 2018.83 208.406 1997.22 198.802C1961.2 181.995 1966.01 181.995 1940.8 197.601Z" fill="black"></path>
  <path d="M1607.05 220.411C1593.85 233.616 1583.04 255.226 1583.04 267.231C1583.04 291.241 1634.66 340.462 1659.87 340.462C1667.08 340.462 1655.07 329.657 1634.66 316.452C1613.05 303.246 1595.05 282.837 1595.05 270.832C1595.05 244.421 1631.06 208.406 1658.67 208.406C1707.89 208.406 1735.51 291.241 1694.69 315.251C1682.68 322.454 1679.08 328.457 1686.29 328.457C1706.69 328.457 1727.1 300.845 1727.1 272.033C1727.1 238.418 1687.49 196.4 1655.07 196.4C1641.87 196.4 1620.26 207.205 1607.05 220.411Z" fill="black"></path>
  <path d="M2701.92 239.618C2647.9 278.035 2681.51 364.472 2751.14 364.472C2787.16 364.472 2831.58 327.256 2831.58 298.443C2831.58 272.032 2777.55 220.41 2751.14 220.41C2739.14 220.41 2716.33 228.814 2701.92 239.618ZM2795.56 256.426C2808.77 269.631 2819.57 286.438 2819.57 294.842C2819.57 320.053 2779.95 352.467 2747.54 352.467C2707.92 352.467 2687.52 332.058 2687.52 290.04C2687.52 234.816 2752.34 213.207 2795.56 256.426Z" fill="black"></path>
  <path d="M929.967 254.025C926.365 260.027 935.969 263.629 950.375 263.629C965.982 262.428 976.787 269.631 976.787 280.436C976.787 291.24 965.982 298.443 949.175 297.243C932.368 297.243 926.365 300.844 933.568 308.048C953.977 328.456 988.792 311.649 988.792 280.436C988.792 258.827 981.589 249.222 962.38 246.821C949.175 244.42 933.568 248.022 929.967 254.025Z" fill="black"></path>
  <path d="M1369.35 270.833C1336.94 303.247 1372.95 377.678 1420.97 376.478C1426.98 375.277 1417.37 366.874 1399.36 357.27C1372.95 342.863 1365.75 332.059 1369.35 306.848C1371.75 280.437 1380.16 273.234 1408.97 270.833C1431.78 267.231 1448.59 273.234 1459.39 287.64C1467.79 299.645 1475 303.247 1475 297.244C1475 275.635 1446.18 256.427 1414.97 256.427C1398.16 256.427 1377.76 262.429 1369.35 270.833Z" fill="black"></path>
  <path d="M1186.87 310.449C1167.66 333.258 1179.67 364.472 1208.48 364.472C1245.7 364.472 1263.7 334.459 1240.89 311.649C1216.88 287.639 1206.08 287.639 1186.87 310.449ZM1234.89 322.454C1246.9 336.86 1245.7 341.662 1228.89 347.665C1206.08 357.269 1180.87 336.86 1191.67 317.652C1203.68 299.644 1216.88 300.845 1234.89 322.454Z" fill="black"></path>
  <path d="M1453.38 340.462C1444.98 353.668 1443.78 364.473 1449.78 364.473C1460.59 364.473 1478.6 328.457 1471.39 321.254C1470.19 318.853 1461.79 328.457 1453.38 340.462Z" fill="black"></path>
  <path d="M1994.82 372.875C1978.01 378.878 1973.21 419.695 1988.81 429.299C1994.82 432.901 1998.42 423.297 1998.42 408.89C1997.22 389.682 2004.42 382.479 2021.23 382.479C2038.04 382.479 2045.24 389.682 2044.04 410.091C2044.04 429.299 2046.44 434.101 2056.04 424.497C2082.45 398.086 2033.23 356.068 1994.82 372.875Z" fill="black"></path>
  <path d="M1105.24 390.884C1084.83 411.293 1087.23 442.506 1112.44 461.714C1130.45 477.321 1131.65 476.12 1117.25 458.113C1094.44 429.3 1110.04 388.483 1143.66 388.483C1202.48 388.483 1214.49 449.709 1160.46 472.519C1142.46 478.521 1140.06 483.323 1152.06 483.323C1172.47 484.524 1210.89 448.508 1210.89 428.1C1210.89 408.892 1168.87 376.478 1143.66 376.478C1130.45 376.478 1113.64 382.48 1105.24 390.884Z" fill="black"></path>
  <path d="M553.004 402.888C519.389 436.503 554.204 484.523 611.829 484.523C641.842 484.523 646.644 479.721 646.644 450.909C646.644 411.292 627.436 388.482 592.621 388.482C578.215 388.482 561.407 394.485 553.004 402.888ZM632.238 438.904C635.839 467.716 632.238 472.518 605.826 472.518C569.811 472.518 544.6 435.302 566.209 413.693C591.42 388.482 628.636 402.888 632.238 438.904Z" fill="black"></path>
  <path d="M2449.81 486.924C2413.8 522.939 2447.41 573.361 2503.83 566.158C2529.04 563.757 2538.65 555.353 2541.05 533.744C2548.25 485.723 2483.42 453.309 2449.81 486.924ZM2519.44 502.53C2541.05 527.741 2525.44 556.553 2489.43 556.553C2472.62 556.553 2455.81 548.15 2452.21 538.546C2443.81 518.137 2466.62 484.523 2489.43 484.523C2497.83 484.523 2511.04 492.926 2519.44 502.53Z" fill="black"></path>
  <path d="M1347.74 502.531C1338.14 526.541 1352.54 544.549 1378.95 544.549C1408.97 544.549 1420.97 524.14 1402.96 502.531C1383.76 479.721 1356.14 479.721 1347.74 502.531ZM1394.56 514.536C1395.76 520.539 1387.36 527.742 1376.55 530.143C1363.35 532.544 1354.94 526.541 1354.94 514.536C1354.94 494.127 1390.96 492.927 1394.56 514.536Z" fill="black"></path>
  <path d="M1914.38 502.532C1893.98 524.141 1878.37 567.359 1887.97 576.963C1891.57 581.765 1895.18 575.763 1895.18 563.758C1895.18 548.151 1899.98 545.75 1917.99 556.555C1931.19 562.557 1950.4 564.958 1960 561.357C1980.41 552.953 1986.41 514.537 1968.41 503.732C1962.4 498.93 1960 506.133 1963.61 519.339C1970.81 548.151 1948 562.557 1923.99 543.349C1908.38 531.344 1909.58 526.542 1926.39 507.334C1950.4 479.722 1940.8 476.12 1914.38 502.532Z" fill="black"></path>
  <path d="M2239.72 612.977C2234.92 616.579 2231.32 627.383 2231.32 636.987C2231.32 654.995 2262.53 658.597 2272.14 641.789C2280.54 628.584 2250.53 602.173 2239.72 612.977Z" fill="black"></path>
  <path d="M791.902 660.998C730.676 703.016 789.501 805.059 856.73 775.047C895.147 757.039 908.352 706.617 881.941 677.805C853.129 646.592 820.715 640.589 791.902 660.998ZM875.938 683.808C895.147 706.617 879.54 757.039 849.527 766.643C821.915 776.247 778.697 743.833 778.697 715.021C778.697 664.599 842.324 644.191 875.938 683.808Z" fill="black"></path>
  <path d="M126.822 669.401C117.218 693.412 149.632 725.826 173.642 716.221C200.054 706.617 189.249 659.797 159.236 654.995C144.83 652.594 130.424 659.797 126.822 669.401ZM178.444 682.607C178.444 692.211 170.041 700.615 160.437 700.615C150.833 700.615 142.429 692.211 142.429 682.607C142.429 673.003 150.833 664.599 160.437 664.599C170.041 664.599 178.444 673.003 178.444 682.607Z" fill="black"></path>
  <path d="M1276.91 700.615C1232.49 749.836 1305.72 817.065 1352.54 770.245C1374.15 748.636 1369.35 703.016 1344.14 688.61C1311.72 671.803 1302.12 673.003 1276.91 700.615ZM1340.54 699.415C1350.14 704.217 1354.94 722.224 1352.54 737.831C1347.74 773.847 1298.52 777.448 1278.11 745.034C1267.31 727.026 1269.71 719.823 1287.71 705.417C1315.33 686.209 1318.93 685.008 1340.54 699.415Z" fill="black"></path>
  <path d="M1060.82 784.651C1048.81 805.06 1084.83 837.474 1108.84 827.87C1119.64 824.268 1126.84 811.063 1124.44 800.258C1119.64 775.047 1072.82 764.243 1060.82 784.651ZM1112.44 799.058C1108.84 807.461 1099.23 814.664 1090.83 814.664C1082.43 814.664 1072.82 807.461 1070.42 799.058C1066.82 790.654 1075.22 784.651 1090.83 784.651C1106.44 784.651 1114.84 790.654 1112.44 799.058Z" fill="black"></path>
  <path d="M1993.62 919.109C1998.42 956.325 2057.25 959.926 2057.25 922.71C2057.25 904.703 2047.64 897.5 2023.63 895.098C1993.62 891.497 1990.02 895.098 1993.62 919.109ZM2051.24 922.71C2051.24 932.314 2040.44 940.718 2027.23 940.718C2014.03 940.718 2003.22 932.314 2003.22 922.71C2003.22 913.106 2014.03 904.703 2027.23 904.703C2040.44 904.703 2051.24 913.106 2051.24 922.71Z" fill="black"></path>
  <path d="M1477.4 925.112C1479.8 937.117 1494.2 947.922 1508.61 950.323C1531.42 953.924 1536.22 949.122 1532.62 932.315C1530.22 920.31 1515.81 909.505 1501.41 907.104C1478.6 903.503 1473.8 908.305 1477.4 925.112ZM1523.02 928.714C1523.02 934.716 1514.61 940.719 1505.01 940.719C1495.41 940.719 1487 934.716 1487 928.714C1487 921.511 1495.41 916.709 1505.01 916.709C1514.61 916.709 1523.02 921.511 1523.02 928.714Z" fill="black"></path>
  <path d="M2639.5 1030.76C2609.48 1066.77 2656.3 1119.6 2703.12 1101.59C2730.73 1091.98 2735.54 1066.77 2716.33 1037.96C2695.92 1009.15 2661.11 1005.55 2639.5 1030.76ZM2709.13 1058.37C2713.93 1091.98 2680.31 1106.39 2655.1 1081.18C2629.89 1055.97 2644.3 1022.35 2677.91 1027.16C2695.92 1029.56 2706.72 1040.36 2709.13 1058.37Z" fill="black"></path>
  <path d="M2476.22 1090.78C2458.21 1118.39 2458.21 1123.2 2476.22 1150.81C2509.84 1202.43 2591.47 1182.02 2591.47 1123.2C2591.47 1081.18 2571.06 1060.77 2529.05 1060.77C2507.44 1060.77 2489.43 1070.37 2476.22 1090.78ZM2577.07 1106.39C2581.87 1142.4 2560.26 1168.82 2524.24 1168.82C2487.03 1168.82 2465.42 1130.4 2483.43 1095.58C2502.63 1059.57 2572.26 1067.97 2577.07 1106.39Z" fill="black"></path>
  <path d="M106.412 1757.07C116.016 1763.07 130.422 1769.07 136.425 1769.07C143.628 1769.07 140.026 1763.07 130.422 1757.07C120.818 1751.06 107.612 1745.06 100.409 1745.06C94.4067 1745.06 96.8077 1751.06 106.412 1757.07Z" fill="black"></path>
  <path d="M2075.25 1895.13C2058.45 1904.73 2051.24 1911.93 2058.45 1913.13C2064.45 1913.13 2081.26 1904.73 2094.46 1895.13C2123.28 1873.52 2113.67 1872.32 2075.25 1895.13Z" fill="black"></path>
  <path d="M2711.53 1917.94C2693.52 1940.74 2700.72 1985.16 2724.73 2000.77C2751.14 2017.58 2803.97 2001.97 2811.17 1974.36C2818.37 1946.75 2809.97 1933.54 2775.15 1914.33C2741.54 1896.33 2729.53 1897.53 2711.53 1917.94ZM2777.55 1932.34C2799.16 1953.95 2796.76 1971.96 2769.15 1988.77C2727.13 2015.18 2689.92 1963.55 2725.93 1927.54C2745.14 1908.33 2753.54 1909.53 2777.55 1932.34Z" fill="black"></path>
  <path d="M203.654 2025.98C206.055 2028.38 230.065 2033.19 256.476 2036.79C288.89 2041.59 298.494 2040.39 286.489 2033.19C269.682 2022.38 191.649 2015.18 203.654 2025.98Z" fill="black"></path>
  <path d="M2614.28 2112.42C2591.47 2140.03 2615.48 2171.24 2658.7 2171.24C2699.52 2171.24 2710.32 2142.43 2681.51 2112.42C2656.3 2088.41 2634.69 2088.41 2614.28 2112.42ZM2675.51 2135.23C2675.51 2160.44 2652.7 2168.84 2632.29 2153.24C2620.29 2142.43 2619.09 2134.03 2628.69 2122.02C2643.1 2104.02 2675.51 2112.42 2675.51 2135.23Z" fill="black"></path>
  <path d="M2526.64 2258.88C2515.84 2276.89 2541.05 2300.9 2561.46 2292.5C2578.27 2286.49 2579.47 2281.69 2567.46 2267.28C2550.66 2246.88 2536.25 2244.47 2526.64 2258.88Z" fill="black"></path>
  <path d="M2833.98 2299.7C2811.17 2322.51 2817.17 2365.73 2845.98 2386.14C2879.6 2410.15 2897.61 2410.15 2920.42 2386.14C2945.63 2360.93 2944.43 2338.12 2915.61 2309.3C2888 2281.69 2855.59 2278.09 2833.98 2299.7ZM2913.21 2348.92C2908.41 2387.34 2848.39 2392.14 2837.58 2356.12C2831.58 2336.91 2835.18 2324.91 2849.59 2314.1C2879.6 2292.5 2918.02 2314.1 2913.21 2348.92Z" fill="black"></path>
  <path d="M2332.16 2315.31C2320.15 2345.32 2336.96 2369.33 2369.38 2369.33C2405.39 2369.33 2421 2340.52 2399.39 2315.31C2380.18 2292.5 2340.56 2292.5 2332.16 2315.31ZM2381.38 2333.31C2381.38 2341.72 2374.18 2351.32 2366.97 2353.72C2357.37 2357.32 2351.37 2348.92 2351.37 2333.31C2351.37 2317.71 2357.37 2309.3 2366.97 2311.7C2374.18 2315.31 2381.38 2324.91 2381.38 2333.31Z" fill="black"></path>
  <path d="M610.625 2393.34C581.813 2411.35 601.021 2413.75 646.641 2398.14C682.656 2384.93 685.057 2382.53 658.646 2382.53C641.839 2381.33 620.229 2386.13 610.625 2393.34Z" fill="black"></path>
  <path d="M2517.04 2473.77C2525.45 2477.37 2536.25 2476.17 2539.85 2472.57C2544.65 2468.97 2537.45 2465.37 2524.24 2466.57C2511.04 2466.57 2507.44 2470.17 2517.04 2473.77Z" fill="black"></path>
  <path d="M595.023 2541C581.817 2575.82 584.218 2592.62 599.825 2577.02C607.028 2569.81 610.63 2554.21 608.229 2542.2C604.627 2520.59 603.427 2520.59 595.023 2541Z" fill="black"></path>
  <path d="M1354.94 2589.02C1354.94 2591.42 1371.75 2608.23 1390.96 2627.44C1411.37 2646.65 1426.97 2656.25 1426.97 2650.25C1426.97 2643.05 1411.37 2626.24 1390.96 2611.83C1371.75 2596.23 1354.94 2586.62 1354.94 2589.02Z" fill="black"></path>
  <path d="M1679.08 2650.25C1679.08 2674.26 1707.89 2693.47 1725.9 2681.46C1735.51 2676.66 1739.11 2663.45 1735.51 2652.65C1725.9 2628.64 1679.08 2627.44 1679.08 2650.25Z" fill="black"></path>
  <path d="M1931.19 2657.45C1931.19 2663.45 1937.19 2669.46 1943.19 2669.46C1950.4 2669.46 1955.2 2663.45 1955.2 2657.45C1955.2 2650.25 1950.4 2645.45 1943.19 2645.45C1937.19 2645.45 1931.19 2650.25 1931.19 2657.45Z" fill="black"></path>
  <path d="M1018.8 2693.47C1018.8 2699.47 1024.8 2705.47 1030.81 2705.47C1038.01 2705.47 1042.81 2699.47 1042.81 2693.47C1042.81 2686.26 1038.01 2681.46 1030.81 2681.46C1024.8 2681.46 1018.8 2686.26 1018.8 2693.47Z" fill="black"></path>
  <path d="M983.989 2740.29C982.788 2769.1 986.39 2778.7 994.793 2770.3C1003.2 2761.9 1003.2 2747.49 995.994 2728.28C985.189 2700.67 983.989 2701.87 983.989 2740.29Z" fill="black"></path>
  <path d="M1150.86 2730.68C1150.86 2741.49 1159.26 2757.09 1168.87 2765.5C1191.67 2784.71 1191.67 2765.5 1168.87 2734.28C1154.46 2715.08 1152.06 2715.08 1150.86 2730.68Z" fill="black"></path>
  <path d="M1300.92 2765.5C1296.12 2773.9 1297.32 2784.71 1304.53 2791.91C1321.33 2808.72 1358.55 2794.31 1352.55 2773.9C1345.34 2754.69 1311.73 2748.69 1300.92 2765.5Z" fill="black"></path>
  <path d="M18.5928 1134.54C49.8061 1146.55 77.418 1121.34 77.418 1082.92C77.418 1055.31 71.4154 1046.9 48.6056 1044.5C32.999 1042.1 14.9912 1046.9 10.1892 1056.51C-6.618 1082.92 -1.81595 1126.14 18.5928 1134.54ZM41.4026 1060.11C67.8139 1060.11 81.0195 1097.33 61.8113 1116.53C41.4026 1136.94 8.98868 1117.74 13.7907 1087.72C16.1918 1069.71 25.7959 1060.11 41.4026 1060.11Z" fill="black"></path>
  <path d="M99.0281 1419.06C108.632 1432.27 126.64 1439.47 144.648 1435.87C169.858 1432.27 173.46 1426.26 174.66 1385.45C174.66 1349.43 180.663 1336.22 201.072 1329.02C251.493 1309.81 270.701 1218.57 229.884 1183.76C187.866 1145.34 157.853 1146.54 119.437 1184.96C73.8173 1229.38 73.8173 1262.99 118.236 1306.21C150.65 1338.63 150.65 1341.03 127.84 1344.63C114.635 1347.03 101.429 1356.63 99.0281 1366.24C94.2261 1380.64 95.4266 1380.64 105.031 1368.64C124.239 1341.03 161.455 1356.63 165.056 1393.85C168.658 1420.26 163.856 1426.26 142.247 1426.26C127.84 1426.26 108.632 1416.66 100.229 1404.65C79.8199 1378.24 78.6194 1391.45 99.0281 1419.06ZM114.635 1200.57C126.64 1182.56 144.648 1174.16 172.259 1174.16C220.28 1174.16 239.488 1192.16 239.488 1240.18C239.488 1317.02 174.66 1350.63 125.439 1301.41C90.6245 1266.59 88.2235 1238.98 114.635 1200.57Z" fill="black"></path>
  <path d="M221.48 1049.3C249.092 1067.31 253.894 1067.31 280.305 1049.3C319.922 1024.09 329.526 986.878 306.716 952.063C264.698 887.236 191.467 911.246 191.467 989.279C191.467 1019.29 199.871 1034.9 221.48 1049.3ZM217.878 948.462C261.097 905.243 329.526 961.667 300.714 1016.89C287.508 1040.9 229.883 1052.91 211.876 1033.7C198.67 1020.49 202.272 964.068 217.878 948.462Z" fill="black"></path>
  <path d="M361.939 931.65C382.347 952.059 413.561 949.658 432.769 925.648C448.376 907.64 447.175 907.64 423.165 922.046C390.751 942.455 359.538 922.046 359.538 878.828C359.538 826.005 442.373 832.008 444.774 884.83C444.774 898.036 447.175 899.236 451.977 888.432C459.18 869.224 424.365 814 402.756 814C359.538 814 329.525 899.236 361.939 931.65Z" fill="black"></path>
  <path d="M534.813 1259.39C548.019 1270.2 558.824 1271.4 573.23 1261.79C599.641 1244.99 599.641 1198.17 572.029 1181.36C554.021 1170.56 546.818 1172.96 532.412 1190.96C510.803 1220.98 510.803 1238.98 534.813 1259.39ZM540.816 1201.77C560.024 1182.56 587.636 1195.77 587.636 1222.18C587.636 1249.79 568.428 1262.99 545.618 1253.39C524.009 1246.19 522.808 1219.78 540.816 1201.77Z" fill="black"></path>
  <path d="M563.626 946.062C576.832 959.268 594.84 970.072 604.444 970.072C626.053 970.072 683.678 923.252 683.678 906.445C683.678 898.042 677.675 901.643 670.472 912.448C634.457 974.874 551.621 956.867 551.621 886.036C551.621 818.808 628.454 787.594 664.47 840.417C675.274 854.823 683.678 862.026 683.678 854.823C683.678 832.013 640.459 802 608.045 802C546.819 802 516.806 899.242 563.626 946.062Z" fill="black"></path>
  <path d="M623.651 1366.24C636.856 1379.45 660.866 1390.25 675.273 1390.25C702.884 1390.25 743.702 1357.84 743.702 1335.03C743.702 1330.23 735.298 1337.43 724.494 1351.84C702.884 1384.25 658.465 1386.65 632.054 1356.64C588.836 1309.82 616.447 1246.19 678.874 1246.19C714.89 1246.19 723.293 1252.19 737.699 1284.61C747.303 1306.22 754.507 1315.82 755.707 1305.02C755.707 1270.2 714.89 1230.58 677.674 1230.58C610.445 1230.58 575.63 1318.22 623.651 1366.24Z" fill="black"></path>
  <path d="M792.924 1476.68C812.132 1510.3 861.353 1504.29 870.957 1468.28C881.762 1422.66 868.556 1399.85 831.34 1404.65C814.533 1407.05 796.525 1416.66 794.124 1426.26C788.122 1441.87 790.523 1441.87 807.33 1427.46C834.942 1404.65 866.155 1420.26 861.353 1452.67C856.551 1487.49 819.335 1494.69 797.726 1465.88C777.317 1440.67 774.916 1446.67 792.924 1476.68Z" fill="black"></path>
  <path d="M906.972 1184.96C946.589 1216.18 950.191 1216.18 985.006 1184.96L1013.82 1160.95L983.805 1178.96C936.985 1206.57 893.767 1181.36 893.767 1126.14C893.767 1043.3 991.008 1039.7 1009.02 1121.34L1017.42 1156.15L1018.62 1122.54C1019.82 1085.32 982.605 1042.1 950.191 1042.1C918.977 1042.1 875.759 1092.52 875.759 1128.54C875.759 1148.95 887.764 1169.36 906.972 1184.96Z" fill="black"></path>
  <path d="M900.969 1404.66C915.375 1429.87 971.799 1433.47 993.408 1411.86C1001.81 1403.46 1007.81 1379.45 1007.81 1357.84C1007.81 1306.21 970.599 1284.61 928.581 1312.22C912.974 1321.82 899.768 1333.83 899.768 1337.43C899.768 1342.23 908.172 1338.63 916.575 1330.23C926.18 1323.02 946.588 1318.22 962.195 1320.62C985.005 1323.02 989.807 1331.43 989.807 1366.24C989.807 1404.66 987.406 1408.26 953.791 1408.26C928.581 1408.26 914.174 1399.85 903.37 1378.25C894.966 1361.44 887.763 1356.64 887.763 1366.24C888.964 1375.84 893.766 1393.85 900.969 1404.66Z" fill="black"></path>
  <path d="M137.593 2117.54C168.806 2129.55 196.418 2104.34 196.418 2065.92C196.418 2038.31 190.415 2029.9 167.606 2027.5C151.999 2025.1 133.991 2029.9 129.189 2039.51C112.382 2065.92 117.184 2109.14 137.593 2117.54ZM160.403 2043.11C186.814 2043.11 200.02 2080.33 180.811 2099.53C160.403 2119.94 127.989 2100.74 132.791 2070.72C135.192 2052.71 144.796 2043.11 160.403 2043.11Z" fill="black"></path>
  <path d="M218.028 2402.06C227.632 2415.27 245.64 2422.47 263.648 2418.87C288.858 2415.27 292.46 2409.26 293.66 2368.45C293.66 2332.43 299.663 2319.22 320.072 2312.02C370.493 2292.81 389.701 2201.57 348.884 2166.76C306.866 2128.34 276.853 2129.54 238.437 2167.96C192.817 2212.38 192.817 2245.99 237.236 2289.21C269.65 2321.63 269.65 2324.03 246.84 2327.63C233.635 2330.03 220.429 2339.63 218.028 2349.24C213.226 2363.64 214.427 2363.64 224.031 2351.64C243.239 2324.03 280.455 2339.63 284.056 2376.85C287.658 2403.26 282.856 2409.26 261.247 2409.26C246.84 2409.26 227.632 2399.66 219.229 2387.65C198.82 2361.24 197.619 2374.45 218.028 2402.06ZM233.635 2183.57C245.64 2165.56 263.648 2157.16 291.259 2157.16C339.28 2157.16 358.488 2175.16 358.488 2223.18C358.488 2300.02 293.66 2333.63 244.439 2284.41C209.625 2249.59 207.223 2221.98 233.635 2183.57Z" fill="black"></path>
  <path d="M340.48 2032.3C368.092 2050.31 372.894 2050.31 399.305 2032.3C438.922 2007.09 448.526 1969.88 425.716 1935.06C383.698 1870.24 310.467 1894.25 310.467 1972.28C310.467 2002.29 318.871 2017.9 340.48 2032.3ZM336.878 1931.46C380.097 1888.24 448.526 1944.67 419.714 1999.89C406.508 2023.9 348.883 2035.91 330.876 2016.7C317.67 2003.49 321.272 1947.07 336.878 1931.46Z" fill="black"></path>
  <path d="M480.939 1914.65C501.347 1935.06 532.561 1932.66 551.769 1908.65C567.376 1890.64 566.175 1890.64 542.165 1905.05C509.751 1925.45 478.538 1905.05 478.538 1861.83C478.538 1809.01 561.373 1815.01 563.774 1867.83C563.774 1881.04 566.175 1882.24 570.977 1871.43C578.18 1852.22 543.365 1797 521.756 1797C478.538 1797 448.525 1882.24 480.939 1914.65Z" fill="black"></path>
  <path d="M653.813 2242.39C667.019 2253.2 677.824 2254.4 692.23 2244.79C718.641 2227.99 718.641 2181.17 691.029 2164.36C673.021 2153.56 665.818 2155.96 651.412 2173.96C629.803 2203.98 629.803 2221.98 653.813 2242.39ZM659.816 2184.77C679.024 2165.56 706.636 2178.77 706.636 2205.18C706.636 2232.79 687.428 2245.99 664.618 2236.39C643.009 2229.19 641.808 2202.78 659.816 2184.77Z" fill="black"></path>
  <path d="M682.626 1929.06C695.832 1942.27 713.84 1953.07 723.444 1953.07C745.053 1953.07 802.678 1906.25 802.678 1889.45C802.678 1881.04 796.675 1884.64 789.472 1895.45C753.457 1957.87 670.621 1939.87 670.621 1869.04C670.621 1801.81 747.454 1770.59 783.47 1823.42C794.274 1837.82 802.678 1845.03 802.678 1837.82C802.678 1815.01 759.459 1785 727.045 1785C665.819 1785 635.806 1882.24 682.626 1929.06Z" fill="black"></path>
  <path d="M742.651 2349.24C755.856 2362.45 779.866 2373.25 794.273 2373.25C821.884 2373.25 862.702 2340.84 862.702 2318.03C862.702 2313.23 854.298 2320.43 843.494 2334.84C821.884 2367.25 777.465 2369.65 751.054 2339.64C707.836 2292.82 735.447 2229.19 797.874 2229.19C833.89 2229.19 842.293 2235.19 856.699 2267.61C866.303 2289.22 873.507 2298.82 874.707 2288.02C874.707 2253.2 833.89 2213.58 796.674 2213.58C729.445 2213.58 694.63 2301.22 742.651 2349.24Z" fill="black"></path>
  <path d="M911.924 2459.68C931.132 2493.3 980.353 2487.29 989.957 2451.28C1000.76 2405.66 987.556 2382.85 950.34 2387.65C933.533 2390.05 915.525 2399.66 913.124 2409.26C907.122 2424.87 909.523 2424.87 926.33 2410.46C953.942 2387.65 985.155 2403.26 980.353 2435.67C975.551 2470.49 938.335 2477.69 916.726 2448.88C896.317 2423.67 893.916 2429.67 911.924 2459.68Z" fill="black"></path>
  <path d="M1025.97 2167.96C1065.59 2199.18 1069.19 2199.18 1104.01 2167.96L1132.82 2143.95L1102.81 2161.96C1055.99 2189.57 1012.77 2164.36 1012.77 2109.14C1012.77 2026.3 1110.01 2022.7 1128.02 2104.34L1136.42 2139.15L1137.62 2105.54C1138.82 2068.32 1101.6 2025.1 1069.19 2025.1C1037.98 2025.1 994.759 2075.52 994.759 2111.54C994.759 2131.95 1006.76 2152.36 1025.97 2167.96Z" fill="black"></path>
  <path d="M1019.97 2387.66C1034.37 2412.87 1090.8 2416.47 1112.41 2394.86C1120.81 2386.46 1126.81 2362.45 1126.81 2340.84C1126.81 2289.21 1089.6 2267.61 1047.58 2295.22C1031.97 2304.82 1018.77 2316.83 1018.77 2320.43C1018.77 2325.23 1027.17 2321.63 1035.58 2313.23C1045.18 2306.02 1065.59 2301.22 1081.19 2303.62C1104 2306.02 1108.81 2314.43 1108.81 2349.24C1108.81 2387.66 1106.41 2391.26 1072.79 2391.26C1047.58 2391.26 1033.17 2382.85 1022.37 2361.25C1013.97 2344.44 1006.76 2339.64 1006.76 2349.24C1007.96 2358.84 1012.77 2376.85 1019.97 2387.66Z" fill="black"></path>
  <path d="M1478.59 1980.54C1509.81 1992.55 1537.42 1967.34 1537.42 1928.92C1537.42 1901.31 1531.42 1892.9 1508.61 1890.5C1493 1888.1 1474.99 1892.9 1470.19 1902.51C1453.38 1928.92 1458.18 1972.14 1478.59 1980.54ZM1501.4 1906.11C1527.81 1906.11 1541.02 1943.33 1521.81 1962.53C1501.4 1982.94 1468.99 1963.74 1473.79 1933.72C1476.19 1915.71 1485.8 1906.11 1501.4 1906.11Z" fill="black"></path>
  <path d="M1559.03 2265.06C1568.63 2278.27 1586.64 2285.47 1604.65 2281.87C1629.86 2278.27 1633.46 2272.26 1634.66 2231.45C1634.66 2195.43 1640.66 2182.22 1661.07 2175.02C1711.49 2155.81 1730.7 2064.57 1689.88 2029.76C1647.87 1991.34 1617.85 1992.54 1579.44 2030.96C1533.82 2075.38 1533.82 2108.99 1578.24 2152.21C1610.65 2184.63 1610.65 2187.03 1587.84 2190.63C1574.63 2193.03 1561.43 2202.63 1559.03 2212.24C1554.23 2226.64 1555.43 2226.64 1565.03 2214.64C1584.24 2187.03 1621.45 2202.63 1625.06 2239.85C1628.66 2266.26 1623.86 2272.26 1602.25 2272.26C1587.84 2272.26 1568.63 2262.66 1560.23 2250.65C1539.82 2224.24 1538.62 2237.45 1559.03 2265.06ZM1574.63 2046.57C1586.64 2028.56 1604.65 2020.16 1632.26 2020.16C1680.28 2020.16 1699.49 2038.16 1699.49 2086.18C1699.49 2163.02 1634.66 2196.63 1585.44 2147.41C1550.62 2112.59 1548.22 2084.98 1574.63 2046.57Z" fill="black"></path>
  <path d="M1681.48 1895.3C1709.09 1913.31 1713.89 1913.31 1740.3 1895.3C1779.92 1870.09 1789.53 1832.88 1766.72 1798.06C1724.7 1733.24 1651.47 1757.25 1651.47 1835.28C1651.47 1865.29 1659.87 1880.9 1681.48 1895.3ZM1677.88 1794.46C1721.1 1751.24 1789.53 1807.67 1760.71 1862.89C1747.51 1886.9 1689.88 1898.91 1671.88 1879.7C1658.67 1866.49 1662.27 1810.07 1677.88 1794.46Z" fill="black"></path>
  <path d="M1821.94 1777.65C1842.35 1798.06 1873.56 1795.66 1892.77 1771.65C1908.38 1753.64 1907.18 1753.64 1883.16 1768.05C1850.75 1788.45 1819.54 1768.05 1819.54 1724.83C1819.54 1672.01 1902.37 1678.01 1904.77 1730.83C1904.77 1744.04 1907.18 1745.24 1911.98 1734.43C1919.18 1715.22 1884.37 1660 1862.76 1660C1819.54 1660 1789.52 1745.24 1821.94 1777.65Z" fill="black"></path>
  <path d="M1994.81 2105.39C2008.02 2116.2 2018.82 2117.4 2033.23 2107.79C2059.64 2090.99 2059.64 2044.17 2032.03 2027.36C2014.02 2016.56 2006.82 2018.96 1992.41 2036.96C1970.8 2066.98 1970.8 2084.98 1994.81 2105.39ZM2000.82 2047.77C2020.02 2028.56 2047.64 2041.77 2047.64 2068.18C2047.64 2095.79 2028.43 2108.99 2005.62 2099.39C1984.01 2092.19 1982.81 2065.78 2000.82 2047.77Z" fill="black"></path>
  <path d="M2023.63 1792.06C2036.83 1805.27 2054.84 1816.07 2064.44 1816.07C2086.05 1816.07 2143.68 1769.25 2143.68 1752.45C2143.68 1744.04 2137.68 1747.64 2130.47 1758.45C2094.46 1820.87 2011.62 1802.87 2011.62 1732.04C2011.62 1664.81 2088.45 1633.59 2124.47 1686.42C2135.27 1700.82 2143.68 1708.03 2143.68 1700.82C2143.68 1678.01 2100.46 1648 2068.05 1648C2006.82 1648 1976.81 1745.24 2023.63 1792.06Z" fill="black"></path>
  <path d="M2083.65 2212.24C2096.86 2225.45 2120.87 2236.25 2135.27 2236.25C2162.88 2236.25 2203.7 2203.84 2203.7 2181.03C2203.7 2176.23 2195.3 2183.43 2184.49 2197.84C2162.88 2230.25 2118.47 2232.65 2092.05 2202.64C2048.84 2155.82 2076.45 2092.19 2138.87 2092.19C2174.89 2092.19 2183.29 2098.19 2197.7 2130.61C2207.3 2152.22 2214.51 2161.82 2215.71 2151.02C2215.71 2116.2 2174.89 2076.58 2137.67 2076.58C2070.44 2076.58 2035.63 2164.22 2083.65 2212.24Z" fill="black"></path>
  <path d="M2252.92 2322.68C2272.13 2356.3 2321.35 2350.29 2330.96 2314.28C2341.76 2268.66 2328.56 2245.85 2291.34 2250.65C2274.53 2253.05 2256.53 2262.66 2254.12 2272.26C2248.12 2287.87 2250.52 2287.87 2267.33 2273.46C2294.94 2250.65 2326.15 2266.26 2321.35 2298.67C2316.55 2333.49 2279.33 2340.69 2257.73 2311.88C2237.32 2286.67 2234.92 2292.67 2252.92 2322.68Z" fill="black"></path>
  <path d="M2366.97 2030.96C2406.59 2062.18 2410.19 2062.18 2445.01 2030.96L2473.82 2006.95L2443.81 2024.96C2396.99 2052.57 2353.77 2027.36 2353.77 1972.14C2353.77 1889.3 2451.01 1885.7 2469.02 1967.34L2477.42 2002.15L2478.62 1968.54C2479.82 1931.32 2442.6 1888.1 2410.19 1888.1C2378.98 1888.1 2335.76 1938.52 2335.76 1974.54C2335.76 1994.95 2347.76 2015.36 2366.97 2030.96Z" fill="black"></path>
  <path d="M2360.97 2250.66C2375.37 2275.87 2431.8 2279.47 2453.41 2257.86C2461.81 2249.46 2467.81 2225.45 2467.81 2203.84C2467.81 2152.21 2430.6 2130.61 2388.58 2158.22C2372.97 2167.82 2359.77 2179.83 2359.77 2183.43C2359.77 2188.23 2368.17 2184.63 2376.58 2176.23C2386.18 2169.02 2406.59 2164.22 2422.19 2166.62C2445 2169.02 2449.81 2177.43 2449.81 2212.24C2449.81 2250.66 2447.41 2254.26 2413.79 2254.26C2388.58 2254.26 2374.17 2245.85 2363.37 2224.25C2354.97 2207.44 2347.76 2202.64 2347.76 2212.24C2348.96 2221.84 2353.77 2239.85 2360.97 2250.66Z" fill="black"></path>
</svg>
