<?xml version="1.0" encoding="UTF-8"?>
<svg xmlns="http://www.w3.org/2000/svg" width="4683" height="4658" viewBox="0 0 4683 4658" fill="none">
  <path d="M15.3766 4439.53C32.1838 4456.33 71.8007 4457.53 97.0115 4441.93C107.816 4434.72 121.022 4435.92 133.027 4445.53C148.634 4457.53 148.634 4457.53 135.428 4439.53C123.423 4425.12 109.017 4421.52 85.0064 4425.12C60.9961 4431.12 45.3894 4425.12 26.1812 4404.71C2.17097 4378.3 0.970456 4378.3 0.970457 4401.11C0.970457 4414.31 6.97303 4431.12 15.3766 4439.53Z" fill="black"></path>
  <path d="M32.1831 4287.06C53.7923 4270.25 74.201 4264.25 100.612 4269.05C139.029 4273.86 139.029 4273.86 106.615 4260.65C81.4041 4251.05 66.9979 4252.25 38.1856 4267.85C17.7769 4277.46 0.969726 4291.86 0.969726 4299.07C0.969727 4306.27 15.3759 4300.27 32.1831 4287.06Z" fill="black"></path>
  <path d="M5.77255 4165.81C16.5772 4165.81 21.3792 4118.99 11.7751 4104.59C4.57203 4092.58 0.970495 4099.78 0.970496 4126.2C0.970497 4147.8 3.37152 4165.81 5.77255 4165.81Z" fill="black"></path>
  <path d="M15.3751 3998.94C27.3803 3990.53 36.9844 3967.72 36.9844 3949.72C36.9844 3931.71 27.3803 3908.9 15.3751 3900.49C-1.43204 3887.29 -2.63256 3887.29 9.37257 3901.69C17.7762 3911.3 24.9792 3932.91 24.9792 3949.72C24.9792 3966.52 17.7762 3988.13 9.37258 3997.74C-2.63255 4012.14 -1.43204 4012.14 15.3751 3998.94Z" fill="black"></path>
  <path d="M30.9833 3577.56C47.7905 3561.95 60.9961 3545.15 60.9961 3540.34C60.9961 3534.34 47.7905 3543.95 30.9833 3560.75C14.1761 3577.56 0.970451 3594.37 0.970451 3597.97C0.970452 3602.77 14.1761 3593.17 30.9833 3577.56Z" fill="black"></path>
  <path d="M24.978 3445.5C38.1837 3452.71 48.9883 3455.11 48.9883 3452.71C48.9883 3449.1 38.1837 3440.7 24.978 3433.5C11.7724 3426.29 0.967765 3423.89 0.967765 3426.29C0.967765 3429.9 11.7724 3438.3 24.978 3445.5Z" fill="black"></path>
  <path d="M11.774 2461.08C23.7791 2461.08 41.7868 2438.27 35.7843 2431.07C33.3832 2429.87 23.7791 2434.67 15.3756 2444.27C6.97196 2453.88 5.77145 2461.08 11.774 2461.08Z" fill="black"></path>
  <path d="M20.1772 2398.66C29.7813 2407.06 36.9844 2408.26 36.9844 2402.26C36.9844 2390.25 14.1746 2372.25 6.97155 2378.25C5.77104 2380.65 10.5731 2390.25 20.1772 2398.66Z" fill="black"></path>
  <path d="M21.379 2080.52C62.1964 2116.53 101.813 2117.73 142.631 2082.92C202.656 2032.5 197.854 1948.46 131.826 1914.85C87.4072 1890.84 70.6 1892.04 32.1836 1922.05C5.77232 1942.46 0.970269 1956.87 0.970271 2003.69C0.970273 2043.3 6.97284 2067.31 21.379 2080.52ZM50.1913 1929.25C85.0062 1901.64 104.214 1902.84 139.029 1938.86C173.844 1972.47 177.446 2022.89 149.834 2062.51C124.623 2099.73 57.3944 2098.53 30.9831 2061.31C5.77232 2026.49 15.3764 1958.07 50.1913 1929.25Z" fill="black"></path>
  <path d="M14.1757 1770.79C21.3788 1775.59 28.5819 1776.79 32.1834 1773.19C35.785 1770.79 29.7824 1764.79 18.9778 1761.19C-1.43094 1752.78 -5.03248 1759.99 14.1757 1770.79Z" fill="black"></path>
  <path d="M30.9807 1668.74C47.7878 1653.13 58.5925 1637.53 54.9909 1635.12C46.5873 1626.72 0.967845 1669.94 0.967846 1684.35C0.967846 1691.55 14.1735 1684.35 30.9807 1668.74Z" fill="black"></path>
  <path d="M18.9775 612.288C29.7822 620.692 39.3863 625.494 42.9878 623.093C45.3888 619.491 36.9852 611.088 24.9801 602.684C-3.83221 585.877 -6.23324 590.679 18.9775 612.288Z" fill="black"></path>
  <path d="M24.978 525.858C38.1837 517.454 48.9883 506.649 48.9883 500.647C48.9883 495.845 38.1837 497.045 24.978 504.248C11.7724 511.451 0.967765 522.256 0.967766 528.259C0.967766 535.462 11.7724 534.261 24.978 525.858Z" fill="black"></path>
  <path d="M18.9786 163.3C41.7884 133.288 41.7884 94.8715 18.9786 64.8588C-2.63061 37.2471 -5.03163 51.6532 15.3771 84.0669C27.3822 102.075 27.3822 116.481 16.5776 146.493C3.37197 182.509 3.37196 183.709 18.9786 163.3Z" fill="black"></path>
  <path d="M32.1818 861.997C60.9941 902.815 157.035 893.211 157.035 848.792C157.035 842.789 148.632 847.591 137.827 857.195C111.416 884.807 52.5905 881.205 36.9839 853.594C15.3746 811.576 22.5777 770.758 56.1921 747.949C86.2049 728.74 89.8064 728.74 124.621 747.949C152.233 764.756 157.035 764.756 146.231 751.55C115.017 714.334 50.1895 719.136 22.5777 761.154C6.97104 783.964 11.7731 833.185 32.1818 861.997Z" fill="black"></path>
  <path d="M33.3831 2992.91C44.1878 3004.91 94.6093 3003.71 101.812 2990.51C105.414 2985.71 95.8098 2983.31 80.2031 2985.71C62.1955 2989.31 50.1903 2984.51 45.3883 2973.7C36.9847 2949.69 66.9975 2924.48 91.0078 2934.08C101.812 2937.69 106.614 2936.49 103.013 2929.28C93.4088 2912.48 57.3934 2913.68 39.3857 2931.68C23.779 2947.29 20.1775 2980.9 33.3831 2992.91Z" fill="black"></path>
  <path d="M83.8044 3938.91L106.614 3967.73L141.429 3942.52C194.252 3902.9 213.46 3862.08 195.452 3824.87C178.645 3787.65 121.02 3781.65 95.8095 3814.06C82.6039 3832.07 82.6039 3833.27 97.01 3820.06C143.83 3779.25 208.658 3827.27 182.246 3884.89C159.437 3935.31 86.2054 3916.1 83.8044 3859.68C83.8044 3835.67 83.8044 3835.67 72.9998 3859.68C57.3931 3895.7 58.5936 3908.9 83.8044 3938.91Z" fill="black"></path>
  <path d="M68.1997 1776.79C82.6058 1776.79 133.027 1732.37 133.027 1720.37C133.027 1715.56 118.621 1725.17 99.413 1741.97C81.4053 1757.58 64.5981 1771.99 62.1971 1773.19C59.7961 1775.59 62.1971 1776.79 68.1997 1776.79Z" fill="black"></path>
  <path d="M71.8012 624.297C83.8063 624.297 115.02 589.482 107.817 583.48C105.416 582.279 93.4104 590.683 81.4053 602.688C70.6006 614.693 65.7986 624.297 71.8012 624.297Z" fill="black"></path>
  <path d="M87.4064 530.654C99.4115 542.659 109.016 547.461 109.016 541.459C109.016 529.454 74.2008 498.241 68.1982 505.444C66.9977 507.845 75.4013 519.85 87.4064 530.654Z" fill="black"></path>
  <path d="M95.8083 1638.73C109.014 1642.33 124.621 1660.34 131.824 1678.35C139.027 1698.76 143.829 1703.56 143.829 1689.15C145.029 1667.54 105.412 1620.72 85.0037 1620.72C64.5949 1620.72 71.798 1630.33 95.8083 1638.73Z" fill="black"></path>
  <path d="M116.22 3366.27C145.032 3396.28 185.85 3401.08 235.071 3380.67C315.505 3347.06 338.315 3281.03 285.492 3231.81C224.266 3174.18 154.637 3172.98 112.619 3228.21C91.0093 3255.82 93.4103 3344.66 116.22 3366.27ZM129.426 3227.01C165.441 3196.99 191.852 3193.39 236.271 3211.4C313.104 3243.81 319.107 3333.85 245.876 3361.46C159.439 3395.08 64.598 3283.43 129.426 3227.01Z" fill="black"></path>
  <path d="M111.416 2794.83C133.025 2787.62 136.627 2761.21 116.218 2761.21C105.413 2761.21 97.0097 2769.62 97.0097 2780.42C97.0097 2791.22 103.012 2797.23 111.416 2794.83Z" fill="black"></path>
  <path d="M123.42 441.823C157.034 475.437 209.857 445.425 202.654 395.003C197.852 358.988 163.037 338.579 135.425 355.386C110.214 372.193 103.011 421.414 123.42 441.823ZM139.027 372.193C153.433 360.188 160.636 360.188 175.042 372.193C213.458 404.607 184.646 457.43 139.027 439.422C129.423 435.821 121.019 422.615 121.019 410.61C121.019 397.404 129.423 380.597 139.027 372.193Z" fill="black"></path>
  <path d="M142.631 4541.57C171.443 4567.98 181.047 4566.78 179.847 4540.37C179.847 4527.16 177.446 4525.96 172.644 4535.57C167.842 4547.57 161.839 4546.37 143.831 4530.77C131.826 4519.96 121.022 4512.76 121.022 4516.36C121.022 4519.96 130.626 4530.77 142.631 4541.57Z" fill="black"></path>
  <path d="M199.053 4498.35C238.669 4498.35 253.076 4495.95 231.466 4493.55C209.857 4491.15 177.443 4491.15 159.436 4493.55C141.428 4495.95 159.436 4498.35 199.053 4498.35Z" fill="black"></path>
  <path d="M145.032 4309.87C152.235 4320.68 157.037 4321.88 157.037 4313.47C157.037 4305.07 181.047 4297.87 213.461 4294.27C269.885 4290.66 269.885 4290.66 201.456 4288.26C164.24 4287.06 133.027 4287.06 133.027 4288.26C133.027 4290.66 139.029 4300.27 145.032 4309.87Z" fill="black"></path>
  <path d="M191.852 4396.31C227.867 4392.71 239.872 4396.31 244.675 4410.71C249.477 4426.32 250.677 4426.32 248.276 4409.51C247.076 4393.91 235.07 4386.7 206.258 4384.3C184.649 4381.9 161.839 4384.3 155.837 4390.31C149.834 4396.31 166.641 4398.71 191.852 4396.31Z" fill="black"></path>
  <path d="M159.437 4266.65C165.44 4263.05 167.841 4252.25 164.239 4243.84C155.835 4219.83 181.046 4204.23 235.069 4198.22L283.09 4193.42L235.069 4192.22C176.244 4189.82 155.835 4201.83 152.234 4241.44C149.833 4259.45 153.434 4270.26 159.437 4266.65Z" fill="black"></path>
  <path d="M153.434 2922.08C170.241 2937.68 193.051 2928.08 193.051 2905.27C193.051 2892.07 185.848 2881.26 176.244 2881.26C158.236 2881.26 142.629 2910.07 153.434 2922.08Z" fill="black"></path>
  <path d="M194.251 4464.74C217.061 4464.74 247.074 4457.54 260.28 4446.73C272.285 4437.13 274.686 4432.32 265.082 4437.13C255.478 4443.13 225.465 4450.33 199.053 4455.13L151.033 4462.34L194.251 4464.74Z" fill="black"></path>
  <path d="M165.439 4360.29C169.04 4351.89 167.84 4341.08 164.238 4337.48C160.637 4332.68 157.035 4339.88 158.236 4353.09C158.236 4366.3 161.837 4369.9 165.439 4360.29Z" fill="black"></path>
  <path d="M219.463 4175.41L283.09 4174.21L229.067 4169.41C200.254 4165.81 171.442 4157.41 166.64 4150.2C160.638 4140.6 157.036 4143 157.036 4156.21C157.036 4174.21 166.64 4177.81 219.463 4175.41Z" fill="black"></path>
  <path d="M165.441 1360.21C182.248 1378.22 193.052 1367.42 179.847 1345.81C159.438 1314.59 175.045 1282.18 207.459 1286.98C242.274 1291.78 250.677 1331.4 221.865 1353.01C209.86 1361.41 206.258 1368.62 212.261 1368.62C231.469 1368.62 253.078 1342.21 253.078 1319.4C253.078 1286.98 206.258 1259.37 178.646 1273.78C157.037 1284.58 147.433 1343.41 165.441 1360.21Z" fill="black"></path>
  <path d="M165.438 818.783C167.839 811.58 167.839 797.174 165.438 788.77C161.836 781.567 159.435 787.57 159.435 804.377C159.435 821.184 161.836 827.187 165.438 818.783Z" fill="black"></path>
  <path d="M199.057 4439.52C218.265 4439.52 225.468 4437.12 213.463 4433.52C202.658 4431.12 185.851 4431.12 177.447 4433.52C170.244 4437.12 178.648 4439.52 199.057 4439.52Z" fill="black"></path>
  <path d="M177.444 3769.64C202.655 3839.27 257.879 3846.48 317.904 3788.85C365.925 3744.43 373.128 3707.22 341.915 3664C275.886 3569.16 136.627 3657.99 177.444 3769.64ZM218.262 3654.39C273.485 3605.17 358.722 3654.39 344.316 3727.62C327.509 3812.86 217.061 3817.66 190.65 3733.63C182.247 3707.22 193.051 3678.4 218.262 3654.39Z" fill="black"></path>
  <path d="M182.247 2319.42C201.455 2354.24 301.098 2339.83 301.098 2302.61C301.098 2295.41 291.494 2297.81 279.488 2308.62C253.077 2332.63 227.866 2335.03 207.458 2314.62C184.648 2291.81 190.65 2248.59 219.463 2228.18C241.072 2212.58 242.273 2208.97 226.666 2208.97C203.856 2208.97 169.041 2253.39 169.041 2281.01C169.041 2290.61 175.044 2308.62 182.247 2319.42Z" fill="black"></path>
  <path d="M188.249 4247.44C191.851 4234.24 211.059 4225.83 238.671 4222.23L283.09 4217.43L235.069 4218.63C196.653 4219.83 187.049 4224.63 184.648 4243.84C183.447 4261.85 184.648 4261.85 188.249 4247.44Z" fill="black"></path>
  <path d="M199.053 2737.2C223.063 2757.61 273.485 2743.2 283.089 2711.99C291.493 2686.78 272.284 2653.16 249.475 2653.16C242.272 2653.16 247.074 2660.37 260.279 2669.97C278.287 2684.38 280.688 2691.58 269.883 2709.59C262.68 2721.59 247.074 2732.4 236.269 2734.8C211.058 2740.8 197.853 2703.59 215.86 2675.97C223.063 2662.77 224.264 2653.16 217.061 2653.16C205.056 2653.16 181.045 2691.58 181.045 2710.79C181.045 2716.79 189.449 2728.8 199.053 2737.2Z" fill="black"></path>
  <path d="M200.253 81.664C221.862 112.877 267.482 116.479 290.292 86.4661C303.497 69.6588 303.497 68.4583 289.091 80.4635C247.073 118.88 182.246 78.0624 196.652 22.8386C200.253 10.8335 197.852 2.42985 191.85 7.23192C175.042 16.8361 178.644 51.6511 200.253 81.664Z" fill="black"></path>
  <path d="M224.265 1960.47C230.268 1964.07 255.479 1970.07 279.489 1974.88C316.705 1982.08 328.71 1978.48 353.921 1952.07C393.538 1913.65 393.538 1880.04 355.121 1842.82C320.306 1808.01 289.093 1804.4 253.078 1834.42C226.666 1856.03 205.057 1948.47 224.265 1960.47ZM265.083 1842.82C316.705 1796 393.538 1860.83 363.525 1926.86C333.512 1991.68 241.072 1968.87 241.072 1896.84C241.072 1878.84 251.877 1854.83 265.083 1842.82Z" fill="black"></path>
  <path d="M256.679 4380.7C281.89 4396.31 281.89 4395.11 262.682 4374.7C250.677 4362.7 238.672 4355.49 236.271 4359.09C232.669 4362.7 242.273 4372.3 256.679 4380.7Z" fill="black"></path>
  <path d="M247.074 2529.51C271.084 2564.33 317.904 2573.93 361.123 2551.12C421.148 2519.91 424.75 2429.87 367.125 2403.46C322.706 2383.05 307.1 2385.45 266.282 2420.26C225.465 2453.88 219.462 2489.89 247.074 2529.51ZM271.084 2431.07C304.699 2396.25 332.311 2393.85 370.727 2420.26C407.943 2446.68 405.542 2500.7 365.925 2531.91C347.917 2546.32 326.308 2557.12 316.704 2557.12C293.894 2557.12 241.072 2503.1 241.072 2479.09C241.072 2468.28 254.277 2446.68 271.084 2431.07Z" fill="black"></path>
  <path d="M256.68 751.55C283.091 799.571 337.114 806.774 365.927 765.956C404.343 710.733 374.33 648.306 310.703 648.306C262.683 648.306 231.469 707.131 256.68 751.55ZM281.891 672.316C305.901 654.309 349.12 661.512 365.927 686.723C385.135 716.735 361.125 773.159 327.51 777.961C290.294 783.964 265.084 759.954 265.084 720.337C265.084 702.329 273.487 680.72 281.891 672.316Z" fill="black"></path>
  <path d="M271.084 2225.78C280.689 2229.38 295.095 2244.99 301.097 2259.39C307.1 2277.4 311.902 2279.8 311.902 2267.8C313.102 2247.39 268.683 2200.57 259.079 2211.37C255.478 2214.97 260.28 2220.98 271.084 2225.78Z" fill="black"></path>
  <path d="M301.096 2076.92C307.099 2076.92 313.102 2070.92 313.102 2064.91C313.102 2057.71 307.099 2052.91 301.096 2052.91C293.893 2052.91 289.091 2057.71 289.091 2064.91C289.091 2070.92 293.893 2076.92 301.096 2076.92Z" fill="black"></path>
  <path d="M301.096 36.0439C309.499 63.6558 310.7 63.6558 311.9 39.6454C313.101 25.2392 307.098 9.63249 301.096 6.03093C293.892 2.42938 289.09 0.0283447 290.291 2.42938C291.491 4.83041 296.294 19.2366 301.096 36.0439Z" fill="black"></path>
  <path d="M362.324 1253.36C406.743 1290.58 421.15 1291.78 461.967 1259.37C502.784 1226.95 505.185 1166.93 465.569 1130.91C427.152 1094.9 380.332 1097.3 350.319 1135.71C315.504 1180.13 319.106 1217.35 362.324 1253.36ZM361.124 1140.52C410.345 1091.3 481.175 1124.91 481.175 1195.74C481.175 1223.35 472.772 1241.36 454.764 1253.36C417.548 1279.78 400.741 1277.37 367.127 1242.56C331.111 1207.75 328.71 1172.93 361.124 1140.52Z" fill="black"></path>
  <path d="M399.539 3791.25C421.148 3812.86 485.976 3809.26 508.785 3784.05C556.806 3731.23 505.184 3641.19 446.359 3673.6C416.346 3689.21 393.536 3730.03 401.94 3751.64C405.541 3761.24 401.94 3769.64 395.937 3772.04C388.734 3774.45 389.934 3781.65 399.539 3791.25ZM421.148 3710.82C448.76 3658 517.189 3673.6 517.189 3733.63C517.189 3804.46 428.351 3806.86 410.343 3736.03C409.143 3733.63 413.945 3722.82 421.148 3710.82Z" fill="black"></path>
  <path d="M415.145 3008.52C442.757 3019.32 469.168 3004.91 469.168 2977.3C469.168 2947.29 439.155 2932.88 415.145 2953.29C392.335 2972.5 392.335 3000.11 415.145 3008.52ZM434.353 2959.3C442.757 2959.3 452.361 2968.9 454.762 2979.7C458.363 3001.31 433.153 3009.72 416.345 2992.91C404.34 2980.9 415.145 2959.3 434.353 2959.3Z" fill="black"></path>
  <path d="M423.551 57.6566C451.163 85.2682 517.191 67.2606 517.191 31.2454C517.191 25.2429 509.988 28.8444 501.585 40.8495C478.775 72.0627 430.754 61.2581 419.95 24.0424C412.747 -1.16823 411.546 -2.36874 410.346 18.0399C409.145 32.4459 415.148 49.253 423.551 57.6566Z" fill="black"></path>
  <path d="M452.361 4374.7C479.973 4402.31 508.785 4398.71 542.399 4360.29C558.006 4342.29 562.808 4335.08 553.204 4342.29C531.595 4361.49 478.772 4362.69 459.564 4343.49C424.749 4308.67 458.364 4225.84 507.585 4225.84C531.595 4225.84 561.608 4260.65 568.811 4297.87C573.613 4327.88 573.613 4326.68 576.014 4294.27C577.214 4257.05 541.199 4213.83 507.585 4213.83C495.579 4213.83 473.97 4224.64 459.564 4237.84C427.15 4267.85 423.549 4345.89 452.361 4374.7Z" fill="black"></path>
  <path d="M455.964 3937.71C482.375 3937.71 495.581 3912.5 481.174 3889.69C467.969 3868.08 433.154 3884.89 433.154 3913.7C433.154 3929.31 441.557 3937.71 455.964 3937.71ZM457.164 3889.69C463.167 3889.69 469.169 3894.49 469.169 3901.7C469.169 3907.7 463.167 3913.7 457.164 3913.7C449.961 3913.7 445.159 3907.7 445.159 3901.7C445.159 3894.49 449.961 3889.69 457.164 3889.69Z" fill="black"></path>
  <path d="M484.776 1581.1C508.786 1552.29 539.999 1555.89 553.205 1587.11C559.207 1602.71 564.009 1608.72 564.009 1600.31C567.611 1546.29 503.984 1527.08 481.174 1575.1C469.169 1600.31 469.169 1600.31 484.776 1581.1Z" fill="black"></path>
  <path d="M500.383 1637.53C511.188 1641.13 527.995 1638.73 538.8 1631.53C556.808 1620.72 556.808 1619.52 536.399 1625.52C524.394 1630.33 506.386 1626.72 497.982 1619.52C487.178 1611.12 481.175 1609.92 481.175 1618.32C481.175 1624.32 489.579 1633.93 500.383 1637.53Z" fill="black"></path>
  <path d="M550.804 2728.8C562.809 2740.8 583.218 2749.21 596.424 2749.21C625.236 2749.21 673.257 2716.79 672.056 2697.59C672.056 2687.98 669.655 2687.98 664.853 2698.79C661.251 2707.19 645.645 2720.39 628.838 2726.4C588.02 2742 544.802 2713.19 537.599 2668.77C532.797 2635.16 532.797 2635.16 530.396 2672.37C530.396 2695.18 537.599 2716.79 550.804 2728.8Z" fill="black"></path>
  <path d="M541.2 2559.52C550.804 2575.13 560.408 2577.53 592.822 2567.93C657.649 2549.92 684.061 2482.69 640.842 2447.87C622.835 2432.27 622.835 2433.47 637.241 2456.28C656.449 2488.69 644.444 2541.51 614.431 2551.12C539.999 2573.93 512.387 2465.88 586.819 2438.27C607.228 2431.07 612.03 2426.26 597.624 2426.26C547.202 2423.86 511.187 2506.7 541.2 2559.52Z" fill="black"></path>
  <path d="M553.205 2619.55C562.809 2612.34 588.02 2605.14 609.629 2605.14C644.444 2605.14 652.848 2611.14 667.254 2643.56C678.059 2667.57 684.061 2674.77 685.262 2661.57C685.262 2633.95 632.439 2581.13 603.627 2581.13C591.622 2581.13 571.213 2593.14 558.007 2607.54C546.002 2623.15 543.601 2627.95 553.205 2619.55Z" fill="black"></path>
  <path d="M584.419 1757.58C625.237 1799.6 687.663 1768.39 684.062 1708.36C684.062 1696.36 678.059 1704.76 672.057 1726.37C662.453 1759.98 655.249 1765.99 628.838 1762.38C558.008 1753.98 562.81 1674.75 634.841 1674.75C654.049 1674.75 668.455 1671.14 664.854 1666.34C655.249 1649.54 603.627 1655.54 584.419 1675.95C573.615 1685.55 565.211 1704.76 565.211 1716.76C565.211 1728.77 573.615 1747.98 584.419 1757.58Z" fill="black"></path>
  <path d="M604.828 2086.53C639.643 2118.94 698.468 2121.34 724.879 2091.33C736.884 2079.32 745.288 2063.72 745.288 2057.71C745.288 2052.91 736.884 2060.11 726.08 2074.52C714.074 2092.53 696.067 2100.93 667.254 2100.93C584.419 2100.93 565.211 1996.49 640.843 1959.27C681.661 1938.86 717.676 1956.87 739.285 2008.49C750.09 2032.5 756.092 2038.5 757.293 2025.3C757.293 1997.69 693.666 1932.86 667.254 1932.86C637.242 1932.86 577.216 1998.89 577.216 2031.3C577.216 2048.11 589.221 2072.12 604.828 2086.53Z" fill="black"></path>
  <path d="M608.429 452.627C639.642 464.632 667.254 439.421 667.254 401.004C667.254 373.393 661.251 364.989 638.442 362.588C622.835 360.187 604.827 364.989 600.025 374.593C583.218 401.004 588.02 444.223 608.429 452.627ZM631.238 378.195C657.65 378.195 670.855 415.411 651.647 434.619C631.238 455.028 598.825 435.819 603.627 405.806C606.028 387.799 615.632 378.195 631.238 378.195Z" fill="black"></path>
  <path d="M613.23 4389.11C626.436 4422.72 644.444 4433.53 672.055 4423.92C699.667 4415.52 724.878 4362.7 715.274 4332.68C700.868 4289.46 613.23 4293.07 613.23 4336.28C613.23 4342.29 621.634 4338.69 632.439 4329.08C655.248 4305.07 678.058 4305.07 697.266 4327.88C716.474 4350.69 702.068 4390.31 670.855 4401.11C652.847 4407.12 639.642 4401.11 624.035 4380.7C600.025 4349.49 597.624 4350.69 613.23 4389.11Z" fill="black"></path>
  <path d="M662.451 1178.94C668.454 1190.94 680.459 1200.55 686.461 1200.55C693.664 1200.55 690.063 1192.14 680.459 1181.34C642.042 1144.12 663.652 1080.5 715.274 1080.5C766.896 1080.5 787.304 1136.92 748.888 1178.94C724.878 1205.35 735.682 1207.75 762.094 1181.34C805.312 1139.32 769.297 1068.49 705.67 1068.49C657.649 1068.49 633.639 1129.72 662.451 1178.94Z" fill="black"></path>
  <path d="M697.266 2893.27C715.274 2902.87 726.078 2900.47 745.287 2881.26C758.492 2868.06 769.297 2852.45 769.297 2847.65C769.297 2826.04 735.682 2794.82 720.076 2800.83C706.87 2805.63 708.071 2808.03 722.477 2808.03C733.281 2809.23 745.287 2817.63 750.089 2827.24C760.893 2857.25 744.086 2882.46 716.474 2878.86C698.467 2876.46 691.264 2866.86 691.264 2842.85C692.464 2826.04 687.662 2814.03 682.86 2816.43C663.652 2828.44 673.256 2880.06 697.266 2893.27Z" fill="black"></path>
  <path d="M688.864 737.144C698.468 750.35 716.476 757.553 734.484 753.951C759.694 750.35 763.296 744.347 764.496 703.53C764.496 667.514 770.499 654.309 790.908 647.106C841.329 627.897 860.537 536.658 819.72 501.844C777.702 463.427 747.689 464.628 709.273 503.044C663.653 547.463 663.653 581.077 708.072 624.296C740.486 656.71 740.486 659.111 717.676 662.712C704.471 665.113 691.265 674.717 688.864 684.321C684.062 698.728 685.263 698.728 694.867 686.722C714.075 659.111 751.291 674.717 754.892 711.933C758.494 738.344 753.692 744.347 732.082 744.347C717.676 744.347 698.468 734.743 690.065 722.738C669.656 696.326 668.455 709.532 688.864 737.144ZM704.471 518.651C716.476 500.643 734.484 492.239 762.095 492.239C810.116 492.239 829.324 510.247 829.324 558.268C829.324 635.1 764.496 668.715 715.275 619.494C680.46 584.679 678.059 557.067 704.471 518.651Z" fill="black"></path>
  <path d="M789.705 1625.53C806.512 1641.13 829.322 1631.53 829.322 1608.72C829.322 1595.51 822.119 1584.71 812.515 1584.71C794.507 1584.71 778.901 1613.52 789.705 1625.53Z" fill="black"></path>
  <path d="M811.316 367.389C838.927 385.396 843.73 385.396 870.141 367.389C909.758 342.178 919.362 304.962 896.552 270.147C854.534 205.32 781.303 229.33 781.303 307.363C781.303 337.376 789.706 352.983 811.316 367.389ZM807.714 266.546C850.933 223.327 919.362 279.751 890.55 334.975C877.344 358.985 819.719 370.99 801.712 351.782C788.506 338.577 792.107 282.152 807.714 266.546Z" fill="black"></path>
  <path d="M937.369 4636.41C962.579 4614.8 1017.8 4618.4 1032.21 4643.61C1039.41 4654.42 1045.41 4658.02 1045.41 4650.82C1046.62 4610 963.78 4594.39 936.168 4630.41C922.962 4648.41 922.962 4649.61 937.369 4636.41Z" fill="black"></path>
  <path d="M951.775 249.734C972.183 270.143 1003.4 267.742 1022.6 243.732C1038.21 225.724 1037.01 225.724 1013 240.13C980.587 260.539 949.374 240.13 949.374 196.912C949.374 144.089 1032.21 150.092 1034.61 202.914C1034.61 216.12 1037.01 217.32 1041.81 206.516C1049.02 187.308 1014.2 132.084 992.592 132.084C949.374 132.084 919.361 217.32 951.775 249.734Z" fill="black"></path>
  <path d="M979.386 907.62C1004.6 917.224 1021.4 902.818 1021.4 870.404C1021.4 839.19 994.993 823.584 974.584 843.992C955.376 863.201 957.777 900.417 979.386 907.62ZM991.391 852.396C1001 852.396 1009.4 859.599 1009.4 869.203C1009.4 889.612 992.592 902.818 980.587 892.013C966.181 877.607 973.384 852.396 991.391 852.396Z" fill="black"></path>
  <path d="M1124.65 577.477C1137.85 588.282 1148.66 589.482 1163.07 579.878C1189.48 563.071 1189.48 516.251 1161.87 499.444C1143.86 488.639 1136.65 491.04 1122.25 509.048C1100.64 539.061 1100.64 557.069 1124.65 577.477ZM1130.65 519.853C1149.86 500.645 1177.47 513.85 1177.47 540.261C1177.47 567.873 1158.26 581.079 1135.45 571.475C1113.84 564.272 1112.64 537.86 1130.65 519.853Z" fill="black"></path>
  <path d="M1153.46 264.146C1166.67 277.352 1184.68 288.156 1194.28 288.156C1215.89 288.156 1273.51 241.336 1273.51 224.529C1273.51 216.125 1267.51 219.727 1260.31 230.532C1224.29 292.958 1141.46 274.951 1141.46 204.12C1141.46 136.892 1218.29 105.678 1254.31 158.501C1265.11 172.907 1273.51 180.11 1273.51 172.907C1273.51 150.097 1230.3 120.084 1197.88 120.084C1136.66 120.084 1106.64 217.326 1153.46 264.146Z" fill="black"></path>
  <path d="M1213.49 684.326C1226.69 697.531 1250.7 708.336 1265.11 708.336C1292.72 708.336 1333.54 675.922 1333.54 653.112C1333.54 648.31 1325.13 655.513 1314.33 669.919C1292.72 702.333 1248.3 704.734 1221.89 674.722C1178.67 627.901 1206.28 564.274 1268.71 564.274C1304.73 564.274 1313.13 570.277 1327.54 602.691C1337.14 624.3 1344.34 633.904 1345.54 623.099C1345.54 588.284 1304.73 548.667 1267.51 548.667C1200.28 548.667 1165.47 636.305 1213.49 684.326Z" fill="black"></path>
  <path d="M1382.76 794.766C1401.97 828.38 1451.19 822.377 1460.79 786.362C1471.6 740.742 1458.39 717.932 1421.18 722.735C1404.37 725.136 1386.36 734.74 1383.96 744.344C1377.96 759.951 1380.36 759.951 1397.17 745.544C1424.78 722.735 1455.99 738.341 1451.19 770.755C1446.39 805.57 1409.17 812.773 1387.56 783.961C1367.15 758.75 1364.75 764.753 1382.76 794.766Z" fill="black"></path>
  <path d="M1496.81 503.047C1536.43 534.26 1540.03 534.26 1574.84 503.047L1603.65 479.037L1573.64 497.044C1526.82 524.656 1483.6 499.445 1483.6 444.222C1483.6 361.386 1580.84 357.785 1598.85 439.42L1607.26 474.235L1608.46 440.62C1609.66 403.404 1572.44 360.186 1540.03 360.186C1508.81 360.186 1465.59 410.607 1465.59 446.623C1465.59 467.031 1477.6 487.44 1496.81 503.047Z" fill="black"></path>
  <path d="M1490.8 722.741C1505.21 747.951 1561.64 751.553 1583.24 729.944C1591.65 721.54 1597.65 697.53 1597.65 675.921C1597.65 624.299 1560.43 602.69 1518.42 630.301C1502.81 639.905 1489.6 651.911 1489.6 655.512C1489.6 660.314 1498.01 656.713 1506.41 648.309C1516.02 641.106 1536.42 636.304 1552.03 638.705C1574.84 641.106 1579.64 649.51 1579.64 684.324C1579.64 722.741 1577.24 726.342 1543.63 726.342C1518.42 726.342 1504.01 717.939 1493.21 696.329C1484.8 679.522 1477.6 674.72 1477.6 684.324C1478.8 693.928 1483.6 711.936 1490.8 722.741Z" fill="black"></path>
  <path d="M1568.84 4439.53C1582.04 4458.74 1597.65 4465.94 1619.26 4463.54C1645.67 4461.14 1654.08 4451.53 1662.48 4415.52C1672.08 4378.3 1669.68 4366.3 1651.67 4345.89C1624.06 4315.88 1595.25 4314.68 1570.04 4343.49C1544.83 4371.1 1543.63 4404.71 1568.84 4439.53ZM1584.45 4345.89C1627.66 4324.28 1666.08 4359.09 1651.67 4405.91C1636.07 4456.34 1561.64 4440.73 1561.64 4387.91C1561.64 4371.1 1571.24 4353.09 1584.45 4345.89Z" fill="black"></path>
  <path d="M1588.05 28.8431C1602.45 39.6478 1625.26 44.4498 1639.67 40.8483C1657.68 36.0462 1668.48 40.8483 1673.28 52.8534C1691.29 98.4731 1768.12 61.257 1764.52 9.63483C1764.52 1.23121 1758.52 9.63483 1751.32 27.6426C1735.71 70.8612 1692.49 68.4601 1681.69 24.041C1676.88 3.63225 1672.08 -1.16981 1664.88 9.63483C1654.07 27.6426 1595.25 28.8431 1576.04 9.63484C1567.64 1.23122 1561.64 -1.16981 1561.64 2.43174C1561.64 7.23381 1573.64 19.239 1588.05 28.8431Z" fill="black"></path>
  <path d="M1609.66 318.168C1628.86 336.176 1640.87 338.577 1666.08 328.973C1682.89 322.97 1700.9 309.765 1703.3 300.161C1708.1 285.754 1704.5 286.955 1685.29 302.562C1657.68 327.772 1632.47 330.173 1612.06 309.765C1580.84 278.551 1608.46 204.119 1651.67 204.119C1660.08 204.119 1676.88 212.523 1686.49 223.328C1697.29 232.932 1705.7 237.734 1705.7 231.731C1705.7 188.513 1631.27 180.109 1604.85 218.526C1578.44 255.742 1580.84 291.757 1609.66 318.168Z" fill="black"></path>
  <path d="M1777.73 516.252C1806.54 545.064 1816.15 546.265 1846.16 518.653C1858.16 507.848 1861.77 503.046 1854.56 507.848C1828.15 525.856 1784.93 511.45 1769.33 480.237C1758.52 458.627 1753.72 456.226 1753.72 470.632C1753.72 482.638 1764.52 503.046 1777.73 516.252Z" fill="black"></path>
  <path d="M1784.93 427.414C1794.54 416.61 1811.34 408.206 1819.75 408.206C1842.56 408.206 1873.77 441.821 1874.97 465.831C1874.97 476.635 1878.57 480.237 1880.97 473.034C1891.78 446.623 1862.96 396.201 1837.75 396.201C1805.34 396.201 1765.72 416.61 1765.72 433.417C1765.72 440.62 1774.13 437.019 1784.93 427.414Z" fill="black"></path>
  <path d="M1799.34 216.12C1825.75 248.533 1879.77 252.135 1907.38 223.323C1926.59 204.114 1925.39 204.114 1892.98 220.922C1849.76 242.531 1811.34 230.526 1796.94 188.508C1778.93 136.886 1804.14 96.0685 1854.56 96.0685C1901.38 96.0685 1916.99 111.675 1925.39 162.097L1930.19 198.112L1932.6 158.495C1935 106.873 1895.38 67.2562 1852.16 78.0608C1784.93 93.6674 1757.32 164.498 1799.34 216.12Z" fill="black"></path>
  <path d="M1818.55 4296.66C1862.96 4338.68 1904.98 4324.27 1924.19 4260.65C1937.4 4212.63 1937.4 4209.02 1904.98 4181.41C1871.37 4152.6 1840.16 4152.6 1804.14 4180.21C1778.93 4201.82 1787.33 4266.65 1818.55 4296.66ZM1832.95 4177.81C1889.38 4156.2 1938.6 4209.02 1910.99 4260.65C1878.57 4319.47 1801.74 4299.06 1801.74 4230.63C1801.74 4197.02 1807.74 4187.42 1832.95 4177.81Z" fill="black"></path>
  <path d="M1879.77 720.34C1903.78 740.749 1933.79 716.739 1933.79 675.922C1933.79 638.706 1898.98 625.5 1878.57 654.312C1856.96 683.125 1856.96 702.333 1879.77 720.34ZM1901.38 662.716C1915.79 660.315 1921.79 666.317 1921.79 683.125C1921.79 701.132 1914.59 708.335 1896.58 708.335C1866.57 708.335 1870.17 668.718 1901.38 662.716Z" fill="black"></path>
  <path d="M1886.97 19.2397C1894.18 22.8413 1904.98 21.6408 1910.98 15.6382C1916.99 9.63558 1912.18 4.8335 1897.78 4.8335C1870.17 4.8335 1868.97 7.23454 1886.97 19.2397Z" fill="black"></path>
  <path d="M1962.61 70.8594C1993.82 97.2706 2038.24 58.8542 2022.63 18.0368C2013.03 -5.9734 1962.61 -4.77289 1953 19.2373C1942.2 46.8491 1943.4 55.2527 1962.61 70.8594ZM1985.42 14.4353C1998.62 12.0343 2005.83 18.0368 2005.83 33.6435C2005.83 62.4558 1996.22 72.0599 1974.61 63.6563C1950.6 55.2527 1959.01 19.2374 1985.42 14.4353Z" fill="black"></path>
  <path d="M2007.03 764.757C2038.24 795.97 2088.66 738.346 2065.85 696.328C2049.04 666.315 2022.63 665.114 2005.83 695.127C1990.22 725.14 1990.22 747.95 2007.03 764.757ZM2033.44 698.729C2050.24 695.127 2055.05 699.929 2051.45 722.739C2049.04 737.145 2038.24 751.551 2026.23 753.952C2009.43 757.554 2004.63 752.752 2008.23 729.942C2010.63 715.536 2021.43 701.13 2033.44 698.729Z" fill="black"></path>
  <path d="M2245.93 324.169C2259.13 337.375 2277.14 348.18 2286.74 348.18C2311.96 348.18 2365.98 300.159 2365.98 278.55C2365.98 264.144 2361.18 266.545 2350.37 286.954C2329.96 326.57 2291.55 338.576 2259.13 316.966C2231.52 297.758 2226.72 264.144 2245.93 226.928C2263.93 194.514 2322.76 196.915 2346.77 230.529C2362.38 252.139 2365.98 253.339 2365.98 237.733C2365.98 216.123 2322.76 180.108 2296.35 180.108C2269.94 180.108 2221.92 237.733 2221.92 270.146C2221.92 286.954 2232.72 310.964 2245.93 324.169Z" fill="black"></path>
  <path d="M2373.18 594.287C2398.39 619.497 2423.6 613.495 2452.42 575.079C2470.42 551.068 2472.83 539.063 2463.22 512.652C2447.61 471.835 2399.59 468.233 2373.18 506.649C2349.17 541.464 2349.17 569.076 2373.18 594.287ZM2385.19 511.452C2410.4 486.241 2421.2 487.441 2442.81 518.655C2456.02 536.662 2457.22 549.868 2448.81 566.675C2438.01 587.084 2389.99 596.688 2374.38 579.881C2359.98 566.675 2365.98 530.66 2385.19 511.452Z" fill="black"></path>
  <path d="M2530.45 536.659C2532.85 545.063 2548.46 552.266 2565.26 552.266C2585.67 552.266 2595.28 543.862 2601.28 523.453C2614.48 470.631 2578.47 449.022 2541.25 487.438C2520.84 506.646 2519.64 512.649 2530.45 536.659ZM2574.87 495.842C2585.67 500.644 2594.08 509.047 2594.08 516.25C2594.08 536.659 2556.86 545.063 2544.85 527.055C2531.65 505.446 2550.86 486.237 2574.87 495.842Z" fill="black"></path>
  <path d="M2687.72 591.887C2735.74 635.105 2810.17 596.689 2810.17 529.46C2810.17 458.63 2740.54 432.219 2692.52 483.841C2660.11 517.455 2658.91 565.475 2687.72 591.887ZM2698.52 489.843C2722.53 463.432 2747.74 462.231 2776.56 488.643C2802.97 512.653 2804.17 549.869 2777.76 578.681C2753.75 605.092 2722.53 606.293 2697.32 581.082C2672.11 557.072 2673.31 517.455 2698.52 489.843Z" fill="black"></path>
  <path d="M2722.53 4288.26C2724.93 4267.85 2724.93 4231.84 2722.53 4210.23C2720.13 4189.82 2717.73 4206.63 2717.73 4249.84C2717.73 4293.06 2720.13 4309.87 2722.53 4288.26Z" fill="black"></path>
  <path d="M2834.18 888.411C2848.59 912.421 2887 890.812 2891.8 855.997C2896.61 824.784 2864.19 811.578 2840.18 835.588C2819.77 857.198 2818.57 864.401 2834.18 888.411ZM2859.39 842.791C2866.59 845.192 2871.39 852.396 2871.39 858.398C2871.39 864.401 2866.59 871.604 2859.39 874.005C2852.19 876.406 2846.18 869.203 2846.18 858.398C2846.18 847.593 2852.19 840.39 2859.39 842.791Z" fill="black"></path>
  <path d="M2896.61 189.713C2932.62 225.728 3002.25 188.512 3002.25 134.489C3002.25 106.877 2973.44 72.0625 2949.43 72.0625C2902.61 72.0625 2864.19 157.299 2896.61 189.713ZM2909.81 115.281C2938.62 75.664 3001.05 115.281 2983.04 162.101C2973.44 186.111 2932.62 196.916 2912.21 180.109C2889.4 162.101 2889.4 142.893 2909.81 115.281Z" fill="black"></path>
  <path d="M2927.82 4481.55C2969.84 4519.96 3014.26 4498.35 3014.26 4439.53C3014.26 4397.51 2973.44 4375.9 2936.22 4399.91C2903.81 4420.32 2900.21 4456.34 2927.82 4481.55ZM2950.63 4413.12C2961.43 4408.32 2978.24 4411.92 2986.64 4421.52C2996.25 4429.93 2999.85 4446.73 2995.05 4457.54C2987.84 4477.95 2953.03 4485.15 2938.62 4469.54C2923.02 4455.14 2930.22 4420.32 2950.63 4413.12Z" fill="black"></path>
  <path d="M2960.23 518.651C2995.05 534.258 3043.07 509.047 3056.27 468.229C3067.08 433.414 3032.26 384.193 2997.45 384.193C2932.62 384.193 2901.41 492.24 2960.23 518.651ZM2966.24 408.204C3011.86 382.993 3062.28 434.615 3038.27 481.435C3026.26 504.245 2967.44 513.849 2950.63 495.841C2932.62 477.833 2942.23 420.209 2966.24 408.204Z" fill="black"></path>
  <path d="M2954.23 834.389C2973.44 846.394 3011.85 829.587 3020.26 805.577C3035.86 756.356 2991.45 723.942 2956.63 758.757C2938.62 776.765 2937.42 823.584 2954.23 834.389ZM2981.84 770.762C2996.25 768.361 3002.25 774.363 3002.25 791.171C3002.25 809.178 2995.05 816.381 2977.04 816.381C2947.03 816.381 2950.63 776.765 2981.84 770.762Z" fill="black"></path>
  <path d="M2977.04 34.8467C2990.25 55.2555 3044.27 43.2503 3055.07 18.0395C3058.67 8.43535 3056.27 0.0317383 3050.27 0.0317386C3043.07 0.0317389 3038.27 4.8338 3038.27 12.0369C3038.27 28.8441 2998.65 27.6436 2980.64 9.63587C2963.83 -7.17136 2961.43 9.63587 2977.04 34.8467Z" fill="black"></path>
  <path d="M3083.89 591.88C3115.1 620.693 3142.71 617.091 3176.32 582.276C3214.74 545.06 3214.74 498.24 3177.53 474.23C3106.7 427.41 3021.46 535.456 3083.89 591.88ZM3093.49 499.441C3122.3 470.629 3169.12 475.431 3183.53 509.045C3211.14 567.87 3142.71 620.693 3097.09 575.073C3069.48 547.461 3068.28 524.652 3093.49 499.441Z" fill="black"></path>
  <path d="M3105.5 4614.8C3117.5 4619.61 3131.91 4617.21 3137.91 4611.2C3155.92 4593.2 3141.51 4555.98 3116.3 4555.98C3085.09 4555.98 3076.68 4604 3105.5 4614.8Z" fill="black"></path>
  <path d="M3140.31 163.302C3165.52 172.906 3194.33 146.494 3194.33 112.88C3194.33 75.6639 3173.93 66.0598 3145.11 91.2706C3117.5 115.281 3115.1 153.697 3140.31 163.302ZM3158.32 108.078C3164.32 108.078 3170.32 116.481 3170.32 126.086C3170.32 135.69 3164.32 144.093 3158.32 144.093C3151.12 144.093 3146.31 135.69 3146.31 126.086C3146.31 116.481 3151.12 108.078 3158.32 108.078Z" fill="black"></path>
  <path d="M3284.37 264.143C3323.99 297.758 3386.42 237.732 3361.2 189.711C3345.6 160.899 3320.39 162.099 3290.37 192.112C3261.56 220.925 3260.36 243.735 3284.37 264.143ZM3301.18 199.315C3320.39 187.31 3350.4 205.318 3350.4 228.128C3350.4 250.938 3320.39 268.945 3301.18 256.94C3295.18 253.339 3290.37 240.133 3290.37 228.128C3290.37 216.123 3295.18 202.917 3301.18 199.315Z" fill="black"></path>
  <path d="M3285.57 819.984C3305.98 839.192 3338.39 827.187 3345.6 797.174C3355.2 757.557 3333.59 733.547 3304.78 751.555C3283.17 765.961 3271.17 805.578 3285.57 819.984Z" fill="black"></path>
  <path d="M3380.41 528.253C3417.63 558.266 3469.25 511.446 3451.24 463.426C3440.44 437.014 3390.02 439.415 3374.41 467.027C3357.6 498.24 3358.8 510.245 3380.41 528.253ZM3410.43 474.23C3436.84 474.23 3432.04 509.045 3406.82 513.847C3390.02 517.448 3385.22 512.646 3388.82 495.839C3391.22 483.834 3400.82 474.23 3410.43 474.23Z" fill="black"></path>
  <path d="M3463.25 4473.14C3496.86 4486.34 3524.47 4471.94 3524.47 4443.13C3524.47 4409.51 3494.46 4386.7 3465.65 4397.51C3441.64 4407.11 3440.44 4464.74 3463.25 4473.14Z" fill="black"></path>
  <path d="M3514.87 447.821C3532.88 467.029 3578.5 455.024 3596.51 427.412C3621.72 388.996 3602.51 348.178 3560.49 348.178C3519.67 348.178 3487.26 420.209 3514.87 447.821ZM3554.49 378.191C3589.3 378.191 3603.71 416.607 3573.7 427.412C3544.88 438.217 3516.07 422.61 3520.87 399.8C3523.27 385.394 3535.28 378.191 3554.49 378.191Z" fill="black"></path>
  <path d="M3564.09 699.929C3597.71 729.942 3644.53 725.14 3673.34 689.125C3704.55 649.508 3705.75 619.495 3674.54 588.282C3642.13 555.868 3607.31 558.269 3572.5 594.285C3536.48 629.099 3534.08 672.318 3564.09 699.929ZM3573.7 614.693C3606.11 567.873 3674.54 587.081 3674.54 643.505C3674.54 668.716 3634.92 708.333 3612.11 708.333C3600.11 708.333 3554.49 662.714 3554.49 650.709C3554.49 645.907 3562.89 629.099 3573.7 614.693Z" fill="black"></path>
  <path d="M3638.52 2591.94C3648.13 2591.94 3678.14 2582.33 3704.55 2570.33C3730.96 2557.12 3744.17 2546.32 3734.56 2546.32C3724.96 2546.32 3694.95 2555.92 3668.54 2567.93C3642.12 2581.13 3628.92 2591.94 3638.52 2591.94Z" fill="black"></path>
  <path d="M3649.33 1558.3C3666.13 1585.91 3704.55 1570.3 3708.15 1533.09C3711.75 1507.88 3706.95 1500.68 3690.15 1500.68C3668.54 1500.68 3638.52 1521.08 3638.52 1535.49C3638.52 1540.29 3643.33 1549.9 3649.33 1558.3Z" fill="black"></path>
  <path d="M3669.74 3441.9C3696.15 3451.5 3724.96 3435.9 3720.16 3413.09C3714.15 3380.67 3667.33 3378.27 3658.93 3409.48C3655.33 3425.09 3658.93 3437.1 3669.74 3441.9Z" fill="black"></path>
  <path d="M3669.74 1840.42C3681.74 1851.22 3698.55 1838.02 3698.55 1817.61C3698.55 1808 3690.15 1800.8 3680.54 1800.8C3662.53 1800.8 3655.33 1826.01 3669.74 1840.42Z" fill="black"></path>
  <path d="M3680.54 300.159C3718.96 332.573 3778.98 277.349 3765.78 220.925C3759.78 199.315 3750.17 192.112 3724.96 192.112C3706.95 192.112 3685.34 198.115 3676.94 206.518C3656.53 226.927 3658.93 282.151 3680.54 300.159ZM3693.75 228.128C3708.15 214.922 3715.36 216.123 3730.96 231.729C3758.58 258.141 3730.96 294.156 3697.35 274.948C3669.74 260.542 3668.54 248.536 3693.75 228.128Z" fill="black"></path>
  <path d="M3778.98 2572.73C3792.19 2587.14 3842.61 2581.13 3842.61 2565.53C3842.61 2535.51 3822.2 2518.71 3795.79 2527.11C3770.58 2534.31 3762.17 2557.12 3778.98 2572.73Z" fill="black"></path>
  <path d="M3824.6 1755.18C3849.81 1765.98 3858.22 1764.78 3878.63 1746.78C3919.44 1709.56 3902.64 1656.74 3848.61 1656.74C3790.99 1656.74 3772.98 1731.17 3824.6 1755.18ZM3848.61 1680.75C3858.22 1680.75 3866.62 1691.55 3866.62 1704.76C3866.62 1717.96 3858.22 1728.77 3848.61 1728.77C3839.01 1728.77 3830.61 1717.96 3830.61 1704.76C3830.61 1691.55 3839.01 1680.75 3848.61 1680.75Z" fill="black"></path>
  <path d="M3836.61 1171.73C3876.22 1181.34 3902.63 1158.53 3902.63 1115.31C3902.63 1085.29 3897.83 1080.49 3869.02 1080.49C3828.2 1080.49 3806.59 1099.7 3806.59 1136.92C3806.59 1156.12 3815 1165.73 3836.61 1171.73ZM3858.22 1106.9C3872.62 1104.5 3878.62 1110.51 3878.62 1127.31C3878.62 1141.72 3871.42 1152.52 3863.02 1152.52C3825.8 1152.52 3822.2 1114.11 3858.22 1106.9Z" fill="black"></path>
  <path d="M3849.81 908.82C3895.43 925.627 3933.85 859.599 3896.63 828.385C3881.03 815.18 3873.82 816.38 3854.62 834.388C3825.8 860.799 3823.4 898.015 3849.81 908.82ZM3866.62 858.398C3872.62 854.797 3878.63 857.198 3878.63 863.2C3878.63 870.403 3872.62 876.406 3866.62 876.406C3859.42 876.406 3854.62 874.005 3854.62 871.604C3854.62 868.002 3859.42 862 3866.62 858.398Z" fill="black"></path>
  <path d="M3911.04 4647.22C3930.25 4662.82 3931.45 4661.62 3915.84 4642.42C3907.44 4631.61 3897.83 4622.01 3895.43 4622.01C3885.83 4622.01 3891.83 4631.61 3911.04 4647.22Z" fill="black"></path>
  <path d="M3924.25 135.686C3953.06 162.097 3965.06 160.897 4003.48 130.884C4056.3 88.8661 4039.5 24.0386 3974.67 24.0386C3912.24 24.0386 3881.03 96.0692 3924.25 135.686ZM3953.06 55.2518C3979.47 39.6452 4017.89 72.059 4007.08 100.871C3999.88 120.079 3949.46 127.282 3933.85 111.676C3920.64 98.4702 3930.25 69.658 3953.06 55.2518Z" fill="black"></path>
  <path d="M3932.65 2180.16C3960.26 2190.96 3986.67 2176.56 3986.67 2150.15C3986.67 2120.13 3969.86 2109.33 3938.65 2118.93C3911.04 2127.34 3906.24 2170.55 3932.65 2180.16Z" fill="black"></path>
  <path d="M3979.47 1704.76C3987.87 1704.76 4002.28 1696.35 4010.68 1686.75C4029.89 1663.94 4009.48 1637.53 3981.87 1648.33C3957.86 1657.94 3956.66 1704.76 3979.47 1704.76Z" fill="black"></path>
  <path d="M3990.27 3487.52C4002.28 3492.32 4015.48 3493.52 4019.08 3488.72C4031.09 3476.72 4014.28 3467.11 3990.27 3473.11C3969.86 3477.92 3969.86 3477.92 3990.27 3487.52Z" fill="black"></path>
  <path d="M4015.48 4634.01C4026.29 4634.01 4034.69 4628.01 4034.69 4622.01C4034.69 4614.8 4029.89 4610 4023.89 4610C4016.68 4610 4008.28 4614.8 4004.68 4622.01C4001.08 4628.01 4005.88 4634.01 4015.48 4634.01Z" fill="black"></path>
  <path d="M4027.49 2465.88C4045.5 2470.69 4098.32 2513.91 4145.14 2564.33C4229.17 2653.16 4322.81 2734.8 4322.81 2719.19C4322.81 2715.59 4297.6 2687.98 4265.19 2657.97C4233.98 2627.95 4170.35 2565.53 4123.53 2518.71C4053.9 2450.28 4033.49 2437.07 4016.68 2445.48C3998.68 2456.28 3999.88 2458.68 4027.49 2465.88Z" fill="black"></path>
  <path d="M4028.69 3757.63C4038.29 3766.03 4055.1 3769.64 4064.7 3764.83C4088.71 3756.43 4087.51 3714.41 4063.5 3704.81C4037.09 3695.2 4037.09 3695.2 4023.89 3720.41C4014.28 3737.22 4015.48 3746.83 4028.69 3757.63Z" fill="black"></path>
  <path d="M4058.7 2887.26C4074.31 2896.87 4094.72 2883.66 4094.72 2863.25C4094.72 2846.45 4065.9 2830.84 4053.9 2841.64C4043.1 2853.65 4045.5 2878.86 4058.7 2887.26Z" fill="black"></path>
  <path d="M4074.31 4097.38C4099.52 4106.98 4121.13 4087.78 4116.33 4062.56C4110.32 4030.15 4065.91 4032.55 4061.1 4064.97C4058.7 4079.37 4064.7 4093.78 4074.31 4097.38Z" fill="black"></path>
  <path d="M4081.51 384.196C4116.33 402.204 4164.35 379.394 4173.95 340.977C4183.56 301.36 4166.75 271.348 4131.93 266.545C4071.91 256.941 4029.89 355.384 4081.51 384.196ZM4100.72 295.358C4123.53 286.954 4155.95 319.368 4147.54 342.178C4140.34 360.186 4105.52 366.188 4091.12 351.782C4076.71 337.376 4082.71 302.561 4100.72 295.358Z" fill="black"></path>
  <path d="M4107.92 3457.51C4121.13 3457.51 4128.33 3451.51 4124.73 3445.5C4121.13 3438.3 4109.12 3433.5 4099.52 3433.5C4089.92 3433.5 4082.71 3438.3 4082.71 3445.5C4082.71 3451.51 4093.52 3457.51 4107.92 3457.51Z" fill="black"></path>
  <path d="M4106.72 726.341C4113.93 731.143 4123.53 729.942 4130.73 726.341C4148.74 715.536 4145.14 684.323 4125.93 684.323C4105.52 684.323 4091.12 716.736 4106.72 726.341Z" fill="black"></path>
  <path d="M4141.54 1229.36C4163.15 1242.56 4191.96 1222.15 4188.36 1195.74C4183.55 1160.93 4137.94 1160.93 4133.13 1196.94C4130.73 1210.15 4134.33 1225.76 4141.54 1229.36Z" fill="black"></path>
  <path d="M4166.75 2431.07C4172.75 2427.47 4178.75 2419.06 4178.75 2411.86C4178.75 2405.86 4172.75 2401.06 4166.75 2401.06C4159.55 2401.06 4154.74 2409.46 4154.74 2420.27C4154.74 2429.87 4159.55 2434.67 4166.75 2431.07Z" fill="black"></path>
  <path d="M4289.2 3540.34C4339.62 3539.14 4346.82 3536.74 4322.81 3529.54C4279.6 3515.13 4226.77 3515.13 4226.77 3529.54C4226.77 3536.74 4255.59 3541.54 4289.2 3540.34Z" fill="black"></path>
  <path d="M4245.98 3275.03C4256.79 3273.83 4268.79 3264.22 4272.39 3255.82C4275.99 3245.02 4269.99 3240.21 4255.59 3243.82C4244.78 3245.02 4232.78 3254.62 4229.17 3263.02C4225.57 3273.83 4231.58 3278.63 4245.98 3275.03Z" fill="black"></path>
  <path d="M4304.81 1349.41C4328.82 1372.22 4336.02 1373.42 4363.63 1353.01C4376.84 1343.41 4384.04 1325.4 4380.44 1307.39C4375.64 1270.18 4326.42 1267.78 4302.41 1303.79C4288 1326.6 4288 1332.6 4304.81 1349.41Z" fill="black"></path>
  <path d="M4355.23 3689.21C4358.83 3694.01 4375.64 3697.61 4391.24 3697.61C4412.85 3697.61 4418.86 3690.41 4418.86 3668.8C4418.86 3653.19 4410.45 3636.38 4399.65 3632.78C4366.03 3619.58 4331.22 3665.2 4355.23 3689.21Z" fill="black"></path>
  <path d="M4355.23 2344.63C4372.04 2362.64 4417.66 2351.83 4424.86 2329.02C4434.46 2299.01 4423.66 2281 4396.05 2281C4360.03 2281 4332.42 2323.02 4355.23 2344.63Z" fill="black"></path>
  <path d="M4376.84 4417.91C4403.25 4439.52 4436.86 4419.12 4436.86 4380.7C4436.86 4356.69 4430.86 4351.89 4400.85 4351.89C4373.24 4351.89 4363.63 4357.89 4361.23 4377.1C4358.83 4390.3 4366.03 4409.51 4376.84 4417.91Z" fill="black"></path>
  <path d="M4375.64 3281.03C4405.65 3293.04 4435.66 3241.42 4408.05 3224.61C4388.84 3212.6 4358.83 3230.61 4358.83 3253.42C4358.83 3265.43 4366.03 3277.43 4375.64 3281.03Z" fill="black"></path>
  <path d="M4373.24 597.883C4391.24 615.891 4406.85 615.891 4406.85 599.084C4406.85 593.081 4402.05 589.48 4396.05 594.282C4390.04 597.883 4380.44 594.282 4375.64 587.079C4369.63 577.475 4380.44 575.074 4411.65 578.675C4435.66 581.076 4454.87 578.675 4454.87 573.873C4454.87 569.071 4433.26 564.269 4406.85 564.269C4357.63 564.269 4348.03 572.673 4373.24 597.883Z" fill="black"></path>
  <path d="M4402.05 1762.38C4412.85 1761.18 4424.86 1751.58 4428.46 1743.18C4432.06 1732.37 4426.06 1727.57 4411.65 1731.17C4400.85 1732.37 4388.84 1741.98 4385.24 1750.38C4381.64 1761.18 4387.64 1765.99 4402.05 1762.38Z" fill="black"></path>
  <path d="M4448.87 1555.89C4474.08 1566.7 4502.89 1552.29 4502.89 1530.68C4502.89 1505.47 4470.48 1494.67 4448.87 1512.67C4426.06 1531.88 4426.06 1547.49 4448.87 1555.89Z" fill="black"></path>
  <path d="M4450.07 1172.94C4463.28 1177.74 4476.48 1171.74 4487.29 1158.53C4500.49 1139.32 4500.49 1133.32 4486.09 1117.71C4471.68 1103.31 4464.48 1103.31 4450.07 1116.51C4424.86 1135.72 4426.06 1163.33 4450.07 1172.94Z" fill="black"></path>
  <path d="M4459.67 2063.71C4471.68 2074.52 4478.88 2073.32 4490.89 2058.91C4510.1 2036.1 4489.69 2009.69 4462.07 2020.49C4438.06 2030.1 4438.06 2045.7 4459.67 2063.71Z" fill="black"></path>
  <path d="M4477.68 2732.4C4508.9 2782.82 4534.11 2798.43 4510.1 2752.81C4494.49 2722.79 4454.87 2677.17 4454.87 2690.38C4454.87 2692.78 4465.68 2711.99 4477.68 2732.4Z" fill="black"></path>
  <path d="M4490.89 3589.56C4496.89 3589.56 4502.89 3583.56 4502.89 3577.56C4502.89 3570.35 4496.89 3565.55 4490.89 3565.55C4483.68 3565.55 4478.88 3570.35 4478.88 3577.56C4478.88 3583.56 4483.68 3589.56 4490.89 3589.56Z" fill="black"></path>
  <path d="M4514.9 672.32C4536.51 672.32 4562.92 641.107 4562.92 613.495C4562.92 593.086 4526.9 565.475 4508.89 571.477C4496.89 576.279 4490.89 595.487 4490.89 625.5C4490.89 663.917 4494.49 672.32 4514.9 672.32Z" fill="black"></path>
  <path d="M4558.11 2839.24L4589.33 2875.26L4562.92 2835.64C4548.51 2815.23 4535.31 2797.22 4531.7 2797.22C4523.3 2797.22 4525.7 2802.03 4558.11 2839.24Z" fill="black"></path>
  <path d="M4538.91 2719.19C4559.32 2731.2 4591.73 2695.18 4582.13 2671.17C4578.52 2660.37 4565.32 2653.17 4554.51 2655.57C4529.3 2660.37 4518.5 2707.19 4538.91 2719.19Z" fill="black"></path>
  <path d="M4589.33 4379.5C4622.94 4413.12 4675.77 4383.1 4668.56 4332.68C4663.76 4296.67 4628.95 4276.26 4601.33 4293.07C4576.12 4309.87 4568.92 4359.09 4589.33 4379.5Z" fill="black"></path>
  <path d="M4620.54 2249.79C4658.96 2261.8 4682.97 2244.99 4682.97 2207.78C4682.97 2142.95 4608.54 2147.75 4601.33 2212.58C4598.93 2234.19 4603.74 2244.99 4620.54 2249.79Z" fill="black"></path>
  <path d="M4652.96 2959.3C4668.56 2978.51 4681.77 2989.31 4682.97 2982.11C4682.97 2974.9 4669.76 2956.9 4652.96 2941.29C4614.54 2905.27 4614.54 2912.48 4652.96 2959.3Z" fill="black"></path>
  <path d="M4655.36 2422.67C4681.77 2417.86 4685.37 2371.04 4658.96 2371.04C4649.35 2371.04 4639.75 2384.25 4637.35 2398.65C4633.75 2421.46 4637.35 2426.27 4655.36 2422.67Z" fill="black"></path>
  <path d="M4663.76 2848.84C4679.37 2854.85 4682.97 2847.64 4682.97 2814.03C4682.97 2785.22 4678.17 2773.21 4667.36 2775.61C4644.55 2784.02 4642.15 2840.44 4663.76 2848.84Z" fill="black"></path>
</svg>
