<svg width="4003" height="4062" viewBox="0 0 4003 4062" fill="none" xmlns="http://www.w3.org/2000/svg">
<path d="M878.755 22.5717C877.554 63.3892 966.392 368.319 1044.43 596.417C1081.64 704.463 1088.84 735.676 1075.64 735.676C1066.03 735.676 1057.63 730.874 1057.63 724.872C1057.63 718.869 1048.03 710.466 1037.22 706.864C1020.42 699.661 1020.42 703.262 1040.82 724.872C1052.83 738.077 1062.43 760.887 1060.03 772.892C1057.63 784.897 1069.64 826.915 1086.44 864.131C1102.05 902.548 1132.06 985.383 1152.47 1047.81C1207.7 1219.48 1256.92 1351.54 1291.73 1419.97C1330.15 1496.8 1312.14 1489.6 1266.52 1410.36C1229.3 1346.74 1022.82 1091.03 919.572 981.781C811.526 867.733 809.125 862.931 845.14 819.712C871.552 788.499 873.953 778.895 864.349 748.882C847.541 700.861 801.922 679.252 755.102 697.26C720.287 710.466 716.686 708.065 651.858 637.234C569.022 549.597 537.809 502.777 534.208 460.759C530.606 424.744 478.984 375.522 445.37 375.522C432.164 375.522 399.75 383.926 373.339 394.731C304.91 422.342 296.506 460.759 350.529 513.581C373.339 536.391 408.154 556.8 427.362 561.602C462.177 567.605 462.177 567.605 433.364 555.599C385.344 533.99 361.334 506.378 361.334 469.162C361.334 401.934 433.364 365.918 490.989 406.736C525.804 430.746 527.004 497.975 493.39 531.589C480.184 544.795 474.182 555.599 480.184 555.599C487.388 555.599 495.791 549.597 499.393 542.394C504.195 536.391 511.398 531.589 517.4 533.99C539.01 542.394 685.472 730.874 685.472 750.082C685.472 780.095 678.269 777.694 608.639 724.872C575.025 699.661 531.807 669.648 511.398 657.643L475.382 636.034L499.393 660.044C512.598 673.25 588.231 736.877 666.264 801.705C791.117 902.548 816.328 930.159 860.747 1008.19C889.559 1057.41 962.791 1169.06 1025.22 1255.5C1087.64 1343.14 1153.67 1437.98 1171.68 1467.99C1190.89 1498 1228.1 1552.02 1255.72 1588.04C1283.33 1624.06 1356.56 1729.7 1417.79 1822.14C1480.21 1914.58 1547.44 2011.82 1569.05 2038.23C1623.07 2105.46 1637.48 2143.88 1614.67 2166.69C1599.06 2182.29 1585.86 2179.89 1504.22 2152.28C1453.8 2135.47 1376.97 2111.46 1334.95 2099.46C1291.73 2087.45 1244.91 2069.45 1230.51 2059.84C1213.7 2049.04 1202.89 2047.84 1199.29 2055.04C1190.89 2081.45 673.467 1885.77 673.467 1856.96C673.467 1828.14 618.243 1801.73 578.627 1810.14C531.807 1819.74 415.357 1769.32 181.257 1637.26C45.5988 1561.63 5.9819 1543.62 3.58087 1559.23C-2.42169 1582.04 -22.8304 1567.63 176.455 1686.48C332.521 1780.12 344.527 1789.73 330.12 1810.14C314.514 1830.54 310.912 1831.74 244.884 1812.54C152.444 1786.12 31.1927 1756.11 14.3855 1756.11C-4.82272 1756.11 -1.22118 1792.13 19.1875 1799.33C28.7916 1804.13 37.1952 1813.74 37.1952 1822.14C37.1952 1843.75 62.406 1850.95 88.8173 1837.75C116.429 1823.34 187.259 1843.75 457.375 1944.59C572.624 1987.81 737.094 2040.63 822.331 2063.44C969.994 2101.86 1033.62 2128.27 977.197 2128.27C923.174 2128.27 774.31 2088.65 759.904 2070.65C747.899 2055.04 740.696 2053.84 723.889 2064.64C707.081 2074.25 667.465 2070.65 559.418 2049.04C480.184 2034.63 388.946 2017.82 356.532 2014.22C314.514 2008.22 296.506 1999.82 292.904 1984.21C285.701 1955.4 254.488 1943.39 234.079 1961.4C222.074 1971 195.663 1965 126.033 1936.19C8.38292 1888.17 -2.4217 1896.57 111.627 1946.99C159.648 1968.6 207.668 1993.81 217.272 2002.22C235.28 2017.82 254.488 2021.43 439.367 2050.24C668.665 2086.25 776.711 2105.46 817.529 2117.47C897.963 2141.48 896.762 2140.28 878.755 2151.08C870.351 2157.08 889.559 2158.28 923.174 2154.68C955.588 2152.28 1027.62 2158.28 1085.24 2170.29C1141.67 2181.09 1194.49 2187.1 1200.49 2182.29C1207.7 2178.69 1247.31 2185.9 1289.33 2199.1C1330.15 2212.31 1408.18 2237.52 1463.4 2254.32C1517.43 2272.33 1561.85 2290.34 1561.85 2295.14C1561.85 2304.75 1450.2 2356.37 1430.99 2356.37C1424.99 2356.37 1404.58 2369.57 1385.37 2383.98C1367.36 2399.59 1332.55 2415.19 1309.74 2418.8C1285.73 2423.6 1211.3 2451.21 1144.07 2481.22C1075.64 2512.44 979.598 2544.85 930.377 2554.45C881.156 2564.06 835.536 2574.86 829.534 2578.46C812.727 2589.27 803.122 2562.86 819.93 2552.05C828.333 2547.25 913.57 2514.84 1008.41 2482.42C1195.69 2417.59 1255.72 2375.58 1103.25 2417.59C909.968 2470.42 147.642 2733.33 127.234 2754.94C118.83 2763.34 122.432 2765.74 139.239 2760.94C152.444 2757.34 206.468 2742.93 259.29 2728.53C312.113 2714.12 440.568 2673.3 545.012 2637.29C735.894 2572.46 781.513 2561.66 781.513 2584.47C781.513 2590.47 717.886 2615.68 641.053 2638.49C563.02 2662.5 494.591 2684.11 487.388 2686.51C481.385 2688.91 490.989 2691.31 510.197 2691.31C530.606 2692.51 617.043 2672.1 702.279 2645.69C788.716 2620.48 891.96 2594.07 932.778 2585.67C972.395 2578.46 1060.03 2550.85 1128.46 2523.24C1252.11 2475.22 1328.95 2464.41 1223.3 2510.03C1192.09 2524.44 1136.87 2554.45 1099.65 2577.26C1063.63 2601.27 1002.41 2636.09 965.192 2655.3C872.752 2702.12 745.498 2792.15 649.457 2879.79C606.238 2918.21 525.804 2981.84 469.38 3019.05C412.956 3056.27 319.316 3124.7 261.691 3171.52C195.663 3225.54 145.241 3256.75 127.234 3256.75C105.624 3256.75 96.0204 3265.16 90.0178 3285.57C72.0101 3360 129.635 3358.8 224.475 3283.16C310.912 3213.53 470.58 3103.09 533.007 3070.67C558.218 3057.47 626.647 3011.85 685.472 2968.63C885.958 2822.17 967.593 2768.14 1088.84 2699.72C1192.09 2642.09 1218.5 2632.49 1271.32 2632.49C1351.76 2632.49 1381.77 2619.28 1444.2 2558.05C1499.42 2501.63 1573.85 2459.61 1589.46 2475.22C1594.26 2480.02 1593.06 2523.24 1585.86 2570.06C1578.65 2616.88 1575.05 2660.1 1578.65 2666.1C1582.26 2670.9 1567.85 2708.12 1548.64 2747.74C1495.82 2850.98 1444.2 3025.05 1445.4 3093.48V3152.31L1468.21 3099.49C1480.21 3070.67 1487.41 3059.87 1483.81 3076.68C1479.01 3093.48 1473.01 3133.1 1470.61 3166.71C1462.2 3251.95 1482.61 3212.33 1506.62 3094.68C1517.43 3041.86 1536.64 2968.63 1548.64 2932.61C1578.65 2843.78 1593.06 2790.95 1596.66 2754.94C1596.66 2747.74 1602.66 2740.53 1608.67 2740.53C1613.47 2740.53 1621.87 2790.95 1626.67 2852.18C1631.48 2912.21 1642.28 2997.44 1651.89 3040.66C1661.49 3085.08 1668.69 3178.72 1667.49 3256.75C1666.29 3390.01 1681.9 3608.5 1707.11 3796.98C1713.11 3846.2 1717.91 3907.43 1717.91 3932.64C1717.91 3961.45 1723.92 3980.66 1735.92 3984.26C1746.73 3989.07 1753.93 4007.07 1753.93 4026.28C1753.93 4045.49 1759.93 4061.1 1767.13 4061.1C1774.34 4061.1 1776.74 4041.89 1771.94 4009.47C1759.93 3919.44 1740.72 3616.91 1733.52 3388.81L1727.52 3166.71L1774.34 3214.74C1853.57 3293.97 1873.98 3307.17 1873.98 3274.76C1873.98 3265.16 1840.37 3225.54 1800.75 3187.12L1727.52 3117.49L1737.12 2901.4C1743.12 2783.75 1744.32 2656.5 1740.72 2620.48C1734.72 2565.26 1737.12 2550.85 1755.13 2532.84C1768.33 2520.84 1777.94 2499.23 1777.94 2483.62C1777.94 2454.81 1799.55 2439.2 1841.57 2434.4C1865.58 2432 1885.99 2407.99 1885.99 2383.98C1885.99 2374.38 1906.39 2379.18 1943.61 2397.19C1974.82 2413.99 2067.26 2448.81 2150.1 2475.22C2232.93 2502.83 2308.57 2530.44 2318.17 2536.45C2354.19 2560.46 2286.96 2548.45 2204.12 2518.44C2110.48 2482.42 2057.66 2483.62 2132.09 2518.44C2158.5 2531.64 2187.31 2548.45 2195.72 2556.85C2204.12 2565.26 2217.33 2572.46 2224.53 2572.46C2236.53 2572.46 2530.66 2685.31 2614.7 2722.52C2636.31 2732.13 2731.15 2764.54 2824.79 2795.76C2919.63 2825.77 3001.26 2855.78 3008.46 2861.78C3014.47 2867.79 3032.47 2872.59 3046.88 2872.59C3086.5 2872.59 3408.24 2992.64 3594.31 3077.88C3679.55 3116.29 3743.18 3140.3 3735.98 3131.9C3728.77 3124.7 3726.37 3105.49 3731.17 3091.08C3735.98 3070.67 3732.37 3064.67 3713.17 3064.67C3699.96 3064.67 3686.75 3070.67 3684.35 3079.08C3680.75 3088.68 3627.93 3068.27 3529.49 3020.25C3447.85 2979.43 3310.99 2919.41 3224.56 2884.59C3139.32 2850.98 3058.89 2813.76 3048.08 2804.16C3036.08 2793.36 3019.27 2788.55 3009.66 2792.15C2977.25 2805.36 2390.2 2601.27 2380.6 2574.86C2378.2 2567.66 2421.41 2572.46 2476.64 2585.67C2531.86 2597.67 2582.28 2608.48 2588.28 2608.48C2595.49 2609.68 2589.49 2614.48 2576.28 2620.48C2553.47 2628.88 2554.67 2631.29 2585.88 2643.29C2627.9 2660.1 2657.91 2660.1 2648.31 2644.49C2638.71 2627.68 2647.11 2628.88 2699.93 2651.69C2776.77 2682.91 2946.04 2738.13 2994.06 2746.54C3018.07 2750.14 3098.5 2780.15 3170.53 2812.56C3242.56 2846.18 3307.39 2872.59 3314.6 2872.59C3320.6 2872.59 3335 2885.79 3345.81 2902.6C3381.82 2957.83 3446.65 2954.22 3446.65 2897.8C3446.65 2826.97 3381.82 2787.35 3347.01 2836.57C3330.2 2860.58 3326.6 2858.18 3157.33 2778.95C3062.49 2733.33 2947.24 2684.11 2902.82 2668.5L2819.98 2639.69L2881.21 2625.28C2938.83 2613.28 3009.66 2576.06 2998.86 2565.26C2996.46 2562.86 2978.45 2567.66 2960.44 2577.26C2937.63 2589.27 2889.61 2595.27 2819.98 2595.27C2731.15 2595.27 2701.13 2589.27 2629.1 2559.26C2581.08 2540.05 2533.06 2524.44 2521.06 2524.44C2488.64 2524.44 2248.54 2429.6 2230.53 2410.39C2223.33 2400.79 2208.92 2385.18 2200.52 2374.38C2189.71 2362.37 2163.3 2356.37 2118.88 2356.37C2082.87 2356.37 2033.65 2347.96 2009.64 2338.36C1986.83 2328.76 1955.61 2320.35 1941.21 2320.35C1905.19 2320.35 1883.58 2303.55 1891.99 2281.94C1897.99 2266.33 1907.59 2265.13 1942.41 2274.73C1966.42 2280.74 2003.64 2283.14 2026.45 2278.34C2049.25 2274.73 2066.06 2274.73 2062.46 2280.74C2052.86 2296.34 2473.04 2289.14 2531.86 2273.53C2571.48 2262.73 2755.16 2260.33 3261.77 2265.13C3687.95 2268.73 3936.46 2266.33 3932.86 2259.13C3928.06 2253.12 3938.86 2248.32 3955.67 2248.32C3996.49 2248.32 4015.69 2212.31 3991.68 2178.69C3968.87 2146.28 3919.65 2143.88 3904.05 2173.89C3895.64 2190.7 3896.84 2203.9 3908.85 2220.71C3925.66 2244.72 3924.46 2244.72 3785.2 2239.92C3708.36 2237.52 3513.88 2226.71 3354.21 2217.11C3194.54 2207.5 2989.26 2199.1 2898.02 2199.1C2758.76 2197.9 2741.95 2195.5 2792.37 2185.9C2825.99 2179.89 2906.42 2161.89 2972.45 2146.28C3190.94 2093.46 3237.76 2088.65 3390.23 2095.86C3539.09 2103.06 3552.3 2095.86 3435.85 2068.25C3348.21 2047.84 3205.35 2058.64 3050.48 2097.06C2880.01 2140.28 2881.21 2139.08 2889.61 2127.07C2899.22 2111.46 2883.61 2113.86 2812.78 2140.28C2759.96 2160.68 2627.9 2175.09 2643.51 2158.28C2647.11 2155.88 2678.32 2145.08 2714.34 2135.47C2750.35 2125.87 2841.59 2101.86 2916.02 2081.45C2990.46 2061.04 3067.29 2045.44 3086.5 2046.64C3105.71 2047.84 3130.92 2040.63 3142.92 2028.63C3156.13 2016.62 3213.75 2001.02 3284.58 1990.21C3509.08 1954.2 3811.61 1866.56 3752.78 1854.55C3739.58 1852.15 3707.16 1829.34 3680.75 1805.33C3650.74 1777.72 3583.51 1740.51 3500.67 1705.69C3265.37 1606.05 3279.78 1614.45 3315.8 1613.25C3344.61 1612.05 3584.71 1651.67 3635.13 1666.07C3647.14 1669.68 3641.13 1664.87 3620.73 1655.27C3601.52 1646.87 3517.48 1624.06 3434.65 1606.05C3351.81 1589.24 3276.18 1571.23 3266.57 1567.63C3234.16 1556.83 3302.59 1531.62 3452.65 1499.2C3713.17 1441.58 3854.83 1405.56 3854.83 1394.76C3854.83 1376.75 3810.41 1381.55 3632.73 1418.77C3540.29 1436.78 3419.04 1459.59 3362.62 1467.99C3253.37 1483.6 3169.33 1519.61 2972.45 1630.06C2822.38 1715.29 2765.96 1745.31 2594.29 1826.94C2511.45 1866.56 2401.01 1922.98 2348.18 1951.8C2295.36 1980.61 2231.73 2010.62 2207.72 2019.02C2183.71 2027.43 2146.5 2052.64 2126.09 2076.65C2104.48 2100.66 2062.46 2136.67 2032.45 2157.08C1983.23 2190.7 1967.62 2194.3 1913.6 2190.7C1876.38 2188.3 1849.97 2179.89 1849.97 2172.69C1849.97 2164.29 1897.99 2135.47 1956.82 2107.86C2014.44 2079.05 2102.08 2027.43 2151.3 1990.21C2200.52 1954.2 2247.34 1924.18 2255.74 1924.18C2264.15 1924.18 2289.36 1904.98 2313.37 1882.17C2336.18 1859.36 2364.99 1840.15 2376.99 1840.15C2389 1840.15 2402.21 1831.74 2405.81 1822.14C2410.61 1812.54 2434.62 1794.53 2459.83 1781.32C2516.25 1752.51 2830.79 1517.21 2946.04 1418.77C2991.66 1379.15 3032.47 1347.94 3037.28 1347.94C3043.28 1347.94 3054.08 1356.34 3062.49 1365.95C3080.5 1387.55 3112.91 1388.76 3132.12 1369.55C3151.33 1350.34 3150.13 1323.93 3128.52 1299.92C3108.11 1277.11 3115.31 1269.9 3362.62 1065.82C3537.89 921.756 3565.5 896.545 3620.73 834.118C3657.94 793.301 3686.75 771.692 3704.76 771.692C3719.17 771.692 3738.38 763.288 3746.78 754.885C3767.19 728.473 3756.38 682.854 3728.77 678.052C3705.96 673.25 3705.96 674.45 3727.57 690.057C3761.19 716.468 3747.98 753.684 3704.76 753.684C3661.54 753.684 3648.34 716.468 3681.95 690.057C3703.56 674.45 3703.56 673.25 3680.75 678.052C3662.74 680.453 3655.54 692.458 3653.14 727.273C3649.54 774.093 3636.33 786.098 3392.63 963.774C3353.01 993.787 3268.98 1059.81 3208.95 1110.24C2934.03 1343.14 2881.21 1386.35 2768.36 1472.79C2635.1 1574.83 2396.2 1744.11 2385.4 1744.11C2361.39 1744.11 2390.2 1711.69 2477.84 1642.06C2531.86 1597.64 2642.31 1501.6 2723.94 1428.37C2805.58 1353.94 2887.21 1285.51 2906.42 1274.71C2925.63 1263.9 2938.83 1251.9 2935.23 1248.3C2923.23 1236.29 3232.96 987.784 3260.57 987.784C3290.59 987.784 3314.6 967.375 3314.6 939.763C3315.8 915.753 3431.05 826.915 3437.05 846.123C3440.65 854.527 3451.45 856.928 3463.46 852.126C3480.27 844.923 3482.67 840.121 3471.86 826.915C3459.86 813.71 3467.06 802.905 3505.48 775.293C3531.89 757.286 3557.1 734.476 3559.5 726.072C3567.9 705.663 3485.07 748.882 3374.62 823.314C3326.6 855.728 3270.18 888.141 3252.17 894.144C3234.16 901.347 3218.55 910.951 3218.55 916.954C3218.55 921.756 3182.54 956.571 3136.92 992.586C3080.5 1038.21 3043.28 1058.61 3014.47 1062.22C2979.65 1064.62 2971.25 1071.82 2966.45 1098.23C2956.84 1148.65 2746.75 1322.73 2651.91 1358.74C2601.49 1377.95 2576.28 1382.75 2572.68 1373.15C2570.28 1365.95 2560.67 1359.94 2551.07 1359.94C2541.46 1359.94 2534.26 1356.34 2534.26 1351.54C2534.26 1346.74 2573.88 1284.31 2623.1 1211.08C2671.12 1137.85 2716.74 1059.81 2725.14 1037.01C2741.95 986.583 2743.15 871.334 2726.34 861.73C2720.34 858.129 2714.34 865.332 2714.34 877.337C2714.34 890.542 2703.53 903.748 2690.33 907.35C2657.91 915.753 2657.91 963.774 2691.53 972.177C2735.95 984.182 2704.73 1065.82 2600.29 1203.88C2572.68 1239.89 2527.06 1309.52 2499.45 1356.34C2465.83 1415.17 2437.02 1449.98 2410.61 1463.19C2389 1473.99 2354.19 1496.8 2331.38 1513.61L2290.56 1544.82L2327.77 1489.6C2348.18 1459.59 2384.2 1383.95 2407.01 1322.73C2512.65 1033.4 2511.45 1035.8 2541.46 1043.01C2561.87 1047.81 2570.28 1045.41 2570.28 1032.2C2570.28 1022.6 2561.87 1010.59 2552.27 1006.99C2535.46 1000.99 2536.66 993.787 2559.47 949.368C2573.88 920.555 2605.09 867.733 2629.1 831.717C2695.13 733.275 2693.93 735.676 2673.52 742.879C2643.51 754.885 2450.23 1033.4 2450.23 1064.62C2450.23 1094.63 2396.2 1191.87 2375.79 1199.07C2355.39 1205.08 2352.98 1213.48 2358.99 1250.7C2363.79 1284.31 2357.79 1311.92 2331.38 1368.35C2286.96 1460.79 2186.11 1604.85 2087.67 1715.29C2045.65 1762.11 1996.43 1818.54 1976.02 1841.35C1956.82 1864.16 1934.01 1897.77 1924.4 1918.18C1905.19 1961.4 1755.13 2106.66 1738.32 2095.86C1731.12 2092.26 1729.92 2044.24 1734.72 1973.4C1739.52 1909.78 1743.12 1825.74 1743.12 1786.12C1741.92 1746.51 1746.73 1697.29 1751.53 1678.08C1762.33 1643.26 1762.33 1643.26 1771.94 1699.69C1776.74 1730.9 1781.54 1790.93 1783.94 1831.74C1788.74 1984.21 1789.94 1985.41 1809.15 1924.18C1818.76 1894.17 1827.16 1835.35 1827.16 1792.13C1828.36 1748.91 1833.16 1708.09 1837.96 1702.09C1852.37 1681.68 1860.77 1636.06 1848.77 1636.06C1842.77 1636.06 1837.96 1644.46 1837.96 1656.47C1837.96 1667.27 1834.36 1672.08 1829.56 1667.27C1824.76 1662.47 1818.76 1574.83 1816.36 1470.39C1811.55 1212.28 1811.55 1184.67 1824.76 1101.83C1831.96 1062.22 1840.37 1004.59 1843.97 972.177C1851.17 920.555 1853.57 915.753 1878.78 922.956C1914.8 931.36 1943.61 898.946 1925.6 870.134C1918.4 858.129 1901.59 849.725 1887.19 850.926C1858.37 852.126 1857.17 835.319 1869.18 697.26C1876.38 627.63 1881.18 616.826 1903.99 610.823C1940.01 601.219 1948.41 576.008 1926.8 544.795C1895.59 500.376 1837.96 519.584 1837.96 576.008C1837.96 590.414 1827.16 630.031 1813.95 663.646C1800.75 697.26 1789.94 739.278 1791.14 757.286C1792.35 781.296 1797.15 775.293 1810.35 729.674C1852.37 583.211 1869.18 580.81 1849.97 724.872C1841.57 780.095 1831.96 884.54 1825.96 955.37C1821.16 1027.4 1811.55 1091.03 1805.55 1097.03C1800.75 1101.83 1782.74 1100.63 1765.93 1092.23C1738.32 1079.02 1734.72 1080.22 1721.51 1105.43C1701.11 1143.85 1702.31 1167.86 1725.12 1193.07C1741.92 1212.28 1743.12 1231.49 1731.12 1359.94C1723.92 1439.18 1720.31 1517.21 1723.92 1531.62C1727.52 1546.02 1719.11 1590.44 1704.71 1630.06C1675.9 1708.09 1671.09 1752.51 1684.3 1812.54C1689.1 1834.15 1689.1 1852.15 1684.3 1852.15C1666.29 1852.15 1633.88 1732.1 1633.88 1664.87C1633.88 1625.26 1627.87 1574.83 1621.87 1552.02C1614.67 1529.22 1607.47 1460.79 1605.07 1401.96C1602.66 1317.93 1595.46 1281.91 1575.05 1242.29C1545.04 1184.67 1528.23 1179.87 1552.24 1235.09C1559.45 1254.3 1567.85 1331.13 1569.05 1407.96C1570.25 1483.6 1576.25 1566.43 1583.46 1590.44C1590.66 1615.65 1591.86 1636.06 1587.06 1636.06C1578.65 1636.06 1535.44 1507.61 1471.81 1293.91C1453.8 1233.89 1426.19 1145.05 1410.58 1095.83C1384.17 1010.59 1370.97 975.779 1284.53 757.286C1254.52 682.854 1248.51 655.242 1255.72 615.625C1262.92 573.607 1259.32 561.602 1236.51 536.391C1222.1 520.785 1196.89 507.579 1181.28 507.579C1160.88 507.579 1152.47 499.175 1146.47 473.965C1134.46 417.54 1132.06 416.34 1130.86 467.962C1129.66 523.186 1120.06 555.599 1105.65 555.599C1093.65 555.599 1057.63 452.355 1057.63 417.54C1057.63 404.335 1052.83 387.528 1046.83 381.525C1040.82 374.322 1014.41 313.096 988.001 243.466C961.59 173.836 925.575 87.3994 908.768 51.384C881.156 -9.84211 878.755 -12.2431 878.755 22.5717ZM1050.43 465.561C1081.64 558 1147.67 723.671 1195.69 832.918C1290.53 1045.41 1304.94 1093.43 1314.54 1214.68C1320.54 1301.12 1307.34 1293.91 1284.53 1197.87C1277.33 1165.46 1229.3 1032.2 1177.68 903.748C1070.84 637.234 1001.21 434.348 955.588 255.471C921.973 125.816 977.197 248.268 1050.43 465.561ZM1231.71 543.594C1247.31 561.602 1250.91 577.209 1244.91 610.823C1236.51 650.44 1234.11 652.841 1204.09 645.638C1142.87 630.031 1126.06 595.216 1153.67 542.394C1170.48 513.581 1204.09 513.581 1231.71 543.594ZM1920.8 553.198C1935.21 579.61 1917.2 603.62 1883.58 603.62C1854.77 603.62 1842.77 572.407 1861.97 549.597C1882.38 525.587 1906.39 526.787 1920.8 553.198ZM1174.08 651.64C1199.29 651.64 1345.75 1027.4 1327.75 1046.61C1325.35 1049.01 1330.15 1062.22 1339.75 1076.62C1360.16 1104.23 1363.76 1131.85 1346.95 1131.85C1340.95 1131.85 1318.14 1087.43 1297.73 1032.2C1277.33 978.18 1232.91 877.337 1199.29 808.908C1166.88 740.478 1134.46 668.448 1128.46 648.039C1118.86 614.425 1120.06 613.224 1140.47 632.432C1151.27 643.237 1166.88 651.64 1174.08 651.64ZM831.935 720.07C863.148 748.882 859.547 802.905 823.531 826.915C788.716 849.725 751.5 840.121 726.29 801.705C710.683 778.895 710.683 768.09 722.688 745.28C749.099 694.859 793.518 685.255 831.935 720.07ZM1160.88 903.748C1184.89 966.175 1217.3 1047.81 1231.71 1083.83C1247.31 1119.84 1262.92 1171.46 1266.52 1197.87L1274.92 1245.89L1252.11 1203.88C1238.91 1181.07 1219.7 1127.04 1208.9 1085.03C1192.09 1020.2 1162.08 950.568 1072.04 768.09C1069.64 762.088 1078.04 764.489 1092.45 774.093C1106.85 782.496 1134.46 834.118 1160.88 903.748ZM1916 884.54C1916 910.951 1899.19 919.355 1875.18 904.949C1852.37 890.542 1867.98 853.327 1894.39 858.129C1906.39 860.53 1916 872.535 1916 884.54ZM3499.47 925.357C3459.86 962.573 3399.83 1016.6 3367.42 1043.01C3223.36 1165.46 3092.5 1280.71 3088.9 1287.91C3086.5 1292.71 3097.3 1299.92 3110.51 1303.52C3129.72 1308.32 3135.72 1317.93 3132.12 1338.33C3127.32 1375.55 3075.69 1383.95 3066.09 1349.14C3058.89 1319.13 3036.08 1316.72 3013.27 1343.14C2952.04 1417.57 2470.63 1768.12 2431.02 1768.12C2427.42 1768.12 2409.41 1780.12 2390.2 1795.73C2340.98 1837.75 2163.3 1926.58 2148.9 1916.98C2141.69 1913.38 2120.09 1921.78 2099.68 1936.19C2027.65 1989.01 2055.26 1948.19 2152.5 1855.75C2326.57 1690.08 2380.6 1642.06 2516.25 1534.02C2589.49 1475.19 2702.33 1377.95 2768.36 1317.93C2834.39 1257.9 2910.02 1190.67 2936.43 1167.86C2972.45 1137.85 2983.25 1119.84 2979.65 1098.23C2977.25 1071.82 2979.65 1069.42 3010.87 1075.42C3038.48 1080.22 3060.09 1069.42 3130.92 1016.6C3178.94 980.581 3222.16 942.165 3228.16 931.36C3240.16 910.951 3326.6 876.136 3326.6 892.943C3326.6 898.946 3321.8 903.748 3315.8 903.748C3309.79 903.748 3302.59 918.154 3300.19 936.162C3297.79 963.774 3289.38 970.977 3258.17 975.779C3214.95 981.781 3130.92 1049.01 2878.81 1275.91C2663.92 1467.99 2588.28 1534.02 2479.04 1624.06C2426.22 1667.27 2342.18 1738.1 2289.36 1782.52C2237.74 1828.14 2190.92 1864.16 2184.91 1864.16C2180.11 1864.16 2168.11 1876.16 2160.9 1890.57C2146.5 1916.98 2146.5 1916.98 2175.31 1896.57C2190.92 1885.77 2234.13 1860.56 2271.35 1841.35C2308.57 1820.94 2355.39 1792.13 2374.59 1775.32C2395 1758.51 2415.41 1744.11 2420.21 1744.11C2429.82 1744.11 2558.27 1651.67 2647.11 1580.84C2680.72 1554.43 2749.15 1501.6 2798.37 1464.39C2847.6 1427.17 2935.23 1357.54 2992.86 1309.52C3264.17 1083.83 3546.29 860.53 3566.7 856.928C3570.3 856.928 3540.29 886.941 3499.47 925.357ZM2719.14 952.969C2709.54 969.776 2678.32 966.175 2678.32 948.167C2678.32 938.563 2681.92 927.758 2686.73 924.157C2697.53 913.352 2727.54 939.763 2719.14 952.969ZM1775.54 1160.66C1770.74 1194.27 1733.52 1200.27 1723.92 1167.86C1713.11 1133.05 1738.32 1101.83 1762.33 1122.24C1771.94 1129.44 1777.94 1147.45 1775.54 1160.66ZM1140.47 1305.92C1217.3 1409.16 1366.16 1643.26 1348.16 1631.26C1342.15 1627.66 1288.13 1553.23 1228.1 1465.59C1166.88 1377.95 1086.44 1262.7 1049.23 1209.88C968.793 1093.43 1027.62 1155.86 1140.47 1305.92ZM1450.2 1281.91C1470.61 1347.94 1515.03 1488.4 1548.64 1592.84C1602.66 1758.51 1608.67 1786.12 1591.86 1794.53C1582.26 1800.53 1573.85 1819.74 1573.85 1836.55C1573.85 1891.77 1553.44 1853.35 1500.62 1696.09C1463.4 1584.44 1450.2 1524.41 1447.8 1461.99C1445.4 1345.54 1412.98 1242.29 1375.77 1225.49C1343.35 1211.08 1337.35 1193.07 1360.16 1170.26C1392.57 1137.85 1411.78 1161.86 1450.2 1281.91ZM2421.41 1221.88C2426.22 1231.49 2421.41 1248.3 2413.01 1259.1C2399.8 1274.71 2396.2 1274.71 2380.6 1259.1C2360.19 1238.69 2369.79 1203.88 2396.2 1203.88C2407.01 1203.88 2417.81 1212.28 2421.41 1221.88ZM2372.19 1362.34C2345.78 1442.78 2140.49 1736.9 2072.06 1792.13C2048.05 1811.34 2098.48 1736.9 2234.13 1553.23C2279.75 1490.8 2331.38 1405.56 2350.58 1364.75C2368.59 1323.93 2386.6 1292.71 2389 1293.91C2390.2 1296.32 2383 1327.53 2372.19 1362.34ZM1357.76 1351.54C1357.76 1370.75 1336.15 1347.94 1330.15 1321.53C1322.94 1295.12 1324.15 1295.12 1339.75 1316.72C1349.36 1329.93 1357.76 1345.54 1357.76 1351.54ZM1794.75 1370.75C1798.35 1375.55 1798.35 1383.95 1794.75 1387.55C1785.14 1397.16 1753.93 1383.95 1753.93 1370.75C1753.93 1357.54 1786.34 1356.34 1794.75 1370.75ZM2534.26 1407.96C2505.45 1427.17 2497.05 1421.17 2511.45 1394.76C2521.06 1375.55 2528.26 1373.15 2537.86 1382.75C2548.67 1393.56 2547.47 1399.56 2534.26 1407.96ZM2624.3 1427.17C2527.06 1514.81 2438.22 1577.24 2423.81 1568.83C2416.61 1564.03 2414.21 1565.23 2419.01 1573.63C2422.61 1580.84 2322.97 1678.08 2184.91 1800.53C1948.41 2009.42 1894.39 2052.64 1941.21 1995.01C2080.47 1818.54 2156.1 1728.5 2169.31 1723.7C2177.71 1721.3 2187.31 1706.89 2190.92 1691.28C2196.92 1664.87 2310.97 1564.03 2333.78 1564.03C2340.98 1564.03 2325.37 1586.84 2298.96 1614.45C2272.55 1643.26 2243.74 1676.88 2235.33 1690.08C2225.73 1703.29 2248.54 1682.88 2283.35 1644.46C2324.17 1600.05 2357.79 1576.04 2374.59 1576.04C2393.8 1576.04 2401.01 1567.63 2404.61 1542.42C2408.21 1513.61 2423.81 1502.8 2534.26 1447.58C2603.89 1413.97 2662.72 1385.15 2666.32 1385.15C2669.92 1385.15 2650.71 1404.36 2624.3 1427.17ZM1441.8 1576.04C1494.62 1746.51 1493.42 1742.91 1470.61 1703.29C1451.4 1668.47 1369.76 1437.98 1369.76 1413.97C1369.76 1380.35 1406.98 1465.59 1441.8 1576.04ZM1240.11 1522.01C1250.91 1542.42 1250.91 1543.62 1236.51 1531.62C1226.9 1524.41 1210.1 1500.4 1198.09 1477.59L1175.28 1437.98L1200.49 1467.99C1214.9 1484.8 1232.91 1508.81 1240.11 1522.01ZM3313.39 1512.41C3247.37 1531.62 3204.15 1571.23 3230.56 1588.04C3242.56 1595.24 3234.16 1602.45 3200.55 1616.85C3176.54 1627.66 3151.33 1636.06 3145.32 1636.06C3140.52 1636.06 3102.1 1656.47 3060.09 1682.88C3018.07 1708.09 2944.84 1751.31 2898.02 1778.92C2812.78 1826.94 2797.17 1846.15 2822.38 1871.36C2836.79 1885.77 2817.58 1918.18 2799.58 1907.38C2792.37 1902.57 2786.37 1890.57 2786.37 1880.97C2786.37 1849.75 2739.55 1862.96 2590.69 1934.99C2373.39 2039.43 2248.54 2087.45 2231.73 2070.65C2223.33 2062.24 2219.73 2053.84 2223.33 2051.44C2225.73 2049.04 2285.76 2019.02 2357.79 1986.61C2428.62 1953 2486.24 1919.38 2486.24 1912.18C2486.24 1904.98 2563.07 1860.56 2657.91 1814.94C2751.55 1769.32 2874.01 1705.69 2930.43 1673.28C3139.32 1550.82 3255.77 1498 3313.39 1496.8L3368.62 1495.6L3313.39 1512.41ZM1798.35 1590.44C1795.95 1606.05 1793.55 1594.04 1793.55 1564.03C1793.55 1534.02 1795.95 1522.01 1798.35 1536.42C1800.75 1552.02 1800.75 1576.04 1798.35 1590.44ZM2383 1553.23C2379.4 1559.23 2370.99 1561.63 2364.99 1556.83C2358.99 1553.23 2356.59 1544.82 2361.39 1538.82C2364.99 1532.82 2373.39 1530.42 2379.4 1535.22C2385.4 1538.82 2387.8 1547.22 2383 1553.23ZM1729.92 1685.28C1721.51 1710.49 1717.91 1751.31 1721.51 1775.32C1728.72 1816.14 1727.52 1818.54 1713.11 1796.93C1687.9 1762.11 1687.9 1745.31 1713.11 1660.07C1729.92 1603.65 1737.12 1590.44 1739.52 1610.85C1741.92 1627.66 1737.12 1661.27 1729.92 1685.28ZM3335 1658.87C3373.42 1678.08 3457.46 1717.7 3523.48 1745.31C3642.34 1796.93 3720.37 1848.55 3702.36 1864.16C3689.16 1877.36 3503.08 1918.18 3326.6 1946.99C3243.77 1961.4 3164.53 1975.81 3151.33 1979.41C3136.92 1983.01 3121.31 1980.61 3117.71 1973.4C3109.31 1960.2 3073.29 1969.8 3060.09 1989.01C3055.28 1996.21 3031.27 2007.02 3006.06 2014.22C2965.25 2026.23 2959.24 2025.03 2948.44 2002.22C2941.24 1989.01 2925.63 1978.21 2912.42 1978.21C2894.42 1978.21 2888.41 1986.61 2888.41 2011.82C2889.61 2041.83 2883.61 2045.44 2792.37 2073.05C2606.29 2127.07 2551.07 2139.08 2462.23 2143.88C2355.39 2149.88 2338.58 2146.28 2354.19 2118.67C2360.19 2107.86 2367.39 2088.65 2370.99 2076.65C2374.59 2064.64 2452.63 2020.22 2566.68 1963.8C2753.96 1872.56 2755.16 1872.56 2771.96 1897.77C2792.37 1928.99 2813.98 1931.39 2835.59 1904.98C2847.6 1890.57 2847.6 1880.97 2836.79 1862.96C2819.98 1837.75 2823.59 1834.15 3026.47 1718.9C3211.35 1612.05 3234.16 1607.25 3335 1658.87ZM1453.8 1748.91C1453.8 1756.11 1445.4 1751.31 1435.79 1739.3C1426.19 1726.1 1417.79 1709.29 1417.79 1703.29C1417.79 1696.09 1426.19 1700.89 1435.79 1712.89C1445.4 1726.1 1453.8 1742.91 1453.8 1748.91ZM313.313 1739.3C313.313 1741.71 302.509 1739.3 289.303 1732.1C276.097 1724.9 265.293 1716.5 265.293 1712.89C265.293 1710.49 276.097 1712.89 289.303 1720.1C302.509 1727.3 313.313 1735.7 313.313 1739.3ZM1525.83 1822.14C1525.83 1828.14 1519.83 1825.74 1513.83 1816.14C1507.82 1806.53 1501.82 1792.13 1501.82 1786.12C1501.82 1778.92 1507.82 1782.52 1513.83 1792.13C1519.83 1801.73 1525.83 1814.94 1525.83 1822.14ZM397.349 1828.14C397.349 1843.75 388.946 1852.15 373.339 1852.15C357.732 1852.15 349.329 1843.75 349.329 1828.14C349.329 1812.54 357.732 1804.13 373.339 1804.13C388.946 1804.13 397.349 1812.54 397.349 1828.14ZM321.717 1854.55C424.961 1892.97 388.946 1891.77 270.095 1852.15C207.668 1831.74 182.457 1819.74 210.069 1823.34C236.48 1826.94 286.902 1841.35 321.717 1854.55ZM639.853 1836.55C668.665 1861.76 667.465 1890.57 637.452 1918.18C602.637 1949.39 553.416 1926.58 553.416 1878.56C553.416 1819.74 597.835 1798.13 639.853 1836.55ZM481.385 1847.35C512.598 1860.56 529.406 1873.76 529.406 1889.37C529.406 1909.78 525.804 1909.78 480.184 1894.17C415.357 1871.36 409.354 1866.56 417.758 1846.15C424.961 1824.54 422.56 1824.54 481.385 1847.35ZM499.393 1924.18C514.999 1931.39 517.4 1934.99 505.395 1934.99C495.791 1934.99 478.984 1930.19 469.38 1924.18C447.771 1909.78 466.979 1909.78 499.393 1924.18ZM727.49 1954.2C761.105 1969.8 779.112 1983.01 768.308 1983.01C735.894 1985.41 637.452 1946.99 644.655 1934.99C653.058 1920.58 659.061 1921.78 727.49 1954.2ZM1704.71 1945.79C1711.91 1959 1711.91 1974.61 1704.71 1985.41C1696.3 1998.62 1693.9 1997.42 1693.9 1977.01C1693.9 1963.8 1687.9 1946.99 1679.5 1938.59C1668.69 1927.79 1668.69 1924.18 1679.5 1924.18C1686.7 1924.18 1698.71 1933.79 1704.71 1945.79ZM810.326 2014.22C888.359 2037.03 955.588 2058.64 960.39 2063.44C986.801 2092.26 651.858 2007.02 601.436 1971C575.025 1953 638.652 1966.2 810.326 2014.22ZM2091.27 2008.22C2064.86 2031.03 2042.05 2039.43 2042.05 2026.23C2042.05 2020.22 2103.28 1985.41 2114.08 1985.41C2117.68 1985.41 2106.88 1996.21 2091.27 2008.22ZM2937.63 1997.42C2949.64 2017.82 2922.03 2040.63 2905.22 2023.83C2890.81 2009.42 2900.42 1984.21 2918.43 1984.21C2924.43 1984.21 2932.83 1990.21 2937.63 1997.42ZM3120.11 2011.82C3122.51 2023.83 3116.51 2032.23 3105.71 2032.23C3084.1 2032.23 3070.89 2013.02 3080.5 1995.01C3091.3 1978.21 3115.31 1987.81 3120.11 2011.82ZM1225.7 2124.67C1308.54 2152.28 1351.76 2173.89 1342.15 2183.49C1334.95 2190.7 1140.47 2133.07 1075.64 2105.46L1015.61 2080.25L1075.64 2087.45C1109.25 2091.06 1176.48 2107.86 1225.7 2124.67ZM2294.16 2110.26C2285.76 2121.07 2276.15 2125.87 2271.35 2122.27C2267.75 2118.67 2272.55 2110.26 2282.15 2104.26C2307.37 2087.45 2310.97 2089.85 2294.16 2110.26ZM2326.57 2128.27C2321.77 2146.28 2327.77 2154.68 2349.38 2159.48C2385.4 2169.09 2375.79 2188.3 2334.98 2188.3C2290.56 2188.3 2300.16 2212.31 2345.78 2213.51C2380.6 2214.71 2378.2 2215.91 2324.17 2231.52C2283.35 2243.52 2237.74 2247.12 2183.71 2242.32C2134.49 2237.52 2084.07 2241.12 2055.26 2249.52C2016.84 2260.33 1995.23 2260.33 1952.01 2248.32C1922 2239.92 1897.99 2229.11 1897.99 2224.31C1897.99 2220.71 1926.8 2215.91 1961.62 2215.91C1995.23 2215.91 2080.47 2208.71 2150.1 2199.1C2246.14 2185.9 2276.15 2177.49 2276.15 2164.29C2276.15 2148.68 2314.57 2105.46 2328.97 2104.26C2331.38 2104.26 2330.17 2115.07 2326.57 2128.27ZM1147.67 2152.28C1169.28 2161.89 1169.28 2163.09 1141.67 2161.89C1124.86 2161.89 1098.45 2157.08 1081.64 2152.28C1052.83 2142.68 1052.83 2142.68 1087.64 2142.68C1108.05 2142.68 1134.46 2146.28 1147.67 2152.28ZM1789.94 2151.08C1789.94 2154.68 1785.14 2165.49 1779.14 2175.09C1769.54 2189.5 1764.73 2189.5 1749.13 2172.69C1722.72 2147.48 1725.12 2142.68 1759.93 2142.68C1776.74 2142.68 1789.94 2146.28 1789.94 2151.08ZM2165.7 2172.69C2157.3 2175.09 2142.89 2175.09 2135.69 2172.69C2127.29 2169.09 2133.29 2166.69 2150.1 2166.69C2166.91 2166.69 2172.91 2169.09 2165.7 2172.69ZM3972.48 2175.09C3997.69 2190.7 3984.48 2230.31 3953.27 2233.92C3924.46 2238.72 3907.65 2212.31 3919.65 2182.29C3926.86 2161.89 3948.47 2159.48 3972.48 2175.09ZM1471.81 2212.31C1476.61 2220.71 1468.21 2221.91 1445.4 2217.11C1399.78 2206.3 1394.98 2200.3 1433.39 2200.3C1450.2 2200.3 1468.21 2206.3 1471.81 2212.31ZM1591.86 2236.32C1585.86 2245.92 1578.65 2245.92 1566.65 2235.12C1552.24 2223.11 1552.24 2218.31 1564.25 2211.11C1583.46 2199.1 1603.86 2217.11 1591.86 2236.32ZM3044.48 2224.31C3087.7 2229.11 2980.85 2232.72 2774.36 2232.72C2585.88 2232.72 2453.83 2229.11 2480.24 2224.31C2543.87 2212.31 2953.24 2212.31 3044.48 2224.31ZM1626.67 2307.15C1636.28 2322.75 1613.47 2380.38 1597.86 2380.38C1584.66 2380.38 1582.26 2344.36 1593.06 2315.55C1601.46 2293.94 1617.07 2290.34 1626.67 2307.15ZM1741.92 2329.96C1741.92 2341.96 1734.72 2358.77 1727.52 2367.17C1714.31 2379.18 1716.71 2380.38 1735.92 2373.18C1749.13 2368.37 1768.33 2357.57 1779.14 2347.96C1794.75 2334.76 1800.75 2334.76 1811.55 2347.96C1830.76 2369.57 1816.36 2411.59 1783.94 2433.2C1765.93 2445.21 1757.53 2459.61 1762.33 2475.22C1769.54 2502.83 1743.12 2522.04 1728.72 2499.23C1722.72 2489.63 1714.31 2468.02 1710.71 2450.01C1703.51 2416.39 1661.49 2395.99 1641.08 2416.39C1624.27 2433.2 1609.87 2430.8 1609.87 2411.59C1609.87 2403.19 1626.67 2392.38 1645.88 2387.58C1669.89 2383.98 1690.3 2368.37 1703.51 2344.36C1726.32 2303.55 1741.92 2297.54 1741.92 2329.96ZM1585.86 2397.19C1585.86 2405.59 1554.64 2427.2 1517.43 2444.01C1479.01 2460.81 1426.19 2495.63 1399.78 2523.24C1374.57 2550.85 1348.16 2572.46 1342.15 2572.46C1336.15 2572.46 1356.56 2548.45 1386.57 2518.44C1416.58 2489.63 1441.8 2459.61 1441.8 2452.41C1441.8 2445.21 1465.81 2428.4 1495.82 2415.19C1524.63 2401.99 1552.24 2386.38 1555.84 2380.38C1565.45 2364.77 1585.86 2376.78 1585.86 2397.19ZM2336.18 2476.42C2428.62 2514.84 2525.86 2549.65 2552.27 2554.45C2578.68 2558.05 2630.3 2578.46 2666.32 2597.67C2731.15 2632.49 2722.74 2633.69 2618.3 2601.27C2588.28 2592.87 2523.46 2574.86 2474.24 2562.86C2425.02 2549.65 2354.19 2526.84 2318.17 2512.44C2282.15 2496.83 2220.93 2471.62 2181.31 2456.01C2142.89 2440.4 2099.68 2420 2085.27 2409.19C2032.45 2370.77 2164.5 2405.59 2336.18 2476.42ZM1674.69 2530.44C1673.49 2550.85 1668.69 2591.67 1663.89 2624.08C1656.69 2669.7 1659.09 2685.31 1674.69 2703.32C1701.11 2732.13 1683.1 2745.33 1641.08 2728.53C1618.27 2720.12 1608.67 2708.12 1607.47 2684.11C1603.86 2624.08 1612.27 2554.45 1625.47 2530.44C1632.68 2517.24 1637.48 2501.63 1636.28 2496.83C1635.08 2490.83 1642.28 2488.42 1654.29 2490.83C1669.89 2493.23 1675.9 2505.23 1674.69 2530.44ZM1714.31 2538.85C1710.71 2547.25 1708.31 2541.25 1708.31 2524.44C1708.31 2507.63 1710.71 2501.63 1714.31 2508.83C1716.71 2517.24 1716.71 2531.64 1714.31 2538.85ZM1695.1 2621.68C1687.9 2650.49 1684.3 2655.3 1683.1 2636.09C1681.9 2607.28 1693.9 2568.86 1702.31 2576.06C1704.71 2579.66 1702.31 2600.07 1695.1 2621.68ZM1175.28 2614.48C1171.68 2618.08 1105.65 2652.9 1027.62 2692.51C872.752 2770.55 828.333 2783.75 877.554 2735.73C923.174 2691.31 1093.65 2608.48 1140.47 2608.48C1163.28 2608.48 1178.88 2610.88 1175.28 2614.48ZM1680.7 2802.96C1679.5 2847.38 1678.3 2849.78 1669.89 2824.57C1655.49 2781.35 1655.49 2752.54 1669.89 2752.54C1677.1 2752.54 1681.9 2775.35 1680.7 2802.96ZM1557.04 2849.78C1542.64 2884.59 1540.24 2885.79 1539.04 2862.98C1537.84 2834.17 1565.45 2780.15 1571.45 2799.36C1573.85 2805.36 1566.65 2828.17 1557.04 2849.78ZM3410.64 2841.38C3429.84 2865.39 3421.44 2913.41 3396.23 2918.21C3369.82 2923.01 3350.61 2885.79 3363.82 2850.98C3375.82 2819.77 3390.23 2817.37 3410.64 2841.38ZM1528.23 2947.02C1518.63 2956.62 1517.43 2951.82 1522.23 2931.41C1527.03 2915.81 1531.83 2909.8 1535.44 2919.41C1537.84 2927.81 1534.23 2941.02 1528.23 2947.02Z" fill="black"/>
</svg>
