<svg width="4682" height="4682" viewBox="0 0 4682 4682" fill="none" xmlns="http://www.w3.org/2000/svg">
<path d="M3141.74 2252.16C3124.94 2270.17 3134.54 2292.98 3158.55 2292.98C3175.36 2292.98 3181.36 2286.98 3178.96 2272.57C3175.36 2250.96 3154.95 2240.16 3141.74 2252.16Z" fill="black"/>
<path d="M1081.66 678.29C1080.46 714.305 1147.69 960.41 1163.3 976.017C1172.9 985.621 1176.5 980.819 1176.5 959.21C1176.5 923.194 1082.86 644.675 1081.66 678.29Z" fill="black"/>
<path d="M2296.58 745.518C2264.17 757.523 2250.96 795.94 2268.97 828.354C2286.98 861.968 2295.38 858.366 2278.57 822.351C2261.77 783.935 2284.57 753.922 2326.59 758.724C2391.42 765.927 2391.42 835.557 2327.79 853.564C2302.58 860.767 2301.38 861.968 2324.19 863.168C2337.4 864.369 2359.01 853.564 2371.01 840.359C2414.23 792.338 2359.01 721.508 2296.58 745.518Z" fill="black"/>
<path d="M3515.1 805.544C3503.1 811.547 3493.5 823.552 3493.5 830.755C3493.5 837.958 3504.3 834.356 3517.51 822.351C3567.93 776.732 3643.56 843.96 3601.54 895.582C3577.53 923.194 3534.31 915.991 3506.7 878.775C3488.69 855.966 3483.89 852.364 3488.69 870.372C3506.7 924.395 3570.33 942.402 3605.14 902.785C3660.37 842.76 3585.93 763.526 3515.1 805.544Z" fill="black"/>
<path d="M2821.21 840.36C2799.6 853.566 2816.41 890.782 2841.62 885.979C2853.62 883.578 2864.43 873.974 2866.83 863.17C2871.63 840.36 2844.02 825.954 2821.21 840.36ZM2857.22 865.571C2857.22 871.573 2848.82 876.375 2839.22 876.375C2821.21 876.375 2815.21 861.969 2828.41 848.764C2838.02 839.159 2857.22 849.964 2857.22 865.571Z" fill="black"/>
<path d="M2064.89 857.166C2046.88 879.976 2054.08 924.395 2078.09 940.001C2105.7 956.808 2158.53 940.001 2166.93 911.189C2183.74 859.567 2099.7 816.348 2064.89 857.166ZM2150.12 871.572C2170.53 896.783 2150.12 929.197 2109.3 933.999C2084.09 937.6 2075.69 931.598 2069.69 907.587C2066.09 890.78 2066.09 871.572 2070.89 865.569C2082.89 846.361 2132.11 849.963 2150.12 871.572Z" fill="black"/>
<path d="M1545.06 885.979C1518.65 914.791 1519.85 940.002 1546.26 964.012C1576.27 991.624 1614.69 989.223 1644.7 958.009C1657.91 943.603 1668.71 938.801 1668.71 946.004C1668.71 954.408 1681.92 966.413 1698.73 974.817C1721.54 985.621 1733.54 984.421 1758.75 967.614C1775.56 956.809 1788.76 937.601 1788.76 925.596C1788.76 875.174 1701.13 842.76 1668.71 882.377C1655.51 897.984 1650.71 897.984 1629.1 882.377C1594.28 858.367 1569.07 859.567 1545.06 885.979ZM1621.89 888.38C1647.1 902.786 1651.91 936.4 1630.3 958.009C1587.08 1001.23 1515.05 944.804 1555.86 899.184C1579.88 872.773 1589.48 871.572 1621.89 888.38ZM1762.35 890.781C1786.36 914.791 1779.16 948.405 1746.75 962.811C1720.33 974.817 1711.93 973.616 1691.52 952.007C1671.11 931.598 1668.71 923.195 1679.52 901.585C1695.12 873.973 1739.54 867.971 1762.35 890.781Z" fill="black"/>
<path d="M2794.8 937.601C2758.78 958.01 2774.39 1033.64 2815.2 1032.44C2821.21 1032.44 2817.6 1026.44 2806.8 1019.24C2759.98 992.825 2797.2 921.995 2844.02 948.406C2875.23 964.013 2876.43 1002.43 2848.82 1020.44C2828.41 1033.64 2828.41 1033.64 2848.82 1027.64C2860.82 1024.04 2874.03 1020.44 2876.43 1020.44C2878.83 1020.44 2881.23 1004.83 2881.23 986.822C2881.23 961.612 2872.83 948.406 2851.22 938.802C2815.2 921.995 2820.01 921.995 2794.8 937.601Z" fill="black"/>
<path d="M2461.05 960.411C2447.85 973.616 2437.04 995.226 2437.04 1007.23C2437.04 1031.24 2488.66 1080.46 2513.87 1080.46C2521.08 1080.46 2509.07 1069.66 2488.66 1056.45C2467.05 1043.25 2449.05 1022.84 2449.05 1010.83C2449.05 984.421 2485.06 948.406 2512.67 948.406C2561.89 948.406 2589.51 1031.24 2548.69 1055.25C2536.68 1062.45 2533.08 1068.46 2540.29 1068.46C2560.69 1068.46 2581.1 1040.84 2581.1 1012.03C2581.1 978.418 2541.49 936.4 2509.07 936.4C2495.87 936.4 2474.26 947.205 2461.05 960.411Z" fill="black"/>
<path d="M3555.92 979.618C3501.9 1018.03 3535.51 1104.47 3605.14 1104.47C3641.16 1104.47 3685.58 1067.26 3685.58 1038.44C3685.58 1012.03 3631.55 960.41 3605.14 960.41C3593.14 960.41 3570.33 968.814 3555.92 979.618ZM3649.56 996.426C3662.77 1009.63 3673.57 1026.44 3673.57 1034.84C3673.57 1060.05 3633.95 1092.47 3601.54 1092.47C3561.92 1092.47 3541.52 1072.06 3541.52 1030.04C3541.52 974.816 3606.34 953.207 3649.56 996.426Z" fill="black"/>
<path d="M1783.97 994.025C1780.36 1000.03 1789.97 1003.63 1804.38 1003.63C1819.98 1002.43 1830.79 1009.63 1830.79 1020.44C1830.79 1031.24 1819.98 1038.44 1803.17 1037.24C1786.37 1037.24 1780.36 1040.84 1787.57 1048.05C1807.98 1068.46 1842.79 1051.65 1842.79 1020.44C1842.79 998.827 1835.59 989.222 1816.38 986.821C1803.17 984.42 1787.57 988.022 1783.97 994.025Z" fill="black"/>
<path d="M2223.35 1010.83C2190.94 1043.25 2226.95 1117.68 2274.97 1116.48C2280.97 1115.28 2271.37 1106.87 2253.36 1097.27C2226.95 1082.86 2219.75 1072.06 2223.35 1046.85C2225.75 1020.44 2234.15 1013.23 2262.97 1010.83C2285.78 1007.23 2302.58 1013.23 2313.39 1027.64C2321.79 1039.64 2329 1043.25 2329 1037.24C2329 1015.63 2300.18 996.427 2268.97 996.427C2252.16 996.427 2231.75 1002.43 2223.35 1010.83Z" fill="black"/>
<path d="M2040.87 1050.45C2021.66 1073.26 2033.67 1104.47 2062.48 1104.47C2099.7 1104.47 2117.7 1074.46 2094.89 1051.65C2070.88 1027.64 2060.08 1027.64 2040.87 1050.45ZM2088.89 1062.45C2100.9 1076.86 2099.7 1081.66 2082.89 1087.66C2060.08 1097.27 2034.87 1076.86 2045.67 1057.65C2057.68 1039.64 2070.88 1040.84 2088.89 1062.45Z" fill="black"/>
<path d="M2307.38 1080.46C2298.98 1093.67 2297.78 1104.47 2303.78 1104.47C2314.59 1104.47 2332.6 1068.46 2325.39 1061.25C2324.19 1058.85 2315.79 1068.46 2307.38 1080.46Z" fill="black"/>
<path d="M2848.82 1112.88C2832.01 1118.88 2827.21 1159.69 2842.81 1169.3C2848.82 1172.9 2852.42 1163.3 2852.42 1148.89C2851.22 1129.68 2858.42 1122.48 2875.23 1122.48C2892.04 1122.48 2899.24 1129.68 2898.04 1150.09C2898.04 1169.3 2900.44 1174.1 2910.04 1164.5C2936.45 1138.09 2887.23 1096.07 2848.82 1112.88Z" fill="black"/>
<path d="M1959.24 1130.88C1938.83 1151.29 1941.23 1182.51 1966.44 1201.71C1984.45 1217.32 1985.65 1216.12 1971.25 1198.11C1948.44 1169.3 1964.04 1128.48 1997.66 1128.48C2056.48 1128.48 2068.49 1189.71 2014.46 1212.52C1996.46 1218.52 1994.06 1223.32 2006.06 1223.32C2026.47 1224.52 2064.89 1188.51 2064.89 1168.1C2064.89 1148.89 2022.87 1116.48 1997.66 1116.48C1984.45 1116.48 1967.64 1122.48 1959.24 1130.88Z" fill="black"/>
<path d="M1407 1142.89C1373.39 1176.5 1408.2 1224.52 1465.83 1224.52C1495.84 1224.52 1500.64 1219.72 1500.64 1190.91C1500.64 1151.29 1481.44 1128.48 1446.62 1128.48C1432.21 1128.48 1415.41 1134.48 1407 1142.89ZM1486.24 1178.9C1489.84 1207.72 1486.24 1212.52 1459.83 1212.52C1423.81 1212.52 1398.6 1175.3 1420.21 1153.69C1445.42 1128.48 1482.64 1142.89 1486.24 1178.9Z" fill="black"/>
<path d="M3303.81 1226.92C3267.8 1262.94 3301.41 1313.36 3357.83 1306.16C3383.04 1303.76 3392.65 1295.35 3395.05 1273.74C3402.25 1225.72 3337.42 1193.31 3303.81 1226.92ZM3373.44 1242.53C3395.05 1267.74 3379.44 1296.55 3343.43 1296.55C3326.62 1296.55 3309.81 1288.15 3306.21 1278.55C3297.81 1258.14 3320.62 1224.52 3343.43 1224.52C3351.83 1224.52 3365.04 1232.93 3373.44 1242.53Z" fill="black"/>
<path d="M2201.74 1242.53C2192.14 1266.54 2206.54 1284.55 2232.95 1284.55C2262.97 1284.55 2274.97 1264.14 2256.96 1242.53C2237.76 1219.72 2210.14 1219.72 2201.74 1242.53ZM2248.56 1254.54C2249.76 1260.54 2241.36 1267.74 2230.55 1270.14C2217.35 1272.54 2208.94 1266.54 2208.94 1254.54C2208.94 1234.13 2244.96 1232.93 2248.56 1254.54Z" fill="black"/>
<path d="M2768.38 1242.53C2747.98 1264.14 2732.37 1307.36 2741.97 1316.96C2745.57 1321.77 2749.18 1315.76 2749.18 1303.76C2749.18 1288.15 2753.98 1285.75 2771.99 1296.55C2785.19 1302.56 2804.4 1304.96 2814 1301.36C2834.41 1292.95 2840.41 1254.54 2822.41 1243.73C2816.4 1238.93 2814 1246.13 2817.61 1259.34C2824.81 1288.15 2802 1302.56 2777.99 1283.35C2762.38 1271.34 2763.58 1266.54 2780.39 1247.33C2804.4 1219.72 2794.8 1216.12 2768.38 1242.53Z" fill="black"/>
<path d="M3093.72 1352.98C3088.92 1356.58 3085.32 1367.38 3085.32 1376.99C3085.32 1395 3116.53 1398.6 3126.14 1381.79C3134.54 1368.58 3104.53 1342.17 3093.72 1352.98Z" fill="black"/>
<path d="M1645.9 1401C1584.68 1443.02 1643.5 1545.06 1710.73 1515.05C1749.15 1497.04 1762.35 1446.62 1735.94 1417.8C1707.13 1386.59 1674.71 1380.59 1645.9 1401ZM1729.94 1423.81C1749.15 1446.62 1733.54 1497.04 1703.53 1506.64C1675.92 1516.25 1632.7 1483.83 1632.7 1455.02C1632.7 1404.6 1696.32 1384.19 1729.94 1423.81Z" fill="black"/>
<path d="M980.822 1409.4C971.218 1433.41 1003.63 1465.83 1027.64 1456.22C1054.05 1446.62 1043.25 1399.8 1013.24 1395C998.83 1392.59 984.424 1399.8 980.822 1409.4ZM1032.44 1422.61C1032.44 1432.21 1024.04 1440.61 1014.44 1440.61C1004.83 1440.61 996.429 1432.21 996.429 1422.61C996.429 1413 1004.83 1404.6 1014.44 1404.6C1024.04 1404.6 1032.44 1413 1032.44 1422.61Z" fill="black"/>
<path d="M2130.91 1440.62C2086.49 1489.84 2159.72 1557.07 2206.54 1510.24C2228.15 1488.64 2223.35 1443.02 2198.14 1428.61C2165.72 1411.8 2156.12 1413 2130.91 1440.62ZM2194.54 1439.41C2204.14 1444.22 2208.94 1462.22 2206.54 1477.83C2201.74 1513.85 2152.52 1517.45 2132.11 1485.03C2121.31 1467.03 2123.71 1459.82 2141.71 1445.42C2169.33 1426.21 2172.93 1425.01 2194.54 1439.41Z" fill="black"/>
<path d="M1914.82 1524.65C1902.81 1545.06 1938.83 1577.47 1962.84 1567.87C1973.64 1564.27 1980.84 1551.06 1978.44 1540.26C1973.64 1515.05 1926.82 1504.24 1914.82 1524.65ZM1966.44 1539.06C1962.84 1547.46 1953.23 1554.66 1944.83 1554.66C1936.43 1554.66 1926.82 1547.46 1924.42 1539.06C1920.82 1530.65 1929.22 1524.65 1944.83 1524.65C1960.44 1524.65 1968.84 1530.65 1966.44 1539.06Z" fill="black"/>
<path d="M2847.62 1659.11C2852.42 1696.32 2911.24 1699.93 2911.24 1662.71C2911.24 1644.7 2901.64 1637.5 2877.63 1635.1C2847.62 1631.5 2844.02 1635.1 2847.62 1659.11ZM2905.24 1662.71C2905.24 1672.31 2894.44 1680.72 2881.23 1680.72C2868.03 1680.72 2857.22 1672.31 2857.22 1662.71C2857.22 1653.11 2868.03 1644.7 2881.23 1644.7C2894.44 1644.7 2905.24 1653.11 2905.24 1662.71Z" fill="black"/>
<path d="M2331.4 1665.11C2333.8 1677.12 2348.2 1687.92 2362.61 1690.32C2385.42 1693.92 2390.22 1689.12 2386.62 1672.32C2384.22 1660.31 2369.81 1649.51 2355.41 1647.1C2332.6 1643.5 2327.8 1648.3 2331.4 1665.11ZM2377.02 1668.71C2377.02 1674.72 2368.61 1680.72 2359.01 1680.72C2349.41 1680.72 2341 1674.72 2341 1668.71C2341 1661.51 2349.41 1656.71 2359.01 1656.71C2368.61 1656.71 2377.02 1661.51 2377.02 1668.71Z" fill="black"/>
<path d="M3493.5 1770.76C3463.48 1806.77 3510.3 1859.6 3557.12 1841.59C3584.73 1831.98 3589.54 1806.77 3570.33 1777.96C3549.92 1749.15 3515.11 1745.55 3493.5 1770.76ZM3563.13 1798.37C3567.93 1831.98 3534.31 1846.39 3509.1 1821.18C3483.89 1795.97 3498.3 1762.35 3531.91 1767.16C3549.92 1769.56 3560.72 1780.36 3563.13 1798.37Z" fill="black"/>
<path d="M3330.22 1830.78C3312.21 1858.39 3312.21 1863.2 3330.22 1890.81C3363.83 1942.43 3445.47 1922.02 3445.47 1863.2C3445.47 1821.18 3425.06 1800.77 3383.04 1800.77C3361.43 1800.77 3343.43 1810.37 3330.22 1830.78ZM3431.06 1846.39C3435.87 1882.4 3414.26 1908.82 3378.24 1908.82C3341.03 1908.82 3319.42 1870.4 3337.42 1835.58C3356.63 1799.57 3426.26 1807.97 3431.06 1846.39Z" fill="black"/>
<path d="M621.868 1890.81C629.071 1904.01 666.287 1941.23 703.503 1974.84C822.354 2076.89 952.009 2196.94 998.829 2247.36C1046.85 2298.98 1084.07 2303.78 1090.07 2259.36C1094.87 2228.15 1062.46 2211.34 1033.64 2229.35C1018.04 2240.16 996.428 2224.55 917.194 2150.12C743.12 1985.65 608.663 1868 621.868 1890.81ZM1068.46 2256.96C1068.46 2270.17 1063.66 2280.97 1057.65 2280.97C1040.85 2280.97 1030.04 2259.36 1038.45 2244.96C1050.45 2224.55 1068.46 2231.75 1068.46 2256.96Z" fill="black"/>
<path d="M540.23 2008.46C540.23 2010.86 553.436 2030.07 570.243 2052.88C587.05 2074.49 597.855 2094.9 595.454 2097.3C593.053 2099.7 571.444 2093.7 547.433 2084.09C523.423 2074.49 504.215 2068.48 504.215 2070.89C504.215 2079.29 665.084 2160.92 681.891 2160.92C691.495 2160.92 696.297 2168.13 692.695 2176.53C689.094 2186.13 698.698 2193.34 720.307 2194.54C738.315 2195.74 783.934 2211.35 822.351 2228.15C908.788 2267.77 923.194 2256.96 840.358 2214.95C798.341 2193.34 780.333 2177.73 785.135 2166.93C791.137 2150.12 763.526 2112.9 744.317 2112.9C738.315 2112.9 725.109 2121.31 715.505 2132.11C686.693 2159.72 655.479 2142.92 609.86 2076.89C577.446 2028.87 540.23 1992.85 540.23 2008.46ZM768.328 2154.92C768.328 2177.73 744.317 2189.74 729.911 2175.33C711.904 2157.32 727.51 2123.71 750.32 2132.11C759.924 2135.71 768.328 2146.52 768.328 2154.92Z" fill="black"/>
<path d="M1914.82 2014.46C1894.41 2028.87 1860.79 2100.9 1860.79 2128.51C1860.79 2153.72 1862 2153.72 1884.81 2124.91C1906.41 2098.5 1936.43 2016.86 1929.22 2009.66C1928.02 2007.26 1920.82 2009.66 1914.82 2014.46Z" fill="black"/>
<path d="M162.072 2040.87C146.465 2057.68 132.059 2062.48 109.249 2057.68C84.0382 2051.68 86.4393 2056.48 126.056 2081.69C152.467 2098.5 182.48 2112.9 192.084 2112.9C255.712 2114.1 758.726 2280.97 774.333 2304.98C777.935 2310.99 769.531 2335 755.125 2357.81C732.315 2396.22 732.315 2402.23 749.122 2408.23C759.927 2411.83 786.338 2413.03 807.948 2409.43C829.557 2407.03 861.971 2411.83 881.179 2421.43C917.194 2439.44 917.194 2439.44 872.775 2387.82C848.765 2360.21 830.757 2335 834.359 2331.4C836.76 2328.99 919.595 2368.61 1016.84 2421.43C1211.32 2525.88 1315.76 2572.7 1284.55 2540.28C1256.94 2511.47 830.757 2294.18 750.323 2266.57C710.706 2253.36 641.076 2226.95 594.256 2206.54C548.637 2187.33 475.405 2163.32 432.187 2153.72C279.722 2118.9 240.105 2102.1 240.105 2070.88C240.105 2054.08 229.3 2036.07 217.295 2028.87C186.082 2013.26 187.282 2013.26 162.072 2040.87ZM223.298 2054.08C226.899 2061.28 223.298 2074.49 214.894 2084.09C193.285 2104.5 162.072 2086.49 171.676 2060.08C180.079 2038.47 211.293 2034.87 223.298 2054.08ZM825.955 2368.61C828.356 2383.02 822.354 2389.02 805.547 2389.02C787.539 2389.02 780.336 2381.82 780.336 2363.81C780.336 2333.8 819.953 2337.4 825.955 2368.61Z" fill="black"/>
<path d="M3696.38 2058.88C3659.16 2068.48 3572.73 2081.69 3504.3 2088.89C3437.07 2094.89 3378.24 2104.5 3374.64 2108.1C3371.04 2112.9 3434.67 2112.9 3517.5 2109.3C3631.55 2104.5 3689.18 2096.1 3757.61 2073.29C3833.24 2048.07 3840.44 2043.27 3805.63 2043.27C3782.82 2043.27 3733.6 2050.48 3696.38 2058.88Z" fill="black"/>
<path d="M924.394 2270.17C933.998 2276.17 998.825 2310.99 1068.46 2347C1154.89 2391.42 1212.52 2429.84 1254.53 2471.86C1318.16 2537.88 1360.18 2558.29 1301.35 2494.67L1266.54 2456.25L1302.56 2479.06C1322.96 2491.06 1358.98 2515.07 1384.19 2530.68C1408.2 2547.49 1432.21 2558.29 1434.61 2554.69C1445.42 2543.89 1315.76 2449.05 1213.72 2393.82C1157.29 2362.61 1108.07 2332.6 1106.87 2326.59C1104.47 2321.79 1098.47 2319.39 1092.47 2322.99C1087.66 2326.59 1046.85 2313.39 1002.43 2292.98C919.592 2255.76 891.98 2247.36 924.394 2270.17Z" fill="black"/>
<path d="M960.412 2497.07C970.016 2503.07 984.422 2509.07 990.425 2509.07C997.628 2509.07 994.026 2503.07 984.422 2497.07C974.818 2491.06 961.612 2485.06 954.409 2485.06C948.407 2485.06 950.808 2491.06 960.412 2497.07Z" fill="black"/>
<path d="M1026.44 2497.07C1030.04 2503.07 1026.44 2509.07 1018.04 2511.47C1003.63 2516.28 1110.48 2561.9 1164.5 2573.9C1183.71 2578.7 1178.9 2572.7 1148.89 2558.29C1123.68 2546.29 1097.27 2528.28 1088.87 2518.68C1074.46 2499.47 1015.63 2480.26 1026.44 2497.07Z" fill="black"/>
<path d="M1374.59 2594.31C1423.81 2626.72 1476.63 2655.53 1476.63 2647.13C1476.63 2635.13 1376.99 2569.1 1357.78 2569.1C1345.77 2569.1 1351.78 2578.7 1374.59 2594.31Z" fill="black"/>
<path d="M2929.25 2635.13C2912.45 2644.73 2905.24 2651.93 2912.45 2653.13C2918.45 2653.13 2935.26 2644.73 2948.46 2635.13C2977.28 2613.52 2967.67 2612.32 2929.25 2635.13Z" fill="black"/>
<path d="M3565.53 2657.94C3547.52 2680.74 3554.72 2725.16 3578.73 2740.77C3605.14 2757.58 3657.97 2741.97 3665.17 2714.36C3672.37 2686.75 3663.97 2673.54 3629.15 2654.33C3595.54 2636.33 3583.53 2637.53 3565.53 2657.94ZM3631.55 2672.34C3653.16 2693.95 3650.76 2711.96 3623.15 2728.77C3581.13 2755.18 3543.92 2703.55 3579.93 2667.54C3599.14 2648.33 3607.54 2649.53 3631.55 2672.34Z" fill="black"/>
<path d="M558.241 2737.17C584.653 2743.17 655.483 2746.77 714.308 2746.77C774.334 2746.77 867.974 2750.37 924.398 2753.98C1006.03 2759.98 1019.24 2758.78 990.426 2747.97C971.218 2740.77 854.768 2732.37 732.316 2731.17C585.853 2727.57 527.028 2729.97 558.241 2737.17Z" fill="black"/>
<path d="M1057.65 2765.98C1060.05 2768.38 1084.07 2773.19 1110.48 2776.79C1142.89 2781.59 1152.49 2780.39 1140.49 2773.19C1123.68 2762.38 1045.65 2755.18 1057.65 2765.98Z" fill="black"/>
<path d="M3468.28 2852.42C3445.47 2880.03 3469.48 2911.24 3512.7 2911.24C3553.52 2911.24 3564.32 2882.43 3535.51 2852.42C3510.3 2828.41 3488.69 2828.41 3468.28 2852.42ZM3529.51 2875.23C3529.51 2900.44 3506.7 2908.84 3486.29 2893.24C3474.29 2882.43 3473.09 2874.03 3482.69 2862.02C3497.1 2844.02 3529.51 2852.42 3529.51 2875.23Z" fill="black"/>
<path d="M2306.19 2932.85C2309.79 2937.65 2368.61 2948.46 2437.04 2959.26C2506.67 2970.07 2566.7 2982.07 2571.5 2986.88C2575.1 2991.68 2581.1 3008.48 2583.51 3025.29C2588.31 3064.91 2633.93 3067.31 2638.73 3027.69C2643.53 2997.68 2643.53 2996.48 2725.17 3014.49C2788.79 3027.69 2803.2 3044.5 2758.78 3052.9C2734.77 3057.71 2735.97 3057.71 2764.78 3060.11C2782.79 3060.11 2797.2 3055.3 2797.2 3045.7C2798.4 3038.5 2805.6 3049.3 2815.2 3069.71C2824.81 3091.32 2836.81 3109.33 2844.02 3109.33C2871.63 3109.33 2893.24 3092.52 2893.24 3072.11C2893.24 3043.3 2892.04 3043.3 2974.87 3078.11C3078.12 3121.33 3338.63 3207.77 3344.63 3201.77C3348.23 3198.17 3321.82 3186.16 3287.01 3175.36C3252.19 3164.55 3180.16 3136.94 3127.34 3115.33C2911.25 3026.49 2588.31 2946.06 2401.03 2932.85C2344.6 2929.25 2301.38 2929.25 2306.19 2932.85ZM2866.83 3074.51C2864.43 3081.72 2857.22 3086.52 2851.22 3086.52C2845.22 3086.52 2838.01 3081.72 2835.61 3074.51C2833.21 3067.31 2840.42 3061.31 2851.22 3061.31C2862.02 3061.31 2869.23 3067.31 2866.83 3074.51Z" fill="black"/>
<path d="M3380.64 2998.88C3369.84 3016.89 3395.05 3040.9 3415.46 3032.5C3432.27 3026.49 3433.47 3021.69 3421.46 3007.28C3404.66 2986.88 3390.25 2984.47 3380.64 2998.88Z" fill="black"/>
<path d="M3687.98 3039.7C3665.17 3062.51 3671.17 3105.73 3699.98 3126.14C3733.6 3150.15 3751.61 3150.15 3774.41 3126.14C3799.63 3100.93 3798.43 3078.12 3769.61 3049.3C3742 3021.69 3709.59 3018.09 3687.98 3039.7ZM3767.21 3088.92C3762.41 3127.34 3702.38 3132.14 3691.58 3096.12C3685.58 3076.91 3689.18 3064.91 3703.58 3054.1C3733.6 3032.5 3772.01 3054.1 3767.21 3088.92Z" fill="black"/>
<path d="M3186.16 3055.31C3174.15 3085.32 3190.96 3109.33 3223.38 3109.33C3259.39 3109.33 3275 3080.52 3253.39 3055.31C3234.18 3032.5 3194.56 3032.5 3186.16 3055.31ZM3235.38 3073.31C3235.38 3081.72 3228.18 3091.32 3220.97 3093.72C3211.37 3097.32 3205.37 3088.92 3205.37 3073.31C3205.37 3057.71 3211.37 3049.3 3220.97 3051.7C3228.18 3055.31 3235.38 3064.91 3235.38 3073.31Z" fill="black"/>
<path d="M1464.63 3133.34C1435.81 3151.35 1455.02 3153.75 1500.64 3138.14C1536.66 3124.93 1539.06 3122.53 1512.65 3122.53C1495.84 3121.33 1474.23 3126.13 1464.63 3133.34Z" fill="black"/>
<path d="M3371.04 3213.77C3379.45 3217.37 3390.25 3216.17 3393.85 3212.57C3398.65 3208.97 3391.45 3205.37 3378.24 3206.57C3365.04 3206.57 3361.44 3210.17 3371.04 3213.77Z" fill="black"/>
<path d="M1449.02 3281C1435.82 3315.82 1438.22 3332.62 1453.83 3317.02C1461.03 3309.81 1464.63 3294.21 1462.23 3282.2C1458.63 3260.59 1457.43 3260.59 1449.02 3281Z" fill="black"/>
<path d="M2208.94 3329.02C2208.94 3331.42 2225.75 3348.23 2244.96 3367.44C2265.37 3386.65 2280.97 3396.25 2280.97 3390.25C2280.97 3383.05 2265.37 3366.24 2244.96 3351.83C2225.75 3336.23 2208.94 3326.62 2208.94 3329.02Z" fill="black"/>
<path d="M2533.08 3390.25C2533.08 3414.26 2561.89 3433.47 2579.9 3421.46C2589.51 3416.66 2593.11 3403.45 2589.51 3392.65C2579.9 3368.64 2533.08 3367.44 2533.08 3390.25Z" fill="black"/>
<path d="M2785.19 3397.45C2785.19 3403.45 2791.19 3409.46 2797.19 3409.46C2804.4 3409.46 2809.2 3403.45 2809.2 3397.45C2809.2 3390.25 2804.4 3385.45 2797.19 3385.45C2791.19 3385.45 2785.19 3390.25 2785.19 3397.45Z" fill="black"/>
<path d="M1872.8 3433.47C1872.8 3439.47 1878.8 3445.47 1884.8 3445.47C1892.01 3445.47 1896.81 3439.47 1896.81 3433.47C1896.81 3426.26 1892.01 3421.46 1884.8 3421.46C1878.8 3421.46 1872.8 3426.26 1872.8 3433.47Z" fill="black"/>
<path d="M1837.99 3480.29C1836.79 3509.1 1840.39 3518.7 1848.79 3510.3C1857.2 3501.9 1857.2 3487.49 1849.99 3468.28C1839.19 3440.67 1837.99 3441.87 1837.99 3480.29Z" fill="black"/>
<path d="M2004.86 3470.68C2004.86 3481.49 2013.26 3497.09 2022.86 3505.5C2045.67 3524.71 2045.67 3505.5 2022.86 3474.28C2008.46 3455.08 2006.06 3455.08 2004.86 3470.68Z" fill="black"/>
<path d="M2154.92 3505.5C2150.12 3513.9 2151.32 3524.71 2158.52 3531.91C2175.33 3548.72 2212.55 3534.31 2206.54 3513.9C2199.34 3494.69 2165.73 3488.69 2154.92 3505.5Z" fill="black"/>
</svg>
