<svg width="4658" height="4682" viewBox="0 0 4658 4682" fill="none" xmlns="http://www.w3.org/2000/svg">
<path d="M218.444 14.4069C201.636 31.2141 200.436 70.831 216.043 96.0418C223.246 106.846 222.045 120.052 212.441 132.057C200.436 147.664 200.436 147.664 218.444 134.458C232.85 122.453 236.451 108.047 232.85 84.0366C226.847 60.0264 232.85 44.4197 253.258 25.2115C279.67 1.20124 279.67 0.000732422 256.86 0.000732422C243.654 0.000732422 226.847 6.0033 218.444 14.4069Z" fill="black"/>
<path d="M370.907 31.2143C387.714 52.8235 393.717 73.2323 388.915 99.6435C384.113 138.06 384.113 138.06 397.318 105.646C406.922 80.4353 405.722 66.0292 390.115 37.2169C380.511 16.8081 366.105 0.000976562 358.902 0.000976562C351.699 0.000976562 357.701 14.4071 370.907 31.2143Z" fill="black"/>
<path d="M492.156 4.80282C492.156 15.6074 538.976 20.4095 553.382 10.8054C565.387 3.60231 558.184 0.000771523 531.773 0.000771523C510.164 0.000771523 492.156 2.4018 492.156 4.80282Z" fill="black"/>
<path d="M659.033 14.4074C667.436 26.4125 690.246 36.0166 708.254 36.0166C726.261 36.0166 749.071 26.4125 757.475 14.4074C770.68 -2.39981 770.68 -3.60032 756.274 8.4048C746.67 16.8084 725.061 24.0115 708.254 24.0115C691.446 24.0115 669.837 16.8084 660.233 8.4048C645.827 -3.60032 645.827 -2.39981 659.033 14.4074Z" fill="black"/>
<path d="M1080.41 30.0135C1096.02 46.8207 1112.82 60.0264 1117.63 60.0264C1123.63 60.0264 1114.02 46.8207 1097.22 30.0135C1080.41 13.2064 1063.6 0.000724792 1060 0.000724792C1055.2 0.000724792 1064.8 13.2064 1080.41 30.0135Z" fill="black"/>
<path d="M1212.47 24.0112C1205.26 37.2169 1202.86 48.0215 1205.26 48.0215C1208.87 48.0215 1217.27 37.2169 1224.47 24.0112C1231.67 10.8056 1234.08 0.000968933 1231.67 0.000968933C1228.07 0.000968933 1219.67 10.8056 1212.47 24.0112Z" fill="black"/>
<path d="M2196.89 10.8053C2196.89 22.8104 2219.7 40.8181 2226.9 34.8155C2228.1 32.4145 2223.3 22.8104 2213.69 14.4068C2204.09 6.00321 2196.89 4.8027 2196.89 10.8053Z" fill="black"/>
<path d="M2259.31 19.2094C2250.91 28.8135 2249.71 36.0166 2255.71 36.0166C2267.71 36.0166 2285.72 13.2069 2279.72 6.00378C2277.32 4.80327 2267.71 9.60532 2259.31 19.2094Z" fill="black"/>
<path d="M2577.45 20.4102C2541.44 61.2277 2540.24 100.845 2575.05 141.662C2625.47 201.688 2709.51 196.886 2743.12 130.857C2767.13 86.4384 2765.93 69.6313 2735.92 31.2149C2715.51 4.80358 2701.1 0.00152588 2654.28 0.00152588C2614.67 0.00152588 2590.66 6.0041 2577.45 20.4102ZM2728.72 49.2225C2756.33 84.0374 2755.13 103.246 2719.11 138.06C2685.5 172.875 2635.08 176.477 2595.46 148.865C2558.24 123.654 2559.44 56.4256 2596.66 30.0143C2631.47 4.80358 2699.9 14.4077 2728.72 49.2225Z" fill="black"/>
<path d="M2887.18 13.207C2882.38 20.4101 2881.18 27.6131 2884.78 31.2147C2887.18 34.8162 2893.18 28.8136 2896.78 18.009C2905.19 -2.39969 2897.98 -6.00123 2887.18 13.207Z" fill="black"/>
<path d="M2989.23 30.0129C3004.84 46.8201 3020.44 57.6247 3022.84 54.0231C3031.25 45.6196 2988.03 7.24792e-05 2973.62 7.24792e-05C2966.42 7.24792e-05 2973.62 13.2057 2989.23 30.0129Z" fill="black"/>
<path d="M4045.68 18.0078C4037.28 28.8124 4032.47 38.4165 4034.88 42.0181C4038.48 44.4191 4046.88 36.0155 4055.28 24.0104C4072.09 -4.80194 4067.29 -7.20296 4045.68 18.0078Z" fill="black"/>
<path d="M4132.11 24.0112C4140.51 37.2169 4151.32 48.0215 4157.32 48.0215C4162.12 48.0215 4160.92 37.2169 4153.72 24.0112C4146.52 10.8056 4135.71 0.000968933 4129.71 0.000968933C4122.51 0.000968933 4123.71 10.8056 4132.11 24.0112Z" fill="black"/>
<path d="M4494.67 18.0089C4524.68 40.8186 4563.1 40.8186 4593.11 18.0089C4620.72 -3.60033 4606.32 -6.00135 4573.9 14.4074C4555.89 26.4125 4541.49 26.4125 4511.48 15.6079C4475.46 2.40224 4474.26 2.40224 4494.67 18.0089Z" fill="black"/>
<path d="M3795.97 31.214C3755.15 60.0264 3764.76 156.067 3809.18 156.067C3815.18 156.067 3810.38 147.664 3800.77 136.859C3773.16 110.448 3776.76 51.6228 3804.38 36.0161C3846.39 14.4069 3887.21 21.6099 3910.02 55.2243C3929.23 85.2371 3929.23 88.8387 3910.02 123.654C3893.21 151.265 3893.21 156.067 3906.42 145.263C3943.63 114.049 3938.83 49.2217 3896.81 21.6099C3874 6.00327 3824.78 10.8053 3795.97 31.214Z" fill="black"/>
<path d="M1665.06 32.4154C1653.05 43.22 1654.25 93.6415 1667.46 100.845C1672.26 104.446 1674.66 94.842 1672.26 79.2354C1668.66 61.2277 1673.46 49.2226 1684.27 44.4205C1708.28 36.0169 1733.49 66.0297 1723.88 90.04C1720.28 100.845 1721.48 105.647 1728.69 102.045C1745.49 92.441 1744.29 56.4256 1726.29 38.4179C1710.68 22.8113 1677.06 19.2097 1665.06 32.4154Z" fill="black"/>
<path d="M719.054 82.8366L690.242 105.646L715.453 140.461C755.07 193.284 795.887 212.492 833.103 194.484C870.319 177.677 876.322 120.053 843.908 94.8418C825.9 81.6361 824.7 81.6361 837.905 96.0423C878.723 142.862 830.702 207.69 773.078 181.279C722.656 158.469 741.864 85.2377 798.288 82.8366C822.299 82.8366 822.299 82.8366 798.288 72.032C762.273 56.4254 749.067 57.6259 719.054 82.8366Z" fill="black"/>
<path d="M2881.18 67.2299C2881.18 81.6361 2925.6 132.058 2937.6 132.058C2942.41 132.058 2932.8 117.651 2915.99 98.4433C2900.39 80.4356 2885.98 63.6284 2884.78 61.2274C2882.38 58.8263 2881.18 61.2274 2881.18 67.2299Z" fill="black"/>
<path d="M4033.67 70.8314C4033.67 82.8366 4068.49 114.05 4074.49 106.847C4075.69 104.446 4067.29 92.4407 4055.28 80.4355C4043.28 69.6309 4033.67 64.8289 4033.67 70.8314Z" fill="black"/>
<path d="M4127.31 86.4386C4115.31 98.4437 4110.51 108.048 4116.51 108.048C4128.51 108.048 4159.73 73.233 4152.53 67.2304C4150.12 66.0299 4138.12 74.4335 4127.31 86.4386Z" fill="black"/>
<path d="M3019.24 94.8415C3015.64 108.047 2997.63 123.654 2979.62 130.857C2959.21 138.06 2954.41 142.862 2968.82 142.862C2990.43 144.063 3037.25 104.446 3037.25 84.0369C3037.25 63.6282 3027.64 70.8312 3019.24 94.8415Z" fill="black"/>
<path d="M1291.7 115.25C1261.69 144.063 1256.89 184.88 1277.3 234.101C1310.91 314.536 1376.94 337.345 1426.16 284.523C1483.79 223.297 1484.99 153.667 1429.76 111.649C1402.15 90.0396 1313.31 92.4406 1291.7 115.25ZM1430.96 128.456C1460.98 164.471 1464.58 190.883 1446.57 235.302C1414.16 312.135 1324.12 318.137 1296.51 244.906C1262.89 158.469 1374.54 63.6283 1430.96 128.456Z" fill="black"/>
<path d="M1863.14 110.448C1870.35 132.057 1896.76 135.659 1896.76 115.25C1896.76 104.446 1888.35 96.042 1877.55 96.042C1866.74 96.042 1860.74 102.045 1863.14 110.448Z" fill="black"/>
<path d="M4216.15 122.452C4182.53 156.067 4212.54 208.889 4262.97 201.686C4298.98 196.884 4319.39 162.069 4302.58 134.457C4285.78 109.247 4236.55 102.043 4216.15 122.452ZM4285.78 138.059C4297.78 152.465 4297.78 159.668 4285.78 174.074C4253.36 212.491 4200.54 183.678 4218.55 138.059C4222.15 128.455 4235.35 120.051 4247.36 120.051C4260.56 120.051 4277.37 128.455 4285.78 138.059Z" fill="black"/>
<path d="M116.398 141.661C89.9868 170.473 91.1873 180.077 117.599 178.877C130.804 178.877 132.005 176.476 122.401 171.674C110.396 166.872 111.596 160.869 127.203 142.862C138.007 130.856 145.21 120.052 141.609 120.052C138.007 120.052 127.203 129.656 116.398 141.661Z" fill="black"/>
<path d="M159.617 198.086C159.617 237.703 162.018 252.109 164.419 230.5C166.82 208.89 166.82 176.476 164.419 158.469C162.018 140.461 159.617 158.469 159.617 198.086Z" fill="black"/>
<path d="M348.097 144.062C337.292 151.265 336.092 156.067 344.495 156.067C352.899 156.067 360.102 180.077 363.704 212.491C367.305 268.915 367.305 268.915 369.706 200.486C370.907 163.27 370.907 132.057 369.706 132.057C367.305 132.057 357.701 138.059 348.097 144.062Z" fill="black"/>
<path d="M261.661 190.882C265.262 226.898 261.661 238.903 247.254 243.705C231.648 248.507 231.648 249.707 248.455 247.306C264.062 246.106 271.265 234.101 273.666 205.288C276.067 183.679 273.666 160.869 267.663 154.867C261.661 148.864 259.26 165.671 261.661 190.882Z" fill="black"/>
<path d="M391.315 158.469C394.917 164.472 405.721 166.873 414.125 163.271C438.135 154.868 453.742 180.078 459.744 234.102L464.546 282.122L465.747 234.102C468.148 175.276 456.143 154.868 416.526 151.266C398.518 148.865 387.714 152.467 391.315 158.469Z" fill="black"/>
<path d="M1735.89 152.466C1720.28 169.273 1729.89 192.083 1752.7 192.083C1765.9 192.083 1776.71 184.88 1776.71 175.276C1776.71 157.268 1747.9 141.661 1735.89 152.466Z" fill="black"/>
<path d="M193.23 193.284C193.23 216.093 200.434 246.106 211.238 259.312C220.842 271.317 225.644 273.718 220.842 264.114C214.84 254.51 207.637 224.497 202.835 198.086L195.631 150.065L193.23 193.284Z" fill="black"/>
<path d="M297.676 164.471C306.08 168.072 316.884 166.872 320.486 163.27C325.288 159.669 318.085 156.067 304.879 157.268C291.674 157.268 288.072 160.869 297.676 164.471Z" fill="black"/>
<path d="M482.555 218.495L483.755 282.122L488.557 228.099C492.159 199.287 500.563 170.474 507.766 165.672C517.37 159.67 514.969 156.068 501.763 156.068C483.755 156.068 480.154 165.672 482.555 218.495Z" fill="black"/>
<path d="M3297.76 164.471C3279.75 181.278 3290.55 192.083 3312.16 178.877C3343.38 158.468 3375.79 174.075 3370.99 206.489C3366.19 241.304 3326.57 249.707 3304.96 220.895C3296.56 208.89 3289.35 205.288 3289.35 211.291C3289.35 230.499 3315.76 252.108 3338.57 252.108C3370.99 252.108 3398.6 205.288 3384.19 177.677C3373.39 156.067 3314.56 146.463 3297.76 164.471Z" fill="black"/>
<path d="M3839.19 164.471C3846.39 166.872 3860.79 166.872 3869.2 164.471C3876.4 160.869 3870.4 158.468 3853.59 158.468C3836.78 158.468 3830.78 160.869 3839.19 164.471Z" fill="black"/>
<path d="M218.445 198.087C218.445 217.295 220.846 224.498 224.448 212.493C226.849 201.689 226.849 184.881 224.448 176.478C220.846 169.275 218.445 177.678 218.445 198.087Z" fill="black"/>
<path d="M888.326 176.477C818.697 201.687 811.494 256.911 869.118 316.937C913.537 364.957 950.753 372.16 993.972 340.947C1088.81 274.919 999.974 135.659 888.326 176.477ZM1003.58 217.294C1052.8 272.518 1003.58 357.754 930.344 343.348C845.108 326.541 840.306 216.094 924.342 189.682C950.753 181.279 979.565 192.083 1003.58 217.294Z" fill="black"/>
<path d="M2338.55 181.279C2303.73 200.487 2318.14 300.13 2355.35 300.13C2362.56 300.13 2360.16 290.526 2349.35 278.521C2325.34 252.109 2322.94 226.899 2343.35 206.49C2366.16 183.68 2409.38 189.683 2429.79 218.495C2445.39 240.104 2448.99 241.305 2448.99 225.698C2448.99 202.888 2404.58 168.073 2376.96 168.073C2367.36 168.073 2349.35 174.076 2338.55 181.279Z" fill="black"/>
<path d="M410.525 187.282C423.73 190.883 432.134 210.091 435.736 237.703L440.538 282.122L439.337 234.102C438.137 195.685 433.335 186.081 414.126 183.68C396.119 182.479 396.119 183.68 410.525 187.282Z" fill="black"/>
<path d="M1920.77 198.086C1900.36 222.097 1914.77 272.518 1945.98 282.122C1971.19 290.526 2004.8 271.318 2004.8 248.508C2004.8 241.305 1997.6 246.107 1988 259.312C1973.59 277.32 1966.39 279.721 1948.38 268.917C1936.38 261.714 1925.57 246.107 1923.17 235.302C1917.17 210.091 1954.38 196.886 1981.99 214.894C1995.2 222.097 2004.8 223.297 2004.8 216.094C2004.8 204.089 1966.39 180.079 1947.18 180.079C1941.18 180.079 1929.17 188.482 1920.77 198.086Z" fill="black"/>
<path d="M4576.3 199.285C4545.09 220.895 4541.49 266.514 4571.5 289.324C4588.31 302.53 4589.51 302.53 4577.51 288.123C4539.09 246.105 4579.91 181.278 4635.13 195.684C4647.14 199.285 4655.54 196.884 4650.74 190.882C4641.13 174.075 4606.32 177.676 4576.3 199.285Z" fill="black"/>
<path d="M2697.5 223.298C2693.9 229.3 2687.89 254.511 2683.09 278.521C2675.89 315.737 2679.49 327.742 2705.9 352.953C2744.32 392.57 2777.93 392.57 2815.15 354.153C2849.96 319.339 2853.56 288.125 2823.55 252.11C2801.94 225.699 2709.5 204.089 2697.5 223.298ZM2815.15 264.115C2861.97 315.737 2797.14 392.57 2731.11 362.557C2666.28 332.544 2689.09 240.105 2761.13 240.105C2779.13 240.105 2803.14 250.909 2815.15 264.115Z" fill="black"/>
<path d="M277.265 255.71C261.658 280.92 262.859 280.92 283.267 261.712C295.273 249.707 302.476 237.702 298.874 235.301C295.273 231.699 285.668 241.303 277.265 255.71Z" fill="black"/>
<path d="M2128.46 246.106C2093.64 270.117 2084.04 316.937 2106.85 360.155C2138.06 420.181 2228.1 423.782 2254.51 366.158C2274.92 321.739 2272.52 306.132 2237.7 265.315C2204.09 224.497 2168.07 218.495 2128.46 246.106ZM2226.9 270.117C2261.71 303.731 2264.12 331.343 2237.7 369.759C2211.29 406.975 2157.27 404.574 2126.06 364.957C2111.65 346.949 2100.85 325.34 2100.85 315.736C2100.85 292.926 2154.87 240.104 2178.88 240.104C2189.68 240.104 2211.29 253.309 2226.9 270.117Z" fill="black"/>
<path d="M3906.42 255.71C3858.4 282.122 3851.2 336.145 3892.01 364.957C3947.24 403.373 4009.66 373.361 4009.66 309.733C4009.66 261.713 3950.84 230.5 3906.42 255.71ZM3985.65 280.921C4003.66 304.931 3996.46 348.15 3971.25 364.957C3941.23 384.165 3884.81 360.155 3880.01 326.541C3874 289.325 3898.02 264.114 3937.63 264.114C3955.64 264.114 3977.25 272.518 3985.65 280.921Z" fill="black"/>
<path d="M2432.19 270.117C2428.59 279.721 2412.98 294.127 2398.58 300.13C2380.57 306.132 2378.17 310.934 2390.17 310.934C2410.58 312.135 2457.4 267.716 2446.6 258.112C2442.99 254.51 2436.99 259.312 2432.19 270.117Z" fill="black"/>
<path d="M2581.05 300.129C2581.05 306.131 2587.05 312.134 2593.06 312.134C2600.26 312.134 2605.06 306.131 2605.06 300.129C2605.06 292.926 2600.26 288.124 2593.06 288.124C2587.05 288.124 2581.05 292.926 2581.05 300.129Z" fill="black"/>
<path d="M4621.92 300.129C4594.31 308.532 4594.31 309.733 4618.32 310.933C4632.73 312.134 4648.34 306.131 4651.94 300.129C4655.54 292.926 4657.94 288.124 4655.54 289.324C4653.14 290.525 4638.73 295.327 4621.92 300.129Z" fill="black"/>
<path d="M3404.6 361.355C3367.39 405.774 3366.19 420.18 3398.6 460.997C3431.02 501.815 3491.04 504.216 3527.06 464.599C3563.07 426.182 3560.67 379.362 3522.25 349.35C3477.84 314.535 3440.62 318.136 3404.6 361.355ZM3517.45 360.154C3566.67 409.375 3533.06 480.206 3462.23 480.206C3434.62 480.206 3416.61 471.802 3404.6 453.794C3378.19 416.578 3380.59 399.771 3415.41 366.157C3450.22 330.141 3485.04 327.74 3517.45 360.154Z" fill="black"/>
<path d="M866.716 398.571C845.107 420.18 848.709 485.008 873.919 507.818C926.742 555.838 1016.78 504.216 984.367 445.391C968.76 415.378 927.942 392.568 906.333 400.972C896.729 404.573 888.326 400.972 885.925 394.969C883.524 387.766 876.32 388.967 866.716 398.571ZM947.151 420.18C999.973 447.792 984.367 516.221 924.341 516.221C853.511 516.221 851.11 427.383 921.94 409.375C924.341 408.175 935.146 412.977 947.151 420.18Z" fill="black"/>
<path d="M1649.45 414.178C1638.65 441.79 1653.05 468.201 1680.67 468.201C1710.68 468.201 1725.08 438.188 1704.68 414.178C1685.47 391.368 1657.86 391.368 1649.45 414.178ZM1698.67 433.386C1698.67 441.79 1689.07 451.394 1678.26 453.795C1656.66 457.397 1648.25 432.186 1665.06 415.379C1677.06 403.373 1698.67 414.178 1698.67 433.386Z" fill="black"/>
<path d="M4600.31 422.582C4572.7 450.193 4590.71 516.222 4626.72 516.222C4632.73 516.222 4629.12 509.019 4617.12 500.615C4585.91 477.805 4596.71 429.785 4633.93 418.98C4659.14 411.777 4660.34 410.577 4639.93 409.376C4625.52 408.176 4608.72 414.178 4600.31 422.582Z" fill="black"/>
<path d="M283.269 451.394C255.657 479.006 259.259 507.818 297.675 541.433C315.683 557.039 322.886 561.841 315.683 552.237C296.475 530.628 295.274 477.805 314.482 458.597C349.297 423.782 432.133 457.397 432.133 506.618C432.133 530.628 397.318 560.641 360.102 567.844C330.089 572.646 331.29 572.646 363.703 575.047C400.919 576.247 444.138 540.232 444.138 506.618C444.138 494.613 433.333 473.003 420.128 458.597C390.115 426.183 312.081 422.582 283.269 451.394Z" fill="black"/>
<path d="M720.258 454.996C720.258 481.407 745.469 494.613 768.278 480.207C789.888 467.001 773.08 432.186 744.268 432.186C728.661 432.186 720.258 440.59 720.258 454.996ZM768.278 456.196C768.278 462.199 763.476 468.201 756.273 468.201C750.271 468.201 744.268 462.199 744.268 456.196C744.268 448.993 750.271 444.191 756.273 444.191C763.476 444.191 768.278 448.993 768.278 456.196Z" fill="black"/>
<path d="M3076.87 483.808C3105.68 507.818 3102.08 539.031 3070.86 552.237C3055.26 558.24 3049.25 563.042 3057.66 563.042C3111.68 566.643 3130.89 503.016 3082.87 480.206C3057.66 468.201 3057.66 468.201 3076.87 483.808Z" fill="black"/>
<path d="M3020.44 499.414C3016.84 510.218 3019.24 527.025 3026.44 537.83C3037.25 555.838 3038.45 555.838 3032.44 535.429C3027.64 523.424 3031.24 505.416 3038.45 497.013C3046.85 486.208 3048.05 480.205 3039.65 480.205C3033.65 480.205 3024.04 488.609 3020.44 499.414Z" fill="black"/>
<path d="M1929.17 549.837C1917.17 561.842 1908.76 582.25 1908.76 595.456C1908.76 624.268 1941.18 672.289 1960.38 671.088C1969.99 671.088 1969.99 668.687 1959.18 663.885C1950.78 660.284 1937.57 644.677 1931.57 627.87C1915.96 587.052 1944.78 543.834 1989.2 536.631C2022.81 531.829 2022.81 531.829 1985.59 529.428C1962.78 529.428 1941.18 536.631 1929.17 549.837Z" fill="black"/>
<path d="M2098.45 540.231C2082.84 549.835 2080.44 559.439 2090.04 591.853C2108.05 656.681 2175.28 683.092 2210.09 639.874C2225.7 621.866 2224.5 621.866 2201.69 636.272C2169.28 655.48 2116.45 643.475 2106.85 613.462C2084.04 539.03 2192.09 511.419 2219.7 585.85C2226.9 606.259 2231.7 611.061 2231.7 596.655C2234.1 546.234 2151.27 510.218 2098.45 540.231Z" fill="black"/>
<path d="M2038.42 552.237C2045.62 561.841 2052.83 587.051 2052.83 608.661C2052.83 643.476 2046.82 651.879 2014.41 666.285C1990.4 677.09 1983.2 683.092 1996.4 684.293C2024.02 684.293 2076.84 631.47 2076.84 602.658C2076.84 590.653 2064.83 570.244 2050.43 557.039C2034.82 545.033 2030.02 542.632 2038.42 552.237Z" fill="black"/>
<path d="M2900.39 583.449C2858.37 624.267 2889.58 686.694 2949.61 683.092C2961.61 683.092 2953.21 677.089 2931.6 671.087C2897.99 661.483 2891.98 654.28 2895.59 627.868C2903.99 557.038 2983.22 561.84 2983.22 633.871C2983.22 653.079 2986.82 667.485 2991.63 663.884C3008.43 654.28 3002.43 602.658 2982.02 583.449C2972.42 572.645 2953.21 564.241 2941.2 564.241C2929.2 564.241 2909.99 572.645 2900.39 583.449Z" fill="black"/>
<path d="M2571.44 603.859C2539.03 638.674 2536.63 697.499 2566.64 723.91C2578.65 735.915 2594.25 744.319 2600.26 744.319C2605.06 744.319 2597.85 735.915 2583.45 725.111C2565.44 713.106 2557.04 695.098 2557.04 666.286C2557.04 583.45 2661.48 564.242 2698.7 639.874C2719.11 680.692 2701.1 716.707 2649.48 738.317C2625.47 749.121 2619.46 755.124 2632.67 756.324C2660.28 756.324 2725.11 692.697 2725.11 666.286C2725.11 636.273 2659.08 576.247 2626.67 576.247C2609.86 576.247 2585.85 588.252 2571.44 603.859Z" fill="black"/>
<path d="M4205.34 607.461C4193.34 638.674 4218.55 666.286 4256.96 666.286C4284.58 666.286 4292.98 660.284 4295.38 637.474C4297.78 621.867 4292.98 603.859 4283.38 599.057C4256.96 582.25 4213.75 587.052 4205.34 607.461ZM4279.77 630.271C4279.77 656.682 4242.56 669.888 4223.35 650.679C4202.94 630.271 4222.15 597.857 4252.16 602.659C4270.17 605.06 4279.77 614.664 4279.77 630.271Z" fill="black"/>
<path d="M268.861 612.263C235.247 625.468 224.442 643.476 234.047 671.088C242.45 698.699 295.273 723.91 325.285 714.306C368.504 699.9 364.902 612.263 321.684 612.263C315.681 612.263 319.283 620.666 328.887 631.471C352.897 654.281 352.897 677.09 330.088 696.298C307.278 715.507 267.661 701.101 256.856 669.887C250.854 651.879 256.856 638.674 277.265 623.067C308.478 599.057 307.278 596.656 268.861 612.263Z" fill="black"/>
<path d="M3479.03 661.482C3467.03 667.485 3457.42 679.49 3457.42 685.493C3457.42 692.696 3465.83 689.094 3476.63 679.49C3513.85 641.074 3577.47 662.683 3577.47 714.305C3577.47 765.927 3521.05 786.336 3479.03 747.919C3452.62 723.909 3450.22 734.714 3476.63 761.125C3518.65 804.343 3589.48 768.328 3589.48 704.701C3589.48 656.68 3528.25 632.67 3479.03 661.482Z" fill="black"/>
<path d="M1764.7 696.298C1755.1 714.306 1757.5 725.111 1776.71 744.319C1789.91 757.524 1805.52 768.329 1810.32 768.329C1831.93 768.329 1863.14 734.715 1857.14 719.108C1852.34 705.902 1849.94 707.103 1849.94 721.509C1848.74 732.314 1840.33 744.319 1830.73 749.121C1800.72 759.926 1775.51 743.118 1779.11 715.507C1781.51 697.499 1791.11 690.296 1815.12 690.296C1831.93 691.496 1843.94 686.694 1841.53 681.892C1829.53 662.684 1777.91 672.288 1764.7 696.298Z" fill="black"/>
<path d="M3920.82 687.895C3907.62 697.499 3900.42 715.507 3904.02 733.515C3907.62 758.726 3913.62 762.327 3954.44 763.528C3990.45 763.528 4003.66 769.53 4010.86 789.939C4030.07 840.36 4121.31 859.569 4156.13 818.751C4194.54 776.733 4193.34 746.72 4154.92 708.304C4110.51 662.685 4076.89 662.685 4033.67 707.103C4001.26 739.517 3998.86 739.517 3995.26 716.708C3992.86 703.502 3983.25 690.296 3973.65 687.895C3959.24 683.093 3959.24 684.294 3971.25 693.898C3998.86 713.106 3983.25 750.322 3946.04 753.923C3919.62 757.525 3913.62 752.723 3913.62 731.114C3913.62 716.708 3923.23 697.499 3935.23 689.096C3961.64 668.687 3948.44 667.487 3920.82 687.895ZM4139.32 703.502C4157.33 715.507 4165.73 733.515 4165.73 761.127C4165.73 809.147 4147.72 828.355 4099.7 828.355C4022.87 828.355 3989.25 763.528 4038.48 714.307C4073.29 679.492 4100.9 677.091 4139.32 703.502Z" fill="black"/>
<path d="M3032.44 788.738C3016.83 805.545 3026.44 828.354 3049.25 828.354C3062.45 828.354 3073.26 821.151 3073.26 811.547C3073.26 793.54 3044.45 777.933 3032.44 788.738Z" fill="black"/>
<path d="M4290.58 810.348C4272.57 837.96 4272.57 842.762 4290.58 869.173C4315.79 908.79 4353.01 918.394 4387.82 895.584C4452.65 853.566 4428.64 780.335 4350.61 780.335C4320.59 780.335 4304.99 788.739 4290.58 810.348ZM4391.42 806.746C4434.64 849.965 4378.22 918.394 4322.99 889.582C4298.98 876.376 4286.98 818.751 4306.19 800.744C4319.39 787.538 4375.82 791.14 4391.42 806.746Z" fill="black"/>
<path d="M21.5599 936.401C43.1691 961.612 39.5676 1016.84 14.3568 1031.24C3.55218 1038.44 -0.0493596 1044.45 7.15372 1044.45C47.9711 1045.65 63.5778 962.812 27.5624 935.2C9.55474 921.995 8.35423 921.995 21.5599 936.401Z" fill="black"/>
<path d="M4408.23 950.807C4387.83 971.216 4390.23 1002.43 4414.24 1021.64C4432.24 1037.24 4432.24 1036.04 4417.84 1012.03C4397.43 979.619 4417.84 948.406 4461.06 948.406C4513.88 948.406 4507.88 1031.24 4455.05 1033.64C4441.85 1033.64 4440.65 1036.04 4451.45 1040.85C4470.66 1048.05 4525.88 1013.23 4525.88 991.624C4525.88 948.406 4440.65 918.393 4408.23 950.807Z" fill="black"/>
<path d="M3750.35 978.419C3740.74 1003.63 3755.15 1020.44 3787.57 1020.44C3818.78 1020.44 3834.39 994.025 3813.98 973.616C3794.77 954.408 3757.55 956.809 3750.35 978.419ZM3805.57 990.424C3805.57 1000.03 3798.37 1008.43 3788.77 1008.43C3768.36 1008.43 3755.15 991.624 3765.96 979.619C3780.36 965.213 3805.57 972.416 3805.57 990.424Z" fill="black"/>
<path d="M4080.49 1123.68C4069.69 1136.89 4068.49 1147.69 4078.09 1162.1C4094.9 1188.51 4141.72 1188.51 4158.52 1160.9C4169.33 1142.89 4166.93 1135.69 4148.92 1121.28C4118.91 1099.67 4100.9 1099.67 4080.49 1123.68ZM4138.12 1129.68C4157.32 1148.89 4144.12 1176.5 4117.71 1176.5C4090.1 1176.5 4076.89 1157.3 4086.49 1134.49C4093.7 1112.88 4120.11 1111.68 4138.12 1129.68Z" fill="black"/>
<path d="M4393.82 1152.49C4380.62 1165.7 4369.81 1183.71 4369.81 1193.31C4369.81 1214.92 4416.63 1272.54 4433.44 1272.54C4441.84 1272.54 4438.24 1266.54 4427.44 1259.34C4365.01 1223.32 4383.02 1140.49 4453.85 1140.49C4521.08 1140.49 4552.29 1217.32 4499.47 1253.34C4485.06 1264.14 4477.86 1272.54 4485.06 1272.54C4507.87 1272.54 4537.88 1229.33 4537.88 1196.91C4537.88 1135.69 4440.64 1105.67 4393.82 1152.49Z" fill="black"/>
<path d="M3973.64 1212.52C3960.44 1225.72 3949.63 1249.73 3949.63 1264.14C3949.63 1291.75 3982.05 1332.57 4004.86 1332.57C4009.66 1332.57 4002.46 1324.17 3988.05 1313.36C3955.64 1291.75 3953.23 1247.33 3983.25 1220.92C4030.07 1177.7 4093.69 1205.32 4093.69 1267.74C4093.69 1303.76 4087.69 1312.16 4055.28 1326.57C4033.67 1336.17 4024.06 1343.37 4034.87 1344.58C4069.68 1344.58 4109.3 1303.76 4109.3 1266.54C4109.3 1199.31 4021.66 1164.5 3973.64 1212.52Z" fill="black"/>
<path d="M3863.2 1381.79C3829.59 1401 3835.59 1450.22 3871.61 1459.83C3917.23 1470.63 3940.04 1457.42 3935.23 1420.21C3932.83 1403.4 3923.23 1385.39 3913.62 1382.99C3898.02 1376.99 3898.02 1379.39 3912.42 1396.2C3935.23 1423.81 3919.63 1455.02 3887.21 1450.22C3852.4 1445.42 3845.2 1408.2 3874.01 1386.59C3899.22 1366.19 3893.22 1363.78 3863.2 1381.79Z" fill="black"/>
<path d="M4154.92 1495.84C4123.71 1535.46 4123.71 1539.06 4154.92 1573.87L4178.93 1602.69L4160.92 1572.67C4133.31 1525.85 4158.52 1482.63 4213.75 1482.63C4296.58 1482.63 4300.18 1579.88 4218.55 1597.88L4183.73 1606.29L4217.35 1607.49C4254.56 1608.69 4297.78 1571.47 4297.78 1539.06C4297.78 1507.84 4247.36 1464.63 4211.35 1464.63C4190.94 1464.63 4170.53 1476.63 4154.92 1495.84Z" fill="black"/>
<path d="M3935.23 1489.84C3910.02 1504.24 3906.42 1560.67 3928.02 1582.28C3936.43 1590.68 3960.44 1596.68 3982.05 1596.68C4033.67 1596.68 4055.28 1559.47 4027.67 1517.45C4018.06 1501.84 4006.06 1488.64 4002.46 1488.64C3997.65 1488.64 4001.26 1497.04 4009.66 1505.44C4016.86 1515.05 4021.66 1535.46 4019.26 1551.06C4016.86 1573.87 4008.46 1578.67 3973.64 1578.67C3935.23 1578.67 3931.63 1576.27 3931.63 1542.66C3931.63 1517.45 3940.03 1503.04 3961.64 1492.24C3978.45 1483.83 3983.25 1476.63 3973.64 1476.63C3964.04 1477.83 3946.03 1482.63 3935.23 1489.84Z" fill="black"/>
<path d="M218.44 1567.87C199.232 1581.08 192.029 1596.68 194.43 1618.29C196.831 1644.7 206.435 1653.11 242.45 1661.51C279.666 1671.11 291.672 1668.71 312.08 1650.71C342.093 1623.09 343.294 1594.28 314.481 1569.07C286.869 1543.86 253.255 1542.66 218.44 1567.87ZM312.08 1583.48C333.689 1626.7 298.875 1665.11 252.055 1650.71C201.633 1635.1 217.24 1560.67 270.062 1560.67C286.869 1560.67 304.877 1570.27 312.08 1583.48Z" fill="black"/>
<path d="M4629.13 1587.08C4618.32 1601.48 4613.52 1624.29 4617.12 1638.7C4621.92 1656.71 4617.12 1667.51 4605.12 1672.32C4559.5 1690.32 4596.71 1767.16 4648.33 1763.55C4656.74 1763.55 4648.33 1757.55 4630.33 1750.35C4587.11 1734.74 4589.51 1691.52 4633.93 1680.72C4654.34 1675.92 4659.14 1671.11 4648.33 1663.91C4630.33 1653.11 4629.13 1594.28 4648.33 1575.07C4656.74 1566.67 4659.14 1560.67 4655.54 1560.67C4650.73 1560.67 4638.73 1572.67 4629.13 1587.08Z" fill="black"/>
<path d="M4339.8 1608.69C4321.79 1627.9 4319.39 1639.9 4329 1665.11C4335 1681.92 4348.2 1699.93 4357.81 1702.33C4372.21 1707.13 4371.01 1703.53 4355.41 1684.32C4330.2 1656.71 4327.8 1631.5 4348.2 1611.09C4379.42 1579.88 4453.85 1607.49 4453.85 1650.71C4453.85 1659.11 4445.45 1675.92 4434.64 1685.52C4425.04 1696.33 4420.23 1704.73 4426.24 1704.73C4469.46 1704.73 4477.86 1630.3 4439.44 1603.89C4402.23 1577.48 4366.21 1579.88 4339.8 1608.69Z" fill="black"/>
<path d="M4141.72 1776.76C4112.9 1805.57 4111.7 1815.18 4139.32 1845.19C4150.12 1857.19 4154.92 1860.8 4150.12 1853.59C4132.11 1827.18 4146.52 1783.96 4177.73 1768.36C4199.34 1757.55 4201.74 1752.75 4187.34 1752.75C4175.33 1752.75 4154.92 1763.55 4141.72 1776.76Z" fill="black"/>
<path d="M4230.55 1783.96C4241.36 1793.57 4249.76 1810.37 4249.76 1818.78C4249.76 1841.59 4216.15 1872.8 4192.14 1874C4181.33 1874 4177.73 1877.6 4184.93 1880C4211.35 1890.81 4261.77 1862 4261.77 1836.79C4261.77 1804.37 4241.36 1764.75 4224.55 1764.75C4217.35 1764.75 4220.95 1773.16 4230.55 1783.96Z" fill="black"/>
<path d="M4441.85 1798.37C4409.44 1824.78 4405.83 1878.8 4434.65 1906.42C4453.85 1925.62 4453.85 1924.42 4437.05 1892.01C4415.44 1848.79 4427.44 1810.37 4469.46 1795.97C4521.08 1777.96 4561.9 1803.17 4561.9 1853.59C4561.9 1900.41 4546.29 1916.02 4495.87 1924.42L4459.86 1929.23L4499.47 1931.63C4551.1 1934.03 4590.71 1894.41 4579.91 1851.19C4564.3 1783.96 4493.47 1756.35 4441.85 1798.37Z" fill="black"/>
<path d="M361.306 1817.58C319.288 1862 333.695 1904.01 397.322 1923.22C445.342 1936.43 448.944 1936.43 476.556 1904.01C505.368 1870.4 505.368 1839.19 477.756 1803.17C456.147 1777.96 391.319 1786.36 361.306 1817.58ZM480.157 1831.98C501.766 1888.41 448.944 1937.63 397.322 1910.02C338.497 1877.6 358.905 1800.77 427.335 1800.77C460.949 1800.77 470.553 1806.77 480.157 1831.98Z" fill="black"/>
<path d="M3937.63 1878.8C3917.22 1902.81 3941.23 1932.83 3982.05 1932.83C4019.26 1932.83 4032.47 1898.01 4003.66 1877.6C3974.84 1855.99 3955.64 1855.99 3937.63 1878.8ZM3995.25 1900.41C3997.65 1914.82 3991.65 1920.82 3974.84 1920.82C3956.84 1920.82 3949.63 1913.62 3949.63 1895.61C3949.63 1865.6 3989.25 1869.2 3995.25 1900.41Z" fill="black"/>
<path d="M4638.73 1886.01C4635.13 1893.21 4636.33 1904.01 4642.33 1910.02C4648.33 1916.02 4653.14 1911.22 4653.14 1896.81C4653.14 1869.2 4650.73 1868 4638.73 1886.01Z" fill="black"/>
<path d="M4587.11 1961.64C4560.7 1992.85 4599.11 2037.27 4639.93 2021.66C4663.94 2012.06 4662.74 1961.64 4638.73 1952.03C4611.12 1941.23 4602.72 1942.43 4587.11 1961.64ZM4643.53 1984.45C4645.93 1997.65 4639.93 2004.86 4624.33 2004.86C4595.51 2004.86 4585.91 1995.25 4594.31 1973.64C4602.72 1949.63 4638.73 1958.04 4643.53 1984.45Z" fill="black"/>
<path d="M3893.21 2006.06C3862 2037.27 3919.62 2087.69 3961.64 2064.88C3991.65 2048.08 3992.85 2021.66 3962.84 2004.86C3932.83 1989.25 3910.02 1989.25 3893.21 2006.06ZM3959.24 2032.47C3962.84 2049.28 3958.04 2054.08 3935.23 2050.48C3920.82 2048.08 3906.42 2037.27 3904.02 2025.27C3900.41 2008.46 3905.22 2003.66 3928.03 2007.26C3942.43 2009.66 3956.84 2020.46 3959.24 2032.47Z" fill="black"/>
<path d="M4333.8 2244.96C4320.59 2258.17 4309.79 2276.17 4309.79 2285.78C4309.79 2310.99 4357.81 2365.01 4379.42 2365.01C4393.82 2365.01 4391.42 2360.21 4371.02 2349.4C4331.4 2329 4319.39 2290.58 4341 2258.17C4360.21 2230.55 4393.82 2225.75 4431.04 2244.96C4463.45 2262.97 4461.05 2321.79 4427.44 2345.8C4405.83 2361.41 4404.63 2365.01 4420.24 2365.01C4441.85 2365.01 4477.86 2321.79 4477.86 2295.38C4477.86 2268.97 4420.24 2220.95 4387.82 2220.95C4371.02 2220.95 4347 2231.75 4333.8 2244.96Z" fill="black"/>
<path d="M4063.68 2372.21C4038.47 2397.43 4044.47 2422.64 4082.89 2451.45C4106.9 2469.46 4118.91 2471.86 4145.32 2462.25C4186.13 2446.65 4189.74 2398.63 4151.32 2372.21C4116.5 2348.2 4088.89 2348.2 4063.68 2372.21ZM4146.52 2384.22C4171.73 2409.43 4170.53 2420.24 4139.31 2441.84C4121.31 2455.05 4108.1 2456.25 4091.29 2447.85C4070.89 2437.04 4061.28 2389.02 4078.09 2373.42C4091.29 2359.01 4127.31 2365.01 4146.52 2384.22Z" fill="black"/>
<path d="M4121.31 2529.48C4112.91 2531.88 4105.7 2547.49 4105.7 2564.3C4105.7 2584.7 4114.11 2594.31 4134.52 2600.31C4187.34 2613.52 4208.95 2577.5 4170.53 2540.28C4151.32 2519.88 4145.32 2518.68 4121.31 2529.48ZM4162.13 2573.9C4157.33 2584.7 4148.92 2593.11 4141.72 2593.11C4121.31 2593.11 4112.91 2555.89 4130.91 2543.89C4152.52 2530.68 4171.73 2549.89 4162.13 2573.9Z" fill="black"/>
<path d="M4066.08 2686.75C4022.86 2734.77 4061.28 2809.2 4128.51 2809.2C4199.34 2809.2 4225.75 2739.57 4174.13 2691.55C4140.51 2659.14 4092.49 2657.94 4066.08 2686.75ZM4168.13 2697.55C4194.54 2721.56 4195.74 2746.77 4169.33 2775.59C4145.32 2802 4108.1 2803.2 4079.29 2776.79C4052.88 2752.78 4051.68 2721.56 4076.89 2696.35C4100.9 2671.14 4140.51 2672.34 4168.13 2697.55Z" fill="black"/>
<path d="M369.707 2721.56C390.116 2723.96 426.132 2723.96 447.741 2721.56C468.15 2719.16 451.342 2716.76 408.124 2716.76C364.905 2716.76 348.098 2719.16 369.707 2721.56Z" fill="black"/>
<path d="M3769.56 2833.21C3745.55 2847.62 3767.16 2886.03 3801.97 2890.84C3833.18 2895.64 3846.39 2863.22 3822.38 2839.21C3800.77 2818.8 3793.57 2817.6 3769.56 2833.21ZM3815.18 2858.42C3812.78 2865.62 3805.57 2870.43 3799.57 2870.43C3793.57 2870.43 3786.37 2865.62 3783.96 2858.42C3781.56 2851.22 3788.77 2845.22 3799.57 2845.22C3810.38 2845.22 3817.58 2851.22 3815.18 2858.42Z" fill="black"/>
<path d="M4468.26 2895.64C4432.24 2931.65 4469.46 3001.28 4523.48 3001.28C4551.09 3001.28 4585.91 2972.47 4585.91 2948.46C4585.91 2901.64 4500.67 2863.22 4468.26 2895.64ZM4542.69 2908.84C4582.3 2937.66 4542.69 3000.08 4495.87 2982.07C4471.86 2972.47 4461.05 2931.65 4477.86 2911.24C4495.87 2888.43 4515.08 2888.43 4542.69 2908.84Z" fill="black"/>
<path d="M176.421 2926.85C138.005 2968.87 159.614 3013.29 218.439 3013.29C260.457 3013.29 282.067 2972.47 258.056 2935.25C237.648 2902.84 201.632 2899.24 176.421 2926.85ZM244.851 2949.66C249.653 2960.47 246.051 2977.27 236.447 2985.68C228.043 2995.28 211.236 2998.88 200.432 2994.08C180.023 2986.88 172.82 2952.06 188.427 2937.66C202.833 2922.05 237.648 2929.25 244.851 2949.66Z" fill="black"/>
<path d="M4139.32 2959.27C4123.71 2994.08 4148.92 3042.1 4189.74 3055.31C4224.55 3066.11 4273.78 3031.3 4273.78 2996.48C4273.78 2931.65 4165.73 2900.44 4139.32 2959.27ZM4249.77 2965.27C4274.98 3010.89 4223.35 3061.31 4176.53 3037.3C4153.72 3025.29 4144.12 2966.47 4162.13 2949.66C4180.14 2931.65 4237.76 2941.26 4249.77 2965.27Z" fill="black"/>
<path d="M3823.58 2953.26C3811.57 2972.47 3828.38 3010.89 3852.39 3019.29C3901.61 3034.9 3934.03 2990.48 3899.21 2955.66C3881.2 2937.66 3834.38 2936.45 3823.58 2953.26ZM3887.21 2980.87C3889.61 2995.28 3883.61 3001.28 3866.8 3001.28C3848.79 3001.28 3841.59 2994.08 3841.59 2976.07C3841.59 2946.06 3881.2 2949.66 3887.21 2980.87Z" fill="black"/>
<path d="M4623.12 2976.07C4602.71 2989.28 4614.72 3043.3 4639.93 3054.11C4649.53 3057.71 4657.94 3055.31 4657.94 3049.3C4657.94 3042.1 4653.13 3037.3 4645.93 3037.3C4629.12 3037.3 4630.33 2997.68 4648.33 2979.67C4665.14 2962.87 4648.33 2960.47 4623.12 2976.07Z" fill="black"/>
<path d="M4066.09 3082.92C4037.28 3114.13 4040.88 3141.74 4075.69 3175.36C4112.91 3213.77 4159.73 3213.77 4183.74 3176.56C4230.56 3105.73 4122.51 3020.49 4066.09 3082.92ZM4158.53 3092.52C4187.34 3121.33 4182.54 3168.15 4148.92 3182.56C4090.1 3210.17 4037.28 3141.74 4082.9 3096.12C4110.51 3068.51 4133.32 3067.31 4158.53 3092.52Z" fill="black"/>
<path d="M43.1639 3104.53C38.3619 3116.53 40.7629 3130.94 46.7655 3136.94C64.7732 3154.95 101.989 3140.54 101.989 3115.33C101.989 3084.12 53.9686 3075.72 43.1639 3104.53Z" fill="black"/>
<path d="M4494.67 3139.34C4485.06 3164.55 4511.47 3193.37 4545.09 3193.37C4582.3 3193.37 4591.91 3172.96 4566.7 3144.14C4542.69 3116.53 4504.27 3114.13 4494.67 3139.34ZM4549.89 3157.35C4549.89 3163.35 4541.49 3169.35 4531.88 3169.35C4522.28 3169.35 4513.88 3163.35 4513.88 3157.35C4513.88 3150.15 4522.28 3145.34 4531.88 3145.34C4541.49 3145.34 4549.89 3150.15 4549.89 3157.35Z" fill="black"/>
<path d="M4393.83 3283.4C4360.21 3323.02 4420.24 3385.45 4468.26 3360.24C4497.07 3344.63 4495.87 3319.42 4465.86 3289.41C4437.04 3260.59 4414.23 3259.39 4393.83 3283.4ZM4458.65 3300.21C4470.66 3319.42 4452.65 3349.43 4429.84 3349.43C4407.03 3349.43 4389.02 3319.42 4401.03 3300.21C4404.63 3294.21 4417.84 3289.41 4429.84 3289.41C4441.85 3289.41 4455.05 3294.21 4458.65 3300.21Z" fill="black"/>
<path d="M3837.98 3284.6C3818.78 3305.01 3830.78 3337.43 3860.79 3344.63C3900.41 3354.23 3924.42 3332.62 3906.41 3303.81C3892.01 3282.2 3852.39 3270.2 3837.98 3284.6Z" fill="black"/>
<path d="M4129.72 3379.45C4099.7 3416.66 4146.52 3468.28 4194.54 3450.28C4220.95 3439.47 4218.55 3389.05 4190.94 3373.44C4159.73 3356.64 4147.72 3357.84 4129.72 3379.45ZM4183.74 3409.46C4183.74 3435.87 4148.92 3431.07 4144.12 3405.86C4140.52 3389.05 4145.32 3384.25 4162.13 3387.85C4174.13 3390.25 4183.74 3399.85 4183.74 3409.46Z" fill="black"/>
<path d="M184.829 3462.28C171.624 3495.89 186.03 3523.51 214.842 3523.51C248.457 3523.51 271.266 3493.49 260.462 3464.68C250.858 3440.67 193.233 3439.47 184.829 3462.28Z" fill="black"/>
<path d="M4210.15 3513.9C4190.94 3531.91 4202.94 3577.53 4230.56 3595.54C4268.97 3620.75 4309.79 3601.54 4309.79 3559.52C4309.79 3518.7 4237.76 3486.29 4210.15 3513.9ZM4279.78 3553.52C4279.78 3588.33 4241.36 3602.74 4230.56 3572.73C4219.75 3543.92 4235.36 3515.1 4258.17 3519.9C4272.57 3522.31 4279.78 3534.31 4279.78 3553.52Z" fill="black"/>
<path d="M3958.04 3563.12C3928.03 3596.74 3932.83 3643.56 3968.84 3672.37C4008.46 3703.58 4038.47 3704.78 4069.69 3673.57C4102.1 3641.16 4099.7 3606.34 4063.68 3571.53C4028.87 3535.51 3985.65 3533.11 3958.04 3563.12ZM4043.28 3572.73C4090.1 3605.14 4070.89 3673.57 4014.46 3673.57C3989.25 3673.57 3949.64 3633.95 3949.64 3611.14C3949.64 3599.14 3995.26 3553.52 4007.26 3553.52C4012.06 3553.52 4028.87 3561.92 4043.28 3572.73Z" fill="black"/>
<path d="M2066.03 3637.55C2066.03 3647.16 2075.64 3677.17 2087.64 3703.58C2100.85 3729.99 2111.65 3743.2 2111.65 3733.6C2111.65 3723.99 2102.05 3693.98 2090.04 3667.57C2076.84 3641.16 2066.03 3627.95 2066.03 3637.55Z" fill="black"/>
<path d="M3099.67 3648.36C3072.06 3665.17 3087.66 3703.58 3124.88 3707.19C3150.09 3710.79 3157.29 3705.98 3157.29 3689.18C3157.29 3667.57 3136.88 3637.56 3122.48 3637.56C3117.68 3637.56 3108.07 3642.36 3099.67 3648.36Z" fill="black"/>
<path d="M1216.07 3668.77C1206.47 3695.18 1222.07 3723.99 1244.88 3719.19C1277.3 3713.19 1279.7 3666.37 1248.48 3657.96C1232.88 3654.36 1220.87 3657.96 1216.07 3668.77Z" fill="black"/>
<path d="M2817.55 3668.77C2806.75 3680.77 2819.95 3697.58 2840.36 3697.58C2849.97 3697.58 2857.17 3689.18 2857.17 3679.57C2857.17 3661.57 2831.96 3654.36 2817.55 3668.77Z" fill="black"/>
<path d="M4357.81 3679.57C4325.4 3717.99 4380.62 3778.02 4437.04 3764.81C4458.65 3758.81 4465.86 3749.2 4465.86 3723.99C4465.86 3705.98 4459.85 3684.38 4451.45 3675.97C4431.04 3655.56 4375.82 3657.96 4357.81 3679.57ZM4429.84 3692.78C4443.05 3707.18 4441.85 3714.39 4426.24 3729.99C4399.83 3757.61 4363.81 3729.99 4383.02 3696.38C4397.43 3668.77 4409.43 3667.57 4429.84 3692.78Z" fill="black"/>
<path d="M2085.24 3778.01C2070.83 3791.22 2076.84 3841.64 2092.44 3841.64C2122.46 3841.64 2139.26 3821.23 2130.86 3794.82C2123.66 3769.61 2100.85 3761.21 2085.24 3778.01Z" fill="black"/>
<path d="M2902.79 3823.63C2891.98 3848.84 2893.18 3857.25 2911.19 3877.66C2948.41 3918.47 3001.23 3901.67 3001.23 3847.64C3001.23 3790.02 2926.8 3772.01 2902.79 3823.63ZM2977.22 3847.64C2977.22 3857.25 2966.42 3865.65 2953.21 3865.65C2940 3865.65 2929.2 3857.25 2929.2 3847.64C2929.2 3838.04 2940 3829.64 2953.21 3829.64C2966.42 3829.64 2977.22 3838.04 2977.22 3847.64Z" fill="black"/>
<path d="M3486.24 3835.64C3476.63 3875.26 3499.44 3901.67 3542.66 3901.67C3572.67 3901.67 3577.48 3896.86 3577.48 3868.05C3577.48 3827.24 3558.27 3805.63 3521.05 3805.63C3501.84 3805.63 3492.24 3814.03 3486.24 3835.64ZM3551.07 3857.25C3553.47 3871.65 3547.46 3877.66 3530.66 3877.66C3516.25 3877.66 3505.45 3870.45 3505.45 3862.05C3505.45 3824.83 3543.86 3821.23 3551.07 3857.25Z" fill="black"/>
<path d="M3749.15 3848.85C3732.34 3894.46 3798.37 3932.88 3829.58 3895.67C3842.79 3880.06 3841.59 3872.86 3823.58 3853.65C3797.17 3824.84 3759.95 3822.43 3749.15 3848.85ZM3799.57 3865.65C3803.17 3871.65 3800.77 3877.66 3794.77 3877.66C3787.57 3877.66 3781.56 3871.65 3781.56 3865.65C3781.56 3858.45 3783.96 3853.65 3786.36 3853.65C3789.97 3853.65 3795.97 3858.45 3799.57 3865.65Z" fill="black"/>
<path d="M10.7517 3910.07C-4.85499 3929.28 -3.65448 3930.48 15.5537 3914.87C26.3583 3906.47 35.9624 3896.87 35.9624 3894.46C35.9624 3884.86 26.3583 3890.86 10.7517 3910.07Z" fill="black"/>
<path d="M4522.28 3923.28C4495.87 3952.09 4497.07 3964.09 4527.08 4002.51C4569.1 4055.33 4633.93 4038.53 4633.93 3973.7C4633.93 3911.27 4561.9 3880.06 4522.28 3923.28ZM4602.72 3952.09C4618.32 3978.5 4585.91 4016.92 4557.1 4006.11C4537.89 3998.91 4530.69 3948.49 4546.29 3932.88C4559.5 3919.68 4588.31 3929.28 4602.72 3952.09Z" fill="black"/>
<path d="M2477.81 3931.68C2467.01 3959.29 2481.41 3985.7 2507.82 3985.7C2537.84 3985.7 2548.64 3968.9 2539.04 3937.68C2530.63 3910.07 2487.41 3905.27 2477.81 3931.68Z" fill="black"/>
<path d="M2953.21 3978.5C2953.21 3986.9 2961.61 4001.31 2971.22 4009.71C2994.03 4028.92 3020.44 4008.51 3009.63 3980.9C3000.03 3956.89 2953.21 3955.69 2953.21 3978.5Z" fill="black"/>
<path d="M1170.45 3989.3C1165.65 4001.31 1164.45 4014.52 1169.25 4018.12C1181.25 4030.12 1190.86 4013.31 1184.85 3989.3C1180.05 3968.9 1180.05 3968.9 1170.45 3989.3Z" fill="black"/>
<path d="M23.957 4014.52C23.957 4025.32 29.9596 4033.72 35.9622 4033.72C43.1652 4033.72 47.9673 4028.92 47.9673 4022.92C47.9673 4015.72 43.1652 4007.31 35.9622 4003.71C29.9596 4000.11 23.957 4004.91 23.957 4014.52Z" fill="black"/>
<path d="M2192.08 4026.52C2187.28 4044.53 2144.06 4097.35 2093.64 4144.17C2004.8 4228.21 1923.17 4321.85 1938.78 4321.85C1942.38 4321.85 1969.99 4296.64 2000 4264.22C2030.01 4233.01 2092.44 4169.38 2139.26 4122.56C2207.69 4052.93 2220.9 4032.52 2212.49 4015.72C2201.69 3997.71 2199.29 3998.91 2192.08 4026.52Z" fill="black"/>
<path d="M900.338 4027.72C891.935 4037.33 888.333 4054.13 893.135 4063.74C901.539 4087.75 943.557 4086.55 953.161 4062.54C962.765 4036.12 962.765 4036.12 937.554 4022.92C920.747 4013.31 911.143 4014.52 900.338 4027.72Z" fill="black"/>
<path d="M1770.7 4057.73C1761.1 4073.34 1774.31 4093.75 1794.71 4093.75C1811.52 4093.75 1827.13 4064.94 1816.32 4052.93C1804.32 4042.13 1779.11 4044.53 1770.7 4057.73Z" fill="black"/>
<path d="M560.589 4073.34C550.985 4098.55 570.193 4120.16 595.404 4115.36C627.818 4109.36 625.417 4064.94 593.003 4060.14C578.597 4057.73 564.191 4063.74 560.589 4073.34Z" fill="black"/>
<path d="M4273.77 4080.54C4255.77 4115.36 4278.57 4163.38 4316.99 4172.98C4356.61 4182.59 4386.62 4165.78 4391.42 4130.97C4401.03 4070.94 4302.59 4028.92 4273.77 4080.54ZM4362.61 4099.75C4371.01 4122.56 4338.6 4154.98 4315.79 4146.57C4297.78 4139.37 4291.78 4104.55 4306.19 4090.15C4320.59 4075.74 4355.41 4081.75 4362.61 4099.75Z" fill="black"/>
<path d="M1200.46 4106.95C1200.46 4120.16 1206.46 4127.36 1212.47 4123.76C1219.67 4120.16 1224.47 4108.15 1224.47 4098.55C1224.47 4088.95 1219.67 4081.74 1212.47 4081.74C1206.46 4081.74 1200.46 4092.55 1200.46 4106.95Z" fill="black"/>
<path d="M3931.63 4105.75C3926.83 4112.96 3928.03 4122.56 3931.63 4129.76C3942.43 4147.77 3973.65 4144.17 3973.65 4124.96C3973.65 4104.55 3941.23 4090.15 3931.63 4105.75Z" fill="black"/>
<path d="M3428.61 4140.57C3415.41 4162.18 3435.81 4190.99 3462.23 4187.39C3497.04 4182.59 3497.04 4136.97 3461.02 4132.17C3447.82 4129.76 3432.21 4133.37 3428.61 4140.57Z" fill="black"/>
<path d="M2226.9 4165.78C2230.5 4171.78 2238.9 4177.79 2246.11 4177.79C2252.11 4177.79 2256.91 4171.78 2256.91 4165.78C2256.91 4158.58 2248.51 4153.78 2237.7 4153.78C2228.1 4153.78 2223.3 4158.58 2226.9 4165.78Z" fill="black"/>
<path d="M1117.63 4288.23C1118.83 4338.65 1121.23 4345.86 1128.43 4321.85C1142.84 4278.63 1142.84 4225.81 1128.43 4225.81C1121.23 4225.81 1116.43 4254.62 1117.63 4288.23Z" fill="black"/>
<path d="M1382.94 4245.01C1384.14 4255.82 1393.74 4267.82 1402.15 4271.43C1412.95 4275.03 1417.76 4269.02 1414.15 4254.62C1412.95 4243.81 1403.35 4231.81 1394.95 4228.21C1384.14 4224.6 1379.34 4230.61 1382.94 4245.01Z" fill="black"/>
<path d="M3308.56 4303.84C3285.75 4327.85 3284.55 4335.05 3304.96 4362.66C3314.56 4375.87 3332.57 4383.07 3350.58 4379.47C3387.79 4374.67 3390.19 4325.45 3354.18 4301.44C3331.37 4287.03 3325.36 4287.03 3308.56 4303.84Z" fill="black"/>
<path d="M968.763 4354.26C963.961 4357.86 960.359 4374.67 960.359 4390.28C960.359 4411.89 967.562 4417.89 989.172 4417.89C1004.78 4417.89 1021.59 4409.48 1025.19 4398.68C1038.39 4365.07 992.773 4330.25 968.763 4354.26Z" fill="black"/>
<path d="M2313.34 4354.26C2295.33 4371.07 2306.13 4416.69 2328.94 4423.89C2358.96 4433.5 2376.96 4422.69 2376.96 4395.08C2376.96 4359.06 2334.95 4331.45 2313.34 4354.26Z" fill="black"/>
<path d="M240.054 4375.87C218.445 4402.28 238.854 4435.9 277.27 4435.9C301.28 4435.9 306.082 4429.89 306.082 4399.88C306.082 4372.27 300.08 4362.66 280.872 4360.26C267.666 4357.86 248.458 4365.07 240.054 4375.87Z" fill="black"/>
<path d="M1376.94 4374.67C1364.93 4404.68 1416.55 4434.7 1433.36 4407.08C1445.37 4387.88 1427.36 4357.86 1404.55 4357.86C1392.54 4357.86 1380.54 4365.07 1376.94 4374.67Z" fill="black"/>
<path d="M4060.09 4372.27C4042.08 4390.28 4042.08 4405.88 4058.88 4405.88C4064.89 4405.88 4068.49 4401.08 4063.69 4395.08C4060.09 4389.08 4063.69 4379.47 4070.89 4374.67C4080.49 4368.67 4082.89 4379.47 4079.29 4410.68C4076.89 4434.7 4079.29 4453.9 4084.1 4453.9C4088.9 4453.9 4093.7 4432.29 4093.7 4405.88C4093.7 4356.66 4085.3 4347.06 4060.09 4372.27Z" fill="black"/>
<path d="M2895.58 4401.08C2896.79 4411.89 2906.39 4423.89 2914.79 4427.49C2925.6 4431.09 2930.4 4425.09 2926.8 4410.68C2925.6 4399.88 2915.99 4387.87 2907.59 4384.27C2896.79 4380.67 2891.98 4386.67 2895.58 4401.08Z" fill="black"/>
<path d="M3102.08 4447.9C3091.27 4473.11 3105.68 4501.92 3127.29 4501.92C3152.5 4501.92 3163.3 4469.51 3145.29 4447.9C3126.09 4425.09 3110.48 4425.09 3102.08 4447.9Z" fill="black"/>
<path d="M3485.03 4449.1C3480.23 4462.31 3486.23 4475.51 3499.44 4486.32C3518.65 4499.52 3524.65 4499.52 3540.26 4485.12C3554.66 4470.71 3554.66 4463.51 3541.46 4449.1C3522.25 4423.89 3494.64 4425.09 3485.03 4449.1Z" fill="black"/>
<path d="M2594.26 4458.71C2583.45 4470.71 2584.65 4477.91 2599.06 4489.92C2621.87 4509.13 2648.28 4488.72 2637.48 4461.11C2627.87 4437.1 2612.27 4437.1 2594.26 4458.71Z" fill="black"/>
<path d="M1925.57 4476.71C1875.15 4507.93 1859.54 4533.14 1905.16 4509.13C1935.17 4493.52 1980.79 4453.9 1967.59 4453.9C1965.19 4453.9 1945.98 4464.71 1925.57 4476.71Z" fill="black"/>
<path d="M1068.41 4489.92C1068.41 4495.92 1074.41 4501.92 1080.41 4501.92C1087.61 4501.92 1092.42 4495.92 1092.42 4489.92C1092.42 4482.72 1087.61 4477.91 1080.41 4477.91C1074.41 4477.91 1068.41 4482.72 1068.41 4489.92Z" fill="black"/>
<path d="M3985.65 4513.93C3985.65 4535.54 4016.86 4561.95 4044.47 4561.95C4064.88 4561.95 4092.49 4525.93 4086.49 4507.93C4081.69 4495.92 4062.48 4489.92 4032.47 4489.92C3994.05 4489.92 3985.65 4493.52 3985.65 4513.93Z" fill="black"/>
<path d="M1818.73 4557.15L1782.71 4588.36L1822.33 4561.95C1842.74 4547.54 1860.74 4534.34 1860.74 4530.74C1860.74 4522.33 1855.94 4524.73 1818.73 4557.15Z" fill="black"/>
<path d="M1938.78 4537.94C1926.77 4558.35 1962.79 4590.76 1986.8 4581.16C1997.6 4577.56 2004.8 4564.35 2002.4 4553.55C1997.6 4528.34 1950.78 4517.53 1938.78 4537.94Z" fill="black"/>
<path d="M278.466 4588.36C244.852 4621.97 274.864 4674.8 325.286 4667.59C361.301 4662.79 381.71 4627.98 364.903 4600.37C348.096 4575.15 298.875 4567.95 278.466 4588.36Z" fill="black"/>
<path d="M2408.18 4619.57C2396.17 4657.99 2412.98 4682 2450.19 4682C2515.02 4682 2510.22 4607.57 2445.39 4600.37C2423.78 4597.97 2412.98 4602.77 2408.18 4619.57Z" fill="black"/>
<path d="M1698.67 4651.99C1679.46 4667.59 1668.66 4680.8 1675.86 4682C1683.06 4682 1701.07 4668.8 1716.68 4651.99C1752.69 4613.57 1745.49 4613.57 1698.67 4651.99Z" fill="black"/>
<path d="M2235.3 4654.39C2240.11 4680.8 2286.93 4684.4 2286.93 4657.99C2286.93 4648.39 2273.72 4638.78 2259.31 4636.38C2236.5 4632.78 2231.7 4636.38 2235.3 4654.39Z" fill="black"/>
<path d="M1809.12 4662.79C1803.12 4678.4 1810.32 4682 1843.94 4682C1872.75 4682 1884.76 4677.2 1882.36 4666.39C1873.95 4643.58 1817.53 4641.18 1809.12 4662.79Z" fill="black"/>
</svg>
