<svg width="4682" height="4658" viewBox="0 0 4682 4658" fill="none" xmlns="http://www.w3.org/2000/svg">
<path d="M14.4059 4439.49C31.2131 4456.3 70.83 4457.5 96.0408 4441.89C106.845 4434.69 120.051 4435.89 132.056 4445.5C147.663 4457.5 147.663 4457.5 134.457 4439.49C122.452 4425.09 108.046 4421.49 84.0357 4425.09C60.0254 4431.09 44.4187 4425.09 25.2105 4404.68C1.20026 4378.27 -0.000247445 4378.27 -0.000246448 4401.08C-0.000245871 4414.28 6.00232 4431.09 14.4059 4439.49Z" fill="black"/>
<path d="M31.2143 4287.03C52.8235 4270.22 73.2322 4264.22 99.6435 4269.02C138.06 4273.82 138.06 4273.82 105.646 4260.62C80.4353 4251.02 66.0292 4252.22 37.2169 4267.82C16.8081 4277.43 0.000976113 4291.83 0.000976428 4299.04C0.000976743 4306.24 14.4071 4300.24 31.2143 4287.03Z" fill="black"/>
<path d="M4.80185 4165.78C15.6065 4165.78 20.4085 4118.96 10.8044 4104.56C3.60133 4092.55 -0.000207926 4099.75 -0.000206772 4126.16C-0.000205827 4147.77 2.40082 4165.78 4.80185 4165.78Z" fill="black"/>
<path d="M14.4064 3998.9C26.4115 3990.5 36.0156 3967.69 36.0156 3949.68C36.0156 3931.68 26.4115 3908.87 14.4064 3900.46C-2.40079 3887.26 -3.60131 3887.26 8.40382 3901.66C16.8074 3911.27 24.0105 3932.88 24.0105 3949.68C24.0105 3966.49 16.8074 3988.1 8.40383 3997.7C-3.6013 4012.11 -2.40079 4012.11 14.4064 3998.9Z" fill="black"/>
<path d="M30.0126 3577.53C46.8197 3561.92 60.0254 3545.11 60.0254 3540.31C60.0254 3534.31 46.8197 3543.91 30.0126 3560.72C13.2054 3577.53 -0.000251982 3594.34 -0.000251824 3597.94C-0.000251614 3602.74 13.2054 3593.14 30.0126 3577.53Z" fill="black"/>
<path d="M24.0112 3445.47C37.2169 3452.67 48.0215 3455.07 48.0215 3452.67C48.0215 3449.07 37.2169 3440.67 24.0112 3433.47C10.8056 3426.26 0.000967634 3423.86 0.000967739 3426.26C0.000967897 3429.86 10.8056 3438.27 24.0112 3445.47Z" fill="black"/>
<path d="M10.8053 2461.05C22.8104 2461.05 40.8181 2438.24 34.8155 2431.04C32.4145 2429.84 22.8104 2434.64 14.4068 2444.24C6.00321 2453.85 4.8027 2461.05 10.8053 2461.05Z" fill="black"/>
<path d="M19.2084 2398.63C28.8125 2407.03 36.0156 2408.23 36.0156 2402.23C36.0156 2390.22 13.2059 2372.22 6.0028 2378.22C4.80229 2380.62 9.60434 2390.22 19.2084 2398.63Z" fill="black"/>
<path d="M20.4102 2080.49C61.2277 2116.5 100.845 2117.7 141.662 2082.89C201.688 2032.47 196.886 1948.43 130.857 1914.82C86.4384 1890.81 69.6313 1892.01 31.2149 1922.02C4.80357 1942.43 0.00151926 1956.83 0.00152131 2003.65C0.00152304 2043.27 6.00409 2067.28 20.4102 2080.49ZM49.2225 1929.22C84.0374 1901.61 103.246 1902.81 138.06 1938.83C172.875 1972.44 176.477 2022.86 148.865 2062.48C123.654 2099.69 56.4256 2098.49 30.0143 2061.28C4.80357 2026.46 14.4077 1958.03 49.2225 1929.22Z" fill="black"/>
<path d="M13.207 1770.76C20.4101 1775.56 27.6131 1776.76 31.2147 1773.16C34.8162 1770.76 28.8136 1764.76 18.009 1761.15C-2.39969 1752.75 -6.00123 1759.95 13.207 1770.76Z" fill="black"/>
<path d="M30.0119 1668.71C46.8191 1653.1 57.6237 1637.49 54.0222 1635.09C45.6186 1626.69 -0.000904835 1669.91 -0.000904206 1684.31C-0.000903891 1691.52 13.2047 1684.31 30.0119 1668.71Z" fill="black"/>
<path d="M18.0068 612.257C28.8114 620.661 38.4156 625.463 42.0171 623.062C44.4181 619.46 36.0145 611.056 24.0094 602.653C-4.80292 585.846 -7.20394 590.648 18.0068 612.257Z" fill="black"/>
<path d="M24.0112 525.826C37.2169 517.423 48.0215 506.618 48.0215 500.616C48.0215 495.814 37.2169 497.014 24.0112 504.217C10.8056 511.42 0.000968464 522.225 0.000968726 528.227C0.000969041 535.43 10.8056 534.23 24.0112 525.826Z" fill="black"/>
<path d="M18.0079 163.269C40.8177 133.257 40.8177 94.8403 18.0079 64.8276C-3.60131 37.2159 -6.00233 51.622 14.4064 84.0357C26.4115 102.043 26.4115 116.449 15.6069 146.462C2.40126 182.477 2.40126 183.678 18.0079 163.269Z" fill="black"/>
<path d="M31.2131 861.966C60.0254 902.783 156.066 893.179 156.066 848.76C156.066 842.758 147.663 847.56 136.858 857.164C110.447 884.776 51.6218 881.174 36.0151 853.562C14.4059 811.544 21.609 770.727 55.2233 747.917C85.2361 728.709 88.8377 728.709 123.653 747.917C151.264 764.724 156.066 764.724 145.262 751.519C114.048 714.303 49.2208 719.105 21.609 761.123C6.00229 783.933 10.8043 833.154 31.2131 861.966Z" fill="black"/>
<path d="M32.4144 2992.88C43.219 3004.88 93.6406 3003.68 100.844 2990.48C104.445 2985.67 94.8411 2983.27 79.2344 2985.67C61.2267 2989.28 49.2216 2984.47 44.4195 2973.67C36.0159 2949.66 66.0288 2924.45 90.039 2934.05C100.844 2937.65 105.646 2936.45 102.044 2929.25C92.44 2912.44 56.4247 2913.64 38.417 2931.65C22.8103 2947.26 19.2088 2980.87 32.4144 2992.88Z" fill="black"/>
<path d="M82.8357 3938.88L105.645 3967.7L140.46 3942.48C193.283 3902.87 212.491 3862.05 194.483 3824.83C177.676 3787.62 120.052 3781.62 94.8408 3814.03C81.6351 3832.04 81.6351 3833.24 96.0413 3820.03C142.861 3779.21 207.689 3827.24 181.278 3884.86C158.468 3935.28 85.2367 3916.07 82.8357 3859.65C82.8357 3835.64 82.8357 3835.64 72.031 3859.65C56.4244 3895.66 57.6249 3908.87 82.8357 3938.88Z" fill="black"/>
<path d="M67.229 1776.76C81.6351 1776.76 132.057 1732.34 132.057 1720.33C132.057 1715.53 117.65 1725.14 98.4423 1741.94C80.4346 1757.55 63.6274 1771.96 61.2264 1773.16C58.8254 1775.56 61.2264 1776.76 67.229 1776.76Z" fill="black"/>
<path d="M70.8305 624.266C82.8356 624.266 114.049 589.451 106.846 583.449C104.445 582.248 92.4397 590.652 80.4346 602.657C69.6299 614.662 64.8279 624.266 70.8305 624.266Z" fill="black"/>
<path d="M86.4376 530.623C98.4428 542.628 108.047 547.43 108.047 541.428C108.047 529.423 73.232 498.209 67.2294 505.412C66.0289 507.813 74.4325 519.818 86.4376 530.623Z" fill="black"/>
<path d="M94.8415 1638.7C108.047 1642.3 123.654 1660.31 130.857 1678.32C138.06 1698.73 142.862 1703.53 142.862 1689.12C144.063 1667.51 104.446 1620.69 84.0369 1620.69C63.6281 1620.69 70.8312 1630.3 94.8415 1638.7Z" fill="black"/>
<path d="M115.249 3366.23C144.062 3396.25 184.879 3401.05 234.1 3380.64C314.535 3347.03 337.344 3281 284.522 3231.78C223.296 3174.15 153.666 3172.95 111.648 3228.18C90.0386 3255.79 92.4396 3344.62 115.249 3366.23ZM128.455 3226.97C164.47 3196.96 190.882 3193.36 235.301 3211.37C312.134 3243.78 318.136 3333.82 244.905 3361.43C158.468 3395.05 63.6273 3283.4 128.455 3226.97Z" fill="black"/>
<path d="M110.447 2794.79C132.056 2787.59 135.658 2761.18 115.249 2761.18C104.445 2761.18 96.041 2769.58 96.041 2780.39C96.041 2791.19 102.044 2797.2 110.447 2794.79Z" fill="black"/>
<path d="M122.451 441.792C156.066 475.406 208.888 445.393 201.685 394.972C196.883 358.957 162.068 338.548 134.456 355.355C109.246 372.162 102.043 421.383 122.451 441.792ZM138.058 372.162C152.464 360.157 159.667 360.157 174.073 372.162C212.49 404.576 183.677 457.399 138.058 439.391C128.454 435.789 120.05 422.584 120.05 410.579C120.05 397.373 128.454 380.566 138.058 372.162Z" fill="black"/>
<path d="M141.66 4541.54C170.472 4567.95 180.076 4566.75 178.876 4540.34C178.876 4527.13 176.475 4525.93 171.673 4535.54C166.871 4547.54 160.868 4546.34 142.861 4530.73C130.855 4519.93 120.051 4512.73 120.051 4516.33C120.051 4519.93 129.655 4530.73 141.66 4541.54Z" fill="black"/>
<path d="M198.086 4498.32C237.703 4498.32 252.109 4495.92 230.5 4493.52C208.89 4491.12 176.476 4491.12 158.469 4493.52C140.461 4495.92 158.469 4498.32 198.086 4498.32Z" fill="black"/>
<path d="M144.061 4309.84C151.264 4320.65 156.066 4321.85 156.066 4313.44C156.066 4305.04 180.076 4297.84 212.49 4294.23C268.914 4290.63 268.914 4290.63 200.485 4288.23C163.269 4287.03 132.056 4287.03 132.056 4288.23C132.056 4290.63 138.058 4300.24 144.061 4309.84Z" fill="black"/>
<path d="M190.881 4396.28C226.897 4392.68 238.902 4396.28 243.704 4410.68C248.506 4426.29 249.706 4426.29 247.305 4409.48C246.105 4393.88 234.1 4386.67 205.287 4384.27C183.678 4381.87 160.868 4384.27 154.866 4390.27C148.863 4396.28 165.67 4398.68 190.881 4396.28Z" fill="black"/>
<path d="M158.468 4266.62C164.471 4263.02 166.872 4252.22 163.27 4243.81C154.867 4219.8 180.078 4204.2 234.101 4198.19L282.121 4193.39L234.101 4192.19C175.275 4189.79 154.867 4201.79 151.265 4241.41C148.864 4259.42 152.466 4270.22 158.468 4266.62Z" fill="black"/>
<path d="M152.465 2922.05C169.272 2937.65 192.082 2928.05 192.082 2905.24C192.082 2892.03 184.879 2881.23 175.275 2881.23C157.267 2881.23 141.66 2910.04 152.465 2922.05Z" fill="black"/>
<path d="M193.283 4464.71C216.092 4464.71 246.105 4457.5 259.311 4446.7C271.316 4437.1 273.717 4432.29 264.113 4437.1C254.509 4443.1 224.496 4450.3 198.085 4455.1L150.064 4462.31L193.283 4464.71Z" fill="black"/>
<path d="M164.47 4360.26C168.071 4351.86 166.871 4341.05 163.269 4337.45C159.668 4332.65 156.066 4339.85 157.267 4353.06C157.267 4366.26 160.868 4369.87 164.47 4360.26Z" fill="black"/>
<path d="M218.494 4175.38L282.121 4174.18L228.098 4169.38C199.286 4165.78 170.473 4157.37 165.671 4150.17C159.669 4140.57 156.067 4142.97 156.067 4156.17C156.067 4174.18 165.671 4177.78 218.494 4175.38Z" fill="black"/>
<path d="M164.47 1360.18C181.277 1378.19 192.082 1367.38 178.876 1345.78C158.467 1314.56 174.074 1282.15 206.488 1286.95C241.303 1291.75 249.706 1331.37 220.894 1352.98C208.889 1361.38 205.287 1368.59 211.29 1368.59C230.498 1368.59 252.107 1342.17 252.107 1319.36C252.107 1286.95 205.287 1259.34 177.676 1273.74C156.066 1284.55 146.462 1343.37 164.47 1360.18Z" fill="black"/>
<path d="M164.471 818.752C166.872 811.549 166.872 797.143 164.471 788.739C160.869 781.536 158.468 787.539 158.468 804.346C158.468 821.153 160.869 827.156 164.471 818.752Z" fill="black"/>
<path d="M198.086 4439.49C217.294 4439.49 224.497 4437.09 212.492 4433.49C201.688 4431.09 184.88 4431.09 176.477 4433.49C169.274 4437.09 177.677 4439.49 198.086 4439.49Z" fill="black"/>
<path d="M176.476 3769.61C201.686 3839.24 256.91 3846.44 316.936 3788.82C364.956 3744.4 372.159 3707.18 340.946 3663.97C274.918 3569.13 135.658 3657.96 176.476 3769.61ZM217.293 3654.36C272.517 3605.14 357.753 3654.36 343.347 3727.59C326.54 3812.83 216.093 3817.63 189.681 3733.6C181.278 3707.18 192.082 3678.37 217.293 3654.36Z" fill="black"/>
<path d="M181.278 2319.39C200.486 2354.2 300.129 2339.8 300.129 2302.58C300.129 2295.38 290.525 2297.78 278.52 2308.59C252.108 2332.6 226.898 2335 206.489 2314.59C183.679 2291.78 189.682 2248.56 218.494 2228.15C240.103 2212.54 241.304 2208.94 225.697 2208.94C202.887 2208.94 168.072 2253.36 168.072 2280.97C168.072 2290.58 174.075 2308.59 181.278 2319.39Z" fill="black"/>
<path d="M187.281 4247.41C190.882 4234.21 210.09 4225.8 237.702 4222.2L282.121 4217.4L234.101 4218.6C195.684 4219.8 186.08 4224.6 183.679 4243.81C182.479 4261.82 183.679 4261.82 187.281 4247.41Z" fill="black"/>
<path d="M198.086 2737.17C222.097 2757.58 272.518 2743.17 282.122 2711.96C290.526 2686.75 271.318 2653.13 248.508 2653.13C241.305 2653.13 246.107 2660.34 259.312 2669.94C277.32 2684.35 279.721 2691.55 268.917 2709.56C261.714 2721.56 246.107 2732.37 235.302 2734.77C210.091 2740.77 196.886 2703.55 214.894 2675.94C222.097 2662.74 223.297 2653.13 216.094 2653.13C204.089 2653.13 180.079 2691.55 180.079 2710.76C180.079 2716.76 188.482 2728.77 198.086 2737.17Z" fill="black"/>
<path d="M199.285 81.6327C220.894 112.846 266.513 116.448 289.323 86.4348C302.529 69.6276 302.529 68.4271 288.122 80.4322C246.105 118.849 181.277 78.0312 195.683 22.8074C199.285 10.8022 196.883 2.3986 190.881 7.20067C174.074 16.8048 177.675 51.6198 199.285 81.6327Z" fill="black"/>
<path d="M223.297 1960.44C229.299 1964.04 254.51 1970.04 278.52 1974.85C315.736 1982.05 327.741 1978.45 352.952 1952.04C392.569 1913.62 392.569 1880 354.152 1842.79C319.338 1807.97 288.124 1804.37 252.109 1834.39C225.698 1855.99 204.088 1948.43 223.297 1960.44ZM264.114 1842.79C315.736 1795.97 392.569 1860.8 362.556 1926.83C332.543 1991.65 240.104 1968.84 240.104 1896.81C240.104 1878.8 250.908 1854.79 264.114 1842.79Z" fill="black"/>
<path d="M255.709 4380.67C280.919 4396.28 280.919 4395.08 261.711 4374.67C249.706 4362.66 237.701 4355.46 235.3 4359.06C231.698 4362.66 241.303 4372.27 255.709 4380.67Z" fill="black"/>
<path d="M246.105 2529.48C270.116 2564.29 316.936 2573.9 360.154 2551.09C420.18 2519.88 423.781 2429.84 366.157 2403.43C321.738 2383.02 306.131 2385.42 265.314 2420.23C224.496 2453.85 218.494 2489.86 246.105 2529.48ZM270.116 2431.04C303.73 2396.22 331.342 2393.82 369.758 2420.23C406.974 2446.64 404.573 2500.67 364.956 2531.88C346.948 2546.29 325.339 2557.09 315.735 2557.09C292.925 2557.09 240.103 2503.07 240.103 2479.06C240.103 2468.25 253.308 2446.64 270.116 2431.04Z" fill="black"/>
<path d="M255.709 751.519C282.121 799.539 336.144 806.742 364.956 765.925C403.372 710.702 373.36 648.275 309.732 648.275C261.712 648.275 230.499 707.1 255.709 751.519ZM280.92 672.285C304.93 654.277 348.149 661.481 364.956 686.691C384.164 716.704 360.154 773.128 326.54 777.93C289.324 783.933 264.113 759.922 264.113 720.306C264.113 702.298 272.517 680.689 280.92 672.285Z" fill="black"/>
<path d="M270.116 2225.75C279.72 2229.35 294.126 2244.96 300.129 2259.36C306.131 2277.37 310.933 2279.77 310.933 2267.77C312.134 2247.36 267.715 2200.54 258.111 2211.34C254.509 2214.94 259.311 2220.95 270.116 2225.75Z" fill="black"/>
<path d="M300.128 2076.89C306.13 2076.89 312.133 2070.88 312.133 2064.88C312.133 2057.68 306.13 2052.88 300.128 2052.88C292.925 2052.88 288.123 2057.68 288.123 2064.88C288.123 2070.88 292.925 2076.89 300.128 2076.89Z" fill="black"/>
<path d="M300.129 36.0126C308.532 63.6245 309.733 63.6245 310.933 39.6142C312.134 25.208 306.131 9.60124 300.129 5.99968C292.926 2.39813 288.124 -0.00290532 289.324 2.39813C290.525 4.79916 295.327 19.2054 300.129 36.0126Z" fill="black"/>
<path d="M361.354 1253.33C405.773 1290.55 420.179 1291.75 460.996 1259.34C501.814 1226.92 504.215 1166.9 464.598 1130.88C426.181 1094.87 379.361 1097.27 349.349 1135.68C314.534 1180.1 318.135 1217.32 361.354 1253.33ZM360.153 1140.49C409.374 1091.26 480.205 1124.88 480.205 1195.71C480.205 1223.32 471.801 1241.33 453.793 1253.33C416.577 1279.74 399.77 1277.34 366.156 1242.53C330.14 1207.71 327.739 1172.9 360.153 1140.49Z" fill="black"/>
<path d="M398.57 3791.22C420.179 3812.83 485.007 3809.23 507.817 3784.02C555.837 3731.2 504.215 3641.16 445.39 3673.57C415.377 3689.18 392.567 3730 400.971 3751.6C404.572 3761.21 400.971 3769.61 394.968 3772.01C387.765 3774.41 388.966 3781.62 398.57 3791.22ZM420.179 3710.79C447.791 3657.96 516.22 3673.57 516.22 3733.6C516.22 3804.43 427.382 3806.83 409.374 3736C408.174 3733.6 412.976 3722.79 420.179 3710.79Z" fill="black"/>
<path d="M414.178 3008.48C441.79 3019.29 468.201 3004.88 468.201 2977.27C468.201 2947.26 438.188 2932.85 414.178 2953.26C391.368 2972.47 391.368 3000.08 414.178 3008.48ZM433.386 2959.26C441.79 2959.26 451.394 2968.87 453.795 2979.67C457.397 3001.28 432.186 3009.69 415.379 2992.88C403.373 2980.87 414.178 2959.26 433.386 2959.26Z" fill="black"/>
<path d="M422.581 57.6253C450.192 85.237 516.221 67.2294 516.221 31.2142C516.221 25.2117 509.018 28.8132 500.614 40.8182C477.804 72.0314 429.784 61.2269 418.979 24.0112C411.776 -1.19948 410.576 -2.39999 409.375 18.0086C408.175 32.4147 414.177 49.2218 422.581 57.6253Z" fill="black"/>
<path d="M451.394 4374.67C479.006 4402.28 507.818 4398.68 541.433 4360.26C557.039 4342.25 561.841 4335.05 552.237 4342.25C530.628 4361.46 477.805 4362.66 458.597 4343.46C423.782 4308.64 457.397 4225.8 506.618 4225.8C530.628 4225.8 560.641 4260.62 567.844 4297.84C572.646 4327.85 572.646 4326.65 575.047 4294.23C576.247 4257.02 540.232 4213.8 506.618 4213.8C494.613 4213.8 473.003 4224.6 458.597 4237.81C426.183 4267.82 422.582 4345.86 451.394 4374.67Z" fill="black"/>
<path d="M454.995 3937.68C481.406 3937.68 494.612 3912.47 480.206 3889.66C467 3868.05 432.185 3884.86 432.185 3913.67C432.185 3929.28 440.589 3937.68 454.995 3937.68ZM456.195 3889.66C462.198 3889.66 468.2 3894.46 468.2 3901.66C468.2 3907.67 462.198 3913.67 456.195 3913.67C448.992 3913.67 444.19 3907.67 444.19 3901.66C444.19 3894.46 448.992 3889.66 456.195 3889.66Z" fill="black"/>
<path d="M483.807 1581.07C507.817 1552.26 539.03 1555.86 552.236 1587.07C558.239 1602.68 563.041 1608.68 563.041 1600.28C566.642 1546.26 503.015 1527.05 480.205 1575.07C468.2 1600.28 468.2 1600.28 483.807 1581.07Z" fill="black"/>
<path d="M499.413 1637.5C510.217 1641.1 527.024 1638.7 537.829 1631.5C555.837 1620.69 555.837 1619.49 535.428 1625.49C523.423 1630.29 505.415 1626.69 497.012 1619.49C486.207 1611.09 480.204 1609.89 480.204 1618.29C480.204 1624.29 488.608 1633.9 499.413 1637.5Z" fill="black"/>
<path d="M549.836 2728.77C561.841 2740.77 582.249 2749.18 595.455 2749.18C624.267 2749.18 672.288 2716.76 671.087 2697.55C671.087 2687.95 668.686 2687.95 663.884 2698.75C660.283 2707.16 644.676 2720.36 627.869 2726.37C587.051 2741.97 543.833 2713.16 536.63 2668.74C531.828 2635.13 531.828 2635.13 529.427 2672.34C529.427 2695.15 536.63 2716.76 549.836 2728.77Z" fill="black"/>
<path d="M540.231 2559.49C549.835 2575.1 559.439 2577.5 591.853 2567.89C656.681 2549.89 683.092 2482.66 639.874 2447.84C621.866 2432.24 621.866 2433.44 636.272 2456.25C655.48 2488.66 643.475 2541.48 613.462 2551.09C539.03 2573.9 511.419 2465.85 585.85 2438.24C606.259 2431.04 611.061 2426.23 596.655 2426.23C546.234 2423.83 510.218 2506.67 540.231 2559.49Z" fill="black"/>
<path d="M552.237 2619.52C561.841 2612.31 587.051 2605.11 608.661 2605.11C643.476 2605.11 651.879 2611.11 666.285 2643.53C677.09 2667.54 683.092 2674.74 684.293 2661.53C684.293 2633.92 631.47 2581.1 602.658 2581.1C590.653 2581.1 570.244 2593.1 557.039 2607.51C545.033 2623.12 542.632 2627.92 552.237 2619.52Z" fill="black"/>
<path d="M583.449 1757.55C624.266 1799.57 686.693 1768.36 683.091 1708.33C683.091 1696.32 677.089 1704.73 671.086 1726.34C661.482 1759.95 654.279 1765.95 627.867 1762.35C557.037 1753.95 561.839 1674.72 633.87 1674.72C653.078 1674.72 667.484 1671.11 663.883 1666.31C654.279 1649.5 602.657 1655.51 583.448 1675.92C572.644 1685.52 564.24 1704.73 564.24 1716.73C564.24 1728.74 572.644 1747.95 583.449 1757.55Z" fill="black"/>
<path d="M603.859 2086.49C638.674 2118.91 697.499 2121.31 723.91 2091.3C735.915 2079.29 744.319 2063.68 744.319 2057.68C744.319 2052.88 735.915 2060.08 725.111 2074.49C713.106 2092.5 695.098 2100.9 666.286 2100.9C583.45 2100.9 564.242 1996.46 639.874 1959.24C680.692 1938.83 716.707 1956.84 738.317 2008.46C749.121 2032.47 755.124 2038.47 756.324 2025.27C756.324 1997.66 692.697 1932.83 666.286 1932.83C636.273 1932.83 576.247 1998.86 576.247 2031.27C576.247 2048.08 588.252 2072.09 603.859 2086.49Z" fill="black"/>
<path d="M607.46 452.595C638.673 464.601 666.285 439.39 666.285 400.973C666.285 373.361 660.283 364.958 637.473 362.557C621.866 360.156 603.858 364.958 599.056 374.562C582.249 400.973 587.051 444.192 607.46 452.595ZM630.27 378.163C656.681 378.163 669.887 415.379 650.678 434.588C630.27 454.996 597.856 435.788 602.658 405.775C605.059 387.768 614.663 378.163 630.27 378.163Z" fill="black"/>
<path d="M612.262 4389.08C625.467 4422.69 643.475 4433.5 671.087 4423.89C698.699 4415.49 723.909 4362.66 714.305 4332.65C699.899 4289.43 612.262 4293.04 612.262 4336.25C612.262 4342.26 620.665 4338.65 631.47 4329.05C654.28 4305.04 677.089 4305.04 696.297 4327.85C715.506 4350.66 701.1 4390.28 669.886 4401.08C651.879 4407.08 638.673 4401.08 623.066 4380.67C599.056 4349.46 596.655 4350.66 612.262 4389.08Z" fill="black"/>
<path d="M661.482 1178.91C667.485 1190.91 679.49 1200.52 685.493 1200.52C692.696 1200.52 689.094 1192.11 679.49 1181.31C641.074 1144.09 662.683 1080.46 714.305 1080.46C765.927 1080.46 786.336 1136.89 747.919 1178.91C723.909 1205.32 734.714 1207.72 761.125 1181.31C804.343 1139.29 768.328 1068.46 704.701 1068.46C656.68 1068.46 632.67 1129.69 661.482 1178.91Z" fill="black"/>
<path d="M696.297 2893.24C714.305 2902.84 725.11 2900.44 744.318 2881.23C757.524 2868.02 768.328 2852.42 768.328 2847.62C768.328 2826.01 734.714 2794.79 719.107 2800.8C705.901 2805.6 707.102 2808 721.508 2808C732.313 2809.2 744.318 2817.6 749.12 2827.21C759.925 2857.22 743.117 2882.43 715.506 2878.83C697.498 2876.43 690.295 2866.82 690.295 2842.81C691.495 2826.01 686.693 2814 681.891 2816.4C662.683 2828.41 672.287 2880.03 696.297 2893.24Z" fill="black"/>
<path d="M687.895 737.113C697.499 750.318 715.507 757.521 733.515 753.92C758.726 750.318 762.327 744.316 763.528 703.498C763.528 667.483 769.53 654.277 789.939 647.074C840.36 627.866 859.569 536.627 818.751 501.812C776.733 463.396 746.72 464.596 708.304 503.013C662.685 547.432 662.685 581.046 707.103 624.265C739.517 656.678 739.517 659.079 716.708 662.681C703.502 665.082 690.296 674.686 687.895 684.29C683.093 698.696 684.294 698.696 693.898 686.691C713.106 659.079 750.322 674.686 753.923 711.902C757.525 738.313 752.723 744.316 731.114 744.316C716.708 744.316 697.499 734.712 689.096 722.707C668.687 696.295 667.487 709.501 687.895 737.113ZM703.502 518.619C715.507 500.612 733.515 492.208 761.127 492.208C809.147 492.208 828.355 510.216 828.355 558.236C828.355 635.069 763.528 668.683 714.307 619.462C679.492 584.648 677.091 557.036 703.502 518.619Z" fill="black"/>
<path d="M788.737 1625.5C805.544 1641.1 828.354 1631.5 828.354 1608.69C828.354 1595.48 821.15 1584.68 811.546 1584.68C793.539 1584.68 777.932 1613.49 788.737 1625.5Z" fill="black"/>
<path d="M810.347 367.358C837.959 385.365 842.761 385.365 869.172 367.358C908.789 342.147 918.393 304.931 895.583 270.116C853.565 205.288 780.334 229.299 780.334 307.332C780.334 337.345 788.738 352.951 810.347 367.358ZM806.745 266.515C849.964 223.296 918.393 279.72 889.581 334.944C876.375 358.954 818.751 370.959 800.743 351.751C787.537 338.545 791.139 282.121 806.745 266.515Z" fill="black"/>
<path d="M936.4 4636.38C961.611 4614.77 1016.83 4618.37 1031.24 4643.58C1038.44 4654.39 1044.45 4657.99 1044.45 4650.78C1045.65 4609.97 962.811 4594.36 935.199 4630.38C921.994 4648.38 921.994 4649.58 936.4 4636.38Z" fill="black"/>
<path d="M950.806 249.703C971.215 270.112 1002.43 267.711 1021.64 243.7C1037.24 225.693 1036.04 225.693 1012.03 240.099C979.618 260.508 948.405 240.099 948.405 196.88C948.405 144.058 1031.24 150.06 1033.64 202.883C1033.64 216.089 1036.04 217.289 1040.84 206.485C1048.05 187.276 1013.23 132.053 991.623 132.053C948.405 132.053 918.392 217.289 950.806 249.703Z" fill="black"/>
<path d="M978.418 907.588C1003.63 917.193 1020.44 902.786 1020.44 870.372C1020.44 839.159 994.024 823.552 973.615 843.961C954.407 863.169 956.808 900.385 978.418 907.588ZM990.423 852.365C1000.03 852.365 1008.43 859.568 1008.43 869.172C1008.43 889.581 991.623 902.786 979.618 891.982C965.212 877.575 972.415 852.365 990.423 852.365Z" fill="black"/>
<path d="M1123.68 577.446C1136.89 588.251 1147.69 589.451 1162.1 579.847C1188.51 563.04 1188.51 516.22 1160.9 499.413C1142.89 488.608 1135.69 491.009 1121.28 509.017C1099.67 539.03 1099.67 557.037 1123.68 577.446ZM1129.68 519.821C1148.89 500.613 1176.5 513.819 1176.5 540.23C1176.5 567.842 1157.29 581.048 1134.49 571.444C1112.88 564.24 1111.68 537.829 1129.68 519.821Z" fill="black"/>
<path d="M1152.49 264.115C1165.7 277.32 1183.71 288.125 1193.31 288.125C1214.92 288.125 1272.54 241.305 1272.54 224.498C1272.54 216.094 1266.54 219.696 1259.34 230.5C1223.32 292.927 1140.49 274.919 1140.49 204.089C1140.49 136.86 1217.32 105.647 1253.34 158.47C1264.14 172.876 1272.54 180.079 1272.54 172.876C1272.54 150.066 1229.33 120.053 1196.91 120.053C1135.69 120.053 1105.67 217.295 1152.49 264.115Z" fill="black"/>
<path d="M1212.52 684.294C1225.72 697.5 1249.73 708.305 1264.14 708.305C1291.75 708.305 1332.57 675.891 1332.57 653.081C1332.57 648.279 1324.17 655.482 1313.36 669.888C1291.75 702.302 1247.33 704.703 1220.92 674.69C1177.7 627.87 1205.31 564.243 1267.74 564.243C1303.76 564.243 1312.16 570.246 1326.57 602.659C1336.17 624.269 1343.37 633.873 1344.57 623.068C1344.57 588.253 1303.76 548.636 1266.54 548.636C1199.31 548.636 1164.5 636.274 1212.52 684.294Z" fill="black"/>
<path d="M1381.79 794.734C1401 828.349 1450.22 822.346 1459.82 786.331C1470.63 740.711 1457.42 717.901 1420.21 722.703C1403.4 725.104 1385.39 734.708 1382.99 744.313C1376.99 759.919 1379.39 759.919 1396.2 745.513C1423.81 722.703 1455.02 738.31 1450.22 770.724C1445.42 805.539 1408.2 812.742 1386.59 783.93C1366.18 758.719 1363.78 764.721 1381.79 794.734Z" fill="black"/>
<path d="M1495.84 503.016C1535.46 534.229 1539.06 534.229 1573.87 503.016L1602.69 479.005L1572.67 497.013C1525.85 524.625 1482.63 499.414 1482.63 444.19C1482.63 361.355 1579.88 357.753 1597.88 439.388L1606.29 474.203L1607.49 440.589C1608.69 403.373 1571.47 360.154 1539.06 360.154C1507.84 360.154 1464.63 410.576 1464.63 446.591C1464.63 467 1476.63 487.409 1495.84 503.016Z" fill="black"/>
<path d="M1489.84 722.709C1504.24 747.92 1560.67 751.522 1582.28 729.913C1590.68 721.509 1596.68 697.499 1596.68 675.89C1596.68 624.268 1559.47 602.658 1517.45 630.27C1501.84 639.874 1488.64 651.879 1488.64 655.481C1488.64 660.283 1497.04 656.681 1505.44 648.278C1515.05 641.075 1535.46 636.273 1551.06 638.674C1573.87 641.075 1578.67 649.478 1578.67 684.293C1578.67 722.709 1576.27 726.311 1542.66 726.311C1517.45 726.311 1503.04 717.907 1492.24 696.298C1483.83 679.491 1476.63 674.689 1476.63 684.293C1477.83 693.897 1482.63 711.905 1489.84 722.709Z" fill="black"/>
<path d="M1567.87 4439.5C1581.08 4458.71 1596.68 4465.91 1618.29 4463.51C1644.7 4461.11 1653.11 4451.5 1661.51 4415.49C1671.11 4378.27 1668.71 4366.27 1650.71 4345.86C1623.09 4315.84 1594.28 4314.64 1569.07 4343.46C1543.86 4371.07 1542.66 4404.68 1567.87 4439.5ZM1583.48 4345.86C1626.7 4324.25 1665.11 4359.06 1650.71 4405.88C1635.1 4456.3 1560.67 4440.7 1560.67 4387.88C1560.67 4371.07 1570.27 4353.06 1583.48 4345.86Z" fill="black"/>
<path d="M1587.08 28.8119C1601.48 39.6165 1624.29 44.4186 1638.7 40.817C1656.71 36.015 1667.51 40.817 1672.31 52.8222C1690.32 98.4418 1767.15 61.2258 1763.55 9.60358C1763.55 1.19996 1757.55 9.60358 1750.35 27.6113C1734.74 70.8299 1691.52 68.4289 1680.72 24.0098C1675.92 3.601 1671.11 -1.20106 1663.91 9.60358C1653.11 27.6113 1594.28 28.8119 1575.07 9.60359C1566.67 1.19997 1560.67 -1.20106 1560.67 2.40049C1560.67 7.20256 1572.67 19.2077 1587.08 28.8119Z" fill="black"/>
<path d="M1608.69 318.137C1627.9 336.145 1639.9 338.546 1665.11 328.942C1681.92 322.939 1699.93 309.733 1702.33 300.129C1707.13 285.723 1703.53 286.924 1684.32 302.53C1656.71 327.741 1631.5 330.142 1611.09 309.733C1579.88 278.52 1607.49 204.088 1650.71 204.088C1659.11 204.088 1675.92 212.492 1685.52 223.296C1696.32 232.9 1704.73 237.703 1704.73 231.7C1704.73 188.481 1630.3 180.078 1603.89 218.494C1577.47 255.71 1579.88 291.726 1608.69 318.137Z" fill="black"/>
<path d="M1776.76 516.221C1805.57 545.033 1815.18 546.233 1845.19 518.622C1857.19 507.817 1860.8 503.015 1853.59 507.817C1827.18 525.825 1783.96 511.419 1768.36 480.205C1757.55 458.596 1752.75 456.195 1752.75 470.601C1752.75 482.606 1763.55 503.015 1776.76 516.221Z" fill="black"/>
<path d="M1783.96 427.383C1793.57 416.579 1810.37 408.175 1818.78 408.175C1841.59 408.175 1872.8 441.789 1874 465.799C1874 476.604 1877.6 480.206 1880 473.003C1890.81 446.591 1862 396.17 1836.79 396.17C1804.37 396.17 1764.75 416.579 1764.75 433.386C1764.75 440.589 1773.16 436.987 1783.96 427.383Z" fill="black"/>
<path d="M1798.37 216.088C1824.78 248.502 1878.8 252.104 1906.42 223.291C1925.62 204.083 1924.42 204.083 1892.01 220.89C1848.79 242.5 1810.37 230.495 1795.97 188.477C1777.96 136.855 1803.17 96.0372 1853.59 96.0372C1900.41 96.0372 1916.02 111.644 1924.42 162.065L1929.23 198.081L1931.63 158.464C1934.03 106.842 1894.41 67.2249 1851.19 78.0295C1783.96 93.6362 1756.35 164.466 1798.37 216.088Z" fill="black"/>
<path d="M1817.58 4296.63C1862 4338.65 1904.01 4324.24 1923.22 4260.62C1936.43 4212.6 1936.43 4208.99 1904.01 4181.38C1870.4 4152.57 1839.19 4152.57 1803.17 4180.18C1777.96 4201.79 1786.36 4266.62 1817.58 4296.63ZM1831.98 4177.78C1888.41 4156.17 1937.63 4208.99 1910.02 4260.62C1877.6 4319.44 1800.77 4299.03 1800.77 4230.6C1800.77 4196.99 1806.77 4187.38 1831.98 4177.78Z" fill="black"/>
<path d="M1878.8 720.309C1902.81 740.718 1932.83 716.708 1932.83 675.89C1932.83 638.674 1898.01 625.469 1877.6 654.281C1855.99 683.093 1855.99 702.302 1878.8 720.309ZM1900.41 662.685C1914.82 660.284 1920.82 666.286 1920.82 683.093C1920.82 701.101 1913.62 708.304 1895.61 708.304C1865.6 708.304 1869.2 668.687 1900.41 662.685Z" fill="black"/>
<path d="M1886.01 19.2085C1893.21 22.8101 1904.01 21.6095 1910.02 15.6069C1916.02 9.60433 1911.22 4.80225 1896.81 4.80225C1869.2 4.80225 1868 7.20329 1886.01 19.2085Z" fill="black"/>
<path d="M1961.64 70.8281C1992.85 97.2394 2037.27 58.823 2021.66 18.0056C2012.06 -6.00465 1961.64 -4.80414 1952.03 19.2061C1941.23 46.8179 1942.43 55.2215 1961.64 70.8281ZM1984.45 14.4041C1997.65 12.003 2004.86 18.0056 2004.86 33.6122C2004.86 62.4245 1995.25 72.0286 1973.64 63.625C1949.63 55.2215 1958.04 19.2061 1984.45 14.4041Z" fill="black"/>
<path d="M2006.06 764.726C2037.27 795.939 2087.69 738.314 2064.88 696.296C2048.08 666.284 2021.66 665.083 2004.86 695.096C1989.25 725.109 1989.25 747.918 2006.06 764.726ZM2032.47 698.697C2049.28 695.096 2054.08 699.898 2050.48 722.708C2048.08 737.114 2037.27 751.52 2025.27 753.921C2008.46 757.523 2003.66 752.721 2007.26 729.911C2009.66 715.505 2020.46 701.098 2032.47 698.697Z" fill="black"/>
<path d="M2244.96 324.138C2258.16 337.344 2276.17 348.148 2285.78 348.148C2310.99 348.148 2365.01 300.128 2365.01 278.519C2365.01 264.113 2360.21 266.514 2349.4 286.922C2328.99 326.539 2290.58 338.544 2258.16 316.935C2230.55 297.727 2225.75 264.113 2244.96 226.897C2262.97 194.483 2321.79 196.884 2345.8 230.498C2361.41 252.107 2365.01 253.308 2365.01 237.701C2365.01 216.092 2321.79 180.077 2295.38 180.077C2268.97 180.077 2220.95 237.701 2220.95 270.115C2220.95 286.922 2231.75 310.933 2244.96 324.138Z" fill="black"/>
<path d="M2372.21 594.256C2397.42 619.466 2422.64 613.464 2451.45 575.047C2469.46 551.037 2471.86 539.032 2462.25 512.621C2446.65 471.803 2398.63 468.202 2372.21 506.618C2348.2 541.433 2348.2 569.045 2372.21 594.256ZM2384.22 511.42C2409.43 486.21 2420.23 487.41 2441.84 518.623C2455.05 536.631 2456.25 549.837 2447.85 566.644C2437.04 587.052 2389.02 596.657 2373.41 579.849C2359.01 566.644 2365.01 530.628 2384.22 511.42Z" fill="black"/>
<path d="M2529.48 536.628C2531.88 545.031 2547.49 552.234 2564.29 552.234C2584.7 552.234 2594.31 543.831 2600.31 523.422C2613.52 470.6 2577.5 448.99 2540.28 487.407C2519.88 506.615 2518.67 512.617 2529.48 536.628ZM2573.9 495.81C2584.7 500.612 2593.11 509.016 2593.11 516.219C2593.11 536.628 2555.89 545.031 2543.89 527.024C2530.68 505.414 2549.89 486.206 2573.9 495.81Z" fill="black"/>
<path d="M2686.75 591.855C2734.77 635.074 2809.2 596.658 2809.2 529.429C2809.2 458.599 2739.57 432.187 2691.55 483.809C2659.14 517.424 2657.94 565.444 2686.75 591.855ZM2697.55 489.812C2721.56 463.401 2746.77 462.2 2775.59 488.611C2802 512.622 2803.2 549.838 2776.79 578.65C2752.78 605.061 2721.56 606.262 2696.35 581.051C2671.14 557.041 2672.34 517.424 2697.55 489.812Z" fill="black"/>
<path d="M2721.56 4288.23C2723.96 4267.82 2723.96 4231.81 2721.56 4210.2C2719.16 4189.79 2716.76 4206.6 2716.76 4249.81C2716.76 4293.03 2719.16 4309.84 2721.56 4288.23Z" fill="black"/>
<path d="M2833.21 888.38C2847.62 912.39 2886.03 890.781 2890.83 855.966C2895.64 824.753 2863.22 811.547 2839.21 835.557C2818.8 857.166 2817.6 864.369 2833.21 888.38ZM2858.42 842.76C2865.62 845.161 2870.43 852.364 2870.43 858.367C2870.43 864.369 2865.62 871.572 2858.42 873.973C2851.22 876.374 2845.22 869.171 2845.22 858.367C2845.22 847.562 2851.22 840.359 2858.42 842.76Z" fill="black"/>
<path d="M2895.64 189.681C2931.65 225.697 3001.28 188.481 3001.28 134.458C3001.28 106.846 2972.47 72.0313 2948.46 72.0313C2901.64 72.0313 2863.22 157.268 2895.64 189.681ZM2908.84 115.25C2937.66 75.6328 3000.08 115.25 2982.07 162.07C2972.47 186.08 2931.65 196.884 2911.24 180.077C2888.43 162.07 2888.43 142.861 2908.84 115.25Z" fill="black"/>
<path d="M2926.85 4481.52C2968.87 4519.93 3013.29 4498.32 3013.29 4439.5C3013.29 4397.48 2972.47 4375.87 2935.25 4399.88C2902.84 4420.29 2899.24 4456.31 2926.85 4481.52ZM2949.66 4413.09C2960.46 4408.28 2977.27 4411.89 2985.68 4421.49C2995.28 4429.89 2998.88 4446.7 2994.08 4457.51C2986.88 4477.91 2952.06 4485.12 2937.65 4469.51C2922.05 4455.1 2929.25 4420.29 2949.66 4413.09Z" fill="black"/>
<path d="M2959.27 518.62C2994.08 534.226 3042.1 509.016 3055.31 468.198C3066.11 433.383 3031.3 384.162 2996.48 384.162C2931.65 384.162 2900.44 492.208 2959.27 518.62ZM2965.27 408.172C3010.89 382.962 3061.31 434.584 3037.3 481.404C3025.29 504.214 2966.47 513.818 2949.66 495.81C2931.65 477.802 2941.26 420.178 2965.27 408.172Z" fill="black"/>
<path d="M2953.26 834.358C2972.47 846.363 3010.89 829.556 3019.29 805.545C3034.9 756.325 2990.48 723.911 2955.66 758.726C2937.65 776.733 2936.45 823.553 2953.26 834.358ZM2980.87 770.731C2995.28 768.33 3001.28 774.332 3001.28 791.139C3001.28 809.147 2994.08 816.35 2976.07 816.35C2946.06 816.35 2949.66 776.733 2980.87 770.731Z" fill="black"/>
<path d="M2976.07 34.8155C2989.28 55.2242 3043.3 43.2191 3054.1 18.0082C3057.71 8.4041 3055.31 0.000488303 3049.3 0.000488565C3042.1 0.00048888 3037.3 4.80255 3037.3 12.0056C3037.3 28.8129 2997.68 27.6124 2979.67 9.60462C2962.87 -7.20261 2960.46 9.60462 2976.07 34.8155Z" fill="black"/>
<path d="M3082.92 591.849C3114.13 620.661 3141.74 617.06 3175.36 582.245C3213.77 545.029 3213.77 498.209 3176.56 474.199C3105.73 427.379 3020.49 535.425 3082.92 591.849ZM3092.52 499.41C3121.33 470.597 3168.15 475.399 3182.56 509.014C3210.17 567.839 3141.74 620.661 3096.12 575.042C3068.51 547.43 3067.31 524.62 3092.52 499.41Z" fill="black"/>
<path d="M3104.53 4614.77C3116.53 4619.58 3130.94 4617.17 3136.94 4611.17C3154.95 4593.16 3140.54 4555.95 3115.33 4555.95C3084.12 4555.95 3075.71 4603.97 3104.53 4614.77Z" fill="black"/>
<path d="M3139.34 163.27C3164.55 172.875 3193.37 146.463 3193.37 112.849C3193.37 75.6326 3172.96 66.0285 3144.14 91.2394C3116.53 115.25 3114.13 153.666 3139.34 163.27ZM3157.35 108.047C3163.35 108.047 3169.35 116.45 3169.35 126.054C3169.35 135.658 3163.35 144.062 3157.35 144.062C3150.15 144.062 3145.34 135.658 3145.34 126.054C3145.34 116.45 3150.15 108.047 3157.35 108.047Z" fill="black"/>
<path d="M3283.4 264.112C3323.02 297.727 3385.45 237.701 3360.24 189.68C3344.63 160.868 3319.42 162.068 3289.41 192.081C3260.59 220.893 3259.39 243.703 3283.4 264.112ZM3300.21 199.284C3319.42 187.279 3349.43 205.287 3349.43 228.097C3349.43 250.906 3319.42 268.914 3300.21 256.909C3294.21 253.307 3289.41 240.102 3289.41 228.097C3289.41 216.091 3294.21 202.886 3300.21 199.284Z" fill="black"/>
<path d="M3284.6 819.953C3305.01 839.161 3337.43 827.156 3344.63 797.143C3354.23 757.526 3332.62 733.516 3303.81 751.524C3282.2 765.93 3270.2 805.547 3284.6 819.953Z" fill="black"/>
<path d="M3379.44 528.222C3416.66 558.235 3468.28 511.415 3450.27 463.394C3439.47 436.983 3389.05 439.384 3373.44 466.996C3356.63 498.209 3357.84 510.214 3379.44 528.222ZM3409.46 474.199C3435.87 474.199 3431.07 509.014 3405.86 513.816C3389.05 517.417 3384.25 512.615 3387.85 495.808C3390.25 483.803 3399.85 474.199 3409.46 474.199Z" fill="black"/>
<path d="M3462.28 4473.11C3495.89 4486.31 3523.51 4471.91 3523.51 4443.1C3523.51 4409.48 3493.49 4386.67 3464.68 4397.48C3440.67 4407.08 3439.47 4464.7 3462.28 4473.11Z" fill="black"/>
<path d="M3513.9 447.79C3531.91 466.998 3577.53 454.993 3595.54 427.381C3620.75 388.964 3601.54 348.147 3559.52 348.147C3518.7 348.147 3486.29 420.178 3513.9 447.79ZM3553.52 378.16C3588.33 378.16 3602.74 416.576 3572.73 427.381C3543.92 438.185 3515.1 422.579 3519.9 399.769C3522.31 385.363 3534.31 378.16 3553.52 378.16Z" fill="black"/>
<path d="M3563.12 699.898C3596.74 729.911 3643.56 725.109 3672.37 689.094C3703.58 649.477 3704.78 619.464 3673.57 588.251C3641.16 555.837 3606.34 558.238 3571.53 594.253C3535.51 629.068 3533.11 672.286 3563.12 699.898ZM3572.73 614.662C3605.14 567.842 3673.57 587.05 3673.57 643.474C3673.57 668.685 3633.95 708.302 3611.14 708.302C3599.14 708.302 3553.52 662.682 3553.52 650.677C3553.52 645.875 3561.92 629.068 3572.73 614.662Z" fill="black"/>
<path d="M3637.55 2591.91C3647.16 2591.91 3677.17 2582.3 3703.58 2570.3C3729.99 2557.09 3743.2 2546.29 3733.6 2546.29C3723.99 2546.29 3693.98 2555.89 3667.57 2567.9C3641.16 2581.1 3627.95 2591.91 3637.55 2591.91Z" fill="black"/>
<path d="M3648.36 1558.27C3665.17 1585.88 3703.58 1570.27 3707.18 1533.06C3710.79 1507.85 3705.98 1500.64 3689.18 1500.64C3667.57 1500.64 3637.55 1521.05 3637.55 1535.46C3637.55 1540.26 3642.36 1549.86 3648.36 1558.27Z" fill="black"/>
<path d="M3668.77 3441.87C3695.18 3451.47 3723.99 3435.86 3719.19 3413.05C3713.19 3380.64 3666.37 3378.24 3657.96 3409.45C3654.36 3425.06 3657.96 3437.06 3668.77 3441.87Z" fill="black"/>
<path d="M3668.77 1840.38C3680.77 1851.19 3697.58 1837.98 3697.58 1817.58C3697.58 1807.97 3689.18 1800.77 3679.57 1800.77C3661.56 1800.77 3654.36 1825.98 3668.77 1840.38Z" fill="black"/>
<path d="M3679.57 300.127C3717.99 332.541 3778.02 277.318 3764.81 220.893C3758.81 199.284 3749.2 192.081 3723.99 192.081C3705.98 192.081 3684.38 198.084 3675.97 206.487C3655.56 226.896 3657.96 282.12 3679.57 300.127ZM3692.78 228.096C3707.18 214.891 3714.39 216.091 3729.99 231.698C3757.61 258.109 3729.99 294.125 3696.38 274.917C3668.77 260.51 3667.57 248.505 3692.78 228.096Z" fill="black"/>
<path d="M3778.01 2572.7C3791.22 2587.1 3841.64 2581.1 3841.64 2565.5C3841.64 2535.48 3821.23 2518.68 3794.82 2527.08C3769.61 2534.28 3761.21 2557.09 3778.01 2572.7Z" fill="black"/>
<path d="M3823.63 1755.15C3848.84 1765.95 3857.25 1764.75 3877.66 1746.75C3918.47 1709.53 3901.67 1656.71 3847.64 1656.71C3790.02 1656.71 3772.01 1731.14 3823.63 1755.15ZM3847.64 1680.72C3857.25 1680.72 3865.65 1691.52 3865.65 1704.73C3865.65 1717.93 3857.25 1728.74 3847.64 1728.74C3838.04 1728.74 3829.64 1717.93 3829.64 1704.73C3829.64 1691.52 3838.04 1680.72 3847.64 1680.72Z" fill="black"/>
<path d="M3835.64 1171.7C3875.25 1181.3 3901.67 1158.49 3901.67 1115.28C3901.67 1085.26 3896.86 1080.46 3868.05 1080.46C3827.23 1080.46 3805.62 1099.67 3805.62 1136.89C3805.62 1156.09 3814.03 1165.7 3835.64 1171.7ZM3857.25 1106.87C3871.65 1104.47 3877.66 1110.47 3877.66 1127.28C3877.66 1141.69 3870.45 1152.49 3862.05 1152.49C3824.83 1152.49 3821.23 1114.08 3857.25 1106.87Z" fill="black"/>
<path d="M3848.85 908.788C3894.46 925.595 3932.88 859.567 3895.67 828.354C3880.06 815.149 3872.86 816.349 3853.65 834.357C3824.84 860.768 3822.43 897.984 3848.85 908.788ZM3865.65 858.367C3871.65 854.765 3877.66 857.166 3877.66 863.169C3877.66 870.372 3871.65 876.375 3865.65 876.375C3858.45 876.375 3853.65 873.974 3853.65 871.573C3853.65 867.971 3858.45 861.968 3865.65 858.367Z" fill="black"/>
<path d="M3910.07 4647.19C3929.28 4662.79 3930.48 4661.59 3914.87 4642.38C3906.47 4631.58 3896.87 4621.98 3894.46 4621.98C3884.86 4621.98 3890.86 4631.58 3910.07 4647.19Z" fill="black"/>
<path d="M3923.28 135.655C3952.09 162.066 3964.09 160.866 4002.51 130.853C4055.33 88.8349 4038.53 24.0073 3973.7 24.0073C3911.27 24.0073 3880.06 96.038 3923.28 135.655ZM3952.09 55.2206C3978.5 39.614 4016.92 72.0277 4006.11 100.84C3998.91 120.048 3948.49 127.251 3932.88 111.645C3919.68 98.439 3929.28 69.6267 3952.09 55.2206Z" fill="black"/>
<path d="M3931.68 2180.13C3959.29 2190.93 3985.7 2176.53 3985.7 2150.11C3985.7 2120.1 3968.9 2109.3 3937.68 2118.9C3910.07 2127.3 3905.27 2170.52 3931.68 2180.13Z" fill="black"/>
<path d="M3978.5 1704.73C3986.9 1704.73 4001.31 1696.32 4009.71 1686.72C4028.92 1663.91 4008.51 1637.5 3980.9 1648.3C3956.89 1657.91 3955.69 1704.73 3978.5 1704.73Z" fill="black"/>
<path d="M3989.3 3487.49C4001.31 3492.29 4014.51 3493.49 4018.12 3488.69C4030.12 3476.68 4013.31 3467.08 3989.3 3473.08C3968.89 3477.88 3968.89 3477.88 3989.3 3487.49Z" fill="black"/>
<path d="M4014.51 4633.98C4025.32 4633.98 4033.72 4627.98 4033.72 4621.98C4033.72 4614.77 4028.92 4609.97 4022.92 4609.97C4015.72 4609.97 4007.31 4614.77 4003.71 4621.98C4000.11 4627.98 4004.91 4633.98 4014.51 4633.98Z" fill="black"/>
<path d="M4026.52 2465.85C4044.53 2470.66 4097.35 2513.87 4144.17 2564.3C4228.21 2653.13 4321.85 2734.77 4321.85 2719.16C4321.85 2715.56 4296.63 2687.95 4264.22 2657.94C4233.01 2627.92 4169.38 2565.5 4122.56 2518.68C4052.93 2450.25 4032.52 2437.04 4015.71 2445.44C3997.71 2456.25 3998.91 2458.65 4026.52 2465.85Z" fill="black"/>
<path d="M4027.72 3757.6C4037.32 3766 4054.13 3769.6 4063.74 3764.8C4087.75 3756.4 4086.55 3714.38 4062.54 3704.78C4036.12 3695.17 4036.12 3695.17 4022.92 3720.38C4013.31 3737.19 4014.51 3746.79 4027.72 3757.6Z" fill="black"/>
<path d="M4057.73 2887.23C4073.34 2896.84 4093.75 2883.63 4093.75 2863.22C4093.75 2846.42 4064.94 2830.81 4052.93 2841.61C4042.13 2853.62 4044.53 2878.83 4057.73 2887.23Z" fill="black"/>
<path d="M4073.34 4097.35C4098.55 4106.95 4120.16 4087.74 4115.36 4062.53C4109.36 4030.12 4064.94 4032.52 4060.13 4064.93C4057.73 4079.34 4063.74 4093.75 4073.34 4097.35Z" fill="black"/>
<path d="M4080.54 384.165C4115.36 402.172 4163.38 379.363 4172.98 340.946C4182.59 301.329 4165.78 271.316 4130.97 266.514C4070.94 256.91 4028.92 355.352 4080.54 384.165ZM4099.75 295.327C4122.56 286.923 4154.98 319.337 4146.57 342.147C4139.37 360.154 4104.55 366.157 4090.15 351.751C4075.74 337.345 4081.75 302.53 4099.75 295.327Z" fill="black"/>
<path d="M4106.95 3457.48C4120.16 3457.48 4127.36 3451.47 4123.76 3445.47C4120.16 3438.27 4108.15 3433.47 4098.55 3433.47C4088.95 3433.47 4081.74 3438.27 4081.74 3445.47C4081.74 3451.47 4092.55 3457.48 4106.95 3457.48Z" fill="black"/>
<path d="M4105.75 726.309C4112.96 731.111 4122.56 729.911 4129.76 726.309C4147.77 715.505 4144.17 684.292 4124.96 684.292C4104.55 684.292 4090.15 716.705 4105.75 726.309Z" fill="black"/>
<path d="M4140.57 1229.33C4162.18 1242.53 4190.99 1222.12 4187.39 1195.71C4182.59 1160.9 4136.97 1160.9 4132.16 1196.91C4129.76 1210.12 4133.37 1225.72 4140.57 1229.33Z" fill="black"/>
<path d="M4165.78 2431.04C4171.78 2427.44 4177.79 2419.03 4177.79 2411.83C4177.79 2405.83 4171.78 2401.03 4165.78 2401.03C4158.58 2401.03 4153.77 2409.43 4153.77 2420.23C4153.77 2429.84 4158.58 2434.64 4165.78 2431.04Z" fill="black"/>
<path d="M4288.23 3540.31C4338.65 3539.11 4345.86 3536.71 4321.84 3529.5C4278.63 3515.1 4225.8 3515.1 4225.8 3529.5C4225.8 3536.71 4254.62 3541.51 4288.23 3540.31Z" fill="black"/>
<path d="M4245.01 3275C4255.82 3273.8 4267.82 3264.19 4271.42 3255.79C4275.03 3244.98 4269.02 3240.18 4254.62 3243.78C4243.81 3244.98 4231.81 3254.59 4228.21 3262.99C4224.6 3273.8 4230.61 3278.6 4245.01 3275Z" fill="black"/>
<path d="M4303.84 1349.38C4327.85 1372.19 4335.05 1373.39 4362.66 1352.98C4375.87 1343.38 4383.07 1325.37 4379.47 1307.36C4374.67 1270.15 4325.45 1267.75 4301.44 1303.76C4287.03 1326.57 4287.03 1332.57 4303.84 1349.38Z" fill="black"/>
<path d="M4354.26 3689.17C4357.86 3693.98 4374.67 3697.58 4390.27 3697.58C4411.88 3697.58 4417.89 3690.38 4417.89 3668.77C4417.89 3653.16 4409.48 3636.35 4398.68 3632.75C4365.06 3619.54 4330.25 3665.16 4354.26 3689.17Z" fill="black"/>
<path d="M4354.26 2344.6C4371.07 2362.61 4416.69 2351.8 4423.89 2328.99C4433.49 2298.98 4422.69 2280.97 4395.08 2280.97C4359.06 2280.97 4331.45 2322.99 4354.26 2344.6Z" fill="black"/>
<path d="M4375.87 4417.88C4402.28 4439.49 4435.89 4419.08 4435.89 4380.67C4435.89 4356.66 4429.89 4351.86 4399.88 4351.86C4372.27 4351.86 4362.66 4357.86 4360.26 4377.07C4357.86 4390.27 4365.06 4409.48 4375.87 4417.88Z" fill="black"/>
<path d="M4374.67 3281C4404.68 3293.01 4434.69 3241.38 4407.08 3224.58C4387.87 3212.57 4357.86 3230.58 4357.86 3253.39C4357.86 3265.39 4365.06 3277.4 4374.67 3281Z" fill="black"/>
<path d="M4372.27 597.852C4390.28 615.86 4405.88 615.86 4405.88 599.053C4405.88 593.05 4401.08 589.449 4395.08 594.251C4389.07 597.852 4379.47 594.251 4374.67 587.048C4368.67 577.444 4379.47 575.043 4410.68 578.644C4434.69 581.045 4453.9 578.644 4453.9 573.842C4453.9 569.04 4432.29 564.238 4405.88 564.238C4356.66 564.238 4347.06 572.642 4372.27 597.852Z" fill="black"/>
<path d="M4401.08 1762.35C4411.88 1761.15 4423.89 1751.55 4427.49 1743.14C4431.09 1732.34 4425.09 1727.54 4410.68 1731.14C4399.88 1732.34 4387.87 1741.94 4384.27 1750.35C4380.67 1761.15 4386.67 1765.95 4401.08 1762.35Z" fill="black"/>
<path d="M4447.9 1555.86C4473.11 1566.67 4501.92 1552.26 4501.92 1530.65C4501.92 1505.44 4469.51 1494.63 4447.9 1512.64C4425.09 1531.85 4425.09 1547.46 4447.9 1555.86Z" fill="black"/>
<path d="M4449.1 1172.9C4462.31 1177.71 4475.51 1171.7 4486.32 1158.5C4499.52 1139.29 4499.52 1133.29 4485.12 1117.68C4470.71 1103.27 4463.51 1103.27 4449.1 1116.48C4423.89 1135.69 4425.09 1163.3 4449.1 1172.9Z" fill="black"/>
<path d="M4458.7 2063.68C4470.71 2074.48 4477.91 2073.28 4489.92 2058.88C4509.13 2036.07 4488.72 2009.66 4461.11 2020.46C4437.1 2030.07 4437.1 2045.67 4458.7 2063.68Z" fill="black"/>
<path d="M4476.71 2732.37C4507.93 2782.79 4533.14 2798.4 4509.13 2752.78C4493.52 2722.76 4453.9 2677.14 4453.9 2690.35C4453.9 2692.75 4464.71 2711.96 4476.71 2732.37Z" fill="black"/>
<path d="M4489.92 3589.53C4495.92 3589.53 4501.92 3583.53 4501.92 3577.53C4501.92 3570.32 4495.92 3565.52 4489.92 3565.52C4482.72 3565.52 4477.91 3570.32 4477.91 3577.53C4477.91 3583.53 4482.72 3589.53 4489.92 3589.53Z" fill="black"/>
<path d="M4513.93 672.289C4535.54 672.289 4561.95 641.076 4561.95 613.464C4561.95 593.055 4525.93 565.443 4507.93 571.446C4495.92 576.248 4489.92 595.456 4489.92 625.469C4489.92 663.885 4493.52 672.289 4513.93 672.289Z" fill="black"/>
<path d="M4557.15 2839.21L4588.36 2875.23L4561.95 2835.61C4547.54 2815.2 4534.34 2797.19 4530.73 2797.19C4522.33 2797.19 4524.73 2802 4557.15 2839.21Z" fill="black"/>
<path d="M4537.94 2719.16C4558.35 2731.17 4590.76 2695.15 4581.16 2671.14C4577.56 2660.34 4564.35 2653.13 4553.55 2655.54C4528.33 2660.34 4517.53 2707.16 4537.94 2719.16Z" fill="black"/>
<path d="M4588.36 4379.47C4621.97 4413.09 4674.8 4383.07 4667.59 4332.65C4662.79 4296.64 4627.98 4276.23 4600.36 4293.03C4575.15 4309.84 4567.95 4359.06 4588.36 4379.47Z" fill="black"/>
<path d="M4619.57 2249.76C4657.99 2261.77 4682 2244.96 4682 2207.74C4682 2142.92 4607.57 2147.72 4600.37 2212.55C4597.96 2234.16 4602.77 2244.96 4619.57 2249.76Z" fill="black"/>
<path d="M4651.99 2959.27C4667.59 2978.47 4680.8 2989.28 4682 2982.08C4682 2974.87 4668.79 2956.86 4651.99 2941.26C4613.57 2905.24 4613.57 2912.45 4651.99 2959.27Z" fill="black"/>
<path d="M4654.39 2422.63C4680.8 2417.83 4684.4 2371.01 4657.99 2371.01C4648.39 2371.01 4638.78 2384.22 4636.38 2398.62C4632.78 2421.43 4636.38 2426.24 4654.39 2422.63Z" fill="black"/>
<path d="M4662.79 2848.81C4678.4 2854.82 4682 2847.61 4682 2814C4682 2785.19 4677.2 2773.18 4666.39 2775.58C4643.58 2783.99 4641.18 2840.41 4662.79 2848.81Z" fill="black"/>
<path d="M925.543 3990.34C937.548 3959.13 912.337 3931.52 873.92 3931.52C846.309 3931.52 837.905 3937.52 835.504 3960.33C833.103 3975.94 837.905 3993.95 847.509 3998.75C873.92 4015.56 917.139 4010.75 925.543 3990.34ZM851.111 3967.53C851.111 3941.12 888.327 3927.92 907.535 3947.13C927.944 3967.53 908.735 3999.95 878.723 3995.15C860.715 3992.75 851.111 3983.14 851.111 3967.53Z" fill="black"/>
<path d="M1210.06 3909.91C1223.27 3900.31 1230.47 3882.3 1226.87 3864.29C1223.27 3839.08 1217.26 3835.48 1176.45 3834.28C1140.43 3834.28 1127.22 3828.27 1120.02 3807.87C1100.81 3757.44 1009.57 3738.24 974.76 3779.05C936.343 3821.07 937.544 3851.08 975.96 3889.5C1020.38 3935.12 1053.99 3935.12 1097.21 3890.7C1129.63 3858.29 1132.03 3858.29 1135.63 3881.1C1138.03 3894.3 1147.63 3907.51 1157.24 3909.91C1171.64 3914.71 1171.64 3913.51 1159.64 3903.91C1132.03 3884.7 1147.63 3847.48 1184.85 3843.88C1211.26 3840.28 1217.26 3845.08 1217.26 3866.69C1217.26 3881.1 1207.66 3900.31 1195.65 3908.71C1169.24 3929.12 1182.45 3930.32 1210.06 3909.91ZM991.567 3894.3C973.559 3882.3 965.155 3864.29 965.155 3836.68C965.155 3788.66 983.163 3769.45 1031.18 3769.45C1108.02 3769.45 1141.63 3834.28 1092.41 3883.5C1057.59 3918.31 1029.98 3920.71 991.567 3894.3Z" fill="black"/>
<path d="M840.305 3787.46C858.312 3759.85 858.312 3755.05 840.305 3728.63C815.094 3689.02 777.878 3679.41 743.063 3702.22C678.236 3744.24 702.246 3817.47 780.279 3817.47C810.292 3817.47 825.899 3809.07 840.305 3787.46ZM739.462 3791.06C696.243 3747.84 752.667 3679.41 807.891 3708.23C831.901 3721.43 843.906 3779.06 824.698 3797.06C811.493 3810.27 755.068 3806.67 739.462 3791.06Z" fill="black"/>
<path d="M722.65 3647C743.059 3626.59 740.658 3595.38 716.648 3576.17C698.64 3560.56 698.64 3561.76 713.046 3585.77C733.455 3618.19 713.046 3649.4 669.828 3649.4C617.005 3649.4 623.008 3566.56 675.83 3564.16C689.036 3564.16 690.236 3561.76 679.432 3556.96C660.224 3549.76 605 3584.57 605 3606.18C605 3649.4 690.236 3679.41 722.65 3647Z" fill="black"/>
<path d="M1050.39 3474.12C1061.2 3460.92 1062.4 3450.11 1052.79 3435.71C1035.99 3409.3 989.167 3409.3 972.36 3436.91C961.555 3454.92 963.956 3462.12 981.964 3476.53C1011.98 3498.13 1029.98 3498.13 1050.39 3474.12ZM992.769 3468.12C973.561 3448.91 986.766 3421.3 1013.18 3421.3C1040.79 3421.3 1053.99 3440.51 1044.39 3463.32C1037.19 3484.93 1010.78 3486.13 992.769 3468.12Z" fill="black"/>
<path d="M737.062 3445.31C750.268 3432.1 761.072 3414.1 761.072 3404.49C761.072 3382.88 714.252 3325.26 697.445 3325.26C689.042 3325.26 692.643 3331.26 703.448 3338.46C765.874 3374.48 747.867 3457.31 677.036 3457.31C609.808 3457.31 578.594 3380.48 631.417 3344.47C645.823 3333.66 653.026 3325.26 645.823 3325.26C623.013 3325.26 593 3368.48 593 3400.89C593.001 3462.12 690.242 3492.13 737.062 3445.31Z" fill="black"/>
<path d="M1157.24 3385.29C1170.45 3372.08 1181.25 3348.07 1181.25 3333.66C1181.25 3306.05 1148.84 3265.24 1126.03 3265.24C1121.23 3265.24 1128.43 3273.64 1142.84 3284.44C1175.25 3306.05 1177.65 3350.47 1147.64 3376.88C1100.82 3420.1 1037.19 3392.49 1037.19 3330.06C1037.19 3294.05 1043.19 3285.64 1075.61 3271.24C1097.22 3261.63 1106.82 3254.43 1096.02 3253.23C1061.2 3253.23 1021.58 3294.05 1021.58 3331.26C1021.58 3398.49 1109.22 3433.31 1157.24 3385.29Z" fill="black"/>
<path d="M1267.68 3216.02C1301.3 3196.81 1295.29 3147.59 1259.28 3137.98C1213.66 3127.18 1190.85 3140.38 1195.65 3177.6C1198.05 3194.41 1207.66 3212.41 1217.26 3214.82C1232.87 3220.82 1232.87 3218.42 1218.46 3201.61C1195.65 3174 1211.26 3142.78 1243.67 3147.59C1278.49 3152.39 1285.69 3189.6 1256.88 3211.21C1231.67 3231.62 1237.67 3234.02 1267.68 3216.02Z" fill="black"/>
<path d="M975.963 3101.97C1007.18 3062.35 1007.18 3058.75 975.963 3023.93L951.953 2995.12L969.96 3025.13C997.572 3071.95 972.361 3115.17 917.138 3115.17C834.302 3115.17 830.701 3017.93 912.336 2999.92L947.151 2991.52L913.536 2990.32C876.32 2989.12 833.102 3026.33 833.102 3058.75C833.102 3089.96 883.523 3133.18 919.539 3133.18C939.948 3133.18 960.356 3121.17 975.963 3101.97Z" fill="black"/>
<path d="M1195.66 3107.97C1220.87 3093.56 1224.47 3037.14 1202.86 3015.53C1194.46 3007.13 1170.45 3001.13 1148.84 3001.13C1097.21 3001.13 1075.61 3038.34 1103.22 3080.36C1112.82 3095.97 1124.83 3109.17 1128.43 3109.17C1133.23 3109.17 1129.63 3100.77 1121.23 3092.36C1114.02 3082.76 1109.22 3062.35 1111.62 3046.74C1114.02 3023.93 1122.43 3019.13 1157.24 3019.13C1195.66 3019.13 1199.26 3021.53 1199.26 3055.15C1199.26 3080.36 1190.85 3094.76 1169.25 3105.57C1152.44 3113.97 1147.64 3121.18 1157.24 3121.18C1166.84 3119.98 1184.85 3115.17 1195.66 3107.97Z" fill="black"/>
<path d="M1257.54 4476.34C1269.55 4445.13 1244.34 4417.52 1205.92 4417.52C1178.31 4417.52 1169.9 4423.52 1167.5 4446.33C1165.1 4461.94 1169.9 4479.95 1179.51 4484.75C1205.92 4501.56 1249.14 4496.75 1257.54 4476.34ZM1183.11 4453.53C1183.11 4427.12 1220.33 4413.92 1239.53 4433.13C1259.94 4453.53 1240.74 4485.95 1210.72 4481.15C1192.71 4478.75 1183.11 4469.14 1183.11 4453.53Z" fill="black"/>
<path d="M1542.06 4395.91C1555.27 4386.31 1562.47 4368.3 1558.87 4350.29C1555.27 4325.08 1549.26 4321.48 1508.45 4320.28C1472.43 4320.28 1459.22 4314.27 1452.02 4293.87C1432.81 4243.44 1341.57 4224.24 1306.76 4265.05C1268.34 4307.07 1269.54 4337.08 1307.96 4375.5C1352.38 4421.12 1385.99 4421.12 1429.21 4376.7C1461.63 4344.29 1464.03 4344.29 1467.63 4367.1C1470.03 4380.3 1479.63 4393.51 1489.24 4395.91C1503.64 4400.71 1503.64 4399.51 1491.64 4389.91C1464.03 4370.7 1479.63 4333.48 1516.85 4329.88C1543.26 4326.28 1549.26 4331.08 1549.26 4352.69C1549.26 4367.1 1539.66 4386.31 1527.65 4394.71C1501.24 4415.12 1514.45 4416.32 1542.06 4395.91ZM1323.57 4380.3C1305.56 4368.3 1297.16 4350.29 1297.16 4322.68C1297.16 4274.66 1315.16 4255.45 1363.18 4255.45C1440.02 4255.45 1473.63 4320.28 1424.41 4369.5C1389.59 4404.31 1361.98 4406.71 1323.57 4380.3Z" fill="black"/>
<path d="M1172.3 4273.46C1190.31 4245.85 1190.31 4241.05 1172.3 4214.63C1147.09 4175.02 1109.88 4165.41 1075.06 4188.22C1010.24 4230.24 1034.25 4303.47 1112.28 4303.47C1142.29 4303.47 1157.9 4295.07 1172.3 4273.46ZM1071.46 4277.06C1028.24 4233.84 1084.67 4165.41 1139.89 4194.23C1163.9 4207.43 1175.91 4265.06 1156.7 4283.06C1143.49 4296.27 1087.07 4292.67 1071.46 4277.06Z" fill="black"/>
<path d="M1054.65 4133C1075.06 4112.59 1072.66 4081.38 1048.65 4062.17C1030.64 4046.56 1030.64 4047.76 1045.05 4071.77C1065.45 4104.19 1045.05 4135.4 1001.83 4135.4C949.005 4135.4 955.008 4052.56 1007.83 4050.16C1021.04 4050.16 1022.24 4047.76 1011.43 4042.96C992.224 4035.76 937 4070.57 937 4092.18C937 4135.4 1022.24 4165.41 1054.65 4133Z" fill="black"/>
<path d="M1382.39 3960.12C1393.2 3946.92 1394.4 3936.11 1384.79 3921.71C1367.99 3895.3 1321.17 3895.3 1304.36 3922.91C1293.56 3940.92 1295.96 3948.12 1313.96 3962.53C1343.98 3984.13 1361.98 3984.13 1382.39 3960.12ZM1324.77 3954.12C1305.56 3934.91 1318.77 3907.3 1345.18 3907.3C1372.79 3907.3 1385.99 3926.51 1376.39 3949.32C1369.19 3970.93 1342.78 3972.13 1324.77 3954.12Z" fill="black"/>
<path d="M1069.06 3931.31C1082.27 3918.1 1093.07 3900.1 1093.07 3890.49C1093.07 3868.88 1046.25 3811.26 1029.45 3811.26C1021.04 3811.26 1024.64 3817.26 1035.45 3824.46C1097.87 3860.48 1079.87 3943.31 1009.04 3943.31C941.808 3943.31 910.594 3866.48 963.417 3830.47C977.823 3819.66 985.026 3811.26 977.823 3811.26C955.013 3811.26 925 3854.48 925 3886.89C925.001 3948.12 1022.24 3978.13 1069.06 3931.31Z" fill="black"/>
<path d="M1489.24 3871.29C1502.45 3858.08 1513.25 3834.07 1513.25 3819.66C1513.25 3792.05 1480.84 3751.24 1458.03 3751.24C1453.23 3751.24 1460.43 3759.64 1474.84 3770.44C1507.25 3792.05 1509.65 3836.47 1479.64 3862.88C1432.82 3906.1 1369.19 3878.49 1369.19 3816.06C1369.19 3780.05 1375.19 3771.64 1407.61 3757.24C1429.22 3747.63 1438.82 3740.43 1428.02 3739.23C1393.2 3739.23 1353.58 3780.05 1353.58 3817.26C1353.58 3884.49 1441.22 3919.31 1489.24 3871.29Z" fill="black"/>
<path d="M1599.68 3702.02C1633.3 3682.81 1627.29 3633.59 1591.28 3623.98C1545.66 3613.18 1522.85 3626.38 1527.65 3663.6C1530.05 3680.41 1539.66 3698.41 1549.26 3700.82C1564.87 3706.82 1564.87 3704.42 1550.46 3687.61C1527.65 3660 1543.26 3628.78 1575.67 3633.59C1610.49 3638.39 1617.69 3675.6 1588.88 3697.21C1563.67 3717.62 1569.67 3720.02 1599.68 3702.02Z" fill="black"/>
<path d="M1307.96 3587.97C1339.18 3548.35 1339.18 3544.75 1307.96 3509.93L1283.95 3481.12L1301.96 3511.13C1329.57 3557.95 1304.36 3601.17 1249.14 3601.17C1166.3 3601.17 1162.7 3503.93 1244.34 3485.92L1279.15 3477.52L1245.54 3476.32C1208.32 3475.12 1165.1 3512.33 1165.1 3544.75C1165.1 3575.96 1215.52 3619.18 1251.54 3619.18C1271.95 3619.18 1292.36 3607.17 1307.96 3587.97Z" fill="black"/>
<path d="M1527.66 3593.97C1552.87 3579.56 1556.47 3523.14 1534.86 3501.53C1526.46 3493.13 1502.45 3487.13 1480.84 3487.13C1429.21 3487.13 1407.61 3524.34 1435.22 3566.36C1444.82 3581.97 1456.83 3595.17 1460.43 3595.17C1465.23 3595.17 1461.63 3586.77 1453.23 3578.36C1446.02 3568.76 1441.22 3548.35 1443.62 3532.74C1446.02 3509.93 1454.43 3505.13 1489.24 3505.13C1527.66 3505.13 1531.26 3507.53 1531.26 3541.15C1531.26 3566.36 1522.85 3580.76 1501.25 3591.57C1484.44 3599.97 1479.64 3607.18 1489.24 3607.18C1498.84 3605.98 1516.85 3601.17 1527.66 3593.97Z" fill="black"/>
<path d="M2917.47 4181.74C2896.45 4155.74 2859.93 4163.77 2840.72 4197.04C2826.91 4220.95 2827.91 4231.23 2846.46 4244.71C2858.78 4254.59 2876.77 4259.44 2885.74 4253.52C2913.5 4239.05 2930.95 4199.22 2917.47 4181.74ZM2860.5 4234.8C2837.63 4221.59 2844.8 4182.76 2871.04 4175.73C2898.92 4168.26 2917.39 4201.1 2898.22 4224.69C2887.14 4239.08 2874.02 4242.6 2860.5 4234.8Z" fill="black"/>
<path d="M2990.07 3895.12C2988.36 3878.89 2976.37 3863.64 2958.97 3857.76C2935.34 3848.27 2929.22 3851.67 2907.77 3886.42C2889.76 3917.61 2877.96 3926.04 2856.68 3922.08C2803.41 3913.5 2741.16 3982.91 2759.1 4033.47C2776.28 4087.75 2802.87 4101.72 2855.35 4087.66C2917.07 4072 2933.87 4042.89 2917.02 3983.25C2905.15 3938.97 2906.35 3936.89 2927.91 3945.18C2940.54 3949.7 2956.78 3947.99 2963.66 3940.87C2975.03 3930.8 2973.99 3930.2 2959.67 3935.79C2929.23 3950.1 2904.8 3917.97 2920.29 3883.94C2930.37 3859.27 2937.53 3856.47 2956.25 3867.28C2968.72 3874.48 2980.56 3892.4 2981.83 3907C2986.3 3940.08 2993.94 3929.24 2990.07 3895.12ZM2867.31 4076.54C2847.91 4086.13 2828.12 4084.41 2804.2 4070.6C2762.62 4046.59 2754.98 4021.39 2778.99 3979.81C2817.41 3913.27 2890.36 3916.57 2908.38 3983.81C2921.12 4031.37 2909.39 4056.48 2867.31 4076.54Z" fill="black"/>
<path d="M2699.15 4154.12C2684.24 4124.72 2680.08 4122.32 2648.21 4124.71C2601.29 4126.73 2574.37 4154.16 2576.71 4195.71C2580.69 4272.86 2656.11 4288.69 2695.13 4221.11C2710.14 4195.12 2710.66 4177.4 2699.15 4154.12ZM2651.85 4243.25C2592.81 4259.07 2561.76 4175.99 2614.33 4142.57C2637.77 4128.38 2693.68 4146.8 2699.67 4172.44C2704.5 4190.47 2673.17 4237.54 2651.85 4243.25Z" fill="black"/>
<path d="M2518.68 4185.78C2511.21 4157.9 2482.98 4144.37 2454.34 4155.56C2431.82 4163.35 2432.86 4163.95 2460.86 4163.48C2499.13 4162.02 2515.96 4195.3 2494.35 4232.73C2467.94 4278.47 2399.2 4231.85 2423.53 4184.91C2430.14 4173.47 2428.66 4171.23 2419.1 4178.19C2403.25 4191.22 2405.79 4256.45 2424.51 4267.26C2461.94 4288.87 2530.55 4230.06 2518.68 4185.78Z" fill="black"/>
<path d="M2532.84 3815.51C2526.81 3799.55 2518.05 3793.11 2500.77 3794.22C2469.49 3795.57 2446.08 3836.12 2461.59 3864.48C2471.79 3882.84 2479.22 3884.36 2500.7 3875.97C2534.43 3860.78 2543.43 3845.19 2532.84 3815.51ZM2498.83 3862.41C2472.59 3869.44 2455.28 3844.2 2468.49 3821.33C2482.29 3797.41 2505.53 3795.58 2520.48 3815.3C2535.59 3832.35 2523.43 3855.82 2498.83 3862.41Z" fill="black"/>
<path d="M2351.22 4072.45C2346.39 4054.41 2336.19 4036.05 2327.88 4031.25C2309.16 4020.45 2235.85 4032.18 2227.44 4046.74C2223.24 4054.02 2230.24 4053.9 2241.88 4048.14C2304.29 4012.09 2367.02 4069.1 2331.6 4130.44C2297.99 4188.66 2215.84 4177.28 2211.06 4113.52C2208.91 4095.65 2205.23 4085.21 2201.63 4091.44C2190.23 4111.2 2212.65 4158.8 2240.72 4175.01C2293.74 4205.62 2368.36 4136.41 2351.22 4072.45Z" fill="black"/>
<path d="M2509.33 3678.56C2504.49 3660.52 2489.1 3639.15 2476.63 3631.95C2452.71 3618.15 2401.16 3625.81 2389.75 3645.56C2387.35 3649.72 2398.23 3647.68 2414.79 3640.61C2449.71 3623.34 2489.38 3643.47 2497.25 3682.67C2511.27 3744.83 2455.54 3786.13 2401.48 3754.91C2370.29 3736.9 2366.01 3727.5 2369.74 3692.23C2372.23 3668.71 2370.79 3656.79 2364.35 3665.55C2346.94 3695.7 2362.48 3750.42 2394.71 3769.03C2452.94 3802.64 2526.9 3744.15 2509.33 3678.56Z" fill="black"/>
<path d="M2417.96 3498.28C2418.13 3459.56 2372.5 3440.15 2346.17 3466.54C2314.01 3500.64 2314.04 3527 2348.67 3541.45C2364.43 3547.77 2384.82 3548.46 2391.71 3541.34C2404.71 3530.83 2402.63 3529.63 2380.87 3533.7C2345.55 3539.65 2326.32 3510.52 2346.69 3484.85C2368.26 3457.1 2404.09 3469.47 2408.39 3505.23C2413.46 3537.27 2418.54 3533.27 2417.96 3498.28Z" fill="black"/>
<path d="M2173.33 3693.89C2154.62 3647.05 2151.5 3645.25 2105.75 3654.87L2068.79 3661.26L2103.79 3660.67C2158.14 3660.17 2182.96 3703.61 2155.35 3751.43C2113.93 3823.17 2027.92 3777.67 2053.14 3697.97L2063.27 3663.62L2045.42 3692.13C2025.77 3723.76 2036.4 3779.79 2064.47 3796C2091.5 3811.61 2154.14 3789.55 2172.15 3758.36C2182.35 3740.68 2182.16 3717.01 2173.33 3693.89Z" fill="black"/>
<path d="M2288.37 3506.63C2288.5 3477.59 2241.44 3446.26 2211.92 3454.17C2200.44 3457.25 2183.24 3475.04 2172.43 3493.75C2146.62 3538.46 2168.05 3575.78 2218.24 3572.88C2236.56 3572.36 2254 3568.57 2255.8 3565.45C2258.2 3561.29 2249.12 3560.21 2237.64 3563.28C2225.72 3564.72 2205.65 3558.68 2193.33 3548.79C2174.78 3535.31 2174.82 3525.63 2192.23 3495.48C2211.44 3462.21 2215.32 3460.29 2244.43 3477.1C2266.26 3489.7 2274.53 3504.18 2273.09 3528.3C2271.96 3547.06 2275.8 3554.82 2280.6 3546.5C2284.36 3537.58 2289.21 3519.59 2288.37 3506.63Z" fill="black"/>
<path d="M3589.54 4269.34C3601.55 4238.13 3576.34 4210.52 3537.92 4210.52C3510.31 4210.52 3501.9 4216.52 3499.5 4239.33C3497.1 4254.94 3501.9 4272.95 3511.51 4277.75C3537.92 4294.56 3581.14 4289.75 3589.54 4269.34ZM3515.11 4246.53C3515.11 4220.12 3552.33 4206.92 3571.53 4226.13C3591.94 4246.53 3572.74 4278.95 3542.72 4274.15C3524.71 4271.75 3515.11 4262.14 3515.11 4246.53Z" fill="black"/>
<path d="M3874.06 4188.91C3887.27 4179.31 3894.47 4161.3 3890.87 4143.29C3887.27 4118.08 3881.26 4114.48 3840.45 4113.28C3804.43 4113.28 3791.22 4107.27 3784.02 4086.87C3764.81 4036.44 3673.57 4017.24 3638.76 4058.05C3600.34 4100.07 3601.54 4130.08 3639.96 4168.5C3684.38 4214.12 3717.99 4214.12 3761.21 4169.7C3793.63 4137.29 3796.03 4137.29 3799.63 4160.1C3802.03 4173.3 3811.63 4186.51 3821.24 4188.91C3835.64 4193.71 3835.64 4192.51 3823.64 4182.91C3796.03 4163.7 3811.63 4126.48 3848.85 4122.88C3875.26 4119.28 3881.26 4124.08 3881.26 4145.69C3881.26 4160.1 3871.66 4179.31 3859.65 4187.71C3833.24 4208.12 3846.45 4209.32 3874.06 4188.91ZM3655.57 4173.3C3637.56 4161.3 3629.16 4143.29 3629.16 4115.68C3629.16 4067.66 3647.16 4048.45 3695.18 4048.45C3772.02 4048.45 3805.63 4113.28 3756.41 4162.5C3721.59 4197.31 3693.98 4199.71 3655.57 4173.3Z" fill="black"/>
<path d="M3504.3 4066.46C3522.31 4038.85 3522.31 4034.05 3504.3 4007.63C3479.09 3968.02 3441.88 3958.41 3407.06 3981.22C3342.24 4023.24 3366.25 4096.47 3444.28 4096.47C3474.29 4096.47 3489.9 4088.07 3504.3 4066.46ZM3403.46 4070.06C3360.24 4026.84 3416.67 3958.41 3471.89 3987.23C3495.9 4000.43 3507.91 4058.06 3488.7 4076.06C3475.49 4089.27 3419.07 4085.67 3403.46 4070.06Z" fill="black"/>
<path d="M3386.65 3926C3407.06 3905.59 3404.66 3874.38 3380.65 3855.17C3362.64 3839.56 3362.64 3840.76 3377.05 3864.77C3397.45 3897.19 3377.05 3928.4 3333.83 3928.4C3281.01 3928.4 3287.01 3845.56 3339.83 3843.16C3353.04 3843.16 3354.24 3840.76 3343.43 3835.96C3324.22 3828.76 3269 3863.57 3269 3885.18C3269 3928.4 3354.24 3958.41 3386.65 3926Z" fill="black"/>
<path d="M3714.39 3753.12C3725.2 3739.92 3726.4 3729.11 3716.79 3714.71C3699.99 3688.3 3653.17 3688.3 3636.36 3715.91C3625.56 3733.92 3627.96 3741.12 3645.96 3755.53C3675.98 3777.13 3693.98 3777.13 3714.39 3753.12ZM3656.77 3747.12C3637.56 3727.91 3650.77 3700.3 3677.18 3700.3C3704.79 3700.3 3717.99 3719.51 3708.39 3742.32C3701.19 3763.93 3674.78 3765.13 3656.77 3747.12Z" fill="black"/>
<path d="M3401.06 3724.31C3414.27 3711.1 3425.07 3693.1 3425.07 3683.49C3425.07 3661.88 3378.25 3604.26 3361.45 3604.26C3353.04 3604.26 3356.64 3610.26 3367.45 3617.46C3429.87 3653.48 3411.87 3736.31 3341.04 3736.31C3273.81 3736.31 3242.59 3659.48 3295.42 3623.47C3309.82 3612.66 3317.03 3604.26 3309.82 3604.26C3287.01 3604.26 3257 3647.48 3257 3679.89C3257 3741.12 3354.24 3771.13 3401.06 3724.31Z" fill="black"/>
<path d="M3821.24 3664.29C3834.45 3651.08 3845.25 3627.07 3845.25 3612.66C3845.25 3585.05 3812.84 3544.24 3790.03 3544.24C3785.23 3544.24 3792.43 3552.64 3806.84 3563.44C3839.25 3585.05 3841.65 3629.47 3811.64 3655.88C3764.82 3699.1 3701.19 3671.49 3701.19 3609.06C3701.19 3573.05 3707.19 3564.64 3739.61 3550.24C3761.22 3540.63 3770.82 3533.43 3760.02 3532.23C3725.2 3532.23 3685.58 3573.05 3685.58 3610.26C3685.58 3677.49 3773.22 3712.31 3821.24 3664.29Z" fill="black"/>
<path d="M3931.68 3495.02C3965.3 3475.81 3959.29 3426.59 3923.28 3416.98C3877.66 3406.18 3854.85 3419.38 3859.65 3456.6C3862.05 3473.41 3871.66 3491.41 3881.26 3493.82C3896.87 3499.82 3896.87 3497.42 3882.46 3480.61C3859.65 3453 3875.26 3421.78 3907.67 3426.59C3942.49 3431.39 3949.69 3468.6 3920.88 3490.21C3895.67 3510.62 3901.67 3513.02 3931.68 3495.02Z" fill="black"/>
<path d="M3639.96 3380.97C3671.18 3341.35 3671.18 3337.75 3639.96 3302.93L3615.95 3274.12L3633.96 3304.13C3661.57 3350.95 3636.36 3394.17 3581.14 3394.17C3498.3 3394.17 3494.7 3296.93 3576.34 3278.92L3611.15 3270.52L3577.54 3269.32C3540.32 3268.12 3497.1 3305.33 3497.1 3337.75C3497.1 3368.96 3547.52 3412.18 3583.54 3412.18C3603.95 3412.18 3624.36 3400.17 3639.96 3380.97Z" fill="black"/>
<path d="M3859.66 3386.97C3884.87 3372.56 3888.47 3316.14 3866.86 3294.53C3858.46 3286.13 3834.45 3280.13 3812.84 3280.13C3761.21 3280.13 3739.61 3317.34 3767.22 3359.36C3776.82 3374.97 3788.83 3388.17 3792.43 3388.17C3797.23 3388.17 3793.63 3379.77 3785.23 3371.36C3778.02 3361.76 3773.22 3341.35 3775.62 3325.74C3778.02 3302.93 3786.43 3298.13 3821.24 3298.13C3859.66 3298.13 3863.26 3300.53 3863.26 3334.15C3863.26 3359.36 3854.85 3373.76 3833.25 3384.57C3816.44 3392.97 3811.64 3400.18 3821.24 3400.18C3830.84 3398.98 3848.85 3394.17 3859.66 3386.97Z" fill="black"/>
</svg>
