<?xml version="1.0" encoding="utf-8"?>
<svg version="1.0" width="413.000000pt" height="403.000000pt" viewBox="0 0 1713.000000 1903.000000" preserveAspectRatio="xMidYMid meet" xmlns="http://www.w3.org/2000/svg" xmlns:bx="https://boxy-svg.com">
  <defs>
    <filter id="drop-shadow-filter-0" x="-500%" y="-500%" width="1000%" height="1000%" bx:preset="drop-shadow 1 10 10 13 1 rgba(0,0,0,0.3)">
      <feGaussianBlur in="SourceAlpha" stdDeviation="13"/>
      <feOffset dx="10" dy="10"/>
      <feComponentTransfer result="offsetblur">
        <feFuncA id="spread-ctrl" type="linear" slope="2"/>
      </feComponentTransfer>
      <feFlood flood-color="rgba(0,0,0,0.3)"/>
      <feComposite in2="offsetblur" operator="in"/>
      <feMerge>
        <feMergeNode/>
        <feMergeNode in="SourceGraphic"/>
      </feMerge>
    </filter>
  </defs>
  <g transform="translate(0.000000,1903.000000) scale(0.100000,-0.100000)" fill="#000000" stroke="none" style="filter: url(#drop-shadow-filter-0); opacity: 0.38;">
    <path d="M6233 16411 c-3 -11 -13 -21 -22 -21 -9 0 -21 -4 -27 -10 -6 -6 -22 -6 -44 0 -19 6 -50 10 -69 10 l-35 0 22 -20 c12 -11 26 -20 32 -20 12 0 13 -13 3 -24 -5 -4 -9 -12 -9 -17 -4 -30 -6 -32 -14 -14 l-9 20 0 -20 c-1 -17 -3 -18 -11 -5 -6 9 -13 11 -17 5 -5 -5 -16 -16 -26 -24 -15 -12 -20 -10 -42 13 -27 29 -35 32 -35 12 0 -21 -30 -28 -37 -9 -4 9 -1 19 5 21 7 2 12 14 12 27 0 13 6 26 13 29 6 3 0 3 -15 0 -17 -4 -28 -2 -28 5 0 15 -21 14 -56 -3 -16 -8 -36 -16 -44 -18 -8 -2 -30 -14 -48 -27 -28 -19 -42 -22 -82 -18 -27 3 -54 8 -60 12 -5 3 -10 -1 -10 -9 0 -19 -33 -21 -49 -3 -8 10 -7 17 1 25 6 6 9 15 5 19 -10 10 -100 4 -112 -8 -5 -5 -18 -9 -30 -9 -11 0 -35 -14 -53 -31 -23 -21 -48 -33 -90 -40 -31 -6 -71 -15 -88 -20 -17 -5 -44 -9 -60 -9 -16 0 -53 -8 -81 -18 -57 -20 -167 -98 -158 -113 8 -12 -18 -12 -31 1 -7 7 -17 4 -30 -7 -32 -28 -66 -46 -94 -48 -14 -1 -41 -7 -60 -13 -19 -6 -66 -21 -105 -33 -64 -19 -182 -81 -196 -101 -3 -5 -21 -10 -40 -11 -48 -4 -86 -32 -100 -75 -19 -58 -70 -93 -123 -83 -5 1 -12 -2 -15 -6 -3 -4 -19 -15 -36 -24 -16 -10 -34 -26 -40 -38 -5 -12 -13 -21 -17 -21 -5 0 -8 -5 -8 -10 0 -13 -61 -69 -75 -70 -6 0 -37 -22 -70 -49 -33 -27 -63 -47 -67 -45 -5 3 -8 -1 -8 -7 0 -7 -21 -34 -48 -59 -26 -25 -57 -59 -70 -77 -12 -17 -49 -59 -82 -93 -34 -35 -60 -71 -60 -82 0 -12 -13 -34 -30 -50 -16 -15 -30 -30 -30 -33 0 -14 -46 -55 -62 -55 -10 0 -18 -4 -18 -10 0 -5 -8 -10 -18 -10 -20 0 -62 -42 -62 -63 0 -6 -18 -27 -40 -46 -22 -19 -40 -40 -40 -47 0 -8 -4 -14 -9 -14 -6 0 -9 -9 -8 -20 1 -11 5 -20 9 -20 4 0 7 -6 6 -12 -4 -16 -24 -38 -35 -38 -12 0 -61 -98 -69 -140 -3 -19 -17 -54 -30 -78 -13 -23 -24 -55 -24 -71 0 -16 -7 -34 -15 -41 -8 -7 -15 -18 -15 -25 0 -6 -8 -19 -18 -29 -11 -9 -24 -34 -31 -56 -6 -22 -16 -40 -20 -40 -5 0 -11 -13 -14 -29 -3 -16 -13 -35 -21 -44 -8 -8 -12 -17 -9 -21 4 -3 1 -6 -6 -6 -9 0 -12 -10 -9 -30 3 -16 1 -30 -4 -30 -11 0 2 -53 16 -62 8 -5 7 -8 -1 -8 -7 0 -13 -9 -13 -20 0 -11 -7 -23 -15 -26 -8 -4 -15 -16 -15 -29 0 -12 -7 -39 -15 -59 -15 -36 -45 -174 -45 -208 0 -32 29 -8 40 33 6 21 15 41 20 44 17 11 9 -39 -11 -70 -31 -50 -40 -78 -43 -130 -1 -28 -4 -55 -8 -60 -15 -25 -20 -91 -24 -283 -2 -114 -5 -226 -7 -250 -1 -24 1 -46 5 -48 5 -3 4 -13 -1 -22 -5 -9 -7 -35 -5 -57 8 -78 7 -91 -6 -164 -10 -57 -11 -78 -1 -92 7 -12 8 -26 3 -37 -5 -9 -10 -32 -10 -51 l-1 -34 15 29 c8 16 18 31 22 34 14 10 35 65 38 100 1 19 7 48 13 63 6 16 11 46 11 68 0 32 3 39 20 39 15 0 20 -7 20 -25 0 -14 -4 -25 -10 -25 -11 0 -14 -123 -3 -134 11 -10 12 -36 2 -36 -5 0 -8 -3 -8 -7 6 -34 -3 -73 -16 -73 -9 0 -12 -6 -9 -15 4 -9 0 -15 -9 -15 -9 0 -18 8 -20 18 -3 12 -5 11 -6 -6 0 -13 -5 -21 -10 -17 -10 6 -44 -57 -44 -81 0 -8 -6 -14 -12 -14 -8 0 -15 -23 -19 -57 -13 -110 -16 -126 -26 -162 -5 -20 -12 -51 -15 -70 -3 -19 -8 -38 -11 -42 -2 -4 0 -10 5 -13 24 -15 -21 -86 -54 -86 -41 0 17 -28 70 -34 14 -1 18 -51 6 -75 -12 -21 3 -80 23 -93 8 -6 8 -8 -1 -8 -6 0 -12 -19 -13 -47 -1 -27 -3 -69 -4 -95 -2 -46 6 -62 17 -35 3 6 6 2 6 -10 1 -13 -3 -23 -8 -23 -4 0 -11 -20 -15 -45 -7 -57 -22 -85 -44 -85 -18 0 -62 41 -62 58 0 5 -7 12 -15 16 -8 3 -15 11 -15 18 0 7 -15 24 -32 38 -18 14 -44 37 -58 51 -26 27 -49 39 -90 46 -48 9 -67 5 -93 -19 -24 -23 -27 -32 -27 -94 0 -83 20 -176 36 -170 7 3 14 -8 16 -25 3 -17 0 -29 -6 -29 -8 0 -8 -3 -1 -8 6 -4 11 -16 10 -27 0 -11 4 -23 9 -27 6 -4 11 -37 12 -75 4 -86 33 -225 51 -236 7 -4 13 -15 13 -22 0 -8 3 -14 8 -14 23 4 32 -4 32 -27 0 -19 4 -25 14 -21 10 4 16 -2 19 -16 3 -12 5 1 5 28 0 88 3 130 9 116 8 -20 43 85 50 152 3 32 10 60 14 63 5 3 9 30 9 60 0 30 4 54 9 54 5 0 11 15 15 33 3 17 8 39 10 47 3 8 5 17 5 19 3 14 41 -42 41 -59 0 -11 6 -20 13 -20 6 0 18 -13 25 -29 8 -18 18 -28 27 -25 9 4 15 -4 17 -23 3 -24 7 -28 31 -26 26 2 38 -12 16 -19 -14 -5 0 -38 17 -38 8 0 14 -4 14 -10 0 -5 7 -10 15 -10 8 0 15 9 15 19 0 31 -11 51 -24 44 -6 -3 -6 -1 2 8 6 7 12 22 11 34 0 11 -3 14 -6 8 -7 -19 -19 -15 -19 6 0 17 7 19 47 17 47 -2 47 -1 59 39 7 22 16 50 21 63 l9 23 21 -20 c14 -13 20 -27 16 -40 -3 -12 -1 -19 3 -16 10 6 23 -13 27 -40 2 -10 10 -30 18 -42 11 -16 12 -23 4 -23 -8 0 -6 -7 4 -18 10 -10 17 -26 17 -35 0 -23 -22 -70 -40 -84 -13 -11 -13 -14 0 -24 12 -8 9 -9 -14 -4 -23 5 -27 3 -23 -9 4 -10 1 -16 -8 -16 -8 0 -15 9 -15 19 0 25 -34 17 -70 -16 -14 -13 -28 -23 -32 -23 -5 0 -8 -7 -8 -15 0 -8 -6 -15 -12 -15 -7 0 -22 -14 -34 -31 -17 -24 -20 -37 -14 -71 4 -22 14 -44 21 -49 11 -7 11 -9 -2 -9 -11 0 -18 -19 -27 -72 -11 -67 -12 -171 -2 -182 3 -2 23 -7 44 -11 28 -6 37 -5 32 4 -7 10 7 15 41 14 7 0 15 12 18 28 6 28 35 46 55 34 5 -3 10 2 11 12 1 13 3 11 9 -7 7 -23 8 -23 9 -4 1 15 10 24 28 29 15 3 35 16 46 28 10 12 29 34 43 49 13 15 24 39 24 53 0 14 4 25 9 25 13 0 39 -54 47 -96 3 -19 10 -37 15 -40 5 -3 9 -23 9 -45 0 -26 4 -39 14 -39 8 0 16 -15 19 -37 4 -21 16 -56 27 -78 11 -21 20 -50 20 -62 0 -13 5 -23 10 -23 6 0 10 -7 10 -16 0 -8 6 -22 14 -30 17 -16 30 -19 21 -4 -3 6 0 10 8 10 17 0 27 62 33 193 2 58 0 87 -7 87 -7 0 -9 13 -4 36 4 26 2 39 -7 45 -8 6 -9 12 -3 17 6 4 11 77 12 172 3 207 6 250 16 250 4 0 5 11 3 24 -2 14 1 27 7 30 9 3 9 5 0 5 -13 1 -5 41 8 41 5 0 9 16 9 36 0 21 -4 33 -10 29 -14 -9 -12 29 2 43 7 7 9 12 6 12 -4 0 2 17 12 37 13 26 17 54 14 97 -2 34 3 95 11 136 8 41 17 108 19 149 3 41 9 77 14 80 13 9 24 60 26 117 1 34 7 59 19 71 9 11 17 27 17 36 0 9 6 17 13 17 7 0 13 15 13 36 1 20 7 40 14 44 7 4 10 17 7 29 -3 12 -1 21 5 21 5 0 6 5 3 11 -10 16 -8 78 3 92 19 25 31 76 19 81 -7 2 -4 5 5 5 13 1 17 7 14 24 -3 12 -5 28 -5 36 -1 11 -4 11 -14 -3 -12 -17 -14 -17 -27 -1 -12 15 -12 18 2 26 10 6 14 17 10 35 -3 19 -1 25 7 20 6 -4 11 -1 11 8 0 9 6 16 14 16 9 0 12 7 9 20 -3 11 -11 20 -19 20 -8 0 -11 -6 -7 -17 4 -11 3 -14 -5 -9 -12 7 -56 -17 -47 -26 3 -3 -1 -11 -10 -18 -13 -10 -15 -9 -15 8 0 12 8 27 18 34 19 14 42 72 42 105 0 11 7 26 15 33 12 10 13 16 4 24 -8 8 -13 8 -16 -1 -7 -20 -29 -15 -30 6 -1 14 3 18 13 14 10 -4 14 3 14 23 0 23 2 26 10 14 6 -9 10 -10 10 -3 0 7 -7 16 -16 21 -15 8 -14 13 11 46 26 35 21 51 -7 22 -8 -7 -29 -21 -47 -30 l-32 -17 17 25 c9 14 21 26 26 26 5 0 6 4 3 10 -3 5 4 15 17 21 38 17 60 56 62 110 2 27 -1 49 -6 49 -4 0 -8 -7 -8 -15 0 -8 -7 -15 -16 -15 -13 0 -15 7 -11 29 4 19 2 31 -6 34 -7 2 3 18 25 39 21 19 40 33 43 30 3 -3 5 7 5 22 0 15 4 25 9 21 6 -3 13 10 17 30 3 19 10 38 15 41 5 3 9 13 9 22 0 13 -2 14 -9 4 -10 -16 -21 -18 -30 -5 -3 5 -17 17 -30 26 l-24 16 26 12 c36 16 34 27 -4 23 -18 -2 -28 0 -24 6 3 6 17 10 31 10 14 0 22 4 19 10 -3 6 -1 10 6 10 8 0 6 6 -4 18 -24 26 -22 29 23 36 30 5 38 10 33 22 -7 19 -53 10 -66 -12 -4 -8 -14 -14 -21 -14 -7 0 -26 -13 -42 -29 -33 -33 -62 -30 -38 3 8 11 14 16 14 11 0 -4 9 3 20 16 11 13 25 30 30 37 13 15 10 64 -5 74 -13 10 24 43 57 51 28 7 93 91 83 108 -8 12 -35 12 -35 -1 0 -5 -13 -10 -30 -10 -16 0 -30 -4 -30 -10 0 -11 -36 -50 -46 -50 -8 0 -28 -21 -48 -52 -18 -28 -46 -38 -46 -17 0 11 95 108 174 177 28 24 42 42 33 42 -8 0 -17 6 -19 12 -3 9 -11 8 -31 -5 -14 -9 -29 -13 -32 -8 -3 5 -1 12 5 16 6 4 5 13 -3 26 -10 17 -9 22 6 30 9 6 15 14 12 19 -3 4 2 10 10 14 8 3 15 13 15 23 0 11 -25 -9 -70 -56 -38 -41 -70 -76 -70 -80 -1 -15 -78 -93 -89 -90 -8 3 5 24 33 53 25 26 44 51 41 56 -3 5 3 11 14 15 11 3 26 16 34 28 8 12 28 36 43 54 16 17 38 44 49 59 11 15 28 35 37 43 9 8 15 18 12 23 -3 4 0 8 6 8 7 0 10 13 8 33 -3 30 -6 32 -43 35 l-40 4 35 16 c19 10 39 26 44 38 5 11 22 28 38 37 30 17 37 37 13 37 -8 0 -15 9 -15 20 0 11 5 20 10 20 6 0 10 5 10 10 0 6 -9 10 -19 10 -11 0 -23 4 -26 10 -3 5 0 7 8 4 18 -7 54 67 61 128 l6 47 -28 -12 c-15 -6 -31 -17 -35 -25 -5 -7 -38 -43 -74 -80 -36 -37 -75 -85 -87 -107 l-21 -40 -5 34 c-3 19 -11 36 -19 39 -8 3 -11 0 -7 -6 7 -11 -15 -52 -44 -82 -29 -30 -105 -123 -114 -139 -5 -8 -18 -24 -28 -35 -15 -17 -18 -17 -23 -3 -6 15 1 27 60 89 17 18 29 36 28 40 -2 4 14 24 35 45 34 36 48 56 76 108 14 25 49 30 42 6 -3 -9 -2 -22 3 -30 6 -9 9 -5 9 15 0 15 7 33 16 39 9 7 16 16 16 22 0 16 116 113 136 113 3 0 17 9 31 20 14 11 29 17 34 14 5 -3 8 -2 7 3 -11 37 76 143 119 143 27 0 28 3 7 35 -15 23 -15 25 15 43 23 14 28 21 19 30 -9 9 -6 12 15 12 18 0 27 5 27 15 0 9 7 18 15 21 8 4 15 14 15 23 0 10 11 24 25 31 15 8 25 22 25 36 0 13 11 29 28 40 15 9 34 26 43 36 9 10 21 18 28 18 6 0 11 7 11 16 0 8 5 12 10 9 6 -3 10 1 10 9 0 9 5 16 11 16 13 0 39 25 39 39 0 15 45 61 61 61 11 0 11 2 -1 10 -17 10 -13 17 15 22 11 1 31 15 44 31 13 15 30 27 36 27 7 0 16 11 19 25 4 14 11 25 17 25 6 0 7 5 4 10 -3 6 4 10 15 10 16 0 20 5 16 15 -4 10 1 15 15 15 11 0 17 5 14 10 -4 6 -3 9 2 8 15 -4 73 21 73 32 0 6 5 8 13 4 9 -6 9 -5 0 8 -11 13 -7 18 27 34 23 11 39 25 37 34 -1 8 4 14 11 12 6 -1 12 2 12 7 0 8 32 22 55 25 6 1 13 5 17 10 3 5 20 9 38 8 18 0 29 2 26 5 -3 4 3 12 14 20 11 8 20 20 20 26 0 7 11 17 25 24 14 6 25 7 25 3 0 -11 43 1 53 14 5 8 10 6 17 -4 6 -9 10 -10 10 -3 0 6 10 15 23 19 12 4 25 12 30 18 5 8 10 6 17 -4 8 -12 10 -11 10 8 0 12 5 22 12 22 6 0 20 7 30 17 17 15 18 15 18 0 0 -10 5 -17 10 -17 6 0 10 9 10 19 0 14 5 18 18 14 10 -2 24 3 31 11 8 9 26 16 41 16 16 0 30 7 34 15 3 8 12 15 21 15 8 0 15 4 15 9 0 5 18 12 40 16 22 4 38 11 34 16 -3 5 17 9 45 9 45 0 52 3 65 29 10 18 12 31 5 38 -6 6 -5 14 6 23 20 16 28 8 28 -29 0 -20 6 -31 18 -34 10 -3 20 0 22 6 2 7 30 11 70 11 40 0 68 4 71 11 2 6 19 10 37 9 19 -1 37 3 41 9 5 8 8 8 8 1 0 -8 10 -8 35 0 22 7 35 17 35 28 0 9 5 20 12 24 7 4 8 3 4 -4 -11 -17 9 -15 24 3 7 8 20 15 30 15 9 0 22 10 29 23 15 27 92 65 146 71 22 3 32 3 22 0 -9 -3 -15 -9 -13 -13 3 -4 -14 -8 -36 -10 -54 -3 -65 -11 -42 -29 16 -13 17 -14 2 -9 -10 4 -18 2 -18 -3 0 -6 9 -10 20 -10 11 0 20 -4 20 -10 0 -5 12 -10 28 -10 21 0 24 -2 12 -10 -8 -5 -10 -10 -4 -10 12 0 34 20 34 32 0 4 -11 8 -25 8 -40 0 -29 26 18 40 23 7 45 17 48 22 4 7 13 7 25 0 22 -11 93 -7 144 8 161 46 189 50 155 24 l-20 -16 20 2 c11 1 38 1 60 0 39 -2 39 -3 10 -10 -28 -7 -29 -8 -5 -10 14 -1 51 -1 82 0 38 1 65 -4 80 -14 12 -9 34 -16 48 -16 14 0 34 -7 44 -15 11 -8 37 -15 58 -15 21 0 38 -4 38 -10 0 -5 7 -10 15 -10 8 0 15 7 15 16 0 8 5 12 10 9 6 -4 8 -11 5 -16 -4 -5 -1 -9 4 -9 6 0 11 10 12 23 0 14 3 17 6 7 7 -16 25 -36 33 -37 37 -2 101 -16 105 -24 10 -15 25 -10 25 7 0 14 3 14 15 4 9 -7 13 -21 10 -31 -5 -16 -1 -19 22 -19 15 0 39 3 52 7 23 6 23 7 5 14 -18 7 -17 8 4 8 17 1 22 -5 22 -24 0 -14 7 -28 15 -31 8 -4 15 -12 15 -18 0 -8 12 -11 36 -8 26 3 39 -1 49 -14 8 -11 15 -14 15 -8 0 5 -4 14 -9 20 -13 14 -23 76 -11 69 6 -3 10 -17 10 -31 0 -20 5 -24 29 -24 29 0 57 -21 44 -34 -4 -4 0 -4 10 0 10 3 17 1 17 -5 0 -6 7 -11 15 -11 9 0 12 -6 9 -15 -5 -13 3 -15 45 -12 53 3 59 -1 39 -21 -9 -9 -8 -12 5 -12 9 0 17 -5 17 -11 0 -6 8 -8 18 -5 12 4 26 -3 40 -19 15 -17 32 -25 54 -25 25 0 29 -3 18 -10 -13 -8 -12 -10 3 -10 9 0 17 -6 17 -14 0 -9 7 -12 19 -9 10 3 30 -3 44 -12 14 -9 30 -16 34 -15 4 0 31 -17 60 -40 28 -22 57 -40 63 -40 10 0 39 -19 104 -70 10 -8 33 -28 49 -43 17 -15 37 -25 44 -23 7 3 13 -1 13 -10 0 -8 10 -18 23 -23 13 -5 43 -30 67 -55 24 -25 46 -43 50 -41 4 2 19 -11 35 -30 15 -19 31 -32 36 -29 5 3 9 -2 9 -10 0 -9 5 -16 10 -16 13 0 70 -57 70 -70 0 -5 8 -14 19 -19 10 -6 46 -36 79 -68 33 -32 67 -63 74 -69 7 -7 24 -26 38 -44 14 -18 35 -43 48 -56 12 -13 22 -26 22 -29 0 -12 28 -34 34 -28 3 4 6 -3 6 -14 0 -12 7 -23 15 -27 8 -3 15 -12 15 -21 0 -8 5 -15 10 -15 6 0 14 -8 17 -17 4 -10 21 -34 39 -53 18 -19 36 -45 39 -58 3 -14 11 -30 18 -38 31 -35 74 -95 77 -109 3 -12 32 -58 41 -65 13 -11 29 -50 29 -72 0 -13 4 -28 9 -33 16 -17 51 -85 51 -99 0 -7 7 -19 15 -26 9 -7 14 -19 11 -27 -3 -8 1 -16 10 -20 9 -3 14 -13 11 -23 -3 -10 7 -26 24 -39 20 -16 29 -32 29 -52 0 -15 5 -31 10 -34 6 -3 10 -24 10 -46 0 -22 4 -38 9 -35 5 4 12 -7 16 -24 4 -16 10 -30 14 -30 4 0 7 -17 8 -37 1 -49 34 -143 51 -143 14 0 16 -48 3 -69 -6 -9 -6 -22 0 -33 7 -14 6 -18 -6 -18 -8 0 -15 -4 -15 -10 0 -5 9 -10 20 -10 13 0 20 -7 20 -19 0 -11 9 -23 20 -26 17 -6 20 -16 21 -78 1 -54 3 -65 9 -42 6 23 8 25 9 8 0 -12 5 -24 10 -27 12 -8 23 -89 23 -161 -1 -69 14 -138 28 -130 6 4 10 2 10 -4 0 -5 3 -18 6 -28 5 -15 4 -15 -5 -3 -16 22 -14 -100 2 -125 15 -24 15 -43 -1 -72 -8 -14 -13 -64 -13 -128 0 -61 -5 -107 -11 -111 -7 -4 -6 -9 3 -15 8 -5 17 -3 21 4 4 7 7 -10 7 -38 -2 -47 -2 -48 -9 -15 l-7 35 -2 -42 c0 -23 -6 -43 -12 -45 -7 -2 -11 -31 -11 -77 1 -44 -5 -89 -15 -112 -8 -21 -13 -45 -10 -53 9 -22 -15 -139 -25 -124 -4 8 -8 -9 -8 -40 0 -29 4 -51 9 -48 4 3 8 -13 8 -35 0 -27 -3 -36 -9 -27 -10 16 -4 -164 16 -462 39 -595 41 -954 6 -1020 -5 -10 -11 -44 -12 -77 -3 -56 -2 -58 21 -55 31 3 33 5 34 39 1 15 5 30 9 33 19 15 58 349 58 500 0 79 3 110 10 100 8 -12 10 -9 10 13 0 17 5 27 15 27 8 0 15 9 15 20 0 11 10 25 23 31 16 7 22 19 23 43 0 17 4 40 7 51 7 17 8 17 22 -1 8 -10 15 -28 16 -39 1 -17 2 -17 6 -2 2 9 11 17 19 17 9 0 14 11 14 29 0 17 5 33 10 36 6 3 10 17 10 31 0 13 5 24 12 24 6 0 9 3 5 6 -3 3 2 14 11 25 9 11 18 24 18 29 1 6 2 12 3 15 0 3 11 1 22 -6 21 -11 22 -10 17 40 -4 36 -2 51 7 51 8 0 10 9 7 25 -2 14 -8 25 -13 25 -5 0 -9 8 -10 18 0 10 -3 12 -6 5 -2 -7 -9 -13 -15 -13 -6 0 -8 6 -5 14 5 12 -8 65 -20 85 -4 6 -33 -27 -33 -39 0 -6 -4 -8 -10 -5 -5 3 -10 -1 -10 -9 0 -9 -4 -16 -10 -16 -5 0 -10 7 -10 15 0 23 -30 18 -39 -7 -7 -19 2 -125 9 -108 10 25 9 65 -2 71 -9 6 -7 9 7 9 17 0 20 -7 22 -45 2 -39 -1 -45 -17 -45 -11 0 -20 -3 -19 -7 1 -5 -2 -19 -6 -31 -5 -17 -10 -20 -15 -11 -6 9 -15 4 -33 -15 -19 -20 -32 -26 -46 -21 -19 6 -21 14 -21 86 0 46 4 79 10 79 6 0 10 -7 10 -15 0 -8 6 -12 13 -10 7 3 12 25 13 53 1 26 4 67 7 92 3 25 6 51 6 58 1 7 6 10 11 7 6 -4 10 7 10 24 0 17 -4 31 -10 31 -5 0 -10 -4 -10 -10 0 -18 -19 -11 -20 8 -3 31 1 151 5 169 2 10 9 34 14 53 14 44 14 137 1 145 -13 8 -13 81 0 106 9 15 7 21 -6 26 -9 3 -20 0 -24 -8 -10 -16 -6 194 5 233 4 16 4 36 0 45 -7 17 -8 16 -16 -2 -8 -17 -9 -16 -4 5 2 14 5 45 5 70 0 32 3 41 10 30 8 -12 10 -12 14 3 4 9 9 25 12 35 4 9 8 30 10 46 2 16 11 37 19 46 8 8 14 24 13 35 -1 11 1 38 4 60 3 22 3 32 1 22 -5 -18 -24 -20 -25 -2 -2 20 -32 34 -52 23 -41 -22 -56 42 -26 110 27 59 48 31 41 -55 -1 -17 3 -20 19 -16 15 4 20 14 20 39 0 47 16 43 24 -6 5 -29 10 -38 21 -34 10 4 15 0 15 -11 0 -10 -5 -13 -12 -9 -8 5 -9 -2 -5 -26 5 -21 2 -38 -5 -48 -11 -13 -10 -14 9 -4 32 17 35 15 28 -16 -5 -23 -2 -28 13 -28 14 0 18 6 15 21 -2 11 -1 14 3 8 3 -7 14 -13 25 -13 10 0 19 -6 19 -14 0 -13 50 -29 60 -19 3 2 5 27 6 55 0 32 -2 44 -8 34 -7 -13 -12 -13 -44 0 -20 8 -42 13 -48 11 -12 -5 -16 30 -5 48 4 6 7 25 7 43 0 18 6 40 12 47 8 10 8 19 1 34 -9 16 -8 22 6 30 17 9 17 11 -1 30 -12 13 -16 28 -13 43 4 12 1 28 -5 35 -8 9 -7 13 2 13 12 0 11 11 -4 90 -2 8 -8 15 -14 14 -7 -1 -18 -2 -26 -2 -10 -2 -15 -16 -15 -44 -1 -46 -29 -158 -30 -121 -1 12 -5 24 -10 27 -5 3 -11 15 -14 26 -3 11 -1 18 4 14 15 -9 10 66 -6 82 -13 13 -15 12 -21 -10 -3 -13 -12 -27 -19 -30 -8 -3 -17 -26 -21 -53 -6 -41 -8 -44 -15 -24 -11 29 -9 140 2 147 5 3 9 15 9 27 0 18 -2 19 -10 7 -5 -8 -10 -10 -10 -4 0 6 8 18 18 27 16 15 20 15 40 1 12 -8 20 -19 17 -24 -3 -5 4 -11 14 -15 12 -4 18 -12 14 -21 -3 -7 -1 -14 5 -14 6 0 12 4 14 10 2 5 15 11 31 12 26 2 27 5 27 57 0 36 5 60 16 73 10 10 17 35 17 60 0 24 5 46 11 51 8 5 8 9 0 15 -10 6 -17 35 -29 135 -3 21 -10 47 -16 58 -5 11 -16 56 -24 101 -13 69 -46 162 -64 178 -6 5 -35 64 -65 132 -9 20 -21 40 -26 43 -6 4 -8 10 -5 15 3 5 -4 26 -15 47 -11 21 -20 48 -20 60 0 12 -5 23 -10 25 -6 2 -12 13 -13 26 0 12 -7 22 -15 22 -7 0 -10 5 -7 10 3 6 2 10 -4 10 -5 0 -12 13 -16 29 -3 16 -13 35 -21 42 -8 6 -14 18 -14 25 0 8 -6 14 -14 14 -7 0 -16 9 -19 21 -3 11 -15 23 -26 26 -26 7 -55 49 -38 56 7 4 6 6 -4 6 -16 1 -59 33 -59 44 0 4 8 3 17 0 17 -6 16 -5 -1 22 -10 16 -29 38 -42 50 -12 11 -26 33 -29 48 -4 15 -11 30 -16 33 -5 3 -9 12 -9 20 0 21 -38 98 -60 122 -11 12 -20 26 -20 32 0 5 -6 10 -13 10 -7 0 -21 13 -30 29 -22 38 -92 111 -106 111 -6 0 -11 5 -11 10 0 6 -6 10 -13 10 -7 0 -21 16 -31 35 -11 19 -23 35 -28 35 -4 0 -8 6 -9 13 0 6 -14 23 -30 37 -16 14 -69 64 -117 111 -51 50 -99 89 -117 93 -22 6 -26 9 -14 17 11 7 11 9 -4 9 -9 0 -22 11 -28 24 -11 24 -26 33 -87 57 -19 6 -46 25 -62 41 -16 15 -38 28 -49 28 -11 0 -23 5 -26 10 -3 6 -35 10 -70 10 -68 0 -75 5 -75 61 0 19 -6 32 -17 36 -10 4 -27 15 -37 25 -11 10 -25 19 -30 19 -35 5 -44 6 -68 8 -16 0 -28 6 -28 12 0 14 -25 39 -39 39 -6 0 -11 5 -11 10 0 6 -9 10 -20 10 -11 0 -20 -4 -20 -10 0 -11 -39 -13 -64 -4 -8 3 -12 12 -9 21 4 11 2 14 -5 9 -7 -4 -12 -1 -12 8 0 9 -4 15 -9 14 -10 -3 -61 49 -54 55 2 3 -7 14 -21 25 -15 11 -26 25 -26 31 0 6 -8 11 -17 11 -10 0 -28 11 -41 24 -19 21 -29 23 -62 16 -5 -1 31 -24 40 -25 4 -1 59 -26 68 -31 1 0 0 -8 -3 -17 -7 -18 -26 -17 -50 3 -15 13 -19 12 -34 -7 -16 -20 -19 -20 -48 -4 -16 9 -28 22 -26 29 3 7 -4 12 -16 12 -14 0 -21 6 -21 18 0 15 -7 18 -37 17 -21 0 -50 5 -65 13 -16 7 -37 10 -49 7 -18 -6 -19 -5 -10 13 7 14 8 23 1 27 -6 3 -13 0 -16 -9 -6 -17 -37 -10 -31 8 5 16 -18 36 -42 36 -12 0 -21 6 -21 14 0 8 -6 17 -12 19 -7 3 5 6 27 7 31 1 36 3 20 10 -11 4 -40 6 -64 2 -27 -3 -42 -1 -38 4 3 6 -4 11 -15 11 -12 1 -24 7 -28 13 -4 7 -10 11 -14 11 -26 -4 -46 1 -41 9 4 6 -15 10 -49 10 -33 0 -56 4 -56 11 0 5 -4 8 -9 5 -5 -4 -11 0 -14 6 -5 16 -147 14 -157 -1 -6 -10 -72 7 -86 22 -11 11 -62 8 -69 -4 -19 -29 -85 -32 -85 -3 0 8 -4 14 -10 14 -5 0 -10 -5 -10 -10 0 -16 -47 -30 -80 -24 -16 4 -30 13 -30 20 0 8 -3 14 -7 15 -5 0 -27 2 -51 5 -42 4 -43 3 -40 -23 2 -22 -1 -28 -17 -30 -11 -1 -13 0 -5 3 10 3 15 16 14 39 -1 25 2 32 12 28 8 -3 14 -1 14 5 0 14 -39 22 -46 10 -6 -10 -42 -7 -107 8 -23 5 -29 3 -34 -15z" style="fill: rgba(177, 3, 3, 0.68);"/>
    <path d="M5140 12407 c-14 -6 -28 -16 -32 -21 -4 -6 -10 -3 -14 7 -3 9 -11 17 -16 17 -6 0 -7 -7 -4 -15 5 -13 0 -15 -27 -10 -25 5 -40 0 -66 -19 -19 -15 -39 -26 -43 -26 -5 0 -14 -5 -21 -10 -14 -12 -127 -80 -133 -80 -3 0 2 10 11 23 26 41 5 37 -39 -6 -22 -23 -48 -40 -58 -39 -9 2 -19 -2 -23 -9 -5 -8 -1 -9 14 -4 12 4 21 2 21 -4 0 -6 -4 -11 -10 -11 -5 0 -10 -7 -10 -15 0 -17 -16 -20 -25 -5 -6 11 -55 -8 -55 -21 0 -5 -17 -20 -38 -34 -32 -21 -43 -23 -70 -16 -25 8 -32 7 -32 -5 0 -8 -4 -14 -10 -14 -5 0 -10 -6 -10 -13 0 -7 -9 -21 -21 -30 -11 -10 -18 -25 -15 -32 3 -8 0 -17 -6 -21 -6 -4 -8 -3 -4 4 3 6 2 13 -3 16 -5 3 -11 -4 -14 -15 -3 -11 -15 -23 -26 -26 -19 -5 -22 -10 -21 -29 1 -6 -50 -53 -76 -71 -18 -12 -18 -13 1 -10 14 1 20 -4 20 -18 0 -11 8 -21 17 -23 19 -4 48 19 48 36 0 6 6 13 13 15 7 3 5 6 -5 6 -10 1 -18 -3 -18 -9 0 -5 -7 -7 -16 -3 -13 5 -13 7 -2 14 7 5 9 9 5 9 -4 0 4 11 19 25 31 29 57 33 47 8 -4 -10 -2 -14 5 -9 6 3 16 -3 22 -14 9 -17 8 -20 -10 -20 -11 0 -20 -6 -20 -13 0 -6 -16 -26 -36 -42 -20 -17 -44 -37 -52 -45 -12 -11 -16 -12 -20 -2 -2 6 -8 12 -13 12 -6 0 -8 -4 -5 -9 3 -5 -4 -11 -17 -15 -38 -10 -47 -7 -47 17 0 22 0 22 -20 -3 -11 -14 -20 -20 -20 -15 0 11 -20 -15 -20 -27 0 -4 14 -5 30 -1 35 6 40 -10 12 -36 -22 -19 -26 -81 -5 -81 7 0 13 8 13 18 0 21 34 52 56 52 13 0 14 3 5 14 -11 13 -10 14 45 7 7 0 14 -8 18 -16 4 -12 0 -14 -21 -9 -19 5 -24 4 -18 -5 7 -13 -24 -43 -36 -35 -4 2 -10 -3 -13 -11 -6 -16 -53 -39 -73 -36 -6 1 -15 -4 -19 -10 -5 -9 -2 -10 9 -6 13 5 17 1 17 -18 0 -18 -4 -23 -15 -19 -8 4 -15 1 -15 -6 0 -8 8 -10 23 -5 12 4 30 7 40 8 9 1 17 7 17 13 0 9 17 11 58 7 59 -6 108 9 97 28 -4 5 1 9 9 9 9 0 16 4 16 9 0 15 -18 23 -25 11 -8 -13 -45 -13 -45 -1 0 24 36 28 165 17 33 -3 67 -6 75 -6 8 -1 2 -7 -15 -15 -16 -7 -26 -14 -22 -14 17 -2 -15 -41 -33 -41 -11 0 -20 -6 -20 -14 0 -8 -13 -17 -30 -21 -16 -4 -29 -10 -29 -13 5 -33 -2 -41 -27 -32 -39 15 -85 -16 -52 -36 8 -5 6 -11 -6 -20 -10 -7 -17 -15 -17 -18 3 -27 -2 -36 -20 -36 -11 0 -18 -4 -14 -9 3 -5 -5 -11 -17 -13 -38 -5 -34 -28 5 -28 52 0 137 22 130 33 -3 5 8 2 26 -9 37 -22 40 -33 6 -26 -17 3 -27 -1 -31 -12 -3 -9 -14 -16 -24 -16 -10 0 -22 -9 -25 -20 -3 -11 -13 -20 -21 -20 -8 0 -14 -9 -14 -20 0 -15 7 -20 25 -20 16 0 25 6 25 15 0 8 9 15 19 15 15 0 18 5 13 22 -4 18 -2 20 17 15 24 -6 61 18 61 40 0 6 5 15 12 19 7 4 8 3 4 -4 -4 -7 -3 -12 3 -12 5 0 12 4 16 10 3 5 12 7 19 4 8 -3 17 -1 21 5 3 6 23 11 43 11 28 0 33 3 22 10 -12 8 -9 10 12 10 15 0 29 -4 32 -9 9 -14 56 0 57 18 0 10 2 11 6 4 2 -7 21 -13 41 -13 30 1 34 2 19 11 -9 6 -15 15 -12 20 4 5 10 7 15 4 4 -3 10 2 14 10 3 8 18 15 33 16 25 0 26 1 8 9 -18 8 -17 9 8 9 15 1 27 -3 27 -8 0 -6 8 -9 18 -9 9 1 27 -2 40 -6 13 -5 22 -3 22 3 0 6 -6 11 -14 11 -9 0 -12 7 -9 20 6 22 -12 28 -20 8 -3 -7 -6 -3 -6 10 -1 12 5 22 12 22 8 0 7 4 -3 10 -13 9 -13 11 0 20 11 7 16 5 18 -5 2 -8 8 -15 13 -15 5 0 8 4 6 9 -2 11 1 11 51 10 20 0 32 -3 25 -5 -11 -5 2 -24 65 -91 12 -13 22 -27 22 -31 0 -4 15 -13 33 -20 17 -7 47 -20 65 -28 37 -16 118 -19 127 -4 3 6 21 10 38 10 45 0 104 44 147 109 8 13 20 29 27 36 7 7 15 43 19 79 4 43 14 76 26 91 21 27 41 34 32 11 -4 -10 2 -16 18 -18 13 -2 22 -9 20 -16 -1 -7 9 -17 22 -22 15 -5 27 -20 31 -39 3 -16 14 -32 23 -34 15 -4 15 -5 0 -6 -10 0 -18 -8 -18 -16 0 -9 6 -12 15 -9 12 5 15 -4 15 -44 0 -43 -3 -51 -22 -56 l-23 -7 23 -9 c12 -5 22 -14 22 -21 0 -6 6 -9 14 -6 10 4 12 0 8 -16 -5 -20 -4 -20 11 -8 10 8 24 10 34 5 26 -11 37 -11 50 -2 6 5 28 6 48 2 26 -5 40 -3 45 7 6 9 30 12 84 11 73 -3 76 -2 88 23 9 19 9 28 0 37 -18 18 -15 28 8 28 11 0 20 -4 20 -10 0 -5 10 -10 23 -11 21 -1 21 -1 -3 -9 -21 -7 -19 -8 18 -9 23 -1 42 -5 42 -9 0 -5 8 -9 18 -9 50 1 72 -4 72 -16 0 -16 42 -57 58 -57 7 0 11 3 10 8 -2 4 8 29 21 55 17 34 26 45 32 36 15 -26 20 0 21 110 0 90 -3 115 -16 130 -20 22 -20 30 1 53 15 17 15 18 -3 19 -15 0 -13 3 7 10 25 9 26 12 26 97 0 52 -3 79 -8 67 -7 -17 -8 -16 -8 8 -1 29 -21 38 -22 10 0 -15 -2 -15 -8 2 -5 11 -6 24 -4 28 7 13 -27 78 -38 72 -5 -4 -9 1 -9 10 0 8 -11 21 -25 27 -17 8 -24 17 -20 28 4 11 -1 20 -12 24 -10 3 -24 9 -32 12 -10 5 -11 1 -6 -17 7 -23 7 -23 -19 4 -31 33 -84 57 -126 57 -17 0 -29 4 -26 9 7 11 -36 23 -66 18 -13 -2 -17 -2 -10 0 7 3 9 9 6 15 -4 6 0 14 7 19 7 4 10 11 7 15 -4 3 -15 -1 -24 -10 -9 -10 -23 -15 -31 -12 -8 3 -17 6 -19 6 -2 0 -4 6 -4 13 0 8 -14 11 -45 9 -59 -5 -82 3 -65 23 10 13 9 15 -11 16 -13 1 -27 1 -31 0 -5 0 -8 8 -8 19 0 22 -35 28 -43 8 -4 -10 -6 -10 -6 -1 -1 7 -7 10 -14 7 -7 -2 -21 4 -31 15 -16 18 -21 18 -40 6 -11 -7 -42 -17 -68 -20 -27 -4 -48 -11 -48 -15 0 -4 -16 -11 -36 -14 -19 -4 -43 -10 -52 -13 -15 -6 -14 -4 2 15 10 12 21 21 25 20 27 -3 41 5 41 23 0 18 -2 19 -15 9 -8 -7 -15 -9 -15 -5 0 5 -8 1 -17 -7 -10 -8 -35 -22 -55 -32 -20 -9 -40 -21 -43 -26 -8 -13 -112 -13 -120 0 -3 6 4 10 17 10 18 0 20 2 8 10 -8 5 -10 10 -4 10 7 0 14 6 17 14 5 11 0 13 -23 6 -16 -4 -31 -6 -33 -3 -3 2 -11 6 -19 7 -7 2 -22 7 -32 11 -13 6 -21 4 -24 -3 -2 -8 -8 -7 -19 3 -18 18 -33 19 -33 2 0 -15 -118 -131 -142 -140 -10 -4 -18 -11 -18 -17 0 -14 -27 -13 -36 2 -4 7 -3 8 4 4 8 -5 12 0 12 13 0 14 6 21 19 21 10 0 22 7 25 16 4 9 9 14 13 11 3 -4 35 22 69 58 35 35 72 69 81 74 26 15 -4 13 -37 -2z" style="fill: rgba(177, 3, 3, 0.68);"/>
    <path d="M8426 12214 c6 -25 5 -27 -17 -20 -13 4 -48 9 -78 12 -29 3 -65 10 -78 15 -33 12 -56 11 -48 -2 4 -6 13 -8 20 -5 7 2 16 -2 19 -10 3 -8 -1 -14 -9 -14 -9 0 -12 -6 -9 -15 5 -11 -1 -15 -25 -15 -24 0 -31 4 -31 20 0 11 -4 20 -10 20 -5 0 -10 -9 -10 -19 0 -12 -7 -20 -17 -20 -10 -1 -31 -3 -48 -5 -16 -3 -33 -5 -37 -5 -5 -1 -8 -8 -8 -16 0 -8 -8 -15 -19 -15 -14 0 -17 6 -13 26 3 19 1 25 -7 20 -6 -4 -9 -12 -6 -17 9 -14 -79 -11 -93 3 -9 9 -12 8 -12 -5 0 -20 -16 -23 -24 -4 -3 8 -11 5 -25 -11 -21 -24 -36 -24 -103 -6 -10 3 -18 1 -18 -5 0 -6 7 -11 15 -11 8 0 15 -5 15 -11 0 -8 -12 -9 -37 -4 -74 14 -172 3 -141 -16 9 -6 7 -9 -9 -9 -13 0 -23 -4 -23 -10 0 -5 -15 -17 -32 -26 -18 -9 -35 -20 -38 -24 -3 -4 -14 -12 -25 -18 -17 -10 -12 -11 25 -6 l45 6 -25 -21 c-14 -11 -28 -21 -32 -21 -5 0 -8 -6 -8 -14 0 -11 -13 -13 -58 -10 -47 3 -59 0 -59 -11 0 -8 7 -15 15 -15 8 0 21 -8 28 -17 12 -15 15 -16 23 -3 8 12 13 12 35 0 14 -7 26 -17 26 -22 0 -12 -24 -10 -38 4 -16 16 -25 4 -17 -21 5 -16 13 -20 36 -17 21 2 32 -1 36 -12 5 -12 8 -12 20 4 13 18 14 17 11 -11 -3 -26 -7 -30 -33 -28 -16 1 -22 -1 -12 -3 25 -8 21 -20 -13 -45 -16 -12 -26 -27 -23 -32 4 -6 0 -8 -9 -4 -34 13 -102 -96 -113 -182 -9 -64 19 -170 45 -172 8 0 10 -3 5 -5 -6 -2 -9 -20 -7 -39 6 -49 22 -33 22 21 0 32 -3 43 -12 38 -7 -4 -8 -3 -4 4 4 7 19 12 33 12 24 0 25 -2 21 -55 -2 -46 0 -55 14 -55 9 0 18 -5 20 -12 5 -15 28 -1 28 18 0 8 -8 15 -17 15 -10 1 9 5 42 9 33 4 88 5 123 3 55 -5 62 -8 62 -27 1 -25 22 -56 39 -56 6 0 11 7 11 15 0 8 9 15 20 15 11 0 20 -7 20 -15 0 -13 19 -20 44 -16 4 1 15 -6 23 -16 8 -10 12 -13 9 -7 -5 12 16 79 29 91 4 5 5 3 1 -4 -3 -6 5 -23 19 -37 19 -19 36 -26 65 -26 22 0 40 5 40 10 0 11 36 50 46 50 3 0 4 -7 0 -15 -6 -18 10 -20 20 -3 5 8 11 6 20 -7 9 -12 19 -15 31 -10 10 4 44 8 76 8 40 0 60 4 64 13 3 8 9 14 14 14 34 0 121 133 133 203 4 20 11 37 16 37 5 0 7 7 4 15 -4 10 0 15 10 15 9 0 19 -7 22 -15 4 -8 16 -15 28 -15 11 -1 39 -9 61 -20 22 -11 46 -19 53 -20 10 0 16 -14 10 -22 -1 -2 4 -13 11 -26 17 -32 -18 -93 -68 -117 l-36 -17 33 -16 c26 -13 34 -13 45 -3 10 11 8 12 -10 6 -13 -3 -23 -2 -23 3 0 9 7 10 65 13 23 1 35 6 35 15 0 8 5 14 10 14 6 0 10 -5 10 -11 0 -5 8 -9 18 -8 23 4 93 -20 114 -38 10 -9 24 -13 32 -10 9 4 18 2 21 -4 4 -5 11 -6 17 -3 6 4 28 6 50 6 44 -2 45 3 17 57 -11 22 -18 45 -14 51 3 5 2 10 -3 10 -5 0 -17 16 -26 35 -9 19 -21 35 -26 35 -6 0 -10 7 -10 15 0 8 -6 14 -12 12 -9 -1 -13 12 -14 38 -2 65 -3 67 -26 64 -40 -5 -90 12 -84 27 3 8 1 14 -5 14 -5 0 -20 9 -32 20 -18 18 -20 22 -7 30 9 6 10 10 3 10 -6 0 -13 10 -15 22 -2 16 -12 24 -36 29 -49 10 -50 18 -3 16 23 -1 45 3 49 8 4 6 18 11 32 12 38 3 59 8 66 16 4 4 0 7 -10 7 -9 0 -19 7 -22 15 -4 8 -17 15 -30 15 -14 0 -36 7 -49 16 -13 9 -30 12 -36 8 -8 -4 -9 -3 -5 4 5 8 -4 12 -26 13 -18 0 -27 3 -20 6 19 7 14 20 -10 26 -12 4 -20 9 -16 12 3 3 18 1 33 -5 21 -8 30 -8 36 2 4 6 6 15 4 18 -2 4 2 7 10 7 8 0 13 -2 11 -5 -10 -9 30 -42 52 -42 26 0 64 29 40 31 -7 1 -16 1 -20 0 -4 0 -10 10 -14 24 -3 14 -10 25 -15 25 -14 0 -49 33 -49 46 0 6 -8 14 -18 16 -21 6 -26 38 -6 38 12 0 56 -47 68 -72 5 -10 7 -10 12 -1 4 10 10 10 24 0 15 -9 22 -9 32 1 9 9 8 15 -6 25 -10 7 -16 22 -14 33 2 12 -2 19 -12 18 -8 0 -23 7 -34 17 -18 17 -18 18 1 13 14 -4 19 0 19 15 0 11 -4 17 -8 15 -4 -3 -8 -1 -8 5 0 6 -11 13 -25 17 -14 3 -22 10 -19 16 3 5 -2 18 -12 29 -20 22 -42 26 -24 4 10 -13 9 -15 -9 -15 -11 0 -21 4 -21 9 0 5 -8 7 -19 4 -10 -2 -25 2 -32 10 -16 15 -58 32 -72 29 -4 -1 -17 3 -28 8 -18 10 -19 9 -13 -16z" style="fill: rgba(177, 3, 3, 0.68);"/>
    <path d="M10015 11160 c-3 -5 -13 -10 -21 -10 -8 0 -28 -14 -44 -30 -17 -17 -30 -28 -30 -25 0 2 -11 -5 -25 -17 -21 -18 -25 -30 -24 -72 1 -51 16 -126 18 -94 1 20 34 41 47 30 5 -4 1 2 -9 14 -9 11 -17 29 -16 40 0 10 3 13 6 7 2 -7 16 -13 29 -13 23 0 25 3 28 52 1 24 16 35 17 12 1 -10 5 -3 9 16 12 59 14 64 35 82 17 15 18 17 3 18 -9 0 -20 -4 -23 -10z" style="fill: rgba(177, 3, 3, 0.68);"/>
    <path d="M6573 9893 c-13 -9 -23 -23 -23 -33 0 -10 -8 -24 -17 -31 -15 -12 -16 -12 -8 1 5 10 1 8 -13 -4 -19 -17 -24 -17 -44 -4 -28 18 -48 13 -48 -12 0 -23 -18 -36 -31 -23 -12 12 -59 5 -59 -8 0 -5 -16 -9 -36 -9 -21 0 -33 -4 -29 -10 3 -5 -2 -10 -12 -10 -10 0 -29 -3 -43 -7 -22 -6 -24 -5 -11 10 12 15 11 17 -7 17 -20 0 -48 -53 -36 -71 3 -5 -18 -9 -47 -9 -37 0 -55 -5 -64 -17 -15 -20 -9 -44 9 -37 7 3 17 -10 24 -29 7 -19 21 -42 32 -52 11 -10 20 -24 20 -32 0 -7 9 -13 20 -13 11 0 20 -4 20 -10 0 -5 -4 -10 -10 -10 -5 0 -10 -7 -10 -16 0 -8 5 -12 10 -9 6 3 10 -2 10 -12 1 -17 1 -17 15 1 12 16 17 17 31 6 15 -13 14 -15 -1 -26 -9 -7 -14 -17 -10 -23 3 -7 -2 -11 -14 -11 -34 0 -24 -17 14 -24 28 -6 34 -11 32 -28 -1 -12 -11 -31 -21 -42 -25 -25 -10 -30 40 -14 30 10 41 20 50 46 9 29 12 31 23 18 7 -9 14 -38 14 -66 0 -27 4 -50 9 -50 4 0 8 3 8 8 0 4 11 20 25 36 20 23 28 27 37 18 9 -9 9 -12 0 -12 -7 0 -12 -8 -12 -17 0 -10 -7 -27 -15 -37 -8 -11 -12 -28 -9 -39 4 -13 -3 -28 -21 -47 -15 -16 -25 -33 -22 -38 4 -5 -12 -26 -33 -47 -36 -35 -45 -38 -41 -12 0 4 -3 7 -7 7 -4 0 -6 16 -4 35 5 42 -8 46 -25 8 -9 -19 -10 -29 -2 -33 7 -5 5 -12 -5 -23 -9 -8 -16 -23 -16 -31 0 -9 -4 -16 -10 -16 -15 0 -12 21 7 42 9 10 12 18 7 18 -20 0 -35 -18 -38 -47 -3 -17 -13 -40 -23 -52 -10 -12 -20 -34 -23 -49 -3 -15 -12 -28 -21 -30 -13 -2 -15 3 -12 23 6 31 -22 36 -32 5 -4 -14 -16 -20 -38 -21 -76 -2 -82 -4 -79 -20 2 -12 -5 -16 -25 -16 -15 0 -34 -10 -44 -22 -9 -11 -20 -21 -23 -21 -10 0 -6 39 5 45 6 4 8 13 5 21 -4 9 2 14 15 14 11 0 37 9 59 20 22 11 51 20 65 20 14 0 25 5 25 10 0 6 18 10 40 10 22 0 40 5 40 10 0 6 7 10 15 10 8 0 15 7 15 15 0 8 5 15 10 15 6 0 10 16 10 36 0 23 6 42 18 50 13 10 14 13 3 14 -8 0 -23 -7 -33 -17 -17 -15 -18 -15 -18 2 0 10 10 26 22 36 11 11 18 19 14 19 -4 0 0 8 9 17 16 15 16 18 -5 33 -20 15 -21 18 -5 23 31 12 68 8 62 -7 -4 -11 1 -12 21 -7 34 9 26 25 -13 27 -17 1 -35 10 -43 22 -13 20 -48 20 -36 1 3 -5 -3 -10 -13 -11 -10 0 -23 -2 -30 -2 -7 -1 -18 -7 -25 -14 -6 -6 -23 -12 -36 -12 -19 0 -22 4 -17 20 4 11 2 20 -4 20 -11 0 -15 -13 -12 -36 1 -7 -5 -14 -14 -18 -8 -3 -15 -12 -15 -21 0 -8 -4 -15 -10 -15 -13 0 -13 -27 0 -32 6 -2 5 -28 -2 -70 -12 -70 -28 -88 -56 -66 -13 11 -15 10 -9 -4 3 -10 3 -18 -1 -18 -5 0 -18 -9 -31 -21 -12 -11 -29 -18 -37 -15 -8 3 -14 0 -14 -8 0 -7 -19 -19 -42 -25 -31 -9 -52 -24 -72 -52 -34 -45 -41 -47 -51 -16 -4 13 -8 17 -12 9 -2 -6 -8 -10 -13 -7 -4 2 -15 -4 -25 -15 -10 -11 -24 -20 -30 -20 -7 0 -15 -10 -19 -22 -4 -18 -8 -20 -17 -11 -10 10 -7 17 14 33 14 11 28 33 32 50 4 17 15 32 26 35 12 4 18 13 15 21 -3 8 4 23 16 34 12 11 18 23 13 27 -4 5 -10 2 -12 -4 -5 -15 -33 -17 -33 -3 0 6 4 10 8 10 5 0 9 7 9 15 0 20 -21 19 -41 -1 -9 -8 -16 -13 -16 -11 0 3 -14 -8 -32 -24 -22 -21 -33 -26 -39 -18 -5 9 -12 8 -24 -5 -11 -10 -21 -14 -27 -8 -10 10 -79 -6 -115 -26 -43 -24 -39 -15 20 50 16 16 26 33 22 36 -3 4 -9 2 -13 -3 -4 -6 -18 -16 -32 -23 -14 -7 -48 -34 -76 -60 -72 -67 -94 -84 -105 -80 -6 2 -1 14 10 27 12 13 21 21 21 16 0 -4 14 9 30 30 17 21 30 42 30 48 0 14 41 48 51 41 5 -3 9 0 9 5 0 6 9 11 20 11 11 0 20 5 20 11 0 5 -4 8 -9 5 -5 -3 -12 1 -15 10 -4 11 -14 15 -31 12 -14 -3 -25 -1 -25 3 0 10 18 13 65 11 17 -1 24 1 18 4 -16 7 -17 35 -2 31 6 -1 15 8 20 20 l8 23 -38 -25 c-33 -20 -40 -22 -45 -9 -14 38 -7 44 49 44 30 0 55 -4 55 -9 0 -4 11 -6 25 -3 14 2 25 11 25 21 0 10 3 12 8 5 4 -6 15 -14 26 -17 14 -6 17 -4 12 9 -4 11 5 26 26 45 37 32 44 34 54 17 4 -6 0 -16 -9 -23 -9 -7 -14 -15 -10 -19 9 -9 -30 -36 -42 -28 -5 3 -4 -2 4 -11 9 -11 10 -17 2 -17 -6 0 -11 -6 -11 -14 0 -7 -7 -19 -16 -27 -10 -8 -13 -21 -9 -36 3 -13 1 -23 -5 -23 -7 0 -6 -5 2 -13 10 -12 15 -11 29 2 25 25 31 51 11 51 -16 1 -16 1 0 10 17 10 48 4 48 -10 0 -5 -6 -10 -12 -13 -7 -2 -10 -8 -6 -12 5 -5 16 2 27 13 10 12 24 22 31 22 6 0 10 6 7 13 -2 6 -12 11 -21 11 -12 -2 -16 4 -14 20 2 11 9 20 16 18 7 -1 12 4 10 12 -2 7 12 30 30 50 18 20 28 36 22 36 -5 0 -10 11 -10 24 0 17 9 28 33 40 l32 16 -32 0 c-17 0 -35 -4 -38 -10 -3 -5 -16 -10 -28 -10 -22 0 -22 1 3 20 16 13 20 20 10 19 -8 0 -23 -6 -33 -13 -17 -13 -17 -15 5 -30 18 -13 19 -16 5 -16 -9 0 -16 -3 -16 -7 4 -24 -3 -34 -18 -29 -10 3 -31 -1 -47 -9 -15 -8 -31 -13 -35 -10 -5 2 -25 0 -46 -6 -26 -8 -34 -13 -25 -19 8 -5 -1 -8 -24 -7 -21 1 -41 -4 -45 -11 -9 -15 -103 -11 -109 6 -2 6 3 12 12 12 24 0 19 27 -6 34 -34 9 -50 7 -43 -4 4 -6 10 -8 14 -6 4 3 13 1 20 -4 11 -6 8 -11 -9 -20 l-23 -12 32 -15 31 -16 -21 -18 c-11 -10 -19 -22 -16 -26 2 -4 -5 -26 -17 -48 -17 -32 -27 -40 -54 -42 l-33 -3 21 27 c11 15 30 33 40 40 25 17 26 32 3 28 -10 -2 -24 -4 -32 -4 -10 -1 -11 -4 -2 -15 9 -11 5 -16 -19 -26 -16 -7 -30 -16 -30 -21 0 -5 -7 -9 -15 -9 -8 0 -23 -9 -32 -20 -10 -11 -25 -20 -35 -20 -10 0 -18 -4 -18 -10 0 -5 7 -10 17 -10 15 0 15 -2 -1 -19 -10 -11 -13 -22 -8 -25 12 -7 42 3 42 14 0 4 11 10 25 12 33 7 32 -7 -3 -27 -24 -15 -52 -55 -52 -76 0 -4 8 -9 17 -11 14 -3 13 -7 -10 -31 -16 -15 -34 -27 -41 -27 -8 0 -16 -6 -19 -14 -4 -11 3 -13 36 -10 l42 5 -38 -17 c-35 -15 -39 -20 -35 -50 3 -28 0 -34 -29 -48 -38 -18 -40 -25 -14 -54 23 -27 35 -29 19 -2 -11 17 -8 23 20 48 18 16 32 34 32 40 0 7 5 12 10 12 6 0 10 7 10 15 0 8 7 15 15 15 9 0 18 7 21 15 4 8 13 15 22 15 13 0 12 3 -4 15 -18 14 -18 16 -1 29 9 7 17 18 17 24 0 11 30 25 38 17 3 -3 0 -5 -7 -5 -17 0 -31 -42 -19 -57 6 -7 13 -11 17 -9 3 2 6 -6 6 -19 0 -13 -3 -22 -6 -20 -3 2 -13 -5 -22 -16 -9 -10 -26 -19 -37 -19 -17 0 -26 -12 -17 -23 5 -7 -59 -63 -69 -60 -7 3 -10 -5 -7 -20 4 -18 11 -23 27 -22 19 2 22 -3 24 -31 2 -25 -1 -34 -13 -34 -8 0 -15 -5 -15 -11 0 -7 -11 -22 -26 -35 l-25 -24 30 0 c21 0 31 5 31 15 0 8 5 15 10 15 6 0 10 -9 10 -20 0 -11 -7 -20 -16 -20 -8 0 -13 -4 -10 -9 3 -4 -7 -6 -22 -4 -26 4 -26 4 -8 -11 19 -16 19 -16 -2 -16 -13 0 -22 -6 -22 -15 0 -11 12 -15 45 -15 38 0 43 -3 38 -17 -3 -10 -13 -24 -22 -31 -14 -11 -26 -72 -14 -72 9 0 33 29 33 39 0 6 13 17 29 25 26 14 30 14 47 -5 11 -12 19 -24 19 -28 0 -3 4 -5 8 -3 5 1 6 -2 2 -8 -5 -8 -11 -8 -20 0 -9 7 -16 6 -25 -5 -10 -12 -10 -15 1 -15 9 -1 8 -4 -4 -11 -9 -6 -15 -14 -12 -18 4 -8 -31 -24 -47 -22 -5 1 -8 -4 -8 -10 0 -14 -25 -39 -39 -39 -12 0 -15 -23 -5 -33 8 -8 57 11 66 26 6 9 8 9 8 0 0 -7 7 -13 15 -13 9 0 15 -9 15 -22 0 -13 -4 -18 -8 -12 -13 19 -37 21 -55 4 -14 -14 -15 -19 -5 -27 7 -5 20 -9 28 -8 8 1 22 -2 31 -7 12 -5 19 -2 24 15 7 21 8 21 12 -5 2 -16 9 -28 14 -28 16 0 10 -67 -7 -74 -24 -9 -42 -6 -19 4 17 7 18 9 2 9 -9 1 -25 10 -34 21 -13 15 -19 17 -26 7 -5 -7 -6 0 -2 18 6 29 6 29 -9 10 -8 -11 -16 -24 -16 -28 -1 -27 -52 -48 -65 -27 -4 6 -11 7 -17 4 -6 -4 -9 -1 -6 7 3 8 -7 19 -25 27 -35 15 -50 15 -42 2 3 -5 0 -10 -7 -10 -10 0 -10 -2 -1 -8 9 -6 8 -11 -6 -21 -15 -11 -17 -20 -10 -45 12 -43 11 -54 -5 -34 -18 24 -39 3 -25 -24 6 -11 8 -23 4 -26 -10 -10 -40 14 -39 32 1 11 -6 14 -27 12 -23 -3 -29 0 -29 16 0 14 -5 18 -15 14 -9 -3 -15 0 -15 9 0 8 7 15 15 15 11 0 15 12 15 50 0 28 -5 50 -10 50 -6 0 -8 -10 -4 -24 7 -28 -11 -44 -21 -18 -9 19 -11 29 -14 57 -1 17 -3 18 -11 5 -6 -9 -10 -11 -10 -3 0 7 -7 10 -15 7 -8 -4 -15 -16 -15 -28 0 -17 2 -18 10 -6 7 11 10 4 10 -27 0 -39 -2 -43 -26 -43 -14 0 -23 4 -19 9 3 5 0 13 -6 17 -19 11 -169 11 -169 -1 0 -5 -5 -3 -10 5 -6 10 -10 11 -10 3 0 -22 -17 -14 -22 10 -6 32 1 57 17 57 26 0 40 29 28 60 -9 23 -8 32 3 41 17 14 8 57 -17 82 -25 23 -37 22 -50 -7 -13 -28 8 -89 28 -82 6 3 14 -2 17 -10 6 -17 -3 -44 -15 -44 -5 0 -9 -7 -9 -15 0 -8 -8 -19 -19 -24 -20 -11 -35 -51 -20 -51 6 0 5 -8 -1 -20 -6 -11 -8 -20 -5 -20 3 0 -3 -10 -15 -22 -11 -12 -20 -28 -20 -35 0 -7 -4 -13 -10 -13 -14 0 -13 47 1 56 7 4 9 21 5 45 -4 23 -2 39 4 39 5 0 12 11 16 25 3 13 12 29 20 36 22 18 17 29 -13 28 -25 0 -26 -1 -8 -9 19 -8 19 -9 -2 -9 -16 -1 -25 -11 -34 -38 -17 -50 -19 -60 -28 -115 -9 -56 -14 -63 -38 -54 -16 7 -16 9 7 26 24 18 24 19 6 39 -11 12 -16 21 -11 21 4 0 2 7 -5 15 -7 8 -16 15 -20 15 -8 0 -23 -38 -21 -52 1 -5 -5 -8 -11 -8 -15 0 -54 -56 -50 -71 1 -5 -3 -9 -9 -9 -6 0 -8 -9 -4 -20 5 -15 2 -20 -13 -20 -11 0 -25 -7 -32 -15 -7 -8 -16 -12 -21 -9 -5 3 -9 1 -9 -5 0 -18 36 -31 48 -19 9 9 12 8 12 -4 0 -23 -29 -31 -46 -13 -19 19 -28 19 -43 2 -13 -16 -5 -28 15 -20 9 3 14 -1 14 -12 0 -9 -4 -13 -10 -10 -16 10 -12 -11 5 -25 20 -16 62 -5 75 20 6 11 20 20 31 20 16 0 18 -5 13 -25 -5 -21 -3 -25 14 -25 12 0 24 5 27 10 10 16 25 12 19 -5 -3 -8 -9 -14 -12 -12 -4 1 -19 -7 -34 -17 -15 -10 -33 -14 -39 -10 -7 4 -9 3 -5 -4 3 -6 -6 -17 -22 -24 -29 -15 -56 -13 -46 3 3 5 2 9 -1 9 -12 0 -32 -26 -39 -50 -4 -14 -4 -20 1 -14 4 6 20 14 34 17 20 5 26 3 26 -11 0 -9 -5 -20 -10 -24 -6 -4 -4 -13 7 -24 14 -13 15 -19 4 -25 -9 -6 -2 -9 19 -9 17 0 34 4 37 9 4 5 -3 7 -14 4 -11 -3 -20 0 -20 6 0 6 9 11 20 11 11 0 20 7 20 15 0 10 10 15 33 15 32 0 33 2 29 30 -3 23 -1 30 13 30 12 0 16 -6 12 -20 -6 -25 20 -27 38 -3 11 15 12 14 10 -8 -1 -13 -3 -27 -4 -31 0 -5 -22 -8 -47 -8 -37 0 -45 -3 -40 -15 3 -8 0 -14 -7 -12 -7 1 -11 -6 -9 -17 4 -22 -13 -36 -45 -36 -15 0 -23 -6 -23 -18 0 -10 -5 -23 -12 -30 -9 -9 -9 -12 0 -12 7 0 12 -9 12 -20 0 -14 7 -20 21 -20 11 0 17 5 14 10 -4 6 6 10 22 10 18 0 33 -8 42 -21 11 -19 11 -21 -3 -16 -10 4 -16 1 -16 -8 0 -8 9 -15 20 -15 11 0 20 -4 20 -10 0 -5 -5 -10 -11 -10 -6 0 -8 -9 -4 -20 4 -14 2 -20 -9 -20 -8 0 -18 4 -21 10 -9 15 -55 -19 -48 -36 6 -17 35 -18 51 -2 9 9 15 9 24 0 15 -15 80 -16 95 -1 8 8 13 8 17 0 4 -6 3 -11 -3 -11 -7 0 -20 -45 -26 -95 -2 -14 15 -35 29 -35 6 0 4 5 -4 11 -12 9 -12 10 3 5 10 -3 23 -6 28 -6 5 0 9 -8 9 -17 0 -18 -59 -63 -82 -63 -8 0 -6 -5 4 -11 21 -12 102 7 93 21 -4 6 1 10 9 10 9 0 16 5 16 10 0 13 47 13 55 0 3 -6 -1 -13 -9 -16 -9 -3 -16 -16 -16 -28 1 -20 2 -20 14 -3 16 21 27 22 20 2 -4 -8 -20 -19 -38 -23 -40 -11 -48 -41 -12 -43 38 -2 44 -3 52 -11 7 -8 -17 -12 -43 -9 -7 1 -13 -5 -13 -12 0 -8 -7 -17 -15 -21 -8 -3 -15 -13 -15 -22 0 -10 3 -14 7 -11 3 4 12 -1 19 -11 7 -9 14 -12 14 -6 0 14 50 6 50 -8 0 -6 -9 -8 -20 -5 -18 5 -20 0 -19 -46 0 -38 3 -47 9 -32 8 19 9 19 9 -2 1 -13 7 -23 15 -23 8 0 16 -7 20 -15 3 -8 12 -15 21 -15 8 0 15 -4 15 -10 0 -5 7 -7 16 -3 13 5 15 3 6 -13 -13 -24 6 -53 34 -51 14 2 18 -3 16 -18 -2 -12 0 -16 5 -9 4 6 29 14 56 17 38 5 47 4 47 -9 0 -16 -12 -34 -47 -66 -18 -17 -23 -33 -23 -74 0 -36 4 -54 14 -57 8 -3 18 -27 22 -52 5 -37 12 -48 31 -56 13 -5 21 -13 18 -19 -4 -6 8 -10 30 -10 23 0 38 5 42 16 3 9 14 19 24 22 16 6 16 9 2 27 -11 14 -14 15 -10 3 5 -14 -2 -16 -41 -16 -59 1 -83 20 -75 59 3 18 1 29 -6 29 -7 0 -11 20 -11 50 0 36 4 50 14 50 8 0 22 3 32 7 14 5 16 2 11 -16 -4 -18 -3 -20 9 -10 8 6 14 19 15 28 0 12 2 11 8 -4 5 -12 3 -24 -5 -32 -7 -7 -10 -22 -7 -34 4 -14 8 -17 13 -9 5 9 9 9 14 1 11 -18 57 -14 50 4 -4 9 0 15 9 15 21 0 30 -29 12 -36 -20 -8 -20 -80 -1 -100 11 -11 16 -11 19 -1 4 9 8 8 16 -3 7 -10 11 -11 11 -2 0 6 5 12 10 12 6 0 10 -19 11 -42 1 -41 1 -42 12 -18 8 16 22 26 40 28 25 3 27 0 27 -38 0 -27 -4 -40 -14 -40 -19 0 -36 -23 -28 -37 9 -14 89 -34 107 -27 7 3 15 -2 19 -12 5 -13 9 -14 21 -4 18 15 65 5 65 -14 0 -9 -7 -12 -18 -9 -14 3 -18 -2 -17 -24 0 -25 4 -28 30 -27 17 1 45 6 62 12 27 9 36 8 49 -5 17 -17 10 -28 -21 -36 -11 -3 4 -5 33 -6 59 -1 92 -14 92 -36 0 -7 10 -15 23 -17 16 -2 22 -10 22 -28 0 -23 -3 -25 -37 -22 -29 2 -39 -2 -48 -18 -8 -15 -8 -25 -1 -34 6 -7 8 -15 6 -18 -13 -12 59 -17 73 -6 11 9 14 9 9 1 -4 -6 -3 -14 2 -17 5 -4 11 4 13 16 3 24 28 32 36 10 2 -8 -2 -10 -14 -5 -15 6 -15 4 2 -13 15 -15 20 -17 23 -5 2 11 5 11 11 1 9 -15 80 -5 80 11 0 6 -4 7 -10 4 -14 -9 -13 8 2 23 13 13 48 16 48 4 0 -4 -5 -13 -11 -19 -12 -12 -3 -37 10 -29 4 3 13 1 21 -4 9 -5 19 -5 27 2 10 8 13 6 13 -5 0 -8 6 -17 13 -20 6 -2 -3 -7 -20 -11 -31 -7 -33 -11 -33 -47 0 -24 4 -38 10 -34 6 3 10 13 10 22 0 10 6 14 20 10 18 -5 25 3 21 26 0 4 4 7 9 7 13 0 13 -33 0 -46 -8 -8 -6 -15 4 -23 7 -6 12 -21 9 -31 -4 -16 -14 -20 -44 -20 -29 0 -39 -4 -39 -16 0 -13 13 -15 89 -12 81 3 88 1 80 -14 -12 -23 -11 -37 1 -18 9 13 12 13 24 -2 18 -24 30 -23 23 3 -4 15 -1 19 11 17 9 -2 18 -12 21 -23 2 -11 11 -25 20 -32 15 -11 15 -12 -1 -18 -19 -8 -26 -65 -8 -65 6 0 10 11 10 25 0 20 5 25 24 25 19 0 23 -4 20 -27 -1 -15 3 -35 10 -45 17 -23 28 -12 13 13 -10 16 -8 22 13 36 14 10 34 21 45 24 19 6 21 3 17 -24 -3 -21 -1 -28 7 -22 7 4 10 13 7 21 -10 27 50 37 66 11 11 -17 38 18 31 42 -4 15 -13 21 -34 21 -17 0 -32 6 -35 15 -4 8 -12 15 -20 15 -7 0 -18 9 -24 20 -8 15 -17 18 -43 13 -17 -3 -38 -11 -45 -17 -13 -12 -72 -10 -72 3 0 3 5 13 10 21 8 13 10 12 10 -2 0 -12 8 -18 25 -18 21 0 25 5 25 29 0 17 4 32 9 35 11 7 74 -14 84 -28 9 -14 25 8 34 47 6 30 23 37 23 10 1 -29 25 -53 53 -53 14 0 29 5 32 10 3 6 27 9 53 8 l47 -1 -45 -7 c-45 -7 -45 -7 16 -8 51 -2 63 1 69 16 5 14 9 11 20 -16 8 -18 12 -39 9 -47 -6 -15 7 -21 20 -8 4 4 18 9 31 10 19 3 25 -1 25 -16 0 -11 5 -23 10 -26 6 -3 10 1 10 11 0 13 7 16 35 11 32 -5 35 -4 35 19 0 13 -4 24 -10 24 -5 0 -10 -7 -10 -15 0 -25 -25 -17 -50 15 -16 21 -29 29 -42 24 -14 -4 -18 0 -18 18 0 29 9 42 40 58 23 12 23 14 6 20 -17 6 -18 7 -3 13 9 3 19 2 22 -3 9 -15 42 -12 49 5 3 8 15 15 26 15 12 0 20 7 20 18 1 16 1 16 11 -1 8 -14 14 -16 24 -7 8 7 23 9 34 5 10 -3 22 -1 26 5 5 8 11 5 19 -6 15 -20 36 -11 36 17 0 10 7 19 15 19 8 0 15 9 15 19 0 11 5 23 10 26 6 3 10 16 10 29 0 16 12 29 43 46 68 38 98 80 65 93 -17 6 -16 116 1 126 9 6 8 11 -4 21 -21 17 -19 30 5 30 11 0 19 -6 17 -12 -3 -17 40 -12 58 6 8 7 12 16 9 19 -3 3 -1 15 6 26 6 12 7 21 1 21 -5 0 -12 -8 -16 -17 -6 -17 -7 -17 -17 1 -8 15 -7 21 6 28 9 5 16 15 16 22 0 12 71 76 84 76 14 0 4 -23 -18 -45 -23 -23 -23 -25 -5 -30 21 -7 25 -20 9 -30 -5 -3 -10 -13 -10 -22 0 -13 3 -13 15 -3 8 7 15 19 15 26 0 12 19 19 43 15 4 0 7 4 7 9 0 20 37 9 61 -17 13 -15 16 -21 7 -14 -15 11 -18 11 -21 0 -2 -8 -8 -28 -14 -45 -8 -23 -7 -35 3 -49 9 -12 14 -14 14 -6 0 16 29 40 48 41 7 0 10 -4 7 -10 -3 -5 0 -10 8 -10 8 0 17 7 21 15 3 8 13 15 23 15 15 0 16 2 3 10 -13 8 -12 10 3 10 15 0 16 3 6 22 l-12 23 -10 -23 c-13 -29 -19 -28 -39 9 -21 36 -11 58 33 78 27 12 40 43 22 54 -5 2 -2 2 5 1 17 -5 15 22 -4 41 -9 8 -13 22 -10 31 7 18 -18 70 -36 77 -10 4 -10 7 1 18 9 9 11 9 7 2 -4 -8 -1 -13 8 -13 9 0 16 -4 16 -9 0 -5 10 -7 22 -3 21 5 21 6 2 13 -15 6 -15 8 -3 8 25 1 36 21 43 78 6 47 5 51 -12 46 -24 -6 -36 21 -17 37 8 7 17 27 21 46 3 19 10 35 15 35 5 1 14 2 19 3 18 2 30 30 29 71 l0 40 -21 -42 c-19 -37 -44 -60 -54 -50 -4 3 18 67 28 83 4 6 5 14 1 18 -9 8 -33 -14 -33 -31 0 -8 -4 -11 -10 -8 -5 3 -10 -2 -10 -12 0 -11 -5 -24 -12 -31 -9 -9 -9 -12 0 -12 7 0 12 -9 12 -21 0 -11 -5 -17 -10 -14 -7 4 -9 -5 -5 -24 4 -23 1 -33 -10 -37 -8 -4 -15 -12 -15 -20 0 -8 -10 -14 -22 -13 -13 0 -18 3 -12 5 12 5 -4 84 -18 84 -11 0 -58 -46 -58 -58 0 -5 -7 -13 -16 -16 -12 -5 -15 1 -12 32 2 28 7 37 21 36 13 -2 16 3 12 17 -9 28 3 59 21 52 7 -3 14 0 14 6 0 6 -7 11 -17 11 -15 0 -15 2 1 19 17 19 17 19 -4 14 -12 -3 -24 -12 -27 -20 -5 -12 -7 -12 -14 -2 -5 8 -10 -7 -15 -39 -7 -57 -24 -61 -24 -6 0 25 -4 34 -17 35 -10 1 -5 4 12 8 18 4 37 18 50 38 11 18 27 33 35 33 9 0 5 6 -10 14 -14 8 -28 12 -32 10 -5 -3 -8 -1 -8 5 0 5 5 13 10 16 15 10 12 35 -5 35 -8 0 -15 7 -15 16 0 8 7 22 15 30 8 9 15 21 15 27 0 7 -4 6 -11 -3 -8 -12 -10 -12 -8 5 4 51 -10 61 -29 21 -6 -13 -20 -27 -31 -31 -12 -3 -21 -13 -21 -21 0 -8 -4 -14 -10 -14 -18 0 -45 -35 -47 -59 -1 -13 -10 -32 -20 -43 -10 -11 -17 -22 -15 -24 1 -2 -1 -3 -5 -1 -3 1 -7 15 -9 30 -2 37 -8 41 -33 27 -18 -9 -21 -8 -21 10 0 13 10 24 25 30 14 5 25 14 25 20 0 6 5 8 12 4 7 -5 8 -3 2 7 -16 28 -29 36 -46 31 -10 -2 -18 1 -18 7 0 6 7 11 15 11 8 0 15 5 15 12 0 9 3 9 12 0 9 -9 17 -3 35 23 28 42 29 60 3 62 -11 1 -20 -2 -20 -8 0 -5 -11 -9 -24 -9 -16 0 -27 -7 -31 -20 -4 -13 -15 -20 -31 -20 -13 0 -24 -4 -24 -10 0 -5 7 -10 16 -10 8 0 12 -4 9 -10 -3 -5 -1 -10 4 -10 18 0 12 -24 -10 -43 -26 -23 -79 -34 -79 -17 0 7 8 10 19 7 12 -3 22 1 25 10 8 21 -2 33 -27 33 -21 -1 -21 -1 -2 -12 19 -11 19 -11 0 -19 -11 -4 -27 -8 -35 -8 -12 -1 -12 1 -2 8 21 13 -15 23 -39 11 -12 -7 -19 -7 -19 -1 0 14 33 31 62 32 13 0 17 3 11 6 -7 2 -13 9 -13 14 0 15 22 10 37 -8 13 -16 13 -15 1 6 -20 34 -32 36 -59 7 -24 -25 -46 -36 -34 -16 12 19 -6 31 -21 15 -9 -8 -12 -20 -8 -27 5 -7 2 -9 -7 -6 -12 5 -14 -2 -11 -28 3 -23 10 -34 21 -35 11 0 12 -2 3 -6 -10 -4 -9 -8 5 -19 11 -8 13 -13 6 -14 -7 0 -13 -4 -13 -9 0 -5 23 -11 52 -13 29 -3 54 -11 56 -17 7 -20 30 -11 36 14 7 26 20 32 31 15 3 -6 -1 -13 -9 -16 -9 -3 -16 -12 -16 -19 0 -7 -10 -16 -22 -19 -30 -8 -74 -48 -83 -75 -12 -39 -35 -17 -35 35 0 13 -5 24 -11 24 -6 0 -9 -9 -6 -19 3 -15 1 -18 -11 -14 -12 5 -14 2 -9 -12 4 -10 5 -33 1 -51 -4 -24 -13 -35 -35 -43 -38 -13 -40 11 -4 35 32 21 19 39 -34 48 -21 3 -41 13 -45 21 -3 8 -1 15 3 15 5 0 11 -6 14 -12 3 -10 7 -10 19 0 13 10 18 10 24 1 4 -7 3 -9 -4 -5 -6 3 -13 2 -17 -4 -3 -5 3 -10 14 -10 14 0 21 6 21 20 0 11 -4 20 -9 20 -18 0 5 55 27 65 21 9 31 45 13 45 -5 0 -22 -10 -38 -23 -28 -23 -63 -26 -63 -5 0 7 -11 1 -25 -12 -14 -13 -25 -34 -25 -47 0 -14 -4 -21 -10 -18 -6 4 -9 18 -8 32 2 15 -3 28 -10 31 -7 2 -12 -2 -11 -9 4 -22 -12 -69 -23 -69 -6 0 -8 14 -6 30 3 17 1 30 -3 30 -13 0 -59 -50 -59 -64 0 -8 -7 -19 -16 -27 -14 -12 -15 -8 -9 34 6 38 4 47 -8 47 -16 0 -27 -20 -27 -50 0 -12 -8 -20 -22 -22 -15 -2 -22 -9 -20 -20 1 -9 -2 -19 -8 -23 -6 -3 -17 -22 -25 -41 -10 -24 -18 -32 -29 -28 -9 4 -18 0 -22 -10 -7 -17 -34 -22 -34 -6 0 6 4 10 9 10 5 0 11 10 14 23 2 12 8 30 12 39 5 12 -11 6 -49 -19 -42 -28 -55 -42 -50 -55 3 -10 1 -18 -5 -18 -6 0 -11 -5 -11 -11 0 -5 5 -7 11 -3 25 15 -11 -34 -38 -52 -30 -20 -33 -21 -63 -23 -11 0 -24 -11 -29 -23 -7 -19 -9 -16 -8 17 0 22 5 46 11 54 8 11 8 13 0 8 -7 -4 -17 0 -24 8 -10 12 -10 18 0 30 19 23 -11 20 -36 -3 -23 -21 -105 -25 -112 -4 -2 7 2 10 12 6 9 -3 16 -1 16 5 0 6 -4 11 -10 11 -5 0 -7 7 -4 15 4 11 0 15 -16 15 -20 0 -20 1 -6 16 9 8 13 20 10 26 -5 7 -11 5 -19 -5 -7 -9 -15 -14 -18 -11 -3 4 -23 3 -43 -1 -22 -4 -33 -10 -26 -14 6 -4 -4 -7 -23 -7 -24 0 -35 5 -35 14 0 9 7 13 20 9 11 -3 20 -2 20 2 0 4 23 18 50 30 41 19 49 26 39 37 -6 8 -9 21 -5 29 8 23 3 19 -46 -30 -25 -24 -48 -42 -51 -38 -4 3 -1 13 5 21 10 12 8 13 -12 10 -14 -1 -35 -17 -48 -36 -14 -20 -29 -31 -38 -28 -8 3 -14 0 -14 -6 0 -6 -3 -8 -7 -5 -20 20 55 92 97 92 8 0 17 11 21 25 4 16 7 19 8 8 1 -25 16 -22 45 7 14 14 31 25 37 25 7 0 31 11 55 25 23 14 50 22 58 19 12 -4 16 0 16 15 0 25 -30 24 -61 -3 -11 -9 -33 -19 -49 -23 -16 -3 -35 -12 -41 -19 -10 -12 -14 -11 -27 8 -11 16 -12 23 -4 26 7 2 12 9 12 15 0 6 10 22 23 35 l22 25 -27 -5 c-15 -3 -25 -1 -22 3 3 5 1 9 -5 9 -5 0 -12 -14 -16 -31 -4 -17 -13 -33 -21 -36 -8 -3 -14 -13 -14 -22 0 -10 -3 -12 -8 -5 -16 25 -37 18 -76 -24 -22 -24 -53 -50 -69 -58 -28 -15 -29 -15 -22 8 4 13 14 27 22 31 7 5 10 13 7 19 -4 6 -1 9 5 7 14 -5 121 91 121 108 0 20 -44 0 -78 -36 -19 -20 -32 -28 -28 -18 3 11 0 20 -9 23 -8 4 -15 13 -15 21 0 10 6 13 16 9 12 -5 15 -2 10 10 -3 8 -6 20 -6 26 0 11 -52 7 -61 -6 -4 -5 -22 -14 -40 -21 -19 -7 -43 -16 -53 -20 -17 -7 -18 -5 -12 21 4 16 19 40 34 53 15 14 26 29 24 34 -1 4 2 6 7 2 17 -10 60 6 55 20 -4 9 -21 13 -55 11 -27 -1 -49 2 -49 6 0 4 6 8 13 8 6 0 4 5 -5 11 -24 14 -23 33 1 26 11 -3 22 1 25 8 2 7 -5 16 -17 19 -37 10 -122 7 -134 -5 -8 -8 -13 -7 -18 1 -4 7 0 19 9 28 15 15 18 15 26 2 5 -8 12 -11 16 -7 21 21 -59 44 -83 25 -7 -6 -13 -21 -13 -34 0 -21 -10 -29 -32 -25 -5 0 -8 -10 -8 -24 0 -14 -4 -25 -10 -25 -5 0 -7 6 -4 14 3 9 -3 17 -15 21 -12 3 -19 11 -15 16 3 6 12 8 20 5 18 -7 45 3 39 15 -3 4 -12 6 -20 3 -10 -4 -13 0 -10 15 2 12 0 21 -4 21 -13 0 -32 -26 -24 -33 3 -4 1 -7 -5 -7 -7 0 -12 7 -12 16 0 13 -7 15 -27 11 -41 -8 -83 2 -76 19 3 8 11 14 18 14 6 0 24 11 39 25 15 14 38 25 52 25 13 0 27 7 30 15 4 8 10 12 15 9 5 -3 9 2 9 10 0 10 6 13 15 10 8 -4 15 -1 15 6 0 6 5 8 11 5 10 -7 48 29 50 47 3 19 5 24 12 36 5 7 12 10 17 7 9 -5 22 20 13 28 -14 14 -61 -16 -73 -48 -8 -19 -18 -35 -22 -35 -5 0 -6 -5 -2 -12 5 -7 3 -8 -6 -3 -7 4 -16 2 -21 -6 -6 -10 -9 -7 -10 11 l0 25 -11 -22 c-6 -13 -17 -23 -25 -23 -7 0 -13 -6 -13 -14 0 -19 -15 -28 -52 -32 -26 -3 -27 -2 -18 16 6 11 17 20 25 20 8 0 15 5 15 11 0 5 4 8 9 4 5 -3 13 0 17 6 3 6 1 14 -5 18 -6 4 3 13 24 21 22 9 34 19 31 27 -3 8 2 13 12 13 16 0 72 60 72 77 0 4 13 17 29 28 16 10 27 23 25 27 -3 4 -1 8 5 8 6 0 8 6 5 14 -7 18 34 26 58 12 13 -8 28 -4 58 12 23 12 50 22 61 22 10 0 19 4 19 9 0 5 13 12 29 16 22 5 28 11 25 23 -3 9 2 6 10 -8 8 -14 15 -20 16 -13 0 7 6 10 14 7 7 -3 16 2 19 10 4 10 1 13 -9 9 -8 -3 -14 1 -14 11 0 9 -8 16 -20 16 -13 0 -18 5 -14 15 8 20 -42 21 -53 1 -7 -12 -10 -12 -22 1 -11 12 -10 15 6 19 10 3 24 14 31 25 10 16 9 19 -7 19 -11 0 -22 -6 -25 -12 -3 -7 -4 11 -2 40 1 28 -1 52 -5 52 -5 0 -9 -7 -9 -15 0 -9 -7 -18 -15 -21 -10 -4 -13 -13 -10 -24 7 -22 -31 -61 -51 -53 -10 3 -12 0 -8 -10 5 -15 -22 -37 -45 -37 -21 0 -11 18 24 41 27 18 37 33 42 64 5 29 8 35 13 20 6 -18 7 -18 14 0 8 21 -7 41 -23 31 -6 -4 -11 -14 -11 -22 0 -8 -9 -14 -20 -14 -11 0 -20 5 -20 10 0 6 4 10 9 10 5 0 7 9 4 20 -5 20 -23 28 -23 10 0 -5 -4 -10 -9 -10 -5 0 -8 6 -7 13 9 40 19 67 27 67 5 0 9 7 9 15 0 8 4 15 8 15 5 0 9 -7 9 -15 0 -8 -4 -15 -9 -15 -4 0 -8 -4 -8 -10 0 -5 9 -10 21 -10 13 0 18 4 13 13 -4 7 -2 7 7 -2 10 -9 11 -15 3 -18 -15 -5 -6 -40 12 -47 23 -9 28 21 9 50 -16 24 -16 26 2 40 15 12 16 15 3 23 -19 13 -6 25 28 27 59 2 61 4 68 39 4 21 12 35 21 35 8 0 29 11 47 25 18 14 38 25 44 25 7 0 12 4 12 9 0 5 14 12 30 16 19 4 30 13 30 23 0 13 2 14 9 4 4 -8 11 -13 15 -13 3 1 7 1 9 0 35 -10 47 -7 47 13 0 17 3 19 12 10 7 -7 31 -12 55 -12 27 0 42 -4 40 -12 -1 -8 21 -12 69 -12 54 -1 70 -4 66 -14 -2 -7 -1 -12 4 -11 18 3 74 -14 74 -23 0 -5 5 -6 11 -3 5 4 24 1 41 -6 18 -7 32 -9 36 -3 11 15 73 17 71 2 -4 -33 1 -42 14 -24 11 15 17 17 35 7 18 -10 22 -9 22 4 0 12 6 15 23 10 18 -5 19 -4 7 5 -11 9 -12 13 -2 17 6 2 9 9 6 15 -5 7 4 9 27 5 36 -7 52 -1 57 22 2 9 -3 11 -15 7 -14 -6 -15 -4 -7 4 23 23 139 28 284 10 52 -6 102 -9 111 -7 12 3 15 -1 12 -14 -4 -13 0 -19 11 -19 9 0 16 8 16 20 0 13 7 20 18 20 15 0 18 -7 15 -37 -1 -29 0 -32 5 -13 l7 25 132 0 c93 0 133 3 133 11 0 12 251 32 313 26 19 -2 27 1 27 12 0 9 9 17 20 18 11 0 26 1 33 2 6 1 15 5 18 10 11 14 98 24 103 12 3 -7 8 -6 15 4 9 13 11 13 16 -1 4 -10 17 -13 45 -11 38 4 40 2 46 -26 6 -30 45 -53 52 -32 2 6 11 10 20 10 15 0 15 -2 2 -10 -13 -8 -12 -10 3 -10 10 0 20 7 23 15 4 8 12 15 20 15 8 0 14 8 14 17 0 9 3 13 7 10 3 -4 11 -3 17 2 22 17 86 20 114 5 15 -7 20 -14 12 -14 -8 -1 0 -7 18 -15 17 -8 32 -21 32 -30 0 -16 22 -45 34 -45 3 0 6 6 6 14 0 8 4 18 10 21 5 3 8 0 5 -7 -3 -8 7 -18 24 -26 17 -7 32 -23 34 -35 l4 -22 2 22 c1 22 2 22 22 5 12 -9 28 -23 36 -31 8 -8 24 -15 36 -16 12 -1 25 -3 28 -4 3 0 12 -20 18 -43 12 -38 11 -44 -7 -58 -11 -9 -23 -26 -26 -38 -6 -18 -3 -22 13 -22 11 0 25 -9 31 -20 6 -11 15 -18 20 -15 13 8 -16 65 -32 65 -9 0 -9 3 0 12 9 9 15 10 20 2 5 -7 14 -4 27 11 28 29 29 44 5 65 -15 13 -17 19 -8 23 11 4 10 7 0 15 -8 5 -13 12 -13 16 1 13 51 61 64 61 7 0 11 10 9 23 -2 12 1 22 6 22 5 0 8 10 8 22 -1 15 6 24 24 28 l25 6 -22 12 c-14 8 -23 22 -23 35 0 12 -9 29 -19 37 -11 7 -18 17 -15 22 3 4 0 8 -6 8 -7 0 -10 7 -6 15 3 8 1 15 -5 15 -6 0 -8 3 -5 8 7 11 -21 45 -32 38 -6 -3 -6 11 -2 36 6 30 4 45 -6 55 -12 12 -16 12 -29 -1 -8 -8 -15 -19 -15 -24 0 -5 -6 -9 -14 -9 -8 0 -19 19 -26 44 -7 24 -16 43 -20 43 -4 0 -11 12 -14 26 -7 25 -8 26 -26 9 -16 -15 -22 -15 -35 -5 -19 16 -19 36 0 44 8 3 15 0 15 -6 0 -7 4 -7 14 1 9 8 21 8 40 1 14 -5 26 -7 26 -4 0 13 -83 84 -91 78 -6 -3 -5 -11 2 -20 10 -12 9 -13 -5 -8 -9 3 -16 13 -16 21 0 11 -5 13 -17 7 -24 -11 -94 -7 -107 6 -16 16 -26 12 -26 -9 0 -24 -12 -32 -30 -21 -25 16 -19 38 12 44 l30 6 -30 25 c-32 27 -84 36 -63 12 6 -8 9 -23 6 -35 -2 -12 1 -22 7 -22 19 0 -35 -45 -54 -46 -10 -1 -18 6 -18 15 -1 24 -27 54 -40 46 -6 -4 -10 -14 -8 -23 2 -10 -5 -24 -16 -33 -17 -14 -19 -20 -9 -42 10 -22 9 -26 -10 -32 -18 -6 -14 -9 23 -15 25 -4 41 -8 37 -8 -4 -1 -2 -12 4 -24 l12 -23 13 30 c7 17 13 24 14 16 0 -8 6 -11 16 -7 8 3 13 2 10 -3 -3 -4 1 -17 9 -27 14 -18 14 -18 15 8 0 17 -9 34 -25 46 -29 23 -32 37 -8 46 26 10 64 -34 67 -79 3 -27 -2 -43 -16 -57 -15 -15 -19 -30 -15 -63 2 -24 0 -43 -4 -42 -4 1 -14 -6 -21 -16 -18 -23 -118 -61 -118 -44 0 9 -2 9 -9 -1 -10 -17 -106 -5 -127 15 -17 18 -18 59 -1 67 9 3 8 8 -3 18 -8 7 -14 25 -12 41 2 19 -1 27 -12 27 -15 0 -16 -37 -2 -115 5 -25 4 -26 -2 -5 -7 22 -13 25 -46 22 -23 -3 -42 1 -46 9 -5 7 -15 9 -26 4 -11 -4 -23 -9 -29 -11 -5 -1 -19 -5 -30 -9 -14 -5 -16 -4 -7 3 11 7 11 10 -2 15 -9 4 -16 13 -16 21 0 19 -31 30 -42 14 -4 -7 -8 -9 -8 -4 0 5 -6 3 -13 -3 -8 -6 -17 -8 -20 -4 -4 3 -7 2 -7 -4 0 -5 -24 -11 -52 -12 -30 -1 -60 -9 -70 -17 -13 -13 -21 -13 -38 -4 -18 9 -24 9 -30 0 -4 -7 -13 -9 -19 -6 -6 4 -11 2 -11 -3 0 -6 -10 -11 -23 -11 -13 0 -27 -3 -31 -7 -4 -4 -41 -9 -82 -11 -57 -2 -74 0 -74 11 0 9 -13 13 -40 12 -23 -1 -41 4 -44 11 -3 8 -18 11 -38 9 -21 -3 -28 -1 -19 4 7 5 10 14 6 21 -6 9 -9 9 -16 -1 -7 -11 -9 -10 -9 4 0 9 -8 17 -17 18 -10 0 -27 2 -38 4 -11 2 -23 -1 -27 -8 -6 -9 -10 -9 -17 2 -6 9 -18 12 -37 8 -16 -4 -66 -9 -112 -12 -46 -2 -87 -7 -92 -10 -4 -3 -19 -1 -33 4 -14 6 -28 6 -33 1 -5 -5 -25 -5 -46 -1 -32 8 -37 6 -43 -13 -6 -21 -6 -21 -15 -1 -12 27 -12 68 0 60 5 -3 17 6 26 20 17 26 40 35 31 12 -3 -8 3 -14 15 -14 13 -1 18 3 14 13 -3 8 1 14 9 14 8 0 15 5 15 10 0 6 18 10 40 10 45 0 44 1 30 -35 -9 -23 -8 -26 6 -21 8 3 20 6 25 6 5 0 9 9 9 20 0 17 5 19 25 14 19 -5 25 -2 25 9 0 28 18 28 44 0 l25 -27 10 26 c5 14 16 28 23 31 8 4 7 6 -4 6 -13 1 -18 9 -18 31 0 17 5 30 10 30 6 0 10 -4 10 -9 0 -5 9 -13 20 -16 11 -3 20 -13 20 -21 0 -8 7 -14 16 -14 8 0 13 -4 10 -8 -7 -11 45 -14 58 -3 6 5 13 9 16 10 3 0 12 2 20 5 8 2 28 7 44 11 23 5 27 8 15 16 -11 7 -9 9 9 9 18 0 22 4 17 19 -10 34 11 31 23 -3 9 -24 9 -47 2 -86 -10 -52 -5 -85 7 -42 3 12 9 22 14 22 5 0 9 12 10 28 0 15 3 21 6 15 2 -7 14 -13 26 -12 12 0 17 3 11 5 -19 8 -4 63 19 66 11 2 22 10 24 18 4 12 3 13 -5 1 -6 -8 -17 -11 -28 -7 -13 5 -15 9 -6 15 6 4 13 34 14 69 2 47 7 62 18 62 8 0 25 3 36 6 16 4 23 0 27 -16 6 -22 -16 -74 -26 -63 -4 3 -7 -3 -7 -15 0 -11 5 -24 11 -28 6 -3 9 -15 6 -25 -3 -11 -1 -19 4 -19 5 0 9 -5 9 -11 0 -6 6 -17 14 -24 12 -12 15 -12 20 0 3 8 1 15 -4 15 -13 0 -13 12 0 45 l10 27 25 -24 c14 -12 25 -31 25 -40 0 -20 20 -25 20 -5 0 9 2 9 9 -1 7 -12 12 -12 30 0 18 11 23 11 31 -2 6 -10 8 -3 4 22 -6 34 -5 36 16 31 14 -4 18 -8 10 -13 -9 -6 -9 -13 -1 -29 15 -27 25 -27 41 4 7 13 17 22 22 19 4 -3 8 0 8 5 0 6 -7 11 -15 11 -21 0 -19 17 4 30 17 9 20 6 23 -17 2 -14 10 -29 18 -31 13 -4 13 -3 2 10 -14 17 -3 32 13 20 14 -10 38 -55 26 -47 -7 3 -11 -2 -11 -14 0 -15 4 -19 17 -14 11 4 14 3 9 -5 -4 -7 2 -16 17 -23 18 -8 23 -17 19 -35 -3 -17 0 -24 12 -24 9 0 16 5 16 10 0 6 9 10 20 10 22 0 27 -15 8 -23 -10 -4 -10 -6 0 -6 17 -1 29 32 14 37 -14 4 -6 22 9 22 6 0 8 -4 4 -9 -3 -5 -1 -12 4 -16 6 -3 8 -12 4 -20 -3 -8 0 -15 6 -15 6 0 11 5 11 12 0 6 2 9 5 6 9 -9 -6 -37 -18 -34 -7 1 -9 1 -5 -1 4 -2 5 -10 2 -18 -3 -7 -1 -16 5 -20 6 -3 11 1 11 9 0 9 9 16 20 16 17 0 20 7 20 40 0 39 25 84 42 74 4 -3 8 2 8 10 0 18 8 20 29 7 10 -7 11 -13 2 -30 -10 -17 -9 -21 4 -21 9 0 14 -4 11 -8 -2 -4 -1 -14 4 -22 7 -12 11 -12 26 1 13 10 18 11 21 2 2 -7 10 -10 18 -7 8 4 15 -3 18 -18 3 -17 5 -15 6 10 1 21 5 31 12 26 8 -4 8 0 0 15 -7 11 -19 21 -28 21 -12 0 -14 7 -10 34 4 25 1 36 -9 40 -9 3 -12 10 -9 16 3 6 -4 10 -17 10 -18 0 -20 -2 -8 -10 8 -5 11 -10 5 -10 -22 0 -36 18 -42 53 -5 32 -3 37 13 38 16 0 15 2 -4 10 -13 5 -20 13 -17 19 3 5 1 10 -5 10 -6 0 -8 5 -5 10 6 9 1 11 -37 14 -7 1 -12 -5 -10 -13 3 -12 0 -12 -12 -1 -9 7 -16 28 -16 48 0 34 1 35 15 16 13 -16 16 -17 25 -4 6 8 9 22 6 31 -2 9 2 26 8 38 l12 21 23 -26 c17 -19 19 -25 7 -21 -12 5 -16 0 -16 -18 0 -14 5 -25 11 -25 5 0 7 -5 3 -11 -3 -6 -2 -14 2 -18 5 -3 15 -17 21 -31 11 -23 12 -23 12 -4 1 29 31 27 31 -2 0 -13 -4 -26 -10 -29 -18 -11 -11 -23 10 -18 11 3 27 -1 36 -8 14 -11 15 -9 8 27 -4 21 -10 41 -15 44 -4 3 -15 25 -25 49 -14 34 -15 47 -6 62 9 15 9 19 0 19 -21 0 -87 35 -93 49 -6 15 11 31 33 31 6 0 12 -6 12 -14 0 -8 14 -19 30 -25 17 -5 30 -15 30 -20 0 -20 29 -11 41 12 9 17 9 20 -1 10 -13 -12 -46 -1 -61 21 -4 5 -12 5 -18 2 -17 -11 -13 15 5 28 14 11 14 13 0 25 -14 12 -16 10 -16 -8 0 -18 -3 -20 -19 -11 -29 15 -61 12 -61 -5 0 -13 -3 -13 -20 -3 -11 7 -20 18 -20 25 0 7 -5 13 -11 13 -6 0 -9 7 -5 15 4 11 -1 15 -19 15 -16 0 -25 -6 -25 -15 0 -22 -23 -18 -38 6 -7 12 -16 18 -19 15 -7 -7 -33 13 -33 25 0 14 34 10 58 -7 29 -20 34 -15 26 25 -5 21 -16 37 -35 47 -25 13 -34 30 -30 57 0 4 -12 7 -28 7 -41 0 -47 15 -11 30 23 10 33 10 44 1 11 -9 20 -10 35 -1 29 15 26 21 -7 14 -28 -6 -29 -4 -24 26 2 18 8 27 11 21 8 -12 51 -3 51 11 0 6 6 8 14 5 9 -4 16 3 20 17 3 13 27 36 56 54 63 39 80 72 58 110 -12 19 -29 29 -57 35 -52 10 -84 -12 -154 -108 -28 -38 -68 -87 -89 -109 -22 -21 -37 -40 -34 -43 6 -6 -54 -63 -68 -63 -6 0 -3 -5 6 -11 16 -9 16 -11 -3 -30 -11 -11 -23 -18 -26 -15 -4 3 -3 6 2 6 4 0 2 7 -5 15 -13 16 -71 21 -84 8 -4 -5 -11 -8 -14 -9 -4 0 -15 -4 -25 -9 -10 -4 -20 -5 -23 -3 -8 8 64 78 80 78 9 0 16 5 16 11 0 5 5 7 11 4 6 -4 13 2 16 14 3 12 12 21 20 21 11 0 14 7 11 25 -3 14 -1 25 3 25 5 0 9 5 9 10 0 6 -6 10 -13 10 -7 0 -18 9 -25 20 -15 24 0 27 22 4 10 -9 16 -11 16 -4 0 20 -28 40 -57 41 -30 1 -86 16 -65 18 6 1 12 5 12 11 0 6 -19 7 -47 3 -27 -3 -45 -3 -41 1 10 11 -29 46 -52 46 -11 0 -20 -4 -20 -10 0 -5 -5 -10 -11 -10 -5 0 -7 5 -4 10 4 6 -17 10 -54 10 -38 0 -61 4 -61 11 0 6 7 9 15 5 8 -3 15 -1 15 4 0 6 -8 10 -17 11 -15 0 -15 2 2 9 17 7 17 9 3 9 -10 1 -18 8 -18 16 0 8 -3 15 -8 15 -4 0 -13 14 -20 30 -8 17 -20 30 -28 30 -8 0 -14 5 -14 11 0 7 -10 9 -25 7 -19 -4 -25 -1 -25 13 0 11 -8 18 -20 18 -11 1 -30 1 -42 1 -12 1 -29 7 -38 14 -13 12 -19 12 -37 -1z m-1681 -1963 c-1 -6 7 -14 18 -17 13 -3 19 -11 16 -19 -7 -18 11 -18 21 0 4 7 19 17 33 20 19 6 21 5 10 -3 -12 -8 -12 -11 -1 -11 8 0 11 -6 7 -16 -3 -8 3 -24 13 -35 18 -20 18 -20 24 1 4 15 13 20 38 20 l34 0 -28 -25 c-29 -28 -34 -41 -16 -47 18 -6 2 -42 -36 -84 -19 -21 -35 -42 -35 -46 0 -4 -10 -8 -22 -7 -15 0 -18 3 -8 6 23 10 40 30 40 49 0 10 6 25 14 33 7 9 17 26 20 38 10 31 -16 21 -34 -12 -7 -13 -17 -22 -22 -19 -5 3 -12 -3 -15 -15 -3 -12 -12 -21 -20 -21 -8 0 -12 4 -9 9 4 5 0 12 -6 15 -9 3 -8 8 5 16 22 14 24 55 2 46 -9 -3 -15 0 -15 8 0 18 -22 26 -49 19 -16 -4 -21 -1 -21 15 0 12 5 24 10 27 6 3 10 -1 10 -9 0 -9 7 -16 15 -16 8 0 15 5 15 10 0 6 -4 10 -10 10 -5 0 -10 5 -10 10 0 6 8 10 18 10 14 0 15 2 2 10 -9 6 -17 5 -23 -3 -5 -7 -5 -2 -1 13 6 23 6 24 -12 6 -12 -13 -19 -15 -22 -7 -5 14 28 42 43 37 6 -2 9 -9 7 -16z m1458 -1049 c0 -17 6 -18 45 -14 47 5 63 -10 21 -21 -14 -3 -36 -25 -53 -51 -15 -25 -31 -45 -35 -45 -5 0 -8 -5 -8 -11 0 -8 5 -7 15 1 9 7 19 10 22 6 4 -4 1 -11 -7 -16 -11 -7 -6 -10 19 -10 25 0 32 4 28 15 -5 12 -2 12 18 3 31 -14 31 -30 1 -62 -22 -25 -64 -37 -51 -16 3 6 -1 10 -9 10 -8 0 -18 -4 -21 -10 -3 -5 -2 -10 4 -10 6 0 8 -7 5 -15 -10 -25 -37 -19 -29 6 5 16 4 19 -5 14 -10 -6 -11 -1 -6 21 12 47 12 48 -11 52 -20 3 -21 6 -12 23 6 11 8 25 6 32 -2 7 0 20 5 30 13 25 0 42 -20 24 -18 -15 -52 -29 -52 -22 0 8 74 75 82 75 4 0 8 -6 8 -12 0 -7 5 -5 11 5 13 23 29 22 29 -2z" style="fill: rgba(177, 3, 3, 0.68);"/>
    <path d="M8026 9005 c5 -19 2 -25 -11 -25 -10 0 -15 -5 -12 -14 3 -7 0 -19 -6 -26 -8 -9 -8 -11 -1 -7 12 7 66 -37 57 -46 -8 -9 45 -20 63 -13 8 3 12 11 9 16 -4 6 9 4 28 -4 20 -8 38 -12 41 -8 3 3 6 -2 6 -11 0 -9 6 -17 14 -17 18 0 76 49 59 50 -7 0 -13 6 -13 14 0 7 -7 19 -15 26 -13 11 -15 9 -15 -13 0 -14 -7 -28 -16 -31 -22 -8 -54 -8 -54 2 0 4 -14 15 -30 24 -17 10 -30 21 -29 25 5 28 -2 35 -27 29 -22 -6 -25 -4 -20 10 6 17 -9 44 -25 44 -5 0 -7 -11 -3 -25z" style="fill: rgba(177, 3, 3, 0.68);"/>
    <path d="M3483 8762 c-27 -4 -33 -42 -7 -42 12 0 15 -5 9 -22 -4 -13 -10 -46 -12 -75 -4 -44 -2 -54 16 -65 15 -9 21 -23 21 -51 0 -41 20 -58 45 -37 12 10 18 10 31 -1 14 -11 18 -10 29 5 8 10 19 15 25 11 13 -8 40 12 40 31 0 9 -8 10 -31 4 -18 -5 -36 -7 -42 -3 -6 4 -8 0 -4 -10 8 -22 -2 -22 -20 1 -8 9 -12 12 -9 6 4 -7 -6 -14 -24 -16 -18 -3 -30 0 -30 6 0 18 18 41 32 41 7 1 12 7 10 14 -1 7 4 24 13 38 9 13 14 32 12 41 -4 15 -5 15 -6 0 -1 -20 -41 -13 -41 8 0 8 -7 14 -15 14 -21 0 -19 27 3 39 16 10 16 12 1 24 -9 7 -18 19 -20 27 -3 9 -13 14 -26 12z" style="fill: rgba(177, 3, 3, 0.68);"/>
    <path d="M4133 8504 c-5 -19 -7 -34 -2 -34 4 0 5 -9 2 -20 -7 -26 -19 -26 -26 1 -3 12 -10 18 -16 14 -7 -3 -8 0 -5 9 9 24 -21 20 -51 -6 -14 -12 -25 -28 -25 -36 0 -9 -3 -12 -7 -9 -6 7 -33 -57 -33 -80 0 -25 20 -13 46 27 20 30 30 37 39 30 9 -8 14 -6 19 5 3 8 13 14 23 14 16 -1 16 -2 1 -6 -16 -4 -16 -5 0 -22 16 -17 18 -17 45 2 32 22 49 57 36 73 -6 8 -4 14 5 17 14 5 19 45 6 48 -36 9 -47 4 -57 -27z" style="fill: rgba(177, 3, 3, 0.68);"/>
    <path d="M4740 8320 c0 -5 -7 -10 -16 -10 -8 0 -13 -4 -10 -8 7 -11 -22 -52 -36 -52 -13 0 -68 -56 -68 -69 0 -5 6 -12 13 -15 10 -5 10 -7 0 -12 -17 -7 -17 -34 0 -34 7 0 18 9 25 21 9 14 19 18 32 14 22 -7 49 13 42 33 -2 6 2 12 8 12 8 0 10 -11 6 -32 -7 -39 9 -74 20 -45 3 10 4 36 1 58 -4 33 -3 39 9 35 8 -3 12 -2 9 3 -3 6 3 14 12 20 23 14 7 14 -18 1 -23 -13 -25 -4 -4 16 17 17 20 54 5 54 -5 0 -10 -10 -11 -22 0 -22 -1 -22 -8 -3 -5 11 -6 26 -4 33 3 6 2 12 -1 12 -3 0 -6 -4 -6 -10z" style="fill: rgba(177, 3, 3, 0.68);"/>
    <path d="M3849 8295 c-1 -8 -2 -21 -3 -27 -1 -9 -26 -13 -89 -13 -63 0 -87 -3 -87 -12 0 -7 -4 -13 -9 -13 -15 0 -41 -30 -41 -46 0 -15 35 -19 45 -5 3 6 18 6 38 0 46 -13 64 -12 49 3 -16 16 -15 28 3 28 8 0 15 -6 15 -14 0 -21 -29 -84 -30 -63 0 9 -5 17 -10 17 -13 0 -1 -50 17 -68 7 -8 11 -17 8 -22 -4 -6 25 -19 45 -20 4 0 4 15 2 34 -2 18 1 37 7 40 14 9 3 36 -15 36 -8 0 -14 5 -14 10 0 14 37 12 43 -2 4 -10 7 -10 18 0 11 10 10 12 -4 12 -9 0 -17 4 -17 10 0 5 -7 7 -15 4 -8 -4 -15 -2 -15 4 0 5 11 13 25 16 16 4 25 13 25 25 0 11 4 21 8 23 13 5 24 58 12 58 -5 0 -11 -7 -11 -15z" style="fill: rgba(177, 3, 3, 0.68);"/>
    <path d="M4300 8245 c-1 -16 -2 -40 -2 -53 1 -17 -3 -22 -16 -18 -19 6 -45 -6 -40 -20 2 -5 -1 -9 -7 -9 -5 0 -9 8 -7 18 1 14 -3 17 -17 12 -25 -8 -36 23 -16 44 13 16 12 17 -19 18 -26 1 -36 -5 -50 -28 -19 -32 -23 -33 -61 -19 -23 9 -24 12 -14 31 11 22 0 39 -26 39 -5 0 -3 -4 5 -10 12 -7 11 -12 -6 -27 -11 -10 -23 -26 -27 -35 -3 -10 -16 -18 -27 -18 -12 0 -18 4 -15 10 3 6 -4 9 -18 8 -13 -1 -24 -7 -24 -13 0 -5 -3 -27 -7 -47 -7 -37 6 -54 18 -23 9 24 26 17 26 -11 0 -14 4 -23 9 -20 4 3 7 16 6 29 -3 21 1 23 29 19 23 -2 27 -1 17 6 -11 8 -6 12 22 17 20 4 37 11 37 15 0 4 16 11 35 14 21 4 35 13 35 21 0 31 27 13 39 -25 6 -22 16 -40 21 -40 6 0 10 -9 10 -19 0 -10 6 -21 13 -23 17 -7 38 2 31 13 -3 5 1 9 8 9 29 1 49 48 45 108 -2 32 -5 44 -7 27z" style="fill: rgba(177, 3, 3, 0.68);"/>
    <path d="M4056 8107 c-11 -8 -16 -19 -12 -25 3 -6 2 -13 -4 -17 -6 -4 -8 -11 -5 -16 4 -5 1 -9 -6 -9 -8 0 -8 -4 1 -15 11 -13 8 -15 -14 -15 -26 0 -35 -13 -17 -24 5 -4 11 0 14 6 2 8 8 9 13 4 5 -5 1 -13 -10 -20 -11 -6 -28 -19 -39 -30 -17 -16 -18 -20 -4 -27 9 -6 26 -5 42 1 34 13 35 13 35 -4 0 -16 27 -29 41 -20 5 3 7 16 5 30 -3 15 1 27 11 32 8 5 14 12 14 15 -2 17 0 19 15 7 8 -8 14 -9 13 -4 -1 5 -1 20 0 34 1 18 4 21 10 12 6 -11 9 -9 14 7 3 11 -1 25 -9 32 -11 9 -14 8 -14 -7 -1 -15 -10 -9 -38 24 -34 38 -40 41 -56 29z" style="fill: rgba(177, 3, 3, 0.68);"/>
    <path d="M6760 8080 c11 -7 2 -9 -30 -9 -25 1 -65 -2 -90 -6 -25 -5 -53 -8 -62 -9 -10 0 -18 -4 -18 -8 0 -4 -20 -8 -44 -8 -41 0 -45 -2 -48 -27 l-4 -28 -11 25 c-9 18 -12 20 -12 8 -1 -11 -9 -18 -21 -18 -10 0 -23 -8 -29 -17 -5 -10 -13 -14 -17 -10 -5 5 -2 12 6 17 8 5 12 12 9 15 -4 3 -20 -7 -36 -22 -24 -23 -38 -28 -76 -27 -29 1 -51 -3 -58 -12 -13 -16 -69 -19 -69 -4 0 6 -9 10 -20 10 -11 0 -20 -6 -20 -12 0 -9 -4 -8 -10 2 -7 12 -10 12 -10 1 0 -7 -6 -11 -14 -8 -8 3 -17 -1 -20 -9 -3 -9 1 -14 14 -14 26 0 60 -29 53 -46 -3 -8 -14 -14 -24 -14 -10 0 -19 -4 -19 -10 0 -5 -6 -10 -14 -10 -7 0 -19 -7 -26 -15 -10 -12 -10 -15 3 -15 10 0 14 -6 11 -14 -3 -8 3 -16 16 -19 14 -3 19 -10 15 -17 -6 -9 -9 -9 -15 0 -4 6 -17 9 -32 5 -15 -4 -29 -2 -32 4 -4 7 1 11 13 11 12 0 21 5 21 10 0 6 -9 10 -20 10 -11 0 -20 -5 -20 -11 0 -8 -17 -10 -52 -7 -52 5 -90 -1 -89 -15 3 -22 -1 -27 -19 -27 -13 0 -20 -7 -20 -20 0 -11 -5 -20 -12 -20 -6 0 -4 -7 5 -18 22 -24 22 -42 0 -43 -12 0 -14 -2 -5 -6 10 -4 6 -11 -13 -23 -17 -11 -23 -20 -16 -24 6 -4 14 -1 17 8 3 8 12 12 20 9 8 -3 14 0 14 6 0 6 20 11 48 12 26 1 39 3 29 6 -15 4 -16 7 -6 19 8 10 15 11 19 4 4 -6 14 -3 28 10 11 11 28 20 37 20 8 0 15 6 15 14 0 19 37 31 54 17 7 -6 17 -7 21 -3 5 4 6 0 3 -9 -4 -9 -3 -22 2 -29 10 -17 70 -23 71 -7 0 6 4 3 9 -8 4 -11 4 -24 -1 -29 -14 -15 -11 -36 5 -36 8 0 22 -8 32 -17 13 -13 19 -14 22 -5 2 6 16 12 30 11 23 0 24 -2 8 -8 -19 -7 -18 -8 5 -16 59 -19 63 -24 19 -20 -45 4 -45 4 -10 -6 24 -8 40 -8 52 0 13 8 20 4 37 -24 15 -27 17 -35 6 -35 -7 0 -20 -3 -28 -6 -10 -3 -17 2 -20 13 -3 12 -5 9 -6 -9 -1 -24 2 -26 30 -23 17 3 36 9 43 14 13 11 126 3 126 -10 0 -4 9 -11 20 -14 11 -3 20 -13 20 -21 0 -20 37 -17 45 3 4 12 -1 24 -14 34 -11 9 -17 19 -14 23 10 10 45 7 39 -3 -7 -11 20 -18 94 -26 38 -4 49 -2 35 4 l-20 10 20 0 c24 0 55 -21 55 -39 0 -10 5 -9 18 3 9 8 30 17 47 19 26 3 31 -1 36 -27 4 -16 7 -22 8 -12 2 38 37 57 105 57 36 0 67 4 71 10 3 5 12 7 20 3 8 -3 15 0 15 6 0 6 14 11 30 11 29 0 39 5 77 40 12 11 17 12 21 2 4 -14 58 -16 67 -2 3 6 17 10 31 10 13 0 24 4 24 10 0 21 56 100 71 100 9 0 22 7 29 15 7 8 18 15 24 15 6 0 4 -5 -4 -11 -13 -8 -12 -10 4 -7 20 3 30 16 46 62 8 23 13 26 24 16 12 -9 17 -7 26 9 13 25 -6 61 -31 61 -9 0 -24 11 -33 25 -17 26 -58 35 -55 13 3 -24 -1 -38 -11 -38 -18 0 -10 41 11 59 l21 17 -35 27 c-20 15 -40 27 -46 27 -6 0 -11 5 -11 11 0 12 -30 44 -30 32 0 -4 -5 -1 -10 7 -8 13 -11 12 -24 -5 -13 -18 -15 -18 -21 -3 -4 9 -4 21 -1 26 6 10 -78 37 -104 34 -30 -3 -43 7 -30 23 8 9 8 15 2 15 -6 0 -12 -5 -14 -11 -3 -9 -10 -9 -27 0 -13 7 -53 12 -94 10 -129 -3 -202 1 -205 11 -2 6 -22 10 -45 10 -31 0 -38 -3 -27 -10z" style="fill: rgba(177, 3, 3, 0.68);"/>
    <path d="M5459 7723 c-18 -20 -27 -32 -19 -28 12 6 13 5 3 -6 -7 -7 -13 -20 -13 -29 0 -23 -39 -53 -58 -45 -16 6 -16 7 1 16 9 6 17 17 17 26 0 10 -5 13 -17 8 -10 -4 -25 -8 -33 -9 -8 0 -20 -8 -27 -16 -11 -13 -12 -12 -13 7 0 29 15 37 75 36 37 0 44 2 25 8 -21 6 -22 7 -5 8 17 2 16 4 -8 17 -27 15 -32 14 -92 -17 -35 -18 -61 -37 -58 -42 4 -6 1 -7 -6 -2 -9 5 -10 10 -2 18 6 6 11 18 11 26 0 9 -14 -1 -35 -23 -19 -21 -32 -42 -29 -47 3 -5 0 -9 -6 -9 -8 0 -8 -6 0 -20 6 -11 20 -20 32 -20 16 0 19 -5 16 -25 -6 -30 3 -32 20 -4 8 12 19 18 28 15 8 -3 14 -1 14 4 0 13 67 43 80 35 7 -4 7 -12 0 -25 -6 -10 -11 -30 -12 -44 -1 -15 -6 -26 -10 -26 -18 0 -6 -18 15 -24 14 -3 26 0 33 9 6 8 13 12 17 9 3 -3 8 4 12 15 3 12 13 21 22 21 9 0 13 6 9 15 -4 13 -2 13 14 5 10 -5 26 -7 34 -4 9 3 16 1 16 -5 0 -6 -3 -11 -7 -11 -13 0 -129 -113 -141 -137 -18 -33 -16 -77 3 -69 10 4 15 -1 15 -14 0 -11 -3 -19 -7 -18 -19 4 -62 -15 -67 -29 -5 -12 -2 -14 16 -8 13 4 37 8 53 9 29 1 30 3 27 41 -1 28 4 48 17 65 l20 25 -5 -27 c-6 -34 5 -35 39 -4 15 14 33 29 41 33 16 10 31 53 18 53 -5 0 -17 -9 -27 -20 -10 -11 -27 -20 -39 -20 -15 0 -17 3 -8 12 7 7 12 19 12 28 0 9 11 27 25 40 21 20 25 21 31 6 9 -22 31 -20 37 4 8 30 9 32 44 67 17 18 36 33 42 33 6 0 11 6 11 13 0 9 3 9 9 -1 6 -10 10 -7 15 13 4 14 4 30 1 35 -8 13 -35 13 -35 1 0 -16 -57 -67 -97 -88 -43 -22 -72 -20 -52 3 6 8 8 14 4 14 -4 0 -2 7 5 15 7 8 21 15 31 15 20 0 26 15 10 25 -5 3 -17 -2 -25 -11 -9 -8 -16 -12 -17 -7 0 4 -4 -3 -10 -15 -5 -13 -22 -29 -39 -35 -16 -6 -30 -15 -30 -20 0 -4 -4 -6 -9 -2 -5 3 -12 1 -16 -5 -12 -20 -26 -10 -15 10 6 11 16 20 22 20 16 0 57 51 51 65 -2 7 1 16 6 20 6 3 9 10 6 14 -2 5 4 16 15 26 20 18 27 45 12 45 -4 0 -24 -16 -43 -37z" style="fill: rgba(177, 3, 3, 0.68);"/>
    <path d="M5595 7472 c-3 -3 -5 -13 -5 -22 0 -10 -6 -23 -14 -29 -7 -6 -16 -29 -20 -51 -5 -35 -10 -40 -32 -40 -14 0 -23 -4 -19 -10 8 -12 55 -13 55 -1 0 11 88 34 101 26 5 -4 9 2 9 12 0 12 8 19 21 20 12 1 26 6 32 12 11 11 1 31 -17 31 -7 0 -13 7 -13 15 0 8 7 15 15 15 11 0 12 3 2 14 -11 14 -103 20 -115 8z" style="fill: rgba(177, 3, 3, 0.68);"/>
    <path d="M3680 7393 c-19 -32 -37 -65 -40 -73 -10 -31 -82 -158 -100 -178 -10 -11 -16 -23 -13 -26 4 -3 1 -6 -5 -6 -7 0 -12 -7 -12 -15 0 -8 -4 -15 -9 -15 -9 0 -31 -31 -80 -115 -13 -22 -27 -42 -30 -45 -9 -7 -61 -88 -61 -95 0 -3 -15 -27 -34 -53 -18 -27 -41 -63 -51 -82 -9 -18 -21 -38 -26 -44 -23 -28 -58 -86 -51 -86 4 0 2 -4 -4 -8 -14 -9 -84 -114 -84 -125 0 -5 -6 -15 -12 -22 -31 -35 -38 -45 -38 -59 0 -8 -3 -16 -8 -18 -4 -1 -30 -37 -57 -78 -28 -41 -53 -77 -56 -80 -4 -3 -19 -30 -34 -60 -15 -30 -34 -62 -41 -71 -8 -9 -16 -25 -18 -35 -5 -22 -27 -78 -61 -151 -15 -33 -32 -54 -47 -58 -24 -8 -177 -105 -199 -128 -8 -7 -27 -20 -44 -29 -27 -14 -88 -47 -166 -89 -16 -10 -47 -28 -67 -41 -54 -34 -72 -45 -117 -69 -22 -12 -42 -25 -45 -29 -7 -9 -70 -40 -83 -40 -5 0 -51 -20 -101 -44 -50 -24 -118 -56 -151 -72 -33 -15 -62 -31 -65 -34 -3 -3 -23 -11 -45 -19 -47 -16 -181 -77 -280 -128 -70 -35 -113 -58 -233 -127 -35 -20 -68 -36 -72 -36 -5 0 -10 -4 -12 -8 -1 -4 -32 -23 -68 -41 -36 -18 -72 -39 -80 -46 -8 -7 -49 -30 -90 -51 -41 -22 -77 -41 -80 -44 -3 -3 -27 -16 -54 -30 -27 -13 -54 -29 -60 -35 -6 -5 -35 -21 -63 -34 -29 -13 -61 -31 -71 -40 -16 -14 -43 -31 -107 -65 -11 -6 -22 -14 -25 -17 -3 -4 -43 -26 -90 -48 -46 -23 -87 -45 -90 -49 -3 -4 -20 -16 -39 -26 -32 -18 -65 -43 -97 -74 -11 -11 -13 -262 -14 -1449 0 -1038 3 -1440 11 -1450 8 -9 8 -13 0 -13 -16 0 -15 -147 2 -154 10 -5 10 -7 0 -12 -20 -9 -18 -124 2 -124 8 0 15 -4 15 -10 0 -5 -7 -10 -15 -10 -12 0 -15 -21 -14 -127 1 -85 5 -131 12 -136 9 -6 9 -10 0 -13 -16 -7 -18 -310 -2 -319 7 -5 7 -11 0 -19 -16 -18 -13 -283 2 -290 9 -5 9 -7 0 -12 -16 -7 -18 -130 -2 -140 8 -4 7 -9 -2 -15 -7 -4 171 -8 397 -8 272 -1 404 2 394 9 -13 8 -12 10 3 10 9 0 17 -4 17 -10 0 -16 4147 -13 4154 3 5 9 7 9 12 0 3 -7 12 -13 20 -13 9 0 12 4 9 10 -3 5 -1 10 4 10 6 0 11 -4 11 -10 0 -7 1662 -10 4968 -9 2779 0 4958 4 4947 9 -11 5 -14 9 -7 9 6 1 12 6 12 12 0 5 -4 8 -9 4 -5 -3 -11 5 -13 17 -2 13 -9 22 -15 21 -7 -2 -10 3 -7 11 3 7 -4 30 -15 50 -12 20 -21 43 -21 52 0 8 -4 12 -10 9 -6 -3 -10 3 -10 14 0 12 -4 21 -9 21 -5 0 -13 10 -16 23 -13 42 -39 92 -52 100 -7 4 -13 14 -13 21 0 18 -39 96 -48 96 -5 0 -15 22 -22 50 -8 28 -19 50 -27 50 -7 0 -13 6 -13 14 0 7 -9 25 -20 39 -11 14 -20 33 -20 43 0 9 -3 14 -7 11 -7 -8 -53 52 -53 70 0 7 -6 13 -12 13 -9 0 -8 4 2 10 13 8 12 10 -2 10 -10 0 -18 5 -18 11 0 6 -6 16 -12 23 -7 8 -20 24 -28 36 -8 12 -20 28 -25 34 -13 14 -37 98 -43 149 -2 20 -8 37 -13 37 -5 0 -9 7 -9 15 0 8 -4 15 -8 15 -5 0 -14 25 -21 55 -7 30 -17 57 -22 60 -5 4 -9 20 -9 36 0 18 -4 28 -10 24 -6 -4 -10 6 -10 23 0 17 -6 32 -15 36 -8 3 -15 16 -15 30 0 14 -4 27 -10 31 -5 3 -7 12 -3 20 3 8 0 15 -6 15 -6 0 -11 14 -11 30 0 17 -4 30 -10 30 -5 0 -10 11 -10 24 0 13 -7 36 -14 52 -8 15 -13 31 -10 36 3 4 0 8 -5 8 -6 0 -10 3 -10 8 1 4 1 9 -1 12 -1 3 -4 16 -6 29 -2 14 -11 38 -19 54 -8 17 -15 36 -15 44 0 7 -4 13 -10 13 -5 0 -10 7 -10 15 0 24 -60 136 -69 131 -5 -3 -11 12 -15 33 -3 22 -12 46 -19 53 -7 7 -25 38 -40 68 -49 96 -78 145 -87 148 -6 2 -10 9 -10 17 0 7 -7 18 -15 25 -8 7 -15 20 -15 30 0 10 -7 20 -15 24 -8 3 -15 12 -15 19 0 29 -51 104 -89 132 -23 17 -43 38 -47 48 -3 9 -9 15 -14 12 -4 -3 -13 2 -20 10 -7 8 -19 15 -26 15 -18 0 -57 22 -67 38 -4 6 -15 12 -22 12 -8 0 -15 4 -15 9 0 5 -10 13 -22 17 -12 3 -30 15 -41 25 -11 10 -24 16 -29 13 -4 -3 -8 2 -8 11 0 9 -4 14 -9 10 -5 -3 -15 1 -23 8 -7 7 -28 20 -45 28 -18 7 -33 17 -33 21 0 5 -7 8 -16 8 -9 0 -27 9 -41 20 -14 11 -32 20 -40 20 -8 0 -11 5 -8 10 3 6 -3 10 -14 10 -11 0 -22 4 -26 9 -3 5 -19 12 -35 16 -17 4 -30 13 -30 21 0 9 -4 13 -9 10 -5 -3 -20 3 -33 14 -14 11 -28 16 -32 13 -3 -3 -6 -2 -6 4 0 6 -30 26 -67 44 -38 18 -74 39 -81 46 -7 7 -18 13 -23 13 -5 0 -9 7 -9 15 0 8 -7 15 -16 15 -8 0 -12 5 -9 10 5 9 -1 12 -21 9 -3 0 -15 10 -27 23 -25 27 -117 73 -162 82 -16 3 -56 6 -87 8 -41 1 -58 5 -58 15 0 7 -7 13 -17 13 -9 0 -14 3 -10 6 6 7 -49 62 -82 82 -11 6 -28 12 -36 12 -8 0 -15 5 -15 10 0 6 -6 10 -14 10 -7 0 -19 6 -25 14 -7 8 -26 18 -43 21 -23 5 -27 9 -17 16 11 7 10 9 -3 9 -10 0 -18 5 -18 10 0 6 -7 10 -14 10 -8 0 -35 14 -59 30 -25 17 -52 30 -61 30 -9 0 -16 4 -16 9 0 9 -100 61 -117 61 -6 0 -13 6 -16 14 -3 7 -30 24 -61 37 -31 12 -56 26 -56 31 0 4 -9 8 -19 8 -11 0 -22 4 -26 9 -3 5 -19 12 -35 16 -16 4 -34 14 -40 23 -5 9 -10 14 -10 10 0 -10 -92 22 -112 39 -9 8 -22 12 -27 8 -6 -3 -11 -2 -11 3 0 5 -23 16 -51 25 -28 9 -62 26 -76 37 -14 11 -33 20 -42 20 -9 0 -25 7 -35 15 -11 8 -28 15 -38 15 -10 0 -18 5 -18 10 0 6 -6 10 -14 10 -8 0 -16 3 -18 8 -5 12 -85 52 -104 52 -10 0 -14 3 -11 7 8 7 -38 33 -59 33 -8 0 -14 4 -14 8 0 5 -12 15 -27 23 -16 8 -39 24 -53 37 -14 12 -33 22 -42 22 -10 0 -18 4 -18 10 0 5 -11 12 -25 16 -14 3 -25 10 -25 16 0 5 -4 7 -9 3 -5 -3 -12 -1 -16 5 -4 6 -11 8 -16 5 -5 -4 -9 1 -9 9 0 9 -13 18 -35 22 -19 3 -33 9 -31 13 3 4 -5 8 -16 8 -11 1 -25 8 -31 16 -7 8 -34 22 -62 32 -61 21 -103 39 -175 75 -112 56 -145 74 -150 80 -7 9 -43 24 -52 22 -5 -1 -8 2 -8 8 0 5 -7 10 -15 10 -8 0 -15 5 -15 10 0 6 -12 10 -26 10 -14 0 -23 4 -20 9 3 5 -12 16 -33 25 -22 8 -42 20 -46 26 -3 5 -15 10 -25 10 -10 0 -25 7 -34 15 -8 8 -40 25 -70 36 -31 12 -56 26 -56 30 0 5 -10 9 -22 9 -12 0 -18 3 -14 7 6 7 -37 34 -76 49 -10 3 -18 10 -18 15 0 5 -7 9 -15 9 -8 0 -15 4 -15 9 0 5 -8 11 -17 15 -10 3 -47 24 -83 46 -36 22 -85 50 -110 61 -25 12 -53 28 -62 37 -10 8 -18 11 -18 6 0 -5 -4 -4 -8 1 -4 6 -18 16 -32 23 -14 7 -38 21 -55 32 -50 32 -85 51 -85 45 0 -4 -10 1 -22 9 -12 9 -32 16 -43 16 -11 0 -31 9 -45 20 -14 11 -32 20 -41 20 -9 0 -22 7 -29 15 -7 8 -21 15 -32 15 -10 0 -21 7 -24 15 -4 8 -15 15 -25 15 -10 0 -19 5 -19 10 0 6 -6 10 -12 8 -7 -1 -33 8 -57 20 -24 12 -47 19 -51 17 -4 -3 -13 2 -20 10 -7 8 -18 15 -25 15 -12 0 -105 142 -105 161 0 5 -15 37 -34 71 -18 35 -37 74 -41 87 -4 14 -11 29 -16 35 -17 20 -69 128 -69 142 0 8 -4 14 -9 14 -5 0 -12 11 -15 25 -4 14 -11 25 -16 25 -6 0 -10 9 -10 19 0 11 -7 26 -15 35 -8 8 -15 24 -15 35 0 12 -4 21 -9 21 -5 0 -12 11 -15 25 -4 14 -11 25 -16 25 -6 0 -10 5 -10 11 0 11 -20 60 -44 109 -7 14 -21 54 -31 90 -10 36 -22 69 -27 74 -4 6 -8 20 -8 33 0 13 -4 31 -9 41 -5 9 -20 46 -34 82 -60 155 -90 220 -102 220 -8 0 -15 -22 -20 -56 -4 -31 -12 -73 -19 -93 -7 -20 -16 -58 -20 -86 -11 -76 -38 -185 -47 -185 -4 0 -10 -11 -13 -25 -4 -14 -24 -63 -46 -109 -22 -46 -40 -87 -40 -91 0 -3 -11 -21 -25 -39 -14 -18 -25 -38 -25 -44 0 -7 -4 -12 -9 -12 -5 0 -12 -11 -15 -25 -4 -14 -13 -25 -21 -25 -8 0 -15 -5 -15 -10 0 -6 -12 -23 -26 -38 -14 -15 -32 -42 -40 -59 -8 -19 -22 -33 -32 -33 -15 0 -15 -2 -2 -10 10 -6 11 -10 3 -10 -7 0 -13 -7 -13 -15 0 -8 -7 -15 -15 -15 -11 0 -14 -7 -11 -25 3 -14 1 -25 -4 -25 -5 0 -7 -7 -4 -15 4 -8 1 -15 -5 -15 -6 0 -11 -10 -11 -22 0 -19 -2 -20 -10 -8 -8 12 -10 11 -11 -7 -1 -13 -2 -29 -3 -35 -1 -7 -9 -19 -19 -26 -9 -7 -15 -17 -12 -22 3 -5 -6 -17 -20 -28 -14 -11 -25 -25 -25 -32 0 -6 -4 -9 -9 -5 -5 3 -12 -4 -16 -15 -3 -11 -11 -20 -16 -20 -6 0 -7 -4 -4 -10 3 -5 -1 -10 -10 -10 -9 0 -13 -5 -10 -11 4 -6 -3 -13 -14 -16 -13 -3 -21 -12 -19 -21 2 -9 8 -14 13 -11 6 2 9 8 7 12 -1 5 3 5 9 2 8 -5 8 -10 0 -18 -6 -6 -11 -19 -11 -29 0 -10 -4 -18 -10 -18 -5 0 -10 7 -10 16 0 8 -4 12 -10 9 -6 -3 -10 -15 -10 -26 0 -10 -4 -19 -10 -19 -5 0 -10 -5 -10 -11 0 -15 -26 -39 -43 -39 -8 0 -18 -7 -21 -16 -3 -8 -11 -12 -17 -9 -6 4 -13 -2 -16 -14 -3 -12 -11 -21 -17 -21 -15 0 -37 -58 -25 -66 5 -3 -3 -16 -18 -30 -14 -13 -23 -24 -19 -24 4 0 -9 -15 -29 -32 -19 -18 -35 -41 -35 -50 0 -10 -4 -18 -10 -18 -5 0 -10 -7 -10 -15 0 -8 5 -15 10 -15 19 0 10 -17 -16 -29 -17 -7 -24 -17 -20 -26 4 -10 -1 -15 -14 -15 -21 0 -27 -16 -9 -22 7 -2 9 -13 4 -27 -4 -14 -12 -20 -21 -17 -7 3 -13 2 -13 -2 3 -20 -3 -32 -16 -32 -8 0 -15 -4 -15 -8 0 -4 -17 -14 -37 -21 -51 -18 -63 -29 -63 -56 0 -13 -7 -25 -15 -29 -8 -3 -15 -15 -15 -26 0 -11 -6 -20 -14 -20 -7 0 -16 -10 -19 -21 -4 -14 -11 -20 -21 -16 -12 5 -15 -3 -14 -34 0 -32 5 -42 21 -48 l21 -8 -22 -12 c-18 -9 -22 -9 -22 2 0 8 -7 20 -15 27 -19 16 -19 30 1 30 8 0 12 5 9 11 -4 6 -13 8 -20 5 -7 -2 -18 1 -24 7 -10 9 -15 8 -25 -6 -12 -15 -14 -13 -20 23 -5 31 -12 43 -31 50 -16 6 -25 18 -26 32 -1 17 -2 19 -6 6 -5 -21 -23 -24 -23 -4 0 7 -7 19 -16 26 -8 7 -14 23 -13 34 3 38 -1 56 -11 56 -5 0 -10 -8 -10 -17 0 -15 -2 -16 -10 -3 -5 8 -12 11 -16 7 -10 -10 -34 13 -34 33 0 16 19 30 41 30 5 0 9 -7 9 -15 0 -8 -4 -15 -10 -15 -5 0 -10 -4 -10 -10 0 -5 7 -10 15 -10 11 0 15 11 15 39 0 23 5 41 13 44 6 2 2 2 -10 0 -13 -2 -23 1 -23 7 0 5 5 10 10 10 6 0 10 7 10 16 0 15 2 15 23 1 22 -14 25 -14 40 3 15 17 14 21 -4 43 -10 14 -19 28 -19 31 0 20 -53 85 -72 89 l-23 4 24 8 c23 8 24 9 5 16 -19 7 -19 8 1 8 17 1 20 9 22 51 2 46 0 50 -21 50 -14 0 -27 -9 -34 -24 -10 -22 -62 -43 -62 -25 0 5 5 9 12 9 8 0 9 3 1 11 -13 13 -4 59 11 59 7 0 12 10 10 23 -1 12 -3 26 -3 31 -1 5 -8 3 -16 -4 -10 -8 -19 -9 -27 -3 -15 12 -88 5 -88 -8 0 -5 9 -9 20 -9 17 0 19 -3 11 -18 -8 -14 -23 -19 -70 -20 -37 -1 -61 2 -61 9 0 5 -4 7 -10 4 -5 -3 -10 1 -10 9 0 9 -4 16 -10 16 -5 0 -10 5 -10 11 0 6 6 9 13 6 28 -10 51 9 52 43 1 30 5 35 35 42 63 16 65 17 45 32 -11 8 -16 20 -12 30 4 9 2 16 -3 16 -5 0 -12 -11 -16 -24 -5 -22 -10 -23 -110 -29 -87 -4 -108 -8 -119 -23 -13 -18 -14 -18 -15 -2 0 15 -7 17 -37 13 -21 -3 -39 -9 -41 -15 -4 -12 -87 -12 -152 -1 -25 5 -37 9 -27 10 18 1 25 41 6 41 -5 0 -8 -4 -5 -9 8 -12 -93 -6 -126 7 -16 7 -28 16 -28 22 0 16 -37 11 -44 -6 -3 -9 -12 -14 -20 -11 -9 4 -17 -4 -21 -21 l-7 -27 -9 24 c-7 17 -6 27 3 32 9 6 7 10 -7 15 -11 5 -20 3 -23 -4 -5 -17 -22 -15 -22 2 0 7 -9 16 -21 19 -26 7 -20 32 9 32 11 0 24 4 28 8 4 4 -3 7 -15 7 -13 0 -19 4 -16 10 4 6 15 8 26 5 10 -4 19 -2 19 3 0 16 31 23 46 11 11 -9 14 -8 14 5 0 9 -4 16 -10 16 -5 0 -10 7 -10 15 0 8 -7 15 -15 15 -23 0 -18 18 8 23 19 4 19 4 -5 6 -15 0 -30 6 -33 12 -4 6 -20 7 -38 3 -46 -9 -52 -15 -32 -31 14 -9 15 -13 4 -13 -8 0 -20 -13 -27 -30 -12 -26 -19 -30 -53 -30 -28 0 -39 -4 -39 -15 0 -8 6 -15 14 -15 16 0 29 -27 20 -41 -3 -5 -15 -9 -27 -9 -19 0 -22 5 -21 36 l2 35 -76 -4 c-43 -2 -69 -2 -59 0 9 3 17 11 17 19 0 8 7 14 15 14 8 0 15 -7 15 -15 0 -8 5 -15 10 -15 6 0 10 9 10 20 0 14 7 20 23 20 21 1 21 1 4 14 -13 10 -14 15 -5 18 7 3 2 7 -11 11 -19 5 -22 2 -18 -13 3 -12 0 -17 -8 -14 -7 3 -20 -2 -29 -11 -13 -14 -22 -15 -51 -5 -27 9 -44 9 -71 0 -29 -10 -38 -9 -52 3 -25 21 -69 29 -93 16 -13 -7 -19 -7 -15 -1 3 6 -2 13 -11 15 -11 3 -8 5 10 6 17 1 27 7 27 16 0 14 -12 14 -82 0 -10 -2 -18 1 -18 6 0 5 6 9 14 9 8 0 17 7 20 16 3 8 10 13 15 9 5 -3 12 -1 15 4 8 13 -28 20 -48 9 -20 -11 -31 -5 -21 11 8 14 75 15 75 1 0 -17 43 -50 67 -50 17 0 21 -4 16 -17 -4 -11 4 -7 21 10 16 18 35 27 49 25 12 -1 23 1 24 6 1 5 6 12 13 16 8 5 6 11 -5 20 -10 8 -15 9 -15 1 0 -6 -10 -11 -22 -12 -22 -1 -22 -1 2 -8 24 -7 24 -8 -7 -12 -18 -3 -30 -2 -27 3 3 4 -2 8 -10 8 -9 0 -16 5 -16 10 0 6 -15 10 -32 10 -26 0 -30 3 -18 11 12 8 9 10 -13 6 -15 -2 -30 0 -33 5 -3 4 -10 6 -15 2 -6 -3 -36 -6 -67 -5 -34 0 -59 -5 -64 -12 -5 -8 -8 -4 -8 11 0 13 -6 22 -15 22 -9 0 -18 8 -22 18 -11 30 -35 52 -58 52 -20 0 -41 14 -44 30 -10 40 -16 50 -30 48 -9 -1 -22 1 -28 5 -23 14 -14 27 20 28 30 0 30 1 9 10 -24 9 -22 29 2 29 8 0 16 8 19 19 3 14 0 17 -14 14 -11 -3 -19 -1 -19 5 0 6 -12 9 -27 8 -16 -2 -34 1 -40 6 -9 7 -17 7 -26 0 -10 -9 -12 -4 -9 23 3 22 0 35 -7 35 -7 0 -9 4 -6 10 3 5 3 37 -1 70 -5 49 -10 60 -25 60 -12 0 -16 -5 -13 -15 4 -10 0 -15 -15 -15 -12 0 -24 7 -27 15 -4 10 -20 15 -48 15 -22 1 -59 7 -81 15 -55 20 -55 20 -54 -27 0 -29 3 -37 8 -25 6 15 9 16 17 5 17 -22 35 -93 24 -96 -5 -2 -7 -17 -3 -33 5 -24 2 -29 -14 -29 -15 0 -20 6 -18 24 2 17 -1 23 -10 20 -17 -7 -27 23 -15 47 9 17 7 19 -17 21 -53 2 -58 4 -56 16 2 7 -1 12 -6 12 -4 0 -6 12 -3 26 3 20 2 25 -7 19 -16 -9 -38 21 -46 65 -6 33 -8 34 -21 16 -7 -11 -15 -18 -18 -15 -12 14 -26 51 -26 69 0 14 -8 24 -20 27 -11 3 -23 16 -26 29 -3 13 -12 24 -20 24 -8 0 -14 8 -14 19 0 10 -7 24 -15 31 -8 7 -15 17 -15 22 0 6 -8 22 -18 36 -10 15 -25 43 -32 62 -7 19 -21 47 -31 61 -22 31 -22 69 0 61 9 -3 12 -1 7 6 -4 8 -2 10 8 6 9 -3 17 2 21 15 3 12 11 21 16 21 5 0 9 9 9 20 0 11 5 20 10 20 6 0 10 16 10 35 0 38 -24 95 -40 95 -6 0 -9 3 -9 8 5 32 -30 72 -63 72 -14 0 -35 -9 -48 -20 -12 -11 -26 -17 -31 -15 -15 10 -28 110 -35 260 -3 83 -8 153 -10 156 -2 3 -4 74 -6 157 -2 177 -11 189 -68 95z m1554 -2661 c-35 -7 -39 -22 -6 -22 29 0 32 -3 38 -40 7 -42 19 -49 56 -29 23 13 71 -6 65 -25 -3 -6 3 -19 11 -29 13 -14 14 -22 5 -37 -13 -19 -5 -31 27 -43 10 -4 7 -6 -7 -6 -17 -1 -22 -6 -20 -23 2 -20 -2 -23 -31 -21 -26 1 -31 -2 -22 -12 8 -9 6 -14 -5 -19 -23 -8 -18 -23 11 -30 14 -4 38 -19 53 -35 15 -16 43 -31 62 -34 114 -18 178 -52 87 -45 -28 2 -42 7 -40 16 1 6 -7 12 -18 12 -11 0 -20 -7 -20 -15 0 -21 -30 -19 -31 3 0 15 -1 15 -8 -2 -5 -12 -10 -16 -14 -9 -4 6 -16 9 -26 6 -13 -3 -21 2 -26 16 -3 12 -11 19 -16 16 -5 -4 -9 1 -9 9 0 9 -6 16 -13 16 -7 0 -21 14 -30 30 -10 17 -23 30 -29 30 -5 0 -8 7 -5 14 4 10 1 13 -7 10 -17 -6 -50 42 -35 51 5 4 15 2 22 -4 9 -7 13 -5 13 10 0 17 -6 20 -33 17 -21 -3 -34 1 -38 10 -9 24 -5 34 10 28 16 -6 75 23 75 38 0 4 -20 6 -45 4 -33 -2 -46 1 -50 12 -5 13 -7 13 -15 0 -8 -13 -11 -12 -24 5 -8 11 -25 20 -38 20 -17 0 -24 6 -26 25 -2 22 -1 23 8 7 6 -9 16 -15 21 -12 5 4 7 11 4 16 -4 5 14 9 39 9 51 0 65 23 21 34 -30 8 -33 26 -5 26 11 0 20 6 20 14 0 12 5 12 31 3 24 -9 27 -13 13 -15z m1510 -2013 c-3 -5 -1 -9 5 -9 5 0 18 -3 28 -6 16 -6 16 -5 -2 9 -20 16 -20 16 3 17 12 0 22 -4 22 -10 0 -5 17 -10 37 -10 35 0 36 -1 17 -15 -18 -14 -18 -14 8 -15 23 0 29 -7 43 -49 9 -28 14 -65 11 -88 -4 -29 -1 -45 9 -53 8 -7 15 -20 15 -29 -1 -21 -47 -74 -59 -67 -5 3 -11 -4 -14 -15 -3 -12 -10 -18 -16 -14 -6 3 -11 1 -11 -5 0 -24 32 -22 56 4 27 29 43 32 63 14 11 -11 13 -10 8 5 -4 11 -1 17 7 17 17 0 29 -44 21 -71 -4 -11 -2 -19 4 -19 6 0 11 -7 11 -15 0 -8 -3 -14 -7 -14 -34 5 -45 -2 -39 -26 4 -14 2 -25 -4 -25 -6 0 -10 -29 -10 -71 0 -42 -4 -68 -10 -64 -5 3 -7 12 -3 20 3 8 0 15 -7 15 -8 0 -11 -12 -8 -35 2 -21 0 -35 -7 -35 -6 0 -10 15 -8 38 1 20 0 28 -4 17 -7 -26 -23 -36 -47 -29 -14 5 -18 2 -13 -9 4 -11 0 -13 -16 -9 -34 9 -60 38 -54 61 6 23 -18 51 -26 29 -2 -7 -3 -1 -1 14 4 33 -11 45 -26 21 -9 -15 -10 -11 -7 20 2 30 0 37 -15 37 -16 0 -18 9 -18 73 0 50 -3 67 -10 57 -7 -11 -10 -3 -10 30 0 33 3 41 10 30 8 -12 10 -11 10 5 0 23 32 55 55 55 18 0 20 16 4 26 -6 3 -15 0 -20 -7 -6 -10 -9 -7 -10 11 -1 21 -2 22 -6 5 -10 -39 -23 -39 -23 0 0 36 -1 37 -14 19 -14 -18 -15 -17 -30 18 -9 21 -16 41 -16 45 0 5 -9 14 -20 21 -22 14 -26 42 -8 60 15 15 48 16 48 0 0 -6 3 -8 6 -5 4 4 1 14 -7 23 -13 16 -10 16 34 10 30 -5 47 -4 47 3 0 6 7 8 15 5 8 -4 12 -10 9 -15z" style="fill: rgba(177, 3, 3, 0.68);"/>
    <path d="M4829 6161 c8 -5 11 -16 8 -25 -8 -20 -27 -21 -27 -2 0 8 -4 17 -9 20 -5 4 -7 -3 -4 -14 3 -11 0 -20 -6 -20 -6 0 -10 -6 -8 -12 1 -8 -12 -14 -35 -16 -21 -2 -38 -7 -38 -11 0 -4 16 -5 35 -3 41 5 95 -14 95 -34 0 -9 11 -14 30 -14 24 0 30 -4 30 -21 0 -15 -5 -19 -17 -15 -10 3 -24 2 -31 -3 -23 -14 -2 -38 38 -45 21 -3 46 -13 54 -22 9 -8 24 -14 34 -12 14 3 17 13 14 63 -3 79 -5 83 -47 91 -19 3 -41 14 -48 24 -6 9 -16 18 -22 18 -5 1 -11 10 -13 22 -3 15 2 20 17 20 12 0 21 5 21 10 0 6 -19 10 -42 10 -29 0 -38 -3 -29 -9z" style="fill: rgba(177, 3, 3, 0.68);"/>
    <path d="M5504 5686 c-6 -6 -9 -17 -7 -23 3 -7 -9 -13 -29 -15 -27 -2 -34 -8 -36 -29 -2 -17 2 -27 10 -26 36 1 59 -4 53 -12 -3 -6 3 -15 12 -21 14 -8 8 -10 -27 -5 l-45 5 43 -17 c23 -9 42 -23 42 -31 0 -7 4 -11 10 -7 5 3 7 12 4 20 -6 16 40 40 57 29 5 -3 9 4 9 15 0 14 8 21 28 24 22 3 22 4 -5 3 -24 -1 -38 5 -55 26 -13 16 -24 33 -24 38 -1 6 -2 14 -3 19 -2 15 -25 19 -37 7z" style="fill: rgba(177, 3, 3, 0.68);"/>
  </g>
</svg>